solid adapter
  facet normal 0.995185 0.098017 0.000000
    outer loop
      vertex 28.0000 0.0000 0.0000
      vertex 27.4620 5.4625 0.0000
      vertex 27.4620 5.4625 6.0000
    endloop
  endfacet
  facet normal 0.995185 0.098017 0.000000
    outer loop
      vertex 28.0000 0.0000 0.0000
      vertex 27.4620 5.4625 6.0000
      vertex 28.0000 0.0000 6.0000
    endloop
  endfacet
  facet normal 0.000000 0.000000 1.000000
    outer loop
      vertex 0.0000 0.0000 6.0000
      vertex 28.0000 0.0000 6.0000
      vertex 27.4620 5.4625 6.0000
    endloop
  endfacet
  facet normal 0.000000 0.000000 -1.000000
    outer loop
      vertex 0.0000 0.0000 0.0000
      vertex 27.4620 5.4625 0.0000
      vertex 28.0000 0.0000 0.0000
    endloop
  endfacet
  facet normal 0.956940 0.290285 0.000000
    outer loop
      vertex 27.4620 5.4625 0.0000
      vertex 25.8686 10.7151 0.0000
      vertex 25.8686 10.7151 6.0000
    endloop
  endfacet
  facet normal 0.956940 0.290285 0.000000
    outer loop
      vertex 27.4620 5.4625 0.0000
      vertex 25.8686 10.7151 6.0000
      vertex 27.4620 5.4625 6.0000
    endloop
  endfacet
  facet normal 0.000000 0.000000 1.000000
    outer loop
      vertex 0.0000 0.0000 6.0000
      vertex 27.4620 5.4625 6.0000
      vertex 25.8686 10.7151 6.0000
    endloop
  endfacet
  facet normal 0.000000 0.000000 -1.000000
    outer loop
      vertex 0.0000 0.0000 0.0000
      vertex 25.8686 10.7151 0.0000
      vertex 27.4620 5.4625 0.0000
    endloop
  endfacet
  facet normal 0.881921 0.471397 0.000000
    outer loop
      vertex 25.8686 10.7151 0.0000
      vertex 23.2811 15.5560 0.0000
      vertex 23.2811 15.5560 6.0000
    endloop
  endfacet
  facet normal 0.881921 0.471397 0.000000
    outer loop
      vertex 25.8686 10.7151 0.0000
      vertex 23.2811 15.5560 6.0000
      vertex 25.8686 10.7151 6.0000
    endloop
  endfacet
  facet normal 0.000000 0.000000 1.000000
    outer loop
      vertex 0.0000 0.0000 6.0000
      vertex 25.8686 10.7151 6.0000
      vertex 23.2811 15.5560 6.0000
    endloop
  endfacet
  facet normal 0.000000 0.000000 -1.000000
    outer loop
      vertex 0.0000 0.0000 0.0000
      vertex 23.2811 15.5560 0.0000
      vertex 25.8686 10.7151 0.0000
    endloop
  endfacet
  facet normal 0.773010 0.634393 0.000000
    outer loop
      vertex 23.2811 15.5560 0.0000
      vertex 19.7990 19.7990 0.0000
      vertex 19.7990 19.7990 6.0000
    endloop
  endfacet
  facet normal 0.773010 0.634393 0.000000
    outer loop
      vertex 23.2811 15.5560 0.0000
      vertex 19.7990 19.7990 6.0000
      vertex 23.2811 15.5560 6.0000
    endloop
  endfacet
  facet normal 0.000000 0.000000 1.000000
    outer loop
      vertex 0.0000 0.0000 6.0000
      vertex 23.2811 15.5560 6.0000
      vertex 19.7990 19.7990 6.0000
    endloop
  endfacet
  facet normal 0.000000 0.000000 -1.000000
    outer loop
      vertex 0.0000 0.0000 0.0000
      vertex 19.7990 19.7990 0.0000
      vertex 23.2811 15.5560 0.0000
    endloop
  endfacet
  facet normal 0.634393 0.773010 0.000000
    outer loop
      vertex 19.7990 19.7990 0.0000
      vertex 15.5560 23.2811 0.0000
      vertex 15.5560 23.2811 6.0000
    endloop
  endfacet
  facet normal 0.634393 0.773010 0.000000
    outer loop
      vertex 19.7990 19.7990 0.0000
      vertex 15.5560 23.2811 6.0000
      vertex 19.7990 19.7990 6.0000
    endloop
  endfacet
  facet normal 0.000000 0.000000 1.000000
    outer loop
      vertex 0.0000 0.0000 6.0000
      vertex 19.7990 19.7990 6.0000
      vertex 15.5560 23.2811 6.0000
    endloop
  endfacet
  facet normal 0.000000 0.000000 -1.000000
    outer loop
      vertex 0.0000 0.0000 0.0000
      vertex 15.5560 23.2811 0.0000
      vertex 19.7990 19.7990 0.0000
    endloop
  endfacet
  facet normal 0.471397 0.881921 0.000000
    outer loop
      vertex 15.5560 23.2811 0.0000
      vertex 10.7151 25.8686 0.0000
      vertex 10.7151 25.8686 6.0000
    endloop
  endfacet
  facet normal 0.471397 0.881921 0.000000
    outer loop
      vertex 15.5560 23.2811 0.0000
      vertex 10.7151 25.8686 6.0000
      vertex 15.5560 23.2811 6.0000
    endloop
  endfacet
  facet normal 0.000000 0.000000 1.000000
    outer loop
      vertex 0.0000 0.0000 6.0000
      vertex 15.5560 23.2811 6.0000
      vertex 10.7151 25.8686 6.0000
    endloop
  endfacet
  facet normal 0.000000 0.000000 -1.000000
    outer loop
      vertex 0.0000 0.0000 0.0000
      vertex 10.7151 25.8686 0.0000
      vertex 15.5560 23.2811 0.0000
    endloop
  endfacet
  facet normal 0.290285 0.956940 0.000000
    outer loop
      vertex 10.7151 25.8686 0.0000
      vertex 5.4625 27.4620 0.0000
      vertex 5.4625 27.4620 6.0000
    endloop
  endfacet
  facet normal 0.290285 0.956940 0.000000
    outer loop
      vertex 10.7151 25.8686 0.0000
      vertex 5.4625 27.4620 6.0000
      vertex 10.7151 25.8686 6.0000
    endloop
  endfacet
  facet normal 0.000000 0.000000 1.000000
    outer loop
      vertex 0.0000 0.0000 6.0000
      vertex 10.7151 25.8686 6.0000
      vertex 5.4625 27.4620 6.0000
    endloop
  endfacet
  facet normal 0.000000 0.000000 -1.000000
    outer loop
      vertex 0.0000 0.0000 0.0000
      vertex 5.4625 27.4620 0.0000
      vertex 10.7151 25.8686 0.0000
    endloop
  endfacet
  facet normal 0.098017 0.995185 0.000000
    outer loop
      vertex 5.4625 27.4620 0.0000
      vertex 0.0000 28.0000 0.0000
      vertex 0.0000 28.0000 6.0000
    endloop
  endfacet
  facet normal 0.098017 0.995185 0.000000
    outer loop
      vertex 5.4625 27.4620 0.0000
      vertex 0.0000 28.0000 6.0000
      vertex 5.4625 27.4620 6.0000
    endloop
  endfacet
  facet normal 0.000000 0.000000 1.000000
    outer loop
      vertex 0.0000 0.0000 6.0000
      vertex 5.4625 27.4620 6.0000
      vertex 0.0000 28.0000 6.0000
    endloop
  endfacet
  facet normal 0.000000 0.000000 -1.000000
    outer loop
      vertex 0.0000 0.0000 0.0000
      vertex 0.0000 28.0000 0.0000
      vertex 5.4625 27.4620 0.0000
    endloop
  endfacet
  facet normal -0.098017 0.995185 0.000000
    outer loop
      vertex 0.0000 28.0000 0.0000
      vertex -5.4625 27.4620 0.0000
      vertex -5.4625 27.4620 6.0000
    endloop
  endfacet
  facet normal -0.098017 0.995185 0.000000
    outer loop
      vertex 0.0000 28.0000 0.0000
      vertex -5.4625 27.4620 6.0000
      vertex 0.0000 28.0000 6.0000
    endloop
  endfacet
  facet normal 0.000000 0.000000 1.000000
    outer loop
      vertex 0.0000 0.0000 6.0000
      vertex 0.0000 28.0000 6.0000
      vertex -5.4625 27.4620 6.0000
    endloop
  endfacet
  facet normal 0.000000 0.000000 -1.000000
    outer loop
      vertex 0.0000 0.0000 0.0000
      vertex -5.4625 27.4620 0.0000
      vertex 0.0000 28.0000 0.0000
    endloop
  endfacet
  facet normal -0.290285 0.956940 0.000000
    outer loop
      vertex -5.4625 27.4620 0.0000
      vertex -10.7151 25.8686 0.0000
      vertex -10.7151 25.8686 6.0000
    endloop
  endfacet
  facet normal -0.290285 0.956940 0.000000
    outer loop
      vertex -5.4625 27.4620 0.0000
      vertex -10.7151 25.8686 6.0000
      vertex -5.4625 27.4620 6.0000
    endloop
  endfacet
  facet normal 0.000000 0.000000 1.000000
    outer loop
      vertex 0.0000 0.0000 6.0000
      vertex -5.4625 27.4620 6.0000
      vertex -10.7151 25.8686 6.0000
    endloop
  endfacet
  facet normal 0.000000 0.000000 -1.000000
    outer loop
      vertex 0.0000 0.0000 0.0000
      vertex -10.7151 25.8686 0.0000
      vertex -5.4625 27.4620 0.0000
    endloop
  endfacet
  facet normal -0.471397 0.881921 0.000000
    outer loop
      vertex -10.7151 25.8686 0.0000
      vertex -15.5560 23.2811 0.0000
      vertex -15.5560 23.2811 6.0000
    endloop
  endfacet
  facet normal -0.471397 0.881921 0.000000
    outer loop
      vertex -10.7151 25.8686 0.0000
      vertex -15.5560 23.2811 6.0000
      vertex -10.7151 25.8686 6.0000
    endloop
  endfacet
  facet normal 0.000000 0.000000 1.000000
    outer loop
      vertex 0.0000 0.0000 6.0000
      vertex -10.7151 25.8686 6.0000
      vertex -15.5560 23.2811 6.0000
    endloop
  endfacet
  facet normal 0.000000 0.000000 -1.000000
    outer loop
      vertex 0.0000 0.0000 0.0000
      vertex -15.5560 23.2811 0.0000
      vertex -10.7151 25.8686 0.0000
    endloop
  endfacet
  facet normal -0.634393 0.773010 0.000000
    outer loop
      vertex -15.5560 23.2811 0.0000
      vertex -19.7990 19.7990 0.0000
      vertex -19.7990 19.7990 6.0000
    endloop
  endfacet
  facet normal -0.634393 0.773010 0.000000
    outer loop
      vertex -15.5560 23.2811 0.0000
      vertex -19.7990 19.7990 6.0000
      vertex -15.5560 23.2811 6.0000
    endloop
  endfacet
  facet normal 0.000000 0.000000 1.000000
    outer loop
      vertex 0.0000 0.0000 6.0000
      vertex -15.5560 23.2811 6.0000
      vertex -19.7990 19.7990 6.0000
    endloop
  endfacet
  facet normal 0.000000 0.000000 -1.000000
    outer loop
      vertex 0.0000 0.0000 0.0000
      vertex -19.7990 19.7990 0.0000
      vertex -15.5560 23.2811 0.0000
    endloop
  endfacet
  facet normal -0.773010 0.634393 0.000000
    outer loop
      vertex -19.7990 19.7990 0.0000
      vertex -23.2811 15.5560 0.0000
      vertex -23.2811 15.5560 6.0000
    endloop
  endfacet
  facet normal -0.773010 0.634393 0.000000
    outer loop
      vertex -19.7990 19.7990 0.0000
      vertex -23.2811 15.5560 6.0000
      vertex -19.7990 19.7990 6.0000
    endloop
  endfacet
  facet normal 0.000000 0.000000 1.000000
    outer loop
      vertex 0.0000 0.0000 6.0000
      vertex -19.7990 19.7990 6.0000
      vertex -23.2811 15.5560 6.0000
    endloop
  endfacet
  facet normal 0.000000 0.000000 -1.000000
    outer loop
      vertex 0.0000 0.0000 0.0000
      vertex -23.2811 15.5560 0.0000
      vertex -19.7990 19.7990 0.0000
    endloop
  endfacet
  facet normal -0.881921 0.471397 0.000000
    outer loop
      vertex -23.2811 15.5560 0.0000
      vertex -25.8686 10.7151 0.0000
      vertex -25.8686 10.7151 6.0000
    endloop
  endfacet
  facet normal -0.881921 0.471397 0.000000
    outer loop
      vertex -23.2811 15.5560 0.0000
      vertex -25.8686 10.7151 6.0000
      vertex -23.2811 15.5560 6.0000
    endloop
  endfacet
  facet normal 0.000000 0.000000 1.000000
    outer loop
      vertex 0.0000 0.0000 6.0000
      vertex -23.2811 15.5560 6.0000
      vertex -25.8686 10.7151 6.0000
    endloop
  endfacet
  facet normal 0.000000 0.000000 -1.000000
    outer loop
      vertex 0.0000 0.0000 0.0000
      vertex -25.8686 10.7151 0.0000
      vertex -23.2811 15.5560 0.0000
    endloop
  endfacet
  facet normal -0.956940 0.290285 0.000000
    outer loop
      vertex -25.8686 10.7151 0.0000
      vertex -27.4620 5.4625 0.0000
      vertex -27.4620 5.4625 6.0000
    endloop
  endfacet
  facet normal -0.956940 0.290285 0.000000
    outer loop
      vertex -25.8686 10.7151 0.0000
      vertex -27.4620 5.4625 6.0000
      vertex -25.8686 10.7151 6.0000
    endloop
  endfacet
  facet normal 0.000000 0.000000 1.000000
    outer loop
      vertex 0.0000 0.0000 6.0000
      vertex -25.8686 10.7151 6.0000
      vertex -27.4620 5.4625 6.0000
    endloop
  endfacet
  facet normal 0.000000 0.000000 -1.000000
    outer loop
      vertex 0.0000 0.0000 0.0000
      vertex -27.4620 5.4625 0.0000
      vertex -25.8686 10.7151 0.0000
    endloop
  endfacet
  facet normal -0.995185 0.098017 0.000000
    outer loop
      vertex -27.4620 5.4625 0.0000
      vertex -28.0000 0.0000 0.0000
      vertex -28.0000 0.0000 6.0000
    endloop
  endfacet
  facet normal -0.995185 0.098017 0.000000
    outer loop
      vertex -27.4620 5.4625 0.0000
      vertex -28.0000 0.0000 6.0000
      vertex -27.4620 5.4625 6.0000
    endloop
  endfacet
  facet normal 0.000000 0.000000 1.000000
    outer loop
      vertex 0.0000 0.0000 6.0000
      vertex -27.4620 5.4625 6.0000
      vertex -28.0000 0.0000 6.0000
    endloop
  endfacet
  facet normal 0.000000 0.000000 -1.000000
    outer loop
      vertex 0.0000 0.0000 0.0000
      vertex -28.0000 0.0000 0.0000
      vertex -27.4620 5.4625 0.0000
    endloop
  endfacet
  facet normal -0.995185 -0.098017 0.000000
    outer loop
      vertex -28.0000 0.0000 0.0000
      vertex -27.4620 -5.4625 0.0000
      vertex -27.4620 -5.4625 6.0000
    endloop
  endfacet
  facet normal -0.995185 -0.098017 0.000000
    outer loop
      vertex -28.0000 0.0000 0.0000
      vertex -27.4620 -5.4625 6.0000
      vertex -28.0000 0.0000 6.0000
    endloop
  endfacet
  facet normal 0.000000 0.000000 1.000000
    outer loop
      vertex 0.0000 0.0000 6.0000
      vertex -28.0000 0.0000 6.0000
      vertex -27.4620 -5.4625 6.0000
    endloop
  endfacet
  facet normal 0.000000 0.000000 -1.000000
    outer loop
      vertex 0.0000 0.0000 0.0000
      vertex -27.4620 -5.4625 0.0000
      vertex -28.0000 0.0000 0.0000
    endloop
  endfacet
  facet normal -0.956940 -0.290285 0.000000
    outer loop
      vertex -27.4620 -5.4625 0.0000
      vertex -25.8686 -10.7151 0.0000
      vertex -25.8686 -10.7151 6.0000
    endloop
  endfacet
  facet normal -0.956940 -0.290285 0.000000
    outer loop
      vertex -27.4620 -5.4625 0.0000
      vertex -25.8686 -10.7151 6.0000
      vertex -27.4620 -5.4625 6.0000
    endloop
  endfacet
  facet normal 0.000000 0.000000 1.000000
    outer loop
      vertex 0.0000 0.0000 6.0000
      vertex -27.4620 -5.4625 6.0000
      vertex -25.8686 -10.7151 6.0000
    endloop
  endfacet
  facet normal 0.000000 0.000000 -1.000000
    outer loop
      vertex 0.0000 0.0000 0.0000
      vertex -25.8686 -10.7151 0.0000
      vertex -27.4620 -5.4625 0.0000
    endloop
  endfacet
  facet normal -0.881921 -0.471397 0.000000
    outer loop
      vertex -25.8686 -10.7151 0.0000
      vertex -23.2811 -15.5560 0.0000
      vertex -23.2811 -15.5560 6.0000
    endloop
  endfacet
  facet normal -0.881921 -0.471397 0.000000
    outer loop
      vertex -25.8686 -10.7151 0.0000
      vertex -23.2811 -15.5560 6.0000
      vertex -25.8686 -10.7151 6.0000
    endloop
  endfacet
  facet normal 0.000000 0.000000 1.000000
    outer loop
      vertex 0.0000 0.0000 6.0000
      vertex -25.8686 -10.7151 6.0000
      vertex -23.2811 -15.5560 6.0000
    endloop
  endfacet
  facet normal 0.000000 0.000000 -1.000000
    outer loop
      vertex 0.0000 0.0000 0.0000
      vertex -23.2811 -15.5560 0.0000
      vertex -25.8686 -10.7151 0.0000
    endloop
  endfacet
  facet normal -0.773010 -0.634393 0.000000
    outer loop
      vertex -23.2811 -15.5560 0.0000
      vertex -19.7990 -19.7990 0.0000
      vertex -19.7990 -19.7990 6.0000
    endloop
  endfacet
  facet normal -0.773010 -0.634393 0.000000
    outer loop
      vertex -23.2811 -15.5560 0.0000
      vertex -19.7990 -19.7990 6.0000
      vertex -23.2811 -15.5560 6.0000
    endloop
  endfacet
  facet normal 0.000000 0.000000 1.000000
    outer loop
      vertex 0.0000 0.0000 6.0000
      vertex -23.2811 -15.5560 6.0000
      vertex -19.7990 -19.7990 6.0000
    endloop
  endfacet
  facet normal 0.000000 0.000000 -1.000000
    outer loop
      vertex 0.0000 0.0000 0.0000
      vertex -19.7990 -19.7990 0.0000
      vertex -23.2811 -15.5560 0.0000
    endloop
  endfacet
  facet normal -0.634393 -0.773010 0.000000
    outer loop
      vertex -19.7990 -19.7990 0.0000
      vertex -15.5560 -23.2811 0.0000
      vertex -15.5560 -23.2811 6.0000
    endloop
  endfacet
  facet normal -0.634393 -0.773010 0.000000
    outer loop
      vertex -19.7990 -19.7990 0.0000
      vertex -15.5560 -23.2811 6.0000
      vertex -19.7990 -19.7990 6.0000
    endloop
  endfacet
  facet normal 0.000000 0.000000 1.000000
    outer loop
      vertex 0.0000 0.0000 6.0000
      vertex -19.7990 -19.7990 6.0000
      vertex -15.5560 -23.2811 6.0000
    endloop
  endfacet
  facet normal 0.000000 0.000000 -1.000000
    outer loop
      vertex 0.0000 0.0000 0.0000
      vertex -15.5560 -23.2811 0.0000
      vertex -19.7990 -19.7990 0.0000
    endloop
  endfacet
  facet normal -0.471397 -0.881921 0.000000
    outer loop
      vertex -15.5560 -23.2811 0.0000
      vertex -10.7151 -25.8686 0.0000
      vertex -10.7151 -25.8686 6.0000
    endloop
  endfacet
  facet normal -0.471397 -0.881921 0.000000
    outer loop
      vertex -15.5560 -23.2811 0.0000
      vertex -10.7151 -25.8686 6.0000
      vertex -15.5560 -23.2811 6.0000
    endloop
  endfacet
  facet normal 0.000000 0.000000 1.000000
    outer loop
      vertex 0.0000 0.0000 6.0000
      vertex -15.5560 -23.2811 6.0000
      vertex -10.7151 -25.8686 6.0000
    endloop
  endfacet
  facet normal 0.000000 0.000000 -1.000000
    outer loop
      vertex 0.0000 0.0000 0.0000
      vertex -10.7151 -25.8686 0.0000
      vertex -15.5560 -23.2811 0.0000
    endloop
  endfacet
  facet normal -0.290285 -0.956940 0.000000
    outer loop
      vertex -10.7151 -25.8686 0.0000
      vertex -5.4625 -27.4620 0.0000
      vertex -5.4625 -27.4620 6.0000
    endloop
  endfacet
  facet normal -0.290285 -0.956940 0.000000
    outer loop
      vertex -10.7151 -25.8686 0.0000
      vertex -5.4625 -27.4620 6.0000
      vertex -10.7151 -25.8686 6.0000
    endloop
  endfacet
  facet normal 0.000000 0.000000 1.000000
    outer loop
      vertex 0.0000 0.0000 6.0000
      vertex -10.7151 -25.8686 6.0000
      vertex -5.4625 -27.4620 6.0000
    endloop
  endfacet
  facet normal 0.000000 0.000000 -1.000000
    outer loop
      vertex 0.0000 0.0000 0.0000
      vertex -5.4625 -27.4620 0.0000
      vertex -10.7151 -25.8686 0.0000
    endloop
  endfacet
  facet normal -0.098017 -0.995185 0.000000
    outer loop
      vertex -5.4625 -27.4620 0.0000
      vertex -0.0000 -28.0000 0.0000
      vertex -0.0000 -28.0000 6.0000
    endloop
  endfacet
  facet normal -0.098017 -0.995185 0.000000
    outer loop
      vertex -5.4625 -27.4620 0.0000
      vertex -0.0000 -28.0000 6.0000
      vertex -5.4625 -27.4620 6.0000
    endloop
  endfacet
  facet normal 0.000000 0.000000 1.000000
    outer loop
      vertex 0.0000 0.0000 6.0000
      vertex -5.4625 -27.4620 6.0000
      vertex -0.0000 -28.0000 6.0000
    endloop
  endfacet
  facet normal 0.000000 0.000000 -1.000000
    outer loop
      vertex 0.0000 0.0000 0.0000
      vertex -0.0000 -28.0000 0.0000
      vertex -5.4625 -27.4620 0.0000
    endloop
  endfacet
  facet normal 0.098017 -0.995185 0.000000
    outer loop
      vertex -0.0000 -28.0000 0.0000
      vertex 5.4625 -27.4620 0.0000
      vertex 5.4625 -27.4620 6.0000
    endloop
  endfacet
  facet normal 0.098017 -0.995185 0.000000
    outer loop
      vertex -0.0000 -28.0000 0.0000
      vertex 5.4625 -27.4620 6.0000
      vertex -0.0000 -28.0000 6.0000
    endloop
  endfacet
  facet normal 0.000000 0.000000 1.000000
    outer loop
      vertex 0.0000 0.0000 6.0000
      vertex -0.0000 -28.0000 6.0000
      vertex 5.4625 -27.4620 6.0000
    endloop
  endfacet
  facet normal 0.000000 0.000000 -1.000000
    outer loop
      vertex 0.0000 0.0000 0.0000
      vertex 5.4625 -27.4620 0.0000
      vertex -0.0000 -28.0000 0.0000
    endloop
  endfacet
  facet normal 0.290285 -0.956940 0.000000
    outer loop
      vertex 5.4625 -27.4620 0.0000
      vertex 10.7151 -25.8686 0.0000
      vertex 10.7151 -25.8686 6.0000
    endloop
  endfacet
  facet normal 0.290285 -0.956940 0.000000
    outer loop
      vertex 5.4625 -27.4620 0.0000
      vertex 10.7151 -25.8686 6.0000
      vertex 5.4625 -27.4620 6.0000
    endloop
  endfacet
  facet normal 0.000000 0.000000 1.000000
    outer loop
      vertex 0.0000 0.0000 6.0000
      vertex 5.4625 -27.4620 6.0000
      vertex 10.7151 -25.8686 6.0000
    endloop
  endfacet
  facet normal 0.000000 0.000000 -1.000000
    outer loop
      vertex 0.0000 0.0000 0.0000
      vertex 10.7151 -25.8686 0.0000
      vertex 5.4625 -27.4620 0.0000
    endloop
  endfacet
  facet normal 0.471397 -0.881921 0.000000
    outer loop
      vertex 10.7151 -25.8686 0.0000
      vertex 15.5560 -23.2811 0.0000
      vertex 15.5560 -23.2811 6.0000
    endloop
  endfacet
  facet normal 0.471397 -0.881921 0.000000
    outer loop
      vertex 10.7151 -25.8686 0.0000
      vertex 15.5560 -23.2811 6.0000
      vertex 10.7151 -25.8686 6.0000
    endloop
  endfacet
  facet normal 0.000000 0.000000 1.000000
    outer loop
      vertex 0.0000 0.0000 6.0000
      vertex 10.7151 -25.8686 6.0000
      vertex 15.5560 -23.2811 6.0000
    endloop
  endfacet
  facet normal 0.000000 0.000000 -1.000000
    outer loop
      vertex 0.0000 0.0000 0.0000
      vertex 15.5560 -23.2811 0.0000
      vertex 10.7151 -25.8686 0.0000
    endloop
  endfacet
  facet normal 0.634393 -0.773010 0.000000
    outer loop
      vertex 15.5560 -23.2811 0.0000
      vertex 19.7990 -19.7990 0.0000
      vertex 19.7990 -19.7990 6.0000
    endloop
  endfacet
  facet normal 0.634393 -0.773010 0.000000
    outer loop
      vertex 15.5560 -23.2811 0.0000
      vertex 19.7990 -19.7990 6.0000
      vertex 15.5560 -23.2811 6.0000
    endloop
  endfacet
  facet normal 0.000000 0.000000 1.000000
    outer loop
      vertex 0.0000 0.0000 6.0000
      vertex 15.5560 -23.2811 6.0000
      vertex 19.7990 -19.7990 6.0000
    endloop
  endfacet
  facet normal 0.000000 0.000000 -1.000000
    outer loop
      vertex 0.0000 0.0000 0.0000
      vertex 19.7990 -19.7990 0.0000
      vertex 15.5560 -23.2811 0.0000
    endloop
  endfacet
  facet normal 0.773010 -0.634393 0.000000
    outer loop
      vertex 19.7990 -19.7990 0.0000
      vertex 23.2811 -15.5560 0.0000
      vertex 23.2811 -15.5560 6.0000
    endloop
  endfacet
  facet normal 0.773010 -0.634393 0.000000
    outer loop
      vertex 19.7990 -19.7990 0.0000
      vertex 23.2811 -15.5560 6.0000
      vertex 19.7990 -19.7990 6.0000
    endloop
  endfacet
  facet normal 0.000000 0.000000 1.000000
    outer loop
      vertex 0.0000 0.0000 6.0000
      vertex 19.7990 -19.7990 6.0000
      vertex 23.2811 -15.5560 6.0000
    endloop
  endfacet
  facet normal 0.000000 0.000000 -1.000000
    outer loop
      vertex 0.0000 0.0000 0.0000
      vertex 23.2811 -15.5560 0.0000
      vertex 19.7990 -19.7990 0.0000
    endloop
  endfacet
  facet normal 0.881921 -0.471397 0.000000
    outer loop
      vertex 23.2811 -15.5560 0.0000
      vertex 25.8686 -10.7151 0.0000
      vertex 25.8686 -10.7151 6.0000
    endloop
  endfacet
  facet normal 0.881921 -0.471397 0.000000
    outer loop
      vertex 23.2811 -15.5560 0.0000
      vertex 25.8686 -10.7151 6.0000
      vertex 23.2811 -15.5560 6.0000
    endloop
  endfacet
  facet normal 0.000000 0.000000 1.000000
    outer loop
      vertex 0.0000 0.0000 6.0000
      vertex 23.2811 -15.5560 6.0000
      vertex 25.8686 -10.7151 6.0000
    endloop
  endfacet
  facet normal 0.000000 0.000000 -1.000000
    outer loop
      vertex 0.0000 0.0000 0.0000
      vertex 25.8686 -10.7151 0.0000
      vertex 23.2811 -15.5560 0.0000
    endloop
  endfacet
  facet normal 0.956940 -0.290285 0.000000
    outer loop
      vertex 25.8686 -10.7151 0.0000
      vertex 27.4620 -5.4625 0.0000
      vertex 27.4620 -5.4625 6.0000
    endloop
  endfacet
  facet normal 0.956940 -0.290285 0.000000
    outer loop
      vertex 25.8686 -10.7151 0.0000
      vertex 27.4620 -5.4625 6.0000
      vertex 25.8686 -10.7151 6.0000
    endloop
  endfacet
  facet normal 0.000000 0.000000 1.000000
    outer loop
      vertex 0.0000 0.0000 6.0000
      vertex 25.8686 -10.7151 6.0000
      vertex 27.4620 -5.4625 6.0000
    endloop
  endfacet
  facet normal 0.000000 0.000000 -1.000000
    outer loop
      vertex 0.0000 0.0000 0.0000
      vertex 27.4620 -5.4625 0.0000
      vertex 25.8686 -10.7151 0.0000
    endloop
  endfacet
  facet normal 0.995185 -0.098017 0.000000
    outer loop
      vertex 27.4620 -5.4625 0.0000
      vertex 28.0000 -0.0000 0.0000
      vertex 28.0000 -0.0000 6.0000
    endloop
  endfacet
  facet normal 0.995185 -0.098017 0.000000
    outer loop
      vertex 27.4620 -5.4625 0.0000
      vertex 28.0000 -0.0000 6.0000
      vertex 27.4620 -5.4625 6.0000
    endloop
  endfacet
  facet normal 0.000000 0.000000 1.000000
    outer loop
      vertex 0.0000 0.0000 6.0000
      vertex 27.4620 -5.4625 6.0000
      vertex 28.0000 -0.0000 6.0000
    endloop
  endfacet
  facet normal 0.000000 0.000000 -1.000000
    outer loop
      vertex 0.0000 0.0000 0.0000
      vertex 28.0000 -0.0000 0.0000
      vertex 27.4620 -5.4625 0.0000
    endloop
  endfacet
  facet normal 0.000000 0.000000 -1.000000
    outer loop
      vertex -14.0000 0.0000 6.0000
      vertex 14.0000 0.0000 6.0000
      vertex 14.0000 16.0000 6.0000
    endloop
  endfacet
  facet normal 0.000000 0.000000 -1.000000
    outer loop
      vertex -14.0000 0.0000 6.0000
      vertex 14.0000 16.0000 6.0000
      vertex -14.0000 16.0000 6.0000
    endloop
  endfacet
  facet normal 0.000000 0.000000 1.000000
    outer loop
      vertex -14.0000 0.0000 10.0000
      vertex 14.0000 16.0000 10.0000
      vertex 14.0000 0.0000 10.0000
    endloop
  endfacet
  facet normal 0.000000 0.000000 1.000000
    outer loop
      vertex -14.0000 0.0000 10.0000
      vertex -14.0000 16.0000 10.0000
      vertex 14.0000 16.0000 10.0000
    endloop
  endfacet
  facet normal 0.000000 -1.000000 0.000000
    outer loop
      vertex -14.0000 0.0000 6.0000
      vertex -14.0000 0.0000 10.0000
      vertex 14.0000 0.0000 10.0000
    endloop
  endfacet
  facet normal 0.000000 -1.000000 0.000000
    outer loop
      vertex -14.0000 0.0000 6.0000
      vertex 14.0000 0.0000 10.0000
      vertex 14.0000 0.0000 6.0000
    endloop
  endfacet
  facet normal 0.000000 1.000000 0.000000
    outer loop
      vertex 14.0000 16.0000 6.0000
      vertex 14.0000 16.0000 10.0000
      vertex -14.0000 16.0000 10.0000
    endloop
  endfacet
  facet normal 0.000000 1.000000 0.000000
    outer loop
      vertex 14.0000 16.0000 6.0000
      vertex -14.0000 16.0000 10.0000
      vertex -14.0000 16.0000 6.0000
    endloop
  endfacet
  facet normal -1.000000 0.000000 0.000000
    outer loop
      vertex -14.0000 0.0000 6.0000
      vertex -14.0000 16.0000 6.0000
      vertex -14.0000 16.0000 10.0000
    endloop
  endfacet
  facet normal -1.000000 0.000000 0.000000
    outer loop
      vertex -14.0000 0.0000 6.0000
      vertex -14.0000 16.0000 10.0000
      vertex -14.0000 0.0000 10.0000
    endloop
  endfacet
  facet normal 1.000000 0.000000 0.000000
    outer loop
      vertex 14.0000 0.0000 6.0000
      vertex 14.0000 0.0000 10.0000
      vertex 14.0000 16.0000 10.0000
    endloop
  endfacet
  facet normal 1.000000 0.000000 0.000000
    outer loop
      vertex 14.0000 0.0000 6.0000
      vertex 14.0000 16.0000 10.0000
      vertex 14.0000 16.0000 6.0000
    endloop
  endfacet
  facet normal 0.000000 0.000000 -1.000000
    outer loop
      vertex -21.0000 10.0000 10.0000
      vertex 21.0000 10.0000 10.0000
      vertex 21.0000 32.0000 10.0000
    endloop
  endfacet
  facet normal 0.000000 0.000000 -1.000000
    outer loop
      vertex -21.0000 10.0000 10.0000
      vertex 21.0000 32.0000 10.0000
      vertex -21.0000 32.0000 10.0000
    endloop
  endfacet
  facet normal 0.000000 0.000000 1.000000
    outer loop
      vertex -21.0000 10.0000 14.0000
      vertex 21.0000 32.0000 14.0000
      vertex 21.0000 10.0000 14.0000
    endloop
  endfacet
  facet normal 0.000000 0.000000 1.000000
    outer loop
      vertex -21.0000 10.0000 14.0000
      vertex -21.0000 32.0000 14.0000
      vertex 21.0000 32.0000 14.0000
    endloop
  endfacet
  facet normal 0.000000 -1.000000 0.000000
    outer loop
      vertex -21.0000 10.0000 10.0000
      vertex -21.0000 10.0000 14.0000
      vertex 21.0000 10.0000 14.0000
    endloop
  endfacet
  facet normal 0.000000 -1.000000 0.000000
    outer loop
      vertex -21.0000 10.0000 10.0000
      vertex 21.0000 10.0000 14.0000
      vertex 21.0000 10.0000 10.0000
    endloop
  endfacet
  facet normal 0.000000 1.000000 0.000000
    outer loop
      vertex 21.0000 32.0000 10.0000
      vertex 21.0000 32.0000 14.0000
      vertex -21.0000 32.0000 14.0000
    endloop
  endfacet
  facet normal 0.000000 1.000000 0.000000
    outer loop
      vertex 21.0000 32.0000 10.0000
      vertex -21.0000 32.0000 14.0000
      vertex -21.0000 32.0000 10.0000
    endloop
  endfacet
  facet normal -1.000000 0.000000 0.000000
    outer loop
      vertex -21.0000 10.0000 10.0000
      vertex -21.0000 32.0000 10.0000
      vertex -21.0000 32.0000 14.0000
    endloop
  endfacet
  facet normal -1.000000 0.000000 0.000000
    outer loop
      vertex -21.0000 10.0000 10.0000
      vertex -21.0000 32.0000 14.0000
      vertex -21.0000 10.0000 14.0000
    endloop
  endfacet
  facet normal 1.000000 0.000000 0.000000
    outer loop
      vertex 21.0000 10.0000 10.0000
      vertex 21.0000 10.0000 14.0000
      vertex 21.0000 32.0000 14.0000
    endloop
  endfacet
  facet normal 1.000000 0.000000 0.000000
    outer loop
      vertex 21.0000 10.0000 10.0000
      vertex 21.0000 32.0000 14.0000
      vertex 21.0000 32.0000 10.0000
    endloop
  endfacet
  facet normal 0.965926 0.258819 0.000000
    outer loop
      vertex -13.5000 16.0000 14.0000
      vertex -13.7679 17.0000 14.0000
      vertex -13.7679 17.0000 17.0000
    endloop
  endfacet
  facet normal 0.965926 0.258819 0.000000
    outer loop
      vertex -13.5000 16.0000 14.0000
      vertex -13.7679 17.0000 17.0000
      vertex -13.5000 16.0000 17.0000
    endloop
  endfacet
  facet normal 0.000000 0.000000 1.000000
    outer loop
      vertex -15.5000 16.0000 17.0000
      vertex -13.5000 16.0000 17.0000
      vertex -13.7679 17.0000 17.0000
    endloop
  endfacet
  facet normal 0.000000 0.000000 -1.000000
    outer loop
      vertex -15.5000 16.0000 14.0000
      vertex -13.7679 17.0000 14.0000
      vertex -13.5000 16.0000 14.0000
    endloop
  endfacet
  facet normal 0.707107 0.707107 0.000000
    outer loop
      vertex -13.7679 17.0000 14.0000
      vertex -14.5000 17.7321 14.0000
      vertex -14.5000 17.7321 17.0000
    endloop
  endfacet
  facet normal 0.707107 0.707107 0.000000
    outer loop
      vertex -13.7679 17.0000 14.0000
      vertex -14.5000 17.7321 17.0000
      vertex -13.7679 17.0000 17.0000
    endloop
  endfacet
  facet normal 0.000000 0.000000 1.000000
    outer loop
      vertex -15.5000 16.0000 17.0000
      vertex -13.7679 17.0000 17.0000
      vertex -14.5000 17.7321 17.0000
    endloop
  endfacet
  facet normal 0.000000 0.000000 -1.000000
    outer loop
      vertex -15.5000 16.0000 14.0000
      vertex -14.5000 17.7321 14.0000
      vertex -13.7679 17.0000 14.0000
    endloop
  endfacet
  facet normal 0.258819 0.965926 0.000000
    outer loop
      vertex -14.5000 17.7321 14.0000
      vertex -15.5000 18.0000 14.0000
      vertex -15.5000 18.0000 17.0000
    endloop
  endfacet
  facet normal 0.258819 0.965926 0.000000
    outer loop
      vertex -14.5000 17.7321 14.0000
      vertex -15.5000 18.0000 17.0000
      vertex -14.5000 17.7321 17.0000
    endloop
  endfacet
  facet normal 0.000000 0.000000 1.000000
    outer loop
      vertex -15.5000 16.0000 17.0000
      vertex -14.5000 17.7321 17.0000
      vertex -15.5000 18.0000 17.0000
    endloop
  endfacet
  facet normal 0.000000 0.000000 -1.000000
    outer loop
      vertex -15.5000 16.0000 14.0000
      vertex -15.5000 18.0000 14.0000
      vertex -14.5000 17.7321 14.0000
    endloop
  endfacet
  facet normal -0.258819 0.965926 0.000000
    outer loop
      vertex -15.5000 18.0000 14.0000
      vertex -16.5000 17.7321 14.0000
      vertex -16.5000 17.7321 17.0000
    endloop
  endfacet
  facet normal -0.258819 0.965926 0.000000
    outer loop
      vertex -15.5000 18.0000 14.0000
      vertex -16.5000 17.7321 17.0000
      vertex -15.5000 18.0000 17.0000
    endloop
  endfacet
  facet normal 0.000000 0.000000 1.000000
    outer loop
      vertex -15.5000 16.0000 17.0000
      vertex -15.5000 18.0000 17.0000
      vertex -16.5000 17.7321 17.0000
    endloop
  endfacet
  facet normal 0.000000 0.000000 -1.000000
    outer loop
      vertex -15.5000 16.0000 14.0000
      vertex -16.5000 17.7321 14.0000
      vertex -15.5000 18.0000 14.0000
    endloop
  endfacet
  facet normal -0.707107 0.707107 0.000000
    outer loop
      vertex -16.5000 17.7321 14.0000
      vertex -17.2321 17.0000 14.0000
      vertex -17.2321 17.0000 17.0000
    endloop
  endfacet
  facet normal -0.707107 0.707107 0.000000
    outer loop
      vertex -16.5000 17.7321 14.0000
      vertex -17.2321 17.0000 17.0000
      vertex -16.5000 17.7321 17.0000
    endloop
  endfacet
  facet normal 0.000000 0.000000 1.000000
    outer loop
      vertex -15.5000 16.0000 17.0000
      vertex -16.5000 17.7321 17.0000
      vertex -17.2321 17.0000 17.0000
    endloop
  endfacet
  facet normal 0.000000 0.000000 -1.000000
    outer loop
      vertex -15.5000 16.0000 14.0000
      vertex -17.2321 17.0000 14.0000
      vertex -16.5000 17.7321 14.0000
    endloop
  endfacet
  facet normal -0.965926 0.258819 0.000000
    outer loop
      vertex -17.2321 17.0000 14.0000
      vertex -17.5000 16.0000 14.0000
      vertex -17.5000 16.0000 17.0000
    endloop
  endfacet
  facet normal -0.965926 0.258819 0.000000
    outer loop
      vertex -17.2321 17.0000 14.0000
      vertex -17.5000 16.0000 17.0000
      vertex -17.2321 17.0000 17.0000
    endloop
  endfacet
  facet normal 0.000000 0.000000 1.000000
    outer loop
      vertex -15.5000 16.0000 17.0000
      vertex -17.2321 17.0000 17.0000
      vertex -17.5000 16.0000 17.0000
    endloop
  endfacet
  facet normal 0.000000 0.000000 -1.000000
    outer loop
      vertex -15.5000 16.0000 14.0000
      vertex -17.5000 16.0000 14.0000
      vertex -17.2321 17.0000 14.0000
    endloop
  endfacet
  facet normal -0.965926 -0.258819 0.000000
    outer loop
      vertex -17.5000 16.0000 14.0000
      vertex -17.2321 15.0000 14.0000
      vertex -17.2321 15.0000 17.0000
    endloop
  endfacet
  facet normal -0.965926 -0.258819 0.000000
    outer loop
      vertex -17.5000 16.0000 14.0000
      vertex -17.2321 15.0000 17.0000
      vertex -17.5000 16.0000 17.0000
    endloop
  endfacet
  facet normal 0.000000 0.000000 1.000000
    outer loop
      vertex -15.5000 16.0000 17.0000
      vertex -17.5000 16.0000 17.0000
      vertex -17.2321 15.0000 17.0000
    endloop
  endfacet
  facet normal 0.000000 0.000000 -1.000000
    outer loop
      vertex -15.5000 16.0000 14.0000
      vertex -17.2321 15.0000 14.0000
      vertex -17.5000 16.0000 14.0000
    endloop
  endfacet
  facet normal -0.707107 -0.707107 0.000000
    outer loop
      vertex -17.2321 15.0000 14.0000
      vertex -16.5000 14.2679 14.0000
      vertex -16.5000 14.2679 17.0000
    endloop
  endfacet
  facet normal -0.707107 -0.707107 0.000000
    outer loop
      vertex -17.2321 15.0000 14.0000
      vertex -16.5000 14.2679 17.0000
      vertex -17.2321 15.0000 17.0000
    endloop
  endfacet
  facet normal 0.000000 0.000000 1.000000
    outer loop
      vertex -15.5000 16.0000 17.0000
      vertex -17.2321 15.0000 17.0000
      vertex -16.5000 14.2679 17.0000
    endloop
  endfacet
  facet normal 0.000000 0.000000 -1.000000
    outer loop
      vertex -15.5000 16.0000 14.0000
      vertex -16.5000 14.2679 14.0000
      vertex -17.2321 15.0000 14.0000
    endloop
  endfacet
  facet normal -0.258819 -0.965926 0.000000
    outer loop
      vertex -16.5000 14.2679 14.0000
      vertex -15.5000 14.0000 14.0000
      vertex -15.5000 14.0000 17.0000
    endloop
  endfacet
  facet normal -0.258819 -0.965926 0.000000
    outer loop
      vertex -16.5000 14.2679 14.0000
      vertex -15.5000 14.0000 17.0000
      vertex -16.5000 14.2679 17.0000
    endloop
  endfacet
  facet normal 0.000000 0.000000 1.000000
    outer loop
      vertex -15.5000 16.0000 17.0000
      vertex -16.5000 14.2679 17.0000
      vertex -15.5000 14.0000 17.0000
    endloop
  endfacet
  facet normal 0.000000 0.000000 -1.000000
    outer loop
      vertex -15.5000 16.0000 14.0000
      vertex -15.5000 14.0000 14.0000
      vertex -16.5000 14.2679 14.0000
    endloop
  endfacet
  facet normal 0.258819 -0.965926 0.000000
    outer loop
      vertex -15.5000 14.0000 14.0000
      vertex -14.5000 14.2679 14.0000
      vertex -14.5000 14.2679 17.0000
    endloop
  endfacet
  facet normal 0.258819 -0.965926 0.000000
    outer loop
      vertex -15.5000 14.0000 14.0000
      vertex -14.5000 14.2679 17.0000
      vertex -15.5000 14.0000 17.0000
    endloop
  endfacet
  facet normal 0.000000 0.000000 1.000000
    outer loop
      vertex -15.5000 16.0000 17.0000
      vertex -15.5000 14.0000 17.0000
      vertex -14.5000 14.2679 17.0000
    endloop
  endfacet
  facet normal 0.000000 0.000000 -1.000000
    outer loop
      vertex -15.5000 16.0000 14.0000
      vertex -14.5000 14.2679 14.0000
      vertex -15.5000 14.0000 14.0000
    endloop
  endfacet
  facet normal 0.707107 -0.707107 0.000000
    outer loop
      vertex -14.5000 14.2679 14.0000
      vertex -13.7679 15.0000 14.0000
      vertex -13.7679 15.0000 17.0000
    endloop
  endfacet
  facet normal 0.707107 -0.707107 0.000000
    outer loop
      vertex -14.5000 14.2679 14.0000
      vertex -13.7679 15.0000 17.0000
      vertex -14.5000 14.2679 17.0000
    endloop
  endfacet
  facet normal 0.000000 0.000000 1.000000
    outer loop
      vertex -15.5000 16.0000 17.0000
      vertex -14.5000 14.2679 17.0000
      vertex -13.7679 15.0000 17.0000
    endloop
  endfacet
  facet normal 0.000000 0.000000 -1.000000
    outer loop
      vertex -15.5000 16.0000 14.0000
      vertex -13.7679 15.0000 14.0000
      vertex -14.5000 14.2679 14.0000
    endloop
  endfacet
  facet normal 0.965926 -0.258819 0.000000
    outer loop
      vertex -13.7679 15.0000 14.0000
      vertex -13.5000 16.0000 14.0000
      vertex -13.5000 16.0000 17.0000
    endloop
  endfacet
  facet normal 0.965926 -0.258819 0.000000
    outer loop
      vertex -13.7679 15.0000 14.0000
      vertex -13.5000 16.0000 17.0000
      vertex -13.7679 15.0000 17.0000
    endloop
  endfacet
  facet normal 0.000000 0.000000 1.000000
    outer loop
      vertex -15.5000 16.0000 17.0000
      vertex -13.7679 15.0000 17.0000
      vertex -13.5000 16.0000 17.0000
    endloop
  endfacet
  facet normal 0.000000 0.000000 -1.000000
    outer loop
      vertex -15.5000 16.0000 14.0000
      vertex -13.5000 16.0000 14.0000
      vertex -13.7679 15.0000 14.0000
    endloop
  endfacet
  facet normal 0.965926 0.258819 0.000000
    outer loop
      vertex 17.5000 16.0000 14.0000
      vertex 17.2321 17.0000 14.0000
      vertex 17.2321 17.0000 17.0000
    endloop
  endfacet
  facet normal 0.965926 0.258819 0.000000
    outer loop
      vertex 17.5000 16.0000 14.0000
      vertex 17.2321 17.0000 17.0000
      vertex 17.5000 16.0000 17.0000
    endloop
  endfacet
  facet normal 0.000000 0.000000 1.000000
    outer loop
      vertex 15.5000 16.0000 17.0000
      vertex 17.5000 16.0000 17.0000
      vertex 17.2321 17.0000 17.0000
    endloop
  endfacet
  facet normal 0.000000 0.000000 -1.000000
    outer loop
      vertex 15.5000 16.0000 14.0000
      vertex 17.2321 17.0000 14.0000
      vertex 17.5000 16.0000 14.0000
    endloop
  endfacet
  facet normal 0.707107 0.707107 0.000000
    outer loop
      vertex 17.2321 17.0000 14.0000
      vertex 16.5000 17.7321 14.0000
      vertex 16.5000 17.7321 17.0000
    endloop
  endfacet
  facet normal 0.707107 0.707107 0.000000
    outer loop
      vertex 17.2321 17.0000 14.0000
      vertex 16.5000 17.7321 17.0000
      vertex 17.2321 17.0000 17.0000
    endloop
  endfacet
  facet normal 0.000000 0.000000 1.000000
    outer loop
      vertex 15.5000 16.0000 17.0000
      vertex 17.2321 17.0000 17.0000
      vertex 16.5000 17.7321 17.0000
    endloop
  endfacet
  facet normal 0.000000 0.000000 -1.000000
    outer loop
      vertex 15.5000 16.0000 14.0000
      vertex 16.5000 17.7321 14.0000
      vertex 17.2321 17.0000 14.0000
    endloop
  endfacet
  facet normal 0.258819 0.965926 0.000000
    outer loop
      vertex 16.5000 17.7321 14.0000
      vertex 15.5000 18.0000 14.0000
      vertex 15.5000 18.0000 17.0000
    endloop
  endfacet
  facet normal 0.258819 0.965926 0.000000
    outer loop
      vertex 16.5000 17.7321 14.0000
      vertex 15.5000 18.0000 17.0000
      vertex 16.5000 17.7321 17.0000
    endloop
  endfacet
  facet normal 0.000000 0.000000 1.000000
    outer loop
      vertex 15.5000 16.0000 17.0000
      vertex 16.5000 17.7321 17.0000
      vertex 15.5000 18.0000 17.0000
    endloop
  endfacet
  facet normal 0.000000 0.000000 -1.000000
    outer loop
      vertex 15.5000 16.0000 14.0000
      vertex 15.5000 18.0000 14.0000
      vertex 16.5000 17.7321 14.0000
    endloop
  endfacet
  facet normal -0.258819 0.965926 0.000000
    outer loop
      vertex 15.5000 18.0000 14.0000
      vertex 14.5000 17.7321 14.0000
      vertex 14.5000 17.7321 17.0000
    endloop
  endfacet
  facet normal -0.258819 0.965926 0.000000
    outer loop
      vertex 15.5000 18.0000 14.0000
      vertex 14.5000 17.7321 17.0000
      vertex 15.5000 18.0000 17.0000
    endloop
  endfacet
  facet normal 0.000000 0.000000 1.000000
    outer loop
      vertex 15.5000 16.0000 17.0000
      vertex 15.5000 18.0000 17.0000
      vertex 14.5000 17.7321 17.0000
    endloop
  endfacet
  facet normal 0.000000 0.000000 -1.000000
    outer loop
      vertex 15.5000 16.0000 14.0000
      vertex 14.5000 17.7321 14.0000
      vertex 15.5000 18.0000 14.0000
    endloop
  endfacet
  facet normal -0.707107 0.707107 0.000000
    outer loop
      vertex 14.5000 17.7321 14.0000
      vertex 13.7679 17.0000 14.0000
      vertex 13.7679 17.0000 17.0000
    endloop
  endfacet
  facet normal -0.707107 0.707107 0.000000
    outer loop
      vertex 14.5000 17.7321 14.0000
      vertex 13.7679 17.0000 17.0000
      vertex 14.5000 17.7321 17.0000
    endloop
  endfacet
  facet normal 0.000000 0.000000 1.000000
    outer loop
      vertex 15.5000 16.0000 17.0000
      vertex 14.5000 17.7321 17.0000
      vertex 13.7679 17.0000 17.0000
    endloop
  endfacet
  facet normal 0.000000 0.000000 -1.000000
    outer loop
      vertex 15.5000 16.0000 14.0000
      vertex 13.7679 17.0000 14.0000
      vertex 14.5000 17.7321 14.0000
    endloop
  endfacet
  facet normal -0.965926 0.258819 0.000000
    outer loop
      vertex 13.7679 17.0000 14.0000
      vertex 13.5000 16.0000 14.0000
      vertex 13.5000 16.0000 17.0000
    endloop
  endfacet
  facet normal -0.965926 0.258819 0.000000
    outer loop
      vertex 13.7679 17.0000 14.0000
      vertex 13.5000 16.0000 17.0000
      vertex 13.7679 17.0000 17.0000
    endloop
  endfacet
  facet normal 0.000000 0.000000 1.000000
    outer loop
      vertex 15.5000 16.0000 17.0000
      vertex 13.7679 17.0000 17.0000
      vertex 13.5000 16.0000 17.0000
    endloop
  endfacet
  facet normal 0.000000 0.000000 -1.000000
    outer loop
      vertex 15.5000 16.0000 14.0000
      vertex 13.5000 16.0000 14.0000
      vertex 13.7679 17.0000 14.0000
    endloop
  endfacet
  facet normal -0.965926 -0.258819 0.000000
    outer loop
      vertex 13.5000 16.0000 14.0000
      vertex 13.7679 15.0000 14.0000
      vertex 13.7679 15.0000 17.0000
    endloop
  endfacet
  facet normal -0.965926 -0.258819 0.000000
    outer loop
      vertex 13.5000 16.0000 14.0000
      vertex 13.7679 15.0000 17.0000
      vertex 13.5000 16.0000 17.0000
    endloop
  endfacet
  facet normal 0.000000 0.000000 1.000000
    outer loop
      vertex 15.5000 16.0000 17.0000
      vertex 13.5000 16.0000 17.0000
      vertex 13.7679 15.0000 17.0000
    endloop
  endfacet
  facet normal 0.000000 0.000000 -1.000000
    outer loop
      vertex 15.5000 16.0000 14.0000
      vertex 13.7679 15.0000 14.0000
      vertex 13.5000 16.0000 14.0000
    endloop
  endfacet
  facet normal -0.707107 -0.707107 0.000000
    outer loop
      vertex 13.7679 15.0000 14.0000
      vertex 14.5000 14.2679 14.0000
      vertex 14.5000 14.2679 17.0000
    endloop
  endfacet
  facet normal -0.707107 -0.707107 0.000000
    outer loop
      vertex 13.7679 15.0000 14.0000
      vertex 14.5000 14.2679 17.0000
      vertex 13.7679 15.0000 17.0000
    endloop
  endfacet
  facet normal 0.000000 0.000000 1.000000
    outer loop
      vertex 15.5000 16.0000 17.0000
      vertex 13.7679 15.0000 17.0000
      vertex 14.5000 14.2679 17.0000
    endloop
  endfacet
  facet normal 0.000000 0.000000 -1.000000
    outer loop
      vertex 15.5000 16.0000 14.0000
      vertex 14.5000 14.2679 14.0000
      vertex 13.7679 15.0000 14.0000
    endloop
  endfacet
  facet normal -0.258819 -0.965926 0.000000
    outer loop
      vertex 14.5000 14.2679 14.0000
      vertex 15.5000 14.0000 14.0000
      vertex 15.5000 14.0000 17.0000
    endloop
  endfacet
  facet normal -0.258819 -0.965926 0.000000
    outer loop
      vertex 14.5000 14.2679 14.0000
      vertex 15.5000 14.0000 17.0000
      vertex 14.5000 14.2679 17.0000
    endloop
  endfacet
  facet normal 0.000000 0.000000 1.000000
    outer loop
      vertex 15.5000 16.0000 17.0000
      vertex 14.5000 14.2679 17.0000
      vertex 15.5000 14.0000 17.0000
    endloop
  endfacet
  facet normal 0.000000 0.000000 -1.000000
    outer loop
      vertex 15.5000 16.0000 14.0000
      vertex 15.5000 14.0000 14.0000
      vertex 14.5000 14.2679 14.0000
    endloop
  endfacet
  facet normal 0.258819 -0.965926 0.000000
    outer loop
      vertex 15.5000 14.0000 14.0000
      vertex 16.5000 14.2679 14.0000
      vertex 16.5000 14.2679 17.0000
    endloop
  endfacet
  facet normal 0.258819 -0.965926 0.000000
    outer loop
      vertex 15.5000 14.0000 14.0000
      vertex 16.5000 14.2679 17.0000
      vertex 15.5000 14.0000 17.0000
    endloop
  endfacet
  facet normal 0.000000 0.000000 1.000000
    outer loop
      vertex 15.5000 16.0000 17.0000
      vertex 15.5000 14.0000 17.0000
      vertex 16.5000 14.2679 17.0000
    endloop
  endfacet
  facet normal 0.000000 0.000000 -1.000000
    outer loop
      vertex 15.5000 16.0000 14.0000
      vertex 16.5000 14.2679 14.0000
      vertex 15.5000 14.0000 14.0000
    endloop
  endfacet
  facet normal 0.707107 -0.707107 0.000000
    outer loop
      vertex 16.5000 14.2679 14.0000
      vertex 17.2321 15.0000 14.0000
      vertex 17.2321 15.0000 17.0000
    endloop
  endfacet
  facet normal 0.707107 -0.707107 0.000000
    outer loop
      vertex 16.5000 14.2679 14.0000
      vertex 17.2321 15.0000 17.0000
      vertex 16.5000 14.2679 17.0000
    endloop
  endfacet
  facet normal 0.000000 0.000000 1.000000
    outer loop
      vertex 15.5000 16.0000 17.0000
      vertex 16.5000 14.2679 17.0000
      vertex 17.2321 15.0000 17.0000
    endloop
  endfacet
  facet normal 0.000000 0.000000 -1.000000
    outer loop
      vertex 15.5000 16.0000 14.0000
      vertex 17.2321 15.0000 14.0000
      vertex 16.5000 14.2679 14.0000
    endloop
  endfacet
  facet normal 0.965926 -0.258819 0.000000
    outer loop
      vertex 17.2321 15.0000 14.0000
      vertex 17.5000 16.0000 14.0000
      vertex 17.5000 16.0000 17.0000
    endloop
  endfacet
  facet normal 0.965926 -0.258819 0.000000
    outer loop
      vertex 17.2321 15.0000 14.0000
      vertex 17.5000 16.0000 17.0000
      vertex 17.2321 15.0000 17.0000
    endloop
  endfacet
  facet normal 0.000000 0.000000 1.000000
    outer loop
      vertex 15.5000 16.0000 17.0000
      vertex 17.2321 15.0000 17.0000
      vertex 17.5000 16.0000 17.0000
    endloop
  endfacet
  facet normal 0.000000 0.000000 -1.000000
    outer loop
      vertex 15.5000 16.0000 14.0000
      vertex 17.5000 16.0000 14.0000
      vertex 17.2321 15.0000 14.0000
    endloop
  endfacet
  facet normal 0.965926 0.258819 0.000000
    outer loop
      vertex -13.5000 26.0000 14.0000
      vertex -13.7679 27.0000 14.0000
      vertex -13.7679 27.0000 17.0000
    endloop
  endfacet
  facet normal 0.965926 0.258819 0.000000
    outer loop
      vertex -13.5000 26.0000 14.0000
      vertex -13.7679 27.0000 17.0000
      vertex -13.5000 26.0000 17.0000
    endloop
  endfacet
  facet normal 0.000000 0.000000 1.000000
    outer loop
      vertex -15.5000 26.0000 17.0000
      vertex -13.5000 26.0000 17.0000
      vertex -13.7679 27.0000 17.0000
    endloop
  endfacet
  facet normal 0.000000 0.000000 -1.000000
    outer loop
      vertex -15.5000 26.0000 14.0000
      vertex -13.7679 27.0000 14.0000
      vertex -13.5000 26.0000 14.0000
    endloop
  endfacet
  facet normal 0.707107 0.707107 0.000000
    outer loop
      vertex -13.7679 27.0000 14.0000
      vertex -14.5000 27.7321 14.0000
      vertex -14.5000 27.7321 17.0000
    endloop
  endfacet
  facet normal 0.707107 0.707107 0.000000
    outer loop
      vertex -13.7679 27.0000 14.0000
      vertex -14.5000 27.7321 17.0000
      vertex -13.7679 27.0000 17.0000
    endloop
  endfacet
  facet normal 0.000000 0.000000 1.000000
    outer loop
      vertex -15.5000 26.0000 17.0000
      vertex -13.7679 27.0000 17.0000
      vertex -14.5000 27.7321 17.0000
    endloop
  endfacet
  facet normal 0.000000 0.000000 -1.000000
    outer loop
      vertex -15.5000 26.0000 14.0000
      vertex -14.5000 27.7321 14.0000
      vertex -13.7679 27.0000 14.0000
    endloop
  endfacet
  facet normal 0.258819 0.965926 0.000000
    outer loop
      vertex -14.5000 27.7321 14.0000
      vertex -15.5000 28.0000 14.0000
      vertex -15.5000 28.0000 17.0000
    endloop
  endfacet
  facet normal 0.258819 0.965926 0.000000
    outer loop
      vertex -14.5000 27.7321 14.0000
      vertex -15.5000 28.0000 17.0000
      vertex -14.5000 27.7321 17.0000
    endloop
  endfacet
  facet normal 0.000000 0.000000 1.000000
    outer loop
      vertex -15.5000 26.0000 17.0000
      vertex -14.5000 27.7321 17.0000
      vertex -15.5000 28.0000 17.0000
    endloop
  endfacet
  facet normal 0.000000 0.000000 -1.000000
    outer loop
      vertex -15.5000 26.0000 14.0000
      vertex -15.5000 28.0000 14.0000
      vertex -14.5000 27.7321 14.0000
    endloop
  endfacet
  facet normal -0.258819 0.965926 0.000000
    outer loop
      vertex -15.5000 28.0000 14.0000
      vertex -16.5000 27.7321 14.0000
      vertex -16.5000 27.7321 17.0000
    endloop
  endfacet
  facet normal -0.258819 0.965926 0.000000
    outer loop
      vertex -15.5000 28.0000 14.0000
      vertex -16.5000 27.7321 17.0000
      vertex -15.5000 28.0000 17.0000
    endloop
  endfacet
  facet normal 0.000000 0.000000 1.000000
    outer loop
      vertex -15.5000 26.0000 17.0000
      vertex -15.5000 28.0000 17.0000
      vertex -16.5000 27.7321 17.0000
    endloop
  endfacet
  facet normal 0.000000 0.000000 -1.000000
    outer loop
      vertex -15.5000 26.0000 14.0000
      vertex -16.5000 27.7321 14.0000
      vertex -15.5000 28.0000 14.0000
    endloop
  endfacet
  facet normal -0.707107 0.707107 0.000000
    outer loop
      vertex -16.5000 27.7321 14.0000
      vertex -17.2321 27.0000 14.0000
      vertex -17.2321 27.0000 17.0000
    endloop
  endfacet
  facet normal -0.707107 0.707107 0.000000
    outer loop
      vertex -16.5000 27.7321 14.0000
      vertex -17.2321 27.0000 17.0000
      vertex -16.5000 27.7321 17.0000
    endloop
  endfacet
  facet normal 0.000000 0.000000 1.000000
    outer loop
      vertex -15.5000 26.0000 17.0000
      vertex -16.5000 27.7321 17.0000
      vertex -17.2321 27.0000 17.0000
    endloop
  endfacet
  facet normal 0.000000 0.000000 -1.000000
    outer loop
      vertex -15.5000 26.0000 14.0000
      vertex -17.2321 27.0000 14.0000
      vertex -16.5000 27.7321 14.0000
    endloop
  endfacet
  facet normal -0.965926 0.258819 0.000000
    outer loop
      vertex -17.2321 27.0000 14.0000
      vertex -17.5000 26.0000 14.0000
      vertex -17.5000 26.0000 17.0000
    endloop
  endfacet
  facet normal -0.965926 0.258819 0.000000
    outer loop
      vertex -17.2321 27.0000 14.0000
      vertex -17.5000 26.0000 17.0000
      vertex -17.2321 27.0000 17.0000
    endloop
  endfacet
  facet normal 0.000000 0.000000 1.000000
    outer loop
      vertex -15.5000 26.0000 17.0000
      vertex -17.2321 27.0000 17.0000
      vertex -17.5000 26.0000 17.0000
    endloop
  endfacet
  facet normal 0.000000 0.000000 -1.000000
    outer loop
      vertex -15.5000 26.0000 14.0000
      vertex -17.5000 26.0000 14.0000
      vertex -17.2321 27.0000 14.0000
    endloop
  endfacet
  facet normal -0.965926 -0.258819 0.000000
    outer loop
      vertex -17.5000 26.0000 14.0000
      vertex -17.2321 25.0000 14.0000
      vertex -17.2321 25.0000 17.0000
    endloop
  endfacet
  facet normal -0.965926 -0.258819 0.000000
    outer loop
      vertex -17.5000 26.0000 14.0000
      vertex -17.2321 25.0000 17.0000
      vertex -17.5000 26.0000 17.0000
    endloop
  endfacet
  facet normal 0.000000 0.000000 1.000000
    outer loop
      vertex -15.5000 26.0000 17.0000
      vertex -17.5000 26.0000 17.0000
      vertex -17.2321 25.0000 17.0000
    endloop
  endfacet
  facet normal 0.000000 0.000000 -1.000000
    outer loop
      vertex -15.5000 26.0000 14.0000
      vertex -17.2321 25.0000 14.0000
      vertex -17.5000 26.0000 14.0000
    endloop
  endfacet
  facet normal -0.707107 -0.707107 0.000000
    outer loop
      vertex -17.2321 25.0000 14.0000
      vertex -16.5000 24.2679 14.0000
      vertex -16.5000 24.2679 17.0000
    endloop
  endfacet
  facet normal -0.707107 -0.707107 0.000000
    outer loop
      vertex -17.2321 25.0000 14.0000
      vertex -16.5000 24.2679 17.0000
      vertex -17.2321 25.0000 17.0000
    endloop
  endfacet
  facet normal 0.000000 0.000000 1.000000
    outer loop
      vertex -15.5000 26.0000 17.0000
      vertex -17.2321 25.0000 17.0000
      vertex -16.5000 24.2679 17.0000
    endloop
  endfacet
  facet normal 0.000000 0.000000 -1.000000
    outer loop
      vertex -15.5000 26.0000 14.0000
      vertex -16.5000 24.2679 14.0000
      vertex -17.2321 25.0000 14.0000
    endloop
  endfacet
  facet normal -0.258819 -0.965926 0.000000
    outer loop
      vertex -16.5000 24.2679 14.0000
      vertex -15.5000 24.0000 14.0000
      vertex -15.5000 24.0000 17.0000
    endloop
  endfacet
  facet normal -0.258819 -0.965926 0.000000
    outer loop
      vertex -16.5000 24.2679 14.0000
      vertex -15.5000 24.0000 17.0000
      vertex -16.5000 24.2679 17.0000
    endloop
  endfacet
  facet normal 0.000000 0.000000 1.000000
    outer loop
      vertex -15.5000 26.0000 17.0000
      vertex -16.5000 24.2679 17.0000
      vertex -15.5000 24.0000 17.0000
    endloop
  endfacet
  facet normal 0.000000 0.000000 -1.000000
    outer loop
      vertex -15.5000 26.0000 14.0000
      vertex -15.5000 24.0000 14.0000
      vertex -16.5000 24.2679 14.0000
    endloop
  endfacet
  facet normal 0.258819 -0.965926 0.000000
    outer loop
      vertex -15.5000 24.0000 14.0000
      vertex -14.5000 24.2679 14.0000
      vertex -14.5000 24.2679 17.0000
    endloop
  endfacet
  facet normal 0.258819 -0.965926 0.000000
    outer loop
      vertex -15.5000 24.0000 14.0000
      vertex -14.5000 24.2679 17.0000
      vertex -15.5000 24.0000 17.0000
    endloop
  endfacet
  facet normal 0.000000 0.000000 1.000000
    outer loop
      vertex -15.5000 26.0000 17.0000
      vertex -15.5000 24.0000 17.0000
      vertex -14.5000 24.2679 17.0000
    endloop
  endfacet
  facet normal 0.000000 0.000000 -1.000000
    outer loop
      vertex -15.5000 26.0000 14.0000
      vertex -14.5000 24.2679 14.0000
      vertex -15.5000 24.0000 14.0000
    endloop
  endfacet
  facet normal 0.707107 -0.707107 0.000000
    outer loop
      vertex -14.5000 24.2679 14.0000
      vertex -13.7679 25.0000 14.0000
      vertex -13.7679 25.0000 17.0000
    endloop
  endfacet
  facet normal 0.707107 -0.707107 0.000000
    outer loop
      vertex -14.5000 24.2679 14.0000
      vertex -13.7679 25.0000 17.0000
      vertex -14.5000 24.2679 17.0000
    endloop
  endfacet
  facet normal 0.000000 0.000000 1.000000
    outer loop
      vertex -15.5000 26.0000 17.0000
      vertex -14.5000 24.2679 17.0000
      vertex -13.7679 25.0000 17.0000
    endloop
  endfacet
  facet normal 0.000000 0.000000 -1.000000
    outer loop
      vertex -15.5000 26.0000 14.0000
      vertex -13.7679 25.0000 14.0000
      vertex -14.5000 24.2679 14.0000
    endloop
  endfacet
  facet normal 0.965926 -0.258819 0.000000
    outer loop
      vertex -13.7679 25.0000 14.0000
      vertex -13.5000 26.0000 14.0000
      vertex -13.5000 26.0000 17.0000
    endloop
  endfacet
  facet normal 0.965926 -0.258819 0.000000
    outer loop
      vertex -13.7679 25.0000 14.0000
      vertex -13.5000 26.0000 17.0000
      vertex -13.7679 25.0000 17.0000
    endloop
  endfacet
  facet normal 0.000000 0.000000 1.000000
    outer loop
      vertex -15.5000 26.0000 17.0000
      vertex -13.7679 25.0000 17.0000
      vertex -13.5000 26.0000 17.0000
    endloop
  endfacet
  facet normal 0.000000 0.000000 -1.000000
    outer loop
      vertex -15.5000 26.0000 14.0000
      vertex -13.5000 26.0000 14.0000
      vertex -13.7679 25.0000 14.0000
    endloop
  endfacet
  facet normal 0.965926 0.258819 0.000000
    outer loop
      vertex 17.5000 26.0000 14.0000
      vertex 17.2321 27.0000 14.0000
      vertex 17.2321 27.0000 17.0000
    endloop
  endfacet
  facet normal 0.965926 0.258819 0.000000
    outer loop
      vertex 17.5000 26.0000 14.0000
      vertex 17.2321 27.0000 17.0000
      vertex 17.5000 26.0000 17.0000
    endloop
  endfacet
  facet normal 0.000000 0.000000 1.000000
    outer loop
      vertex 15.5000 26.0000 17.0000
      vertex 17.5000 26.0000 17.0000
      vertex 17.2321 27.0000 17.0000
    endloop
  endfacet
  facet normal 0.000000 0.000000 -1.000000
    outer loop
      vertex 15.5000 26.0000 14.0000
      vertex 17.2321 27.0000 14.0000
      vertex 17.5000 26.0000 14.0000
    endloop
  endfacet
  facet normal 0.707107 0.707107 0.000000
    outer loop
      vertex 17.2321 27.0000 14.0000
      vertex 16.5000 27.7321 14.0000
      vertex 16.5000 27.7321 17.0000
    endloop
  endfacet
  facet normal 0.707107 0.707107 0.000000
    outer loop
      vertex 17.2321 27.0000 14.0000
      vertex 16.5000 27.7321 17.0000
      vertex 17.2321 27.0000 17.0000
    endloop
  endfacet
  facet normal 0.000000 0.000000 1.000000
    outer loop
      vertex 15.5000 26.0000 17.0000
      vertex 17.2321 27.0000 17.0000
      vertex 16.5000 27.7321 17.0000
    endloop
  endfacet
  facet normal 0.000000 0.000000 -1.000000
    outer loop
      vertex 15.5000 26.0000 14.0000
      vertex 16.5000 27.7321 14.0000
      vertex 17.2321 27.0000 14.0000
    endloop
  endfacet
  facet normal 0.258819 0.965926 0.000000
    outer loop
      vertex 16.5000 27.7321 14.0000
      vertex 15.5000 28.0000 14.0000
      vertex 15.5000 28.0000 17.0000
    endloop
  endfacet
  facet normal 0.258819 0.965926 0.000000
    outer loop
      vertex 16.5000 27.7321 14.0000
      vertex 15.5000 28.0000 17.0000
      vertex 16.5000 27.7321 17.0000
    endloop
  endfacet
  facet normal 0.000000 0.000000 1.000000
    outer loop
      vertex 15.5000 26.0000 17.0000
      vertex 16.5000 27.7321 17.0000
      vertex 15.5000 28.0000 17.0000
    endloop
  endfacet
  facet normal 0.000000 0.000000 -1.000000
    outer loop
      vertex 15.5000 26.0000 14.0000
      vertex 15.5000 28.0000 14.0000
      vertex 16.5000 27.7321 14.0000
    endloop
  endfacet
  facet normal -0.258819 0.965926 0.000000
    outer loop
      vertex 15.5000 28.0000 14.0000
      vertex 14.5000 27.7321 14.0000
      vertex 14.5000 27.7321 17.0000
    endloop
  endfacet
  facet normal -0.258819 0.965926 0.000000
    outer loop
      vertex 15.5000 28.0000 14.0000
      vertex 14.5000 27.7321 17.0000
      vertex 15.5000 28.0000 17.0000
    endloop
  endfacet
  facet normal 0.000000 0.000000 1.000000
    outer loop
      vertex 15.5000 26.0000 17.0000
      vertex 15.5000 28.0000 17.0000
      vertex 14.5000 27.7321 17.0000
    endloop
  endfacet
  facet normal 0.000000 0.000000 -1.000000
    outer loop
      vertex 15.5000 26.0000 14.0000
      vertex 14.5000 27.7321 14.0000
      vertex 15.5000 28.0000 14.0000
    endloop
  endfacet
  facet normal -0.707107 0.707107 0.000000
    outer loop
      vertex 14.5000 27.7321 14.0000
      vertex 13.7679 27.0000 14.0000
      vertex 13.7679 27.0000 17.0000
    endloop
  endfacet
  facet normal -0.707107 0.707107 0.000000
    outer loop
      vertex 14.5000 27.7321 14.0000
      vertex 13.7679 27.0000 17.0000
      vertex 14.5000 27.7321 17.0000
    endloop
  endfacet
  facet normal 0.000000 0.000000 1.000000
    outer loop
      vertex 15.5000 26.0000 17.0000
      vertex 14.5000 27.7321 17.0000
      vertex 13.7679 27.0000 17.0000
    endloop
  endfacet
  facet normal 0.000000 0.000000 -1.000000
    outer loop
      vertex 15.5000 26.0000 14.0000
      vertex 13.7679 27.0000 14.0000
      vertex 14.5000 27.7321 14.0000
    endloop
  endfacet
  facet normal -0.965926 0.258819 0.000000
    outer loop
      vertex 13.7679 27.0000 14.0000
      vertex 13.5000 26.0000 14.0000
      vertex 13.5000 26.0000 17.0000
    endloop
  endfacet
  facet normal -0.965926 0.258819 0.000000
    outer loop
      vertex 13.7679 27.0000 14.0000
      vertex 13.5000 26.0000 17.0000
      vertex 13.7679 27.0000 17.0000
    endloop
  endfacet
  facet normal 0.000000 0.000000 1.000000
    outer loop
      vertex 15.5000 26.0000 17.0000
      vertex 13.7679 27.0000 17.0000
      vertex 13.5000 26.0000 17.0000
    endloop
  endfacet
  facet normal 0.000000 0.000000 -1.000000
    outer loop
      vertex 15.5000 26.0000 14.0000
      vertex 13.5000 26.0000 14.0000
      vertex 13.7679 27.0000 14.0000
    endloop
  endfacet
  facet normal -0.965926 -0.258819 0.000000
    outer loop
      vertex 13.5000 26.0000 14.0000
      vertex 13.7679 25.0000 14.0000
      vertex 13.7679 25.0000 17.0000
    endloop
  endfacet
  facet normal -0.965926 -0.258819 0.000000
    outer loop
      vertex 13.5000 26.0000 14.0000
      vertex 13.7679 25.0000 17.0000
      vertex 13.5000 26.0000 17.0000
    endloop
  endfacet
  facet normal 0.000000 0.000000 1.000000
    outer loop
      vertex 15.5000 26.0000 17.0000
      vertex 13.5000 26.0000 17.0000
      vertex 13.7679 25.0000 17.0000
    endloop
  endfacet
  facet normal 0.000000 0.000000 -1.000000
    outer loop
      vertex 15.5000 26.0000 14.0000
      vertex 13.7679 25.0000 14.0000
      vertex 13.5000 26.0000 14.0000
    endloop
  endfacet
  facet normal -0.707107 -0.707107 0.000000
    outer loop
      vertex 13.7679 25.0000 14.0000
      vertex 14.5000 24.2679 14.0000
      vertex 14.5000 24.2679 17.0000
    endloop
  endfacet
  facet normal -0.707107 -0.707107 0.000000
    outer loop
      vertex 13.7679 25.0000 14.0000
      vertex 14.5000 24.2679 17.0000
      vertex 13.7679 25.0000 17.0000
    endloop
  endfacet
  facet normal 0.000000 0.000000 1.000000
    outer loop
      vertex 15.5000 26.0000 17.0000
      vertex 13.7679 25.0000 17.0000
      vertex 14.5000 24.2679 17.0000
    endloop
  endfacet
  facet normal 0.000000 0.000000 -1.000000
    outer loop
      vertex 15.5000 26.0000 14.0000
      vertex 14.5000 24.2679 14.0000
      vertex 13.7679 25.0000 14.0000
    endloop
  endfacet
  facet normal -0.258819 -0.965926 0.000000
    outer loop
      vertex 14.5000 24.2679 14.0000
      vertex 15.5000 24.0000 14.0000
      vertex 15.5000 24.0000 17.0000
    endloop
  endfacet
  facet normal -0.258819 -0.965926 0.000000
    outer loop
      vertex 14.5000 24.2679 14.0000
      vertex 15.5000 24.0000 17.0000
      vertex 14.5000 24.2679 17.0000
    endloop
  endfacet
  facet normal 0.000000 0.000000 1.000000
    outer loop
      vertex 15.5000 26.0000 17.0000
      vertex 14.5000 24.2679 17.0000
      vertex 15.5000 24.0000 17.0000
    endloop
  endfacet
  facet normal 0.000000 0.000000 -1.000000
    outer loop
      vertex 15.5000 26.0000 14.0000
      vertex 15.5000 24.0000 14.0000
      vertex 14.5000 24.2679 14.0000
    endloop
  endfacet
  facet normal 0.258819 -0.965926 0.000000
    outer loop
      vertex 15.5000 24.0000 14.0000
      vertex 16.5000 24.2679 14.0000
      vertex 16.5000 24.2679 17.0000
    endloop
  endfacet
  facet normal 0.258819 -0.965926 0.000000
    outer loop
      vertex 15.5000 24.0000 14.0000
      vertex 16.5000 24.2679 17.0000
      vertex 15.5000 24.0000 17.0000
    endloop
  endfacet
  facet normal 0.000000 0.000000 1.000000
    outer loop
      vertex 15.5000 26.0000 17.0000
      vertex 15.5000 24.0000 17.0000
      vertex 16.5000 24.2679 17.0000
    endloop
  endfacet
  facet normal 0.000000 0.000000 -1.000000
    outer loop
      vertex 15.5000 26.0000 14.0000
      vertex 16.5000 24.2679 14.0000
      vertex 15.5000 24.0000 14.0000
    endloop
  endfacet
  facet normal 0.707107 -0.707107 0.000000
    outer loop
      vertex 16.5000 24.2679 14.0000
      vertex 17.2321 25.0000 14.0000
      vertex 17.2321 25.0000 17.0000
    endloop
  endfacet
  facet normal 0.707107 -0.707107 0.000000
    outer loop
      vertex 16.5000 24.2679 14.0000
      vertex 17.2321 25.0000 17.0000
      vertex 16.5000 24.2679 17.0000
    endloop
  endfacet
  facet normal 0.000000 0.000000 1.000000
    outer loop
      vertex 15.5000 26.0000 17.0000
      vertex 16.5000 24.2679 17.0000
      vertex 17.2321 25.0000 17.0000
    endloop
  endfacet
  facet normal 0.000000 0.000000 -1.000000
    outer loop
      vertex 15.5000 26.0000 14.0000
      vertex 17.2321 25.0000 14.0000
      vertex 16.5000 24.2679 14.0000
    endloop
  endfacet
  facet normal 0.965926 -0.258819 0.000000
    outer loop
      vertex 17.2321 25.0000 14.0000
      vertex 17.5000 26.0000 14.0000
      vertex 17.5000 26.0000 17.0000
    endloop
  endfacet
  facet normal 0.965926 -0.258819 0.000000
    outer loop
      vertex 17.2321 25.0000 14.0000
      vertex 17.5000 26.0000 17.0000
      vertex 17.2321 25.0000 17.0000
    endloop
  endfacet
  facet normal 0.000000 0.000000 1.000000
    outer loop
      vertex 15.5000 26.0000 17.0000
      vertex 17.2321 25.0000 17.0000
      vertex 17.5000 26.0000 17.0000
    endloop
  endfacet
  facet normal 0.000000 0.000000 -1.000000
    outer loop
      vertex 15.5000 26.0000 14.0000
      vertex 17.5000 26.0000 14.0000
      vertex 17.2321 25.0000 14.0000
    endloop
  endfacet
  facet normal 0.987688 0.156434 0.000000
    outer loop
      vertex 11.0000 21.0000 14.0000
      vertex 10.4616 24.3992 14.0000
      vertex 10.4616 24.3992 20.0000
    endloop
  endfacet
  facet normal 0.987688 0.156434 0.000000
    outer loop
      vertex 11.0000 21.0000 14.0000
      vertex 10.4616 24.3992 20.0000
      vertex 11.0000 21.0000 20.0000
    endloop
  endfacet
  facet normal 0.000000 0.000000 1.000000
    outer loop
      vertex 0.0000 21.0000 20.0000
      vertex 11.0000 21.0000 20.0000
      vertex 10.4616 24.3992 20.0000
    endloop
  endfacet
  facet normal 0.000000 0.000000 -1.000000
    outer loop
      vertex 0.0000 21.0000 14.0000
      vertex 10.4616 24.3992 14.0000
      vertex 11.0000 21.0000 14.0000
    endloop
  endfacet
  facet normal 0.891007 0.453990 0.000000
    outer loop
      vertex 10.4616 24.3992 14.0000
      vertex 8.8992 27.4656 14.0000
      vertex 8.8992 27.4656 20.0000
    endloop
  endfacet
  facet normal 0.891007 0.453990 0.000000
    outer loop
      vertex 10.4616 24.3992 14.0000
      vertex 8.8992 27.4656 20.0000
      vertex 10.4616 24.3992 20.0000
    endloop
  endfacet
  facet normal 0.000000 0.000000 1.000000
    outer loop
      vertex 0.0000 21.0000 20.0000
      vertex 10.4616 24.3992 20.0000
      vertex 8.8992 27.4656 20.0000
    endloop
  endfacet
  facet normal 0.000000 0.000000 -1.000000
    outer loop
      vertex 0.0000 21.0000 14.0000
      vertex 8.8992 27.4656 14.0000
      vertex 10.4616 24.3992 14.0000
    endloop
  endfacet
  facet normal 0.707107 0.707107 0.000000
    outer loop
      vertex 8.8992 27.4656 14.0000
      vertex 6.4656 29.8992 14.0000
      vertex 6.4656 29.8992 20.0000
    endloop
  endfacet
  facet normal 0.707107 0.707107 0.000000
    outer loop
      vertex 8.8992 27.4656 14.0000
      vertex 6.4656 29.8992 20.0000
      vertex 8.8992 27.4656 20.0000
    endloop
  endfacet
  facet normal 0.000000 0.000000 1.000000
    outer loop
      vertex 0.0000 21.0000 20.0000
      vertex 8.8992 27.4656 20.0000
      vertex 6.4656 29.8992 20.0000
    endloop
  endfacet
  facet normal 0.000000 0.000000 -1.000000
    outer loop
      vertex 0.0000 21.0000 14.0000
      vertex 6.4656 29.8992 14.0000
      vertex 8.8992 27.4656 14.0000
    endloop
  endfacet
  facet normal 0.453990 0.891007 0.000000
    outer loop
      vertex 6.4656 29.8992 14.0000
      vertex 3.3992 31.4616 14.0000
      vertex 3.3992 31.4616 20.0000
    endloop
  endfacet
  facet normal 0.453990 0.891007 0.000000
    outer loop
      vertex 6.4656 29.8992 14.0000
      vertex 3.3992 31.4616 20.0000
      vertex 6.4656 29.8992 20.0000
    endloop
  endfacet
  facet normal 0.000000 0.000000 1.000000
    outer loop
      vertex 0.0000 21.0000 20.0000
      vertex 6.4656 29.8992 20.0000
      vertex 3.3992 31.4616 20.0000
    endloop
  endfacet
  facet normal 0.000000 0.000000 -1.000000
    outer loop
      vertex 0.0000 21.0000 14.0000
      vertex 3.3992 31.4616 14.0000
      vertex 6.4656 29.8992 14.0000
    endloop
  endfacet
  facet normal 0.156434 0.987688 0.000000
    outer loop
      vertex 3.3992 31.4616 14.0000
      vertex 0.0000 32.0000 14.0000
      vertex 0.0000 32.0000 20.0000
    endloop
  endfacet
  facet normal 0.156434 0.987688 0.000000
    outer loop
      vertex 3.3992 31.4616 14.0000
      vertex 0.0000 32.0000 20.0000
      vertex 3.3992 31.4616 20.0000
    endloop
  endfacet
  facet normal 0.000000 0.000000 1.000000
    outer loop
      vertex 0.0000 21.0000 20.0000
      vertex 3.3992 31.4616 20.0000
      vertex 0.0000 32.0000 20.0000
    endloop
  endfacet
  facet normal 0.000000 0.000000 -1.000000
    outer loop
      vertex 0.0000 21.0000 14.0000
      vertex 0.0000 32.0000 14.0000
      vertex 3.3992 31.4616 14.0000
    endloop
  endfacet
  facet normal -0.156434 0.987688 0.000000
    outer loop
      vertex 0.0000 32.0000 14.0000
      vertex -3.3992 31.4616 14.0000
      vertex -3.3992 31.4616 20.0000
    endloop
  endfacet
  facet normal -0.156434 0.987688 0.000000
    outer loop
      vertex 0.0000 32.0000 14.0000
      vertex -3.3992 31.4616 20.0000
      vertex 0.0000 32.0000 20.0000
    endloop
  endfacet
  facet normal 0.000000 0.000000 1.000000
    outer loop
      vertex 0.0000 21.0000 20.0000
      vertex 0.0000 32.0000 20.0000
      vertex -3.3992 31.4616 20.0000
    endloop
  endfacet
  facet normal 0.000000 0.000000 -1.000000
    outer loop
      vertex 0.0000 21.0000 14.0000
      vertex -3.3992 31.4616 14.0000
      vertex 0.0000 32.0000 14.0000
    endloop
  endfacet
  facet normal -0.453990 0.891007 0.000000
    outer loop
      vertex -3.3992 31.4616 14.0000
      vertex -6.4656 29.8992 14.0000
      vertex -6.4656 29.8992 20.0000
    endloop
  endfacet
  facet normal -0.453990 0.891007 0.000000
    outer loop
      vertex -3.3992 31.4616 14.0000
      vertex -6.4656 29.8992 20.0000
      vertex -3.3992 31.4616 20.0000
    endloop
  endfacet
  facet normal 0.000000 0.000000 1.000000
    outer loop
      vertex 0.0000 21.0000 20.0000
      vertex -3.3992 31.4616 20.0000
      vertex -6.4656 29.8992 20.0000
    endloop
  endfacet
  facet normal 0.000000 0.000000 -1.000000
    outer loop
      vertex 0.0000 21.0000 14.0000
      vertex -6.4656 29.8992 14.0000
      vertex -3.3992 31.4616 14.0000
    endloop
  endfacet
  facet normal -0.707107 0.707107 0.000000
    outer loop
      vertex -6.4656 29.8992 14.0000
      vertex -8.8992 27.4656 14.0000
      vertex -8.8992 27.4656 20.0000
    endloop
  endfacet
  facet normal -0.707107 0.707107 0.000000
    outer loop
      vertex -6.4656 29.8992 14.0000
      vertex -8.8992 27.4656 20.0000
      vertex -6.4656 29.8992 20.0000
    endloop
  endfacet
  facet normal 0.000000 0.000000 1.000000
    outer loop
      vertex 0.0000 21.0000 20.0000
      vertex -6.4656 29.8992 20.0000
      vertex -8.8992 27.4656 20.0000
    endloop
  endfacet
  facet normal 0.000000 0.000000 -1.000000
    outer loop
      vertex 0.0000 21.0000 14.0000
      vertex -8.8992 27.4656 14.0000
      vertex -6.4656 29.8992 14.0000
    endloop
  endfacet
  facet normal -0.891007 0.453990 0.000000
    outer loop
      vertex -8.8992 27.4656 14.0000
      vertex -10.4616 24.3992 14.0000
      vertex -10.4616 24.3992 20.0000
    endloop
  endfacet
  facet normal -0.891007 0.453990 0.000000
    outer loop
      vertex -8.8992 27.4656 14.0000
      vertex -10.4616 24.3992 20.0000
      vertex -8.8992 27.4656 20.0000
    endloop
  endfacet
  facet normal 0.000000 0.000000 1.000000
    outer loop
      vertex 0.0000 21.0000 20.0000
      vertex -8.8992 27.4656 20.0000
      vertex -10.4616 24.3992 20.0000
    endloop
  endfacet
  facet normal 0.000000 0.000000 -1.000000
    outer loop
      vertex 0.0000 21.0000 14.0000
      vertex -10.4616 24.3992 14.0000
      vertex -8.8992 27.4656 14.0000
    endloop
  endfacet
  facet normal -0.987688 0.156434 0.000000
    outer loop
      vertex -10.4616 24.3992 14.0000
      vertex -11.0000 21.0000 14.0000
      vertex -11.0000 21.0000 20.0000
    endloop
  endfacet
  facet normal -0.987688 0.156434 0.000000
    outer loop
      vertex -10.4616 24.3992 14.0000
      vertex -11.0000 21.0000 20.0000
      vertex -10.4616 24.3992 20.0000
    endloop
  endfacet
  facet normal 0.000000 0.000000 1.000000
    outer loop
      vertex 0.0000 21.0000 20.0000
      vertex -10.4616 24.3992 20.0000
      vertex -11.0000 21.0000 20.0000
    endloop
  endfacet
  facet normal 0.000000 0.000000 -1.000000
    outer loop
      vertex 0.0000 21.0000 14.0000
      vertex -11.0000 21.0000 14.0000
      vertex -10.4616 24.3992 14.0000
    endloop
  endfacet
  facet normal -0.987688 -0.156434 0.000000
    outer loop
      vertex -11.0000 21.0000 14.0000
      vertex -10.4616 17.6008 14.0000
      vertex -10.4616 17.6008 20.0000
    endloop
  endfacet
  facet normal -0.987688 -0.156434 0.000000
    outer loop
      vertex -11.0000 21.0000 14.0000
      vertex -10.4616 17.6008 20.0000
      vertex -11.0000 21.0000 20.0000
    endloop
  endfacet
  facet normal 0.000000 0.000000 1.000000
    outer loop
      vertex 0.0000 21.0000 20.0000
      vertex -11.0000 21.0000 20.0000
      vertex -10.4616 17.6008 20.0000
    endloop
  endfacet
  facet normal 0.000000 0.000000 -1.000000
    outer loop
      vertex 0.0000 21.0000 14.0000
      vertex -10.4616 17.6008 14.0000
      vertex -11.0000 21.0000 14.0000
    endloop
  endfacet
  facet normal -0.891007 -0.453990 0.000000
    outer loop
      vertex -10.4616 17.6008 14.0000
      vertex -8.8992 14.5344 14.0000
      vertex -8.8992 14.5344 20.0000
    endloop
  endfacet
  facet normal -0.891007 -0.453990 0.000000
    outer loop
      vertex -10.4616 17.6008 14.0000
      vertex -8.8992 14.5344 20.0000
      vertex -10.4616 17.6008 20.0000
    endloop
  endfacet
  facet normal 0.000000 0.000000 1.000000
    outer loop
      vertex 0.0000 21.0000 20.0000
      vertex -10.4616 17.6008 20.0000
      vertex -8.8992 14.5344 20.0000
    endloop
  endfacet
  facet normal 0.000000 0.000000 -1.000000
    outer loop
      vertex 0.0000 21.0000 14.0000
      vertex -8.8992 14.5344 14.0000
      vertex -10.4616 17.6008 14.0000
    endloop
  endfacet
  facet normal -0.707107 -0.707107 0.000000
    outer loop
      vertex -8.8992 14.5344 14.0000
      vertex -6.4656 12.1008 14.0000
      vertex -6.4656 12.1008 20.0000
    endloop
  endfacet
  facet normal -0.707107 -0.707107 0.000000
    outer loop
      vertex -8.8992 14.5344 14.0000
      vertex -6.4656 12.1008 20.0000
      vertex -8.8992 14.5344 20.0000
    endloop
  endfacet
  facet normal 0.000000 0.000000 1.000000
    outer loop
      vertex 0.0000 21.0000 20.0000
      vertex -8.8992 14.5344 20.0000
      vertex -6.4656 12.1008 20.0000
    endloop
  endfacet
  facet normal 0.000000 0.000000 -1.000000
    outer loop
      vertex 0.0000 21.0000 14.0000
      vertex -6.4656 12.1008 14.0000
      vertex -8.8992 14.5344 14.0000
    endloop
  endfacet
  facet normal -0.453990 -0.891007 0.000000
    outer loop
      vertex -6.4656 12.1008 14.0000
      vertex -3.3992 10.5384 14.0000
      vertex -3.3992 10.5384 20.0000
    endloop
  endfacet
  facet normal -0.453990 -0.891007 0.000000
    outer loop
      vertex -6.4656 12.1008 14.0000
      vertex -3.3992 10.5384 20.0000
      vertex -6.4656 12.1008 20.0000
    endloop
  endfacet
  facet normal 0.000000 0.000000 1.000000
    outer loop
      vertex 0.0000 21.0000 20.0000
      vertex -6.4656 12.1008 20.0000
      vertex -3.3992 10.5384 20.0000
    endloop
  endfacet
  facet normal 0.000000 0.000000 -1.000000
    outer loop
      vertex 0.0000 21.0000 14.0000
      vertex -3.3992 10.5384 14.0000
      vertex -6.4656 12.1008 14.0000
    endloop
  endfacet
  facet normal -0.156434 -0.987688 0.000000
    outer loop
      vertex -3.3992 10.5384 14.0000
      vertex -0.0000 10.0000 14.0000
      vertex -0.0000 10.0000 20.0000
    endloop
  endfacet
  facet normal -0.156434 -0.987688 0.000000
    outer loop
      vertex -3.3992 10.5384 14.0000
      vertex -0.0000 10.0000 20.0000
      vertex -3.3992 10.5384 20.0000
    endloop
  endfacet
  facet normal 0.000000 0.000000 1.000000
    outer loop
      vertex 0.0000 21.0000 20.0000
      vertex -3.3992 10.5384 20.0000
      vertex -0.0000 10.0000 20.0000
    endloop
  endfacet
  facet normal 0.000000 0.000000 -1.000000
    outer loop
      vertex 0.0000 21.0000 14.0000
      vertex -0.0000 10.0000 14.0000
      vertex -3.3992 10.5384 14.0000
    endloop
  endfacet
  facet normal 0.156434 -0.987688 0.000000
    outer loop
      vertex -0.0000 10.0000 14.0000
      vertex 3.3992 10.5384 14.0000
      vertex 3.3992 10.5384 20.0000
    endloop
  endfacet
  facet normal 0.156434 -0.987688 0.000000
    outer loop
      vertex -0.0000 10.0000 14.0000
      vertex 3.3992 10.5384 20.0000
      vertex -0.0000 10.0000 20.0000
    endloop
  endfacet
  facet normal 0.000000 0.000000 1.000000
    outer loop
      vertex 0.0000 21.0000 20.0000
      vertex -0.0000 10.0000 20.0000
      vertex 3.3992 10.5384 20.0000
    endloop
  endfacet
  facet normal 0.000000 0.000000 -1.000000
    outer loop
      vertex 0.0000 21.0000 14.0000
      vertex 3.3992 10.5384 14.0000
      vertex -0.0000 10.0000 14.0000
    endloop
  endfacet
  facet normal 0.453990 -0.891007 0.000000
    outer loop
      vertex 3.3992 10.5384 14.0000
      vertex 6.4656 12.1008 14.0000
      vertex 6.4656 12.1008 20.0000
    endloop
  endfacet
  facet normal 0.453990 -0.891007 0.000000
    outer loop
      vertex 3.3992 10.5384 14.0000
      vertex 6.4656 12.1008 20.0000
      vertex 3.3992 10.5384 20.0000
    endloop
  endfacet
  facet normal 0.000000 0.000000 1.000000
    outer loop
      vertex 0.0000 21.0000 20.0000
      vertex 3.3992 10.5384 20.0000
      vertex 6.4656 12.1008 20.0000
    endloop
  endfacet
  facet normal 0.000000 0.000000 -1.000000
    outer loop
      vertex 0.0000 21.0000 14.0000
      vertex 6.4656 12.1008 14.0000
      vertex 3.3992 10.5384 14.0000
    endloop
  endfacet
  facet normal 0.707107 -0.707107 0.000000
    outer loop
      vertex 6.4656 12.1008 14.0000
      vertex 8.8992 14.5344 14.0000
      vertex 8.8992 14.5344 20.0000
    endloop
  endfacet
  facet normal 0.707107 -0.707107 0.000000
    outer loop
      vertex 6.4656 12.1008 14.0000
      vertex 8.8992 14.5344 20.0000
      vertex 6.4656 12.1008 20.0000
    endloop
  endfacet
  facet normal 0.000000 0.000000 1.000000
    outer loop
      vertex 0.0000 21.0000 20.0000
      vertex 6.4656 12.1008 20.0000
      vertex 8.8992 14.5344 20.0000
    endloop
  endfacet
  facet normal 0.000000 0.000000 -1.000000
    outer loop
      vertex 0.0000 21.0000 14.0000
      vertex 8.8992 14.5344 14.0000
      vertex 6.4656 12.1008 14.0000
    endloop
  endfacet
  facet normal 0.891007 -0.453990 0.000000
    outer loop
      vertex 8.8992 14.5344 14.0000
      vertex 10.4616 17.6008 14.0000
      vertex 10.4616 17.6008 20.0000
    endloop
  endfacet
  facet normal 0.891007 -0.453990 0.000000
    outer loop
      vertex 8.8992 14.5344 14.0000
      vertex 10.4616 17.6008 20.0000
      vertex 8.8992 14.5344 20.0000
    endloop
  endfacet
  facet normal 0.000000 0.000000 1.000000
    outer loop
      vertex 0.0000 21.0000 20.0000
      vertex 8.8992 14.5344 20.0000
      vertex 10.4616 17.6008 20.0000
    endloop
  endfacet
  facet normal 0.000000 0.000000 -1.000000
    outer loop
      vertex 0.0000 21.0000 14.0000
      vertex 10.4616 17.6008 14.0000
      vertex 8.8992 14.5344 14.0000
    endloop
  endfacet
  facet normal 0.987688 -0.156434 0.000000
    outer loop
      vertex 10.4616 17.6008 14.0000
      vertex 11.0000 21.0000 14.0000
      vertex 11.0000 21.0000 20.0000
    endloop
  endfacet
  facet normal 0.987688 -0.156434 0.000000
    outer loop
      vertex 10.4616 17.6008 14.0000
      vertex 11.0000 21.0000 20.0000
      vertex 10.4616 17.6008 20.0000
    endloop
  endfacet
  facet normal 0.000000 0.000000 1.000000
    outer loop
      vertex 0.0000 21.0000 20.0000
      vertex 10.4616 17.6008 20.0000
      vertex 11.0000 21.0000 20.0000
    endloop
  endfacet
  facet normal 0.000000 0.000000 -1.000000
    outer loop
      vertex 0.0000 21.0000 14.0000
      vertex 11.0000 21.0000 14.0000
      vertex 10.4616 17.6008 14.0000
    endloop
  endfacet
  facet normal 0.980785 0.195090 0.000000
    outer loop
      vertex 5.0000 21.0000 14.0000
      vertex 4.6194 22.9134 14.0000
      vertex 4.6194 22.9134 18.0000
    endloop
  endfacet
  facet normal 0.980785 0.195090 0.000000
    outer loop
      vertex 5.0000 21.0000 14.0000
      vertex 4.6194 22.9134 18.0000
      vertex 5.0000 21.0000 18.0000
    endloop
  endfacet
  facet normal 0.000000 0.000000 1.000000
    outer loop
      vertex 0.0000 21.0000 18.0000
      vertex 5.0000 21.0000 18.0000
      vertex 4.6194 22.9134 18.0000
    endloop
  endfacet
  facet normal 0.000000 0.000000 -1.000000
    outer loop
      vertex 0.0000 21.0000 14.0000
      vertex 4.6194 22.9134 14.0000
      vertex 5.0000 21.0000 14.0000
    endloop
  endfacet
  facet normal 0.831470 0.555570 0.000000
    outer loop
      vertex 4.6194 22.9134 14.0000
      vertex 3.5355 24.5355 14.0000
      vertex 3.5355 24.5355 18.0000
    endloop
  endfacet
  facet normal 0.831470 0.555570 0.000000
    outer loop
      vertex 4.6194 22.9134 14.0000
      vertex 3.5355 24.5355 18.0000
      vertex 4.6194 22.9134 18.0000
    endloop
  endfacet
  facet normal 0.000000 0.000000 1.000000
    outer loop
      vertex 0.0000 21.0000 18.0000
      vertex 4.6194 22.9134 18.0000
      vertex 3.5355 24.5355 18.0000
    endloop
  endfacet
  facet normal 0.000000 0.000000 -1.000000
    outer loop
      vertex 0.0000 21.0000 14.0000
      vertex 3.5355 24.5355 14.0000
      vertex 4.6194 22.9134 14.0000
    endloop
  endfacet
  facet normal 0.555570 0.831470 0.000000
    outer loop
      vertex 3.5355 24.5355 14.0000
      vertex 1.9134 25.6194 14.0000
      vertex 1.9134 25.6194 18.0000
    endloop
  endfacet
  facet normal 0.555570 0.831470 0.000000
    outer loop
      vertex 3.5355 24.5355 14.0000
      vertex 1.9134 25.6194 18.0000
      vertex 3.5355 24.5355 18.0000
    endloop
  endfacet
  facet normal 0.000000 0.000000 1.000000
    outer loop
      vertex 0.0000 21.0000 18.0000
      vertex 3.5355 24.5355 18.0000
      vertex 1.9134 25.6194 18.0000
    endloop
  endfacet
  facet normal 0.000000 0.000000 -1.000000
    outer loop
      vertex 0.0000 21.0000 14.0000
      vertex 1.9134 25.6194 14.0000
      vertex 3.5355 24.5355 14.0000
    endloop
  endfacet
  facet normal 0.195090 0.980785 0.000000
    outer loop
      vertex 1.9134 25.6194 14.0000
      vertex 0.0000 26.0000 14.0000
      vertex 0.0000 26.0000 18.0000
    endloop
  endfacet
  facet normal 0.195090 0.980785 0.000000
    outer loop
      vertex 1.9134 25.6194 14.0000
      vertex 0.0000 26.0000 18.0000
      vertex 1.9134 25.6194 18.0000
    endloop
  endfacet
  facet normal 0.000000 0.000000 1.000000
    outer loop
      vertex 0.0000 21.0000 18.0000
      vertex 1.9134 25.6194 18.0000
      vertex 0.0000 26.0000 18.0000
    endloop
  endfacet
  facet normal 0.000000 0.000000 -1.000000
    outer loop
      vertex 0.0000 21.0000 14.0000
      vertex 0.0000 26.0000 14.0000
      vertex 1.9134 25.6194 14.0000
    endloop
  endfacet
  facet normal -0.195090 0.980785 0.000000
    outer loop
      vertex 0.0000 26.0000 14.0000
      vertex -1.9134 25.6194 14.0000
      vertex -1.9134 25.6194 18.0000
    endloop
  endfacet
  facet normal -0.195090 0.980785 0.000000
    outer loop
      vertex 0.0000 26.0000 14.0000
      vertex -1.9134 25.6194 18.0000
      vertex 0.0000 26.0000 18.0000
    endloop
  endfacet
  facet normal 0.000000 0.000000 1.000000
    outer loop
      vertex 0.0000 21.0000 18.0000
      vertex 0.0000 26.0000 18.0000
      vertex -1.9134 25.6194 18.0000
    endloop
  endfacet
  facet normal 0.000000 0.000000 -1.000000
    outer loop
      vertex 0.0000 21.0000 14.0000
      vertex -1.9134 25.6194 14.0000
      vertex 0.0000 26.0000 14.0000
    endloop
  endfacet
  facet normal -0.555570 0.831470 0.000000
    outer loop
      vertex -1.9134 25.6194 14.0000
      vertex -3.5355 24.5355 14.0000
      vertex -3.5355 24.5355 18.0000
    endloop
  endfacet
  facet normal -0.555570 0.831470 0.000000
    outer loop
      vertex -1.9134 25.6194 14.0000
      vertex -3.5355 24.5355 18.0000
      vertex -1.9134 25.6194 18.0000
    endloop
  endfacet
  facet normal 0.000000 0.000000 1.000000
    outer loop
      vertex 0.0000 21.0000 18.0000
      vertex -1.9134 25.6194 18.0000
      vertex -3.5355 24.5355 18.0000
    endloop
  endfacet
  facet normal 0.000000 0.000000 -1.000000
    outer loop
      vertex 0.0000 21.0000 14.0000
      vertex -3.5355 24.5355 14.0000
      vertex -1.9134 25.6194 14.0000
    endloop
  endfacet
  facet normal -0.831470 0.555570 0.000000
    outer loop
      vertex -3.5355 24.5355 14.0000
      vertex -4.6194 22.9134 14.0000
      vertex -4.6194 22.9134 18.0000
    endloop
  endfacet
  facet normal -0.831470 0.555570 0.000000
    outer loop
      vertex -3.5355 24.5355 14.0000
      vertex -4.6194 22.9134 18.0000
      vertex -3.5355 24.5355 18.0000
    endloop
  endfacet
  facet normal 0.000000 0.000000 1.000000
    outer loop
      vertex 0.0000 21.0000 18.0000
      vertex -3.5355 24.5355 18.0000
      vertex -4.6194 22.9134 18.0000
    endloop
  endfacet
  facet normal 0.000000 0.000000 -1.000000
    outer loop
      vertex 0.0000 21.0000 14.0000
      vertex -4.6194 22.9134 14.0000
      vertex -3.5355 24.5355 14.0000
    endloop
  endfacet
  facet normal -0.980785 0.195090 0.000000
    outer loop
      vertex -4.6194 22.9134 14.0000
      vertex -5.0000 21.0000 14.0000
      vertex -5.0000 21.0000 18.0000
    endloop
  endfacet
  facet normal -0.980785 0.195090 0.000000
    outer loop
      vertex -4.6194 22.9134 14.0000
      vertex -5.0000 21.0000 18.0000
      vertex -4.6194 22.9134 18.0000
    endloop
  endfacet
  facet normal 0.000000 0.000000 1.000000
    outer loop
      vertex 0.0000 21.0000 18.0000
      vertex -4.6194 22.9134 18.0000
      vertex -5.0000 21.0000 18.0000
    endloop
  endfacet
  facet normal 0.000000 0.000000 -1.000000
    outer loop
      vertex 0.0000 21.0000 14.0000
      vertex -5.0000 21.0000 14.0000
      vertex -4.6194 22.9134 14.0000
    endloop
  endfacet
  facet normal -0.980785 -0.195090 0.000000
    outer loop
      vertex -5.0000 21.0000 14.0000
      vertex -4.6194 19.0866 14.0000
      vertex -4.6194 19.0866 18.0000
    endloop
  endfacet
  facet normal -0.980785 -0.195090 0.000000
    outer loop
      vertex -5.0000 21.0000 14.0000
      vertex -4.6194 19.0866 18.0000
      vertex -5.0000 21.0000 18.0000
    endloop
  endfacet
  facet normal 0.000000 0.000000 1.000000
    outer loop
      vertex 0.0000 21.0000 18.0000
      vertex -5.0000 21.0000 18.0000
      vertex -4.6194 19.0866 18.0000
    endloop
  endfacet
  facet normal 0.000000 0.000000 -1.000000
    outer loop
      vertex 0.0000 21.0000 14.0000
      vertex -4.6194 19.0866 14.0000
      vertex -5.0000 21.0000 14.0000
    endloop
  endfacet
  facet normal -0.831470 -0.555570 0.000000
    outer loop
      vertex -4.6194 19.0866 14.0000
      vertex -3.5355 17.4645 14.0000
      vertex -3.5355 17.4645 18.0000
    endloop
  endfacet
  facet normal -0.831470 -0.555570 0.000000
    outer loop
      vertex -4.6194 19.0866 14.0000
      vertex -3.5355 17.4645 18.0000
      vertex -4.6194 19.0866 18.0000
    endloop
  endfacet
  facet normal 0.000000 0.000000 1.000000
    outer loop
      vertex 0.0000 21.0000 18.0000
      vertex -4.6194 19.0866 18.0000
      vertex -3.5355 17.4645 18.0000
    endloop
  endfacet
  facet normal 0.000000 0.000000 -1.000000
    outer loop
      vertex 0.0000 21.0000 14.0000
      vertex -3.5355 17.4645 14.0000
      vertex -4.6194 19.0866 14.0000
    endloop
  endfacet
  facet normal -0.555570 -0.831470 0.000000
    outer loop
      vertex -3.5355 17.4645 14.0000
      vertex -1.9134 16.3806 14.0000
      vertex -1.9134 16.3806 18.0000
    endloop
  endfacet
  facet normal -0.555570 -0.831470 0.000000
    outer loop
      vertex -3.5355 17.4645 14.0000
      vertex -1.9134 16.3806 18.0000
      vertex -3.5355 17.4645 18.0000
    endloop
  endfacet
  facet normal 0.000000 0.000000 1.000000
    outer loop
      vertex 0.0000 21.0000 18.0000
      vertex -3.5355 17.4645 18.0000
      vertex -1.9134 16.3806 18.0000
    endloop
  endfacet
  facet normal 0.000000 0.000000 -1.000000
    outer loop
      vertex 0.0000 21.0000 14.0000
      vertex -1.9134 16.3806 14.0000
      vertex -3.5355 17.4645 14.0000
    endloop
  endfacet
  facet normal -0.195090 -0.980785 0.000000
    outer loop
      vertex -1.9134 16.3806 14.0000
      vertex -0.0000 16.0000 14.0000
      vertex -0.0000 16.0000 18.0000
    endloop
  endfacet
  facet normal -0.195090 -0.980785 0.000000
    outer loop
      vertex -1.9134 16.3806 14.0000
      vertex -0.0000 16.0000 18.0000
      vertex -1.9134 16.3806 18.0000
    endloop
  endfacet
  facet normal 0.000000 0.000000 1.000000
    outer loop
      vertex 0.0000 21.0000 18.0000
      vertex -1.9134 16.3806 18.0000
      vertex -0.0000 16.0000 18.0000
    endloop
  endfacet
  facet normal 0.000000 0.000000 -1.000000
    outer loop
      vertex 0.0000 21.0000 14.0000
      vertex -0.0000 16.0000 14.0000
      vertex -1.9134 16.3806 14.0000
    endloop
  endfacet
  facet normal 0.195090 -0.980785 0.000000
    outer loop
      vertex -0.0000 16.0000 14.0000
      vertex 1.9134 16.3806 14.0000
      vertex 1.9134 16.3806 18.0000
    endloop
  endfacet
  facet normal 0.195090 -0.980785 0.000000
    outer loop
      vertex -0.0000 16.0000 14.0000
      vertex 1.9134 16.3806 18.0000
      vertex -0.0000 16.0000 18.0000
    endloop
  endfacet
  facet normal 0.000000 0.000000 1.000000
    outer loop
      vertex 0.0000 21.0000 18.0000
      vertex -0.0000 16.0000 18.0000
      vertex 1.9134 16.3806 18.0000
    endloop
  endfacet
  facet normal 0.000000 0.000000 -1.000000
    outer loop
      vertex 0.0000 21.0000 14.0000
      vertex 1.9134 16.3806 14.0000
      vertex -0.0000 16.0000 14.0000
    endloop
  endfacet
  facet normal 0.555570 -0.831470 0.000000
    outer loop
      vertex 1.9134 16.3806 14.0000
      vertex 3.5355 17.4645 14.0000
      vertex 3.5355 17.4645 18.0000
    endloop
  endfacet
  facet normal 0.555570 -0.831470 0.000000
    outer loop
      vertex 1.9134 16.3806 14.0000
      vertex 3.5355 17.4645 18.0000
      vertex 1.9134 16.3806 18.0000
    endloop
  endfacet
  facet normal 0.000000 0.000000 1.000000
    outer loop
      vertex 0.0000 21.0000 18.0000
      vertex 1.9134 16.3806 18.0000
      vertex 3.5355 17.4645 18.0000
    endloop
  endfacet
  facet normal 0.000000 0.000000 -1.000000
    outer loop
      vertex 0.0000 21.0000 14.0000
      vertex 3.5355 17.4645 14.0000
      vertex 1.9134 16.3806 14.0000
    endloop
  endfacet
  facet normal 0.831470 -0.555570 0.000000
    outer loop
      vertex 3.5355 17.4645 14.0000
      vertex 4.6194 19.0866 14.0000
      vertex 4.6194 19.0866 18.0000
    endloop
  endfacet
  facet normal 0.831470 -0.555570 0.000000
    outer loop
      vertex 3.5355 17.4645 14.0000
      vertex 4.6194 19.0866 18.0000
      vertex 3.5355 17.4645 18.0000
    endloop
  endfacet
  facet normal 0.000000 0.000000 1.000000
    outer loop
      vertex 0.0000 21.0000 18.0000
      vertex 3.5355 17.4645 18.0000
      vertex 4.6194 19.0866 18.0000
    endloop
  endfacet
  facet normal 0.000000 0.000000 -1.000000
    outer loop
      vertex 0.0000 21.0000 14.0000
      vertex 4.6194 19.0866 14.0000
      vertex 3.5355 17.4645 14.0000
    endloop
  endfacet
  facet normal 0.980785 -0.195090 0.000000
    outer loop
      vertex 4.6194 19.0866 14.0000
      vertex 5.0000 21.0000 14.0000
      vertex 5.0000 21.0000 18.0000
    endloop
  endfacet
  facet normal 0.980785 -0.195090 0.000000
    outer loop
      vertex 4.6194 19.0866 14.0000
      vertex 5.0000 21.0000 18.0000
      vertex 4.6194 19.0866 18.0000
    endloop
  endfacet
  facet normal 0.000000 0.000000 1.000000
    outer loop
      vertex 0.0000 21.0000 18.0000
      vertex 4.6194 19.0866 18.0000
      vertex 5.0000 21.0000 18.0000
    endloop
  endfacet
  facet normal 0.000000 0.000000 -1.000000
    outer loop
      vertex 0.0000 21.0000 14.0000
      vertex 5.0000 21.0000 14.0000
      vertex 4.6194 19.0866 14.0000
    endloop
  endfacet
endsolid adapter
