solid adapter
  facet normal 0.000000 0.000000 -1.000000
    outer loop
      vertex -30.0000 -15.0000 0.0000
      vertex 30.0000 -15.0000 0.0000
      vertex 30.0000 15.0000 0.0000
    endloop
  endfacet
  facet normal 0.000000 0.000000 -1.000000
    outer loop
      vertex -30.0000 -15.0000 0.0000
      vertex 30.0000 15.0000 0.0000
      vertex -30.0000 15.0000 0.0000
    endloop
  endfacet
  facet normal 0.000000 0.000000 1.000000
    outer loop
      vertex -30.0000 -15.0000 6.0000
      vertex 30.0000 15.0000 6.0000
      vertex 30.0000 -15.0000 6.0000
    endloop
  endfacet
  facet normal 0.000000 0.000000 1.000000
    outer loop
      vertex -30.0000 -15.0000 6.0000
      vertex -30.0000 15.0000 6.0000
      vertex 30.0000 15.0000 6.0000
    endloop
  endfacet
  facet normal 0.000000 -1.000000 0.000000
    outer loop
      vertex -30.0000 -15.0000 0.0000
      vertex -30.0000 -15.0000 6.0000
      vertex 30.0000 -15.0000 6.0000
    endloop
  endfacet
  facet normal 0.000000 -1.000000 0.000000
    outer loop
      vertex -30.0000 -15.0000 0.0000
      vertex 30.0000 -15.0000 6.0000
      vertex 30.0000 -15.0000 0.0000
    endloop
  endfacet
  facet normal 0.000000 1.000000 0.000000
    outer loop
      vertex 30.0000 15.0000 0.0000
      vertex 30.0000 15.0000 6.0000
      vertex -30.0000 15.0000 6.0000
    endloop
  endfacet
  facet normal 0.000000 1.000000 0.000000
    outer loop
      vertex 30.0000 15.0000 0.0000
      vertex -30.0000 15.0000 6.0000
      vertex -30.0000 15.0000 0.0000
    endloop
  endfacet
  facet normal -1.000000 0.000000 0.000000
    outer loop
      vertex -30.0000 -15.0000 0.0000
      vertex -30.0000 15.0000 0.0000
      vertex -30.0000 15.0000 6.0000
    endloop
  endfacet
  facet normal -1.000000 0.000000 0.000000
    outer loop
      vertex -30.0000 -15.0000 0.0000
      vertex -30.0000 15.0000 6.0000
      vertex -30.0000 -15.0000 6.0000
    endloop
  endfacet
  facet normal 1.000000 0.000000 0.000000
    outer loop
      vertex 30.0000 -15.0000 0.0000
      vertex 30.0000 -15.0000 6.0000
      vertex 30.0000 15.0000 6.0000
    endloop
  endfacet
  facet normal 1.000000 0.000000 0.000000
    outer loop
      vertex 30.0000 -15.0000 0.0000
      vertex 30.0000 15.0000 6.0000
      vertex 30.0000 15.0000 0.0000
    endloop
  endfacet
  facet normal 0.991445 0.130526 0.000000
    outer loop
      vertex 12.0000 0.0000 6.0000
      vertex 11.5911 3.1058 6.0000
      vertex 11.5911 3.1058 14.0000
    endloop
  endfacet
  facet normal 0.991445 0.130526 0.000000
    outer loop
      vertex 12.0000 0.0000 6.0000
      vertex 11.5911 3.1058 14.0000
      vertex 12.0000 0.0000 14.0000
    endloop
  endfacet
  facet normal 0.000000 0.000000 1.000000
    outer loop
      vertex 0.0000 0.0000 14.0000
      vertex 12.0000 0.0000 14.0000
      vertex 11.5911 3.1058 14.0000
    endloop
  endfacet
  facet normal 0.000000 0.000000 -1.000000
    outer loop
      vertex 0.0000 0.0000 6.0000
      vertex 11.5911 3.1058 6.0000
      vertex 12.0000 0.0000 6.0000
    endloop
  endfacet
  facet normal 0.923880 0.382683 0.000000
    outer loop
      vertex 11.5911 3.1058 6.0000
      vertex 10.3923 6.0000 6.0000
      vertex 10.3923 6.0000 14.0000
    endloop
  endfacet
  facet normal 0.923880 0.382683 0.000000
    outer loop
      vertex 11.5911 3.1058 6.0000
      vertex 10.3923 6.0000 14.0000
      vertex 11.5911 3.1058 14.0000
    endloop
  endfacet
  facet normal 0.000000 0.000000 1.000000
    outer loop
      vertex 0.0000 0.0000 14.0000
      vertex 11.5911 3.1058 14.0000
      vertex 10.3923 6.0000 14.0000
    endloop
  endfacet
  facet normal 0.000000 0.000000 -1.000000
    outer loop
      vertex 0.0000 0.0000 6.0000
      vertex 10.3923 6.0000 6.0000
      vertex 11.5911 3.1058 6.0000
    endloop
  endfacet
  facet normal 0.793353 0.608761 0.000000
    outer loop
      vertex 10.3923 6.0000 6.0000
      vertex 8.4853 8.4853 6.0000
      vertex 8.4853 8.4853 14.0000
    endloop
  endfacet
  facet normal 0.793353 0.608761 0.000000
    outer loop
      vertex 10.3923 6.0000 6.0000
      vertex 8.4853 8.4853 14.0000
      vertex 10.3923 6.0000 14.0000
    endloop
  endfacet
  facet normal 0.000000 0.000000 1.000000
    outer loop
      vertex 0.0000 0.0000 14.0000
      vertex 10.3923 6.0000 14.0000
      vertex 8.4853 8.4853 14.0000
    endloop
  endfacet
  facet normal 0.000000 0.000000 -1.000000
    outer loop
      vertex 0.0000 0.0000 6.0000
      vertex 8.4853 8.4853 6.0000
      vertex 10.3923 6.0000 6.0000
    endloop
  endfacet
  facet normal 0.608761 0.793353 0.000000
    outer loop
      vertex 8.4853 8.4853 6.0000
      vertex 6.0000 10.3923 6.0000
      vertex 6.0000 10.3923 14.0000
    endloop
  endfacet
  facet normal 0.608761 0.793353 0.000000
    outer loop
      vertex 8.4853 8.4853 6.0000
      vertex 6.0000 10.3923 14.0000
      vertex 8.4853 8.4853 14.0000
    endloop
  endfacet
  facet normal 0.000000 0.000000 1.000000
    outer loop
      vertex 0.0000 0.0000 14.0000
      vertex 8.4853 8.4853 14.0000
      vertex 6.0000 10.3923 14.0000
    endloop
  endfacet
  facet normal 0.000000 0.000000 -1.000000
    outer loop
      vertex 0.0000 0.0000 6.0000
      vertex 6.0000 10.3923 6.0000
      vertex 8.4853 8.4853 6.0000
    endloop
  endfacet
  facet normal 0.382683 0.923880 0.000000
    outer loop
      vertex 6.0000 10.3923 6.0000
      vertex 3.1058 11.5911 6.0000
      vertex 3.1058 11.5911 14.0000
    endloop
  endfacet
  facet normal 0.382683 0.923880 0.000000
    outer loop
      vertex 6.0000 10.3923 6.0000
      vertex 3.1058 11.5911 14.0000
      vertex 6.0000 10.3923 14.0000
    endloop
  endfacet
  facet normal 0.000000 0.000000 1.000000
    outer loop
      vertex 0.0000 0.0000 14.0000
      vertex 6.0000 10.3923 14.0000
      vertex 3.1058 11.5911 14.0000
    endloop
  endfacet
  facet normal 0.000000 0.000000 -1.000000
    outer loop
      vertex 0.0000 0.0000 6.0000
      vertex 3.1058 11.5911 6.0000
      vertex 6.0000 10.3923 6.0000
    endloop
  endfacet
  facet normal 0.130526 0.991445 0.000000
    outer loop
      vertex 3.1058 11.5911 6.0000
      vertex 0.0000 12.0000 6.0000
      vertex 0.0000 12.0000 14.0000
    endloop
  endfacet
  facet normal 0.130526 0.991445 0.000000
    outer loop
      vertex 3.1058 11.5911 6.0000
      vertex 0.0000 12.0000 14.0000
      vertex 3.1058 11.5911 14.0000
    endloop
  endfacet
  facet normal 0.000000 0.000000 1.000000
    outer loop
      vertex 0.0000 0.0000 14.0000
      vertex 3.1058 11.5911 14.0000
      vertex 0.0000 12.0000 14.0000
    endloop
  endfacet
  facet normal 0.000000 0.000000 -1.000000
    outer loop
      vertex 0.0000 0.0000 6.0000
      vertex 0.0000 12.0000 6.0000
      vertex 3.1058 11.5911 6.0000
    endloop
  endfacet
  facet normal -0.130526 0.991445 0.000000
    outer loop
      vertex 0.0000 12.0000 6.0000
      vertex -3.1058 11.5911 6.0000
      vertex -3.1058 11.5911 14.0000
    endloop
  endfacet
  facet normal -0.130526 0.991445 0.000000
    outer loop
      vertex 0.0000 12.0000 6.0000
      vertex -3.1058 11.5911 14.0000
      vertex 0.0000 12.0000 14.0000
    endloop
  endfacet
  facet normal 0.000000 0.000000 1.000000
    outer loop
      vertex 0.0000 0.0000 14.0000
      vertex 0.0000 12.0000 14.0000
      vertex -3.1058 11.5911 14.0000
    endloop
  endfacet
  facet normal 0.000000 0.000000 -1.000000
    outer loop
      vertex 0.0000 0.0000 6.0000
      vertex -3.1058 11.5911 6.0000
      vertex 0.0000 12.0000 6.0000
    endloop
  endfacet
  facet normal -0.382683 0.923880 0.000000
    outer loop
      vertex -3.1058 11.5911 6.0000
      vertex -6.0000 10.3923 6.0000
      vertex -6.0000 10.3923 14.0000
    endloop
  endfacet
  facet normal -0.382683 0.923880 0.000000
    outer loop
      vertex -3.1058 11.5911 6.0000
      vertex -6.0000 10.3923 14.0000
      vertex -3.1058 11.5911 14.0000
    endloop
  endfacet
  facet normal 0.000000 0.000000 1.000000
    outer loop
      vertex 0.0000 0.0000 14.0000
      vertex -3.1058 11.5911 14.0000
      vertex -6.0000 10.3923 14.0000
    endloop
  endfacet
  facet normal 0.000000 0.000000 -1.000000
    outer loop
      vertex 0.0000 0.0000 6.0000
      vertex -6.0000 10.3923 6.0000
      vertex -3.1058 11.5911 6.0000
    endloop
  endfacet
  facet normal -0.608761 0.793353 0.000000
    outer loop
      vertex -6.0000 10.3923 6.0000
      vertex -8.4853 8.4853 6.0000
      vertex -8.4853 8.4853 14.0000
    endloop
  endfacet
  facet normal -0.608761 0.793353 0.000000
    outer loop
      vertex -6.0000 10.3923 6.0000
      vertex -8.4853 8.4853 14.0000
      vertex -6.0000 10.3923 14.0000
    endloop
  endfacet
  facet normal 0.000000 0.000000 1.000000
    outer loop
      vertex 0.0000 0.0000 14.0000
      vertex -6.0000 10.3923 14.0000
      vertex -8.4853 8.4853 14.0000
    endloop
  endfacet
  facet normal 0.000000 0.000000 -1.000000
    outer loop
      vertex 0.0000 0.0000 6.0000
      vertex -8.4853 8.4853 6.0000
      vertex -6.0000 10.3923 6.0000
    endloop
  endfacet
  facet normal -0.793353 0.608761 0.000000
    outer loop
      vertex -8.4853 8.4853 6.0000
      vertex -10.3923 6.0000 6.0000
      vertex -10.3923 6.0000 14.0000
    endloop
  endfacet
  facet normal -0.793353 0.608761 0.000000
    outer loop
      vertex -8.4853 8.4853 6.0000
      vertex -10.3923 6.0000 14.0000
      vertex -8.4853 8.4853 14.0000
    endloop
  endfacet
  facet normal 0.000000 0.000000 1.000000
    outer loop
      vertex 0.0000 0.0000 14.0000
      vertex -8.4853 8.4853 14.0000
      vertex -10.3923 6.0000 14.0000
    endloop
  endfacet
  facet normal 0.000000 0.000000 -1.000000
    outer loop
      vertex 0.0000 0.0000 6.0000
      vertex -10.3923 6.0000 6.0000
      vertex -8.4853 8.4853 6.0000
    endloop
  endfacet
  facet normal -0.923880 0.382683 0.000000
    outer loop
      vertex -10.3923 6.0000 6.0000
      vertex -11.5911 3.1058 6.0000
      vertex -11.5911 3.1058 14.0000
    endloop
  endfacet
  facet normal -0.923880 0.382683 0.000000
    outer loop
      vertex -10.3923 6.0000 6.0000
      vertex -11.5911 3.1058 14.0000
      vertex -10.3923 6.0000 14.0000
    endloop
  endfacet
  facet normal 0.000000 0.000000 1.000000
    outer loop
      vertex 0.0000 0.0000 14.0000
      vertex -10.3923 6.0000 14.0000
      vertex -11.5911 3.1058 14.0000
    endloop
  endfacet
  facet normal 0.000000 0.000000 -1.000000
    outer loop
      vertex 0.0000 0.0000 6.0000
      vertex -11.5911 3.1058 6.0000
      vertex -10.3923 6.0000 6.0000
    endloop
  endfacet
  facet normal -0.991445 0.130526 0.000000
    outer loop
      vertex -11.5911 3.1058 6.0000
      vertex -12.0000 0.0000 6.0000
      vertex -12.0000 0.0000 14.0000
    endloop
  endfacet
  facet normal -0.991445 0.130526 0.000000
    outer loop
      vertex -11.5911 3.1058 6.0000
      vertex -12.0000 0.0000 14.0000
      vertex -11.5911 3.1058 14.0000
    endloop
  endfacet
  facet normal 0.000000 0.000000 1.000000
    outer loop
      vertex 0.0000 0.0000 14.0000
      vertex -11.5911 3.1058 14.0000
      vertex -12.0000 0.0000 14.0000
    endloop
  endfacet
  facet normal 0.000000 0.000000 -1.000000
    outer loop
      vertex 0.0000 0.0000 6.0000
      vertex -12.0000 0.0000 6.0000
      vertex -11.5911 3.1058 6.0000
    endloop
  endfacet
  facet normal -0.991445 -0.130526 0.000000
    outer loop
      vertex -12.0000 0.0000 6.0000
      vertex -11.5911 -3.1058 6.0000
      vertex -11.5911 -3.1058 14.0000
    endloop
  endfacet
  facet normal -0.991445 -0.130526 0.000000
    outer loop
      vertex -12.0000 0.0000 6.0000
      vertex -11.5911 -3.1058 14.0000
      vertex -12.0000 0.0000 14.0000
    endloop
  endfacet
  facet normal 0.000000 0.000000 1.000000
    outer loop
      vertex 0.0000 0.0000 14.0000
      vertex -12.0000 0.0000 14.0000
      vertex -11.5911 -3.1058 14.0000
    endloop
  endfacet
  facet normal 0.000000 0.000000 -1.000000
    outer loop
      vertex 0.0000 0.0000 6.0000
      vertex -11.5911 -3.1058 6.0000
      vertex -12.0000 0.0000 6.0000
    endloop
  endfacet
  facet normal -0.923880 -0.382683 0.000000
    outer loop
      vertex -11.5911 -3.1058 6.0000
      vertex -10.3923 -6.0000 6.0000
      vertex -10.3923 -6.0000 14.0000
    endloop
  endfacet
  facet normal -0.923880 -0.382683 0.000000
    outer loop
      vertex -11.5911 -3.1058 6.0000
      vertex -10.3923 -6.0000 14.0000
      vertex -11.5911 -3.1058 14.0000
    endloop
  endfacet
  facet normal 0.000000 0.000000 1.000000
    outer loop
      vertex 0.0000 0.0000 14.0000
      vertex -11.5911 -3.1058 14.0000
      vertex -10.3923 -6.0000 14.0000
    endloop
  endfacet
  facet normal 0.000000 0.000000 -1.000000
    outer loop
      vertex 0.0000 0.0000 6.0000
      vertex -10.3923 -6.0000 6.0000
      vertex -11.5911 -3.1058 6.0000
    endloop
  endfacet
  facet normal -0.793353 -0.608761 0.000000
    outer loop
      vertex -10.3923 -6.0000 6.0000
      vertex -8.4853 -8.4853 6.0000
      vertex -8.4853 -8.4853 14.0000
    endloop
  endfacet
  facet normal -0.793353 -0.608761 0.000000
    outer loop
      vertex -10.3923 -6.0000 6.0000
      vertex -8.4853 -8.4853 14.0000
      vertex -10.3923 -6.0000 14.0000
    endloop
  endfacet
  facet normal 0.000000 0.000000 1.000000
    outer loop
      vertex 0.0000 0.0000 14.0000
      vertex -10.3923 -6.0000 14.0000
      vertex -8.4853 -8.4853 14.0000
    endloop
  endfacet
  facet normal 0.000000 0.000000 -1.000000
    outer loop
      vertex 0.0000 0.0000 6.0000
      vertex -8.4853 -8.4853 6.0000
      vertex -10.3923 -6.0000 6.0000
    endloop
  endfacet
  facet normal -0.608761 -0.793353 0.000000
    outer loop
      vertex -8.4853 -8.4853 6.0000
      vertex -6.0000 -10.3923 6.0000
      vertex -6.0000 -10.3923 14.0000
    endloop
  endfacet
  facet normal -0.608761 -0.793353 0.000000
    outer loop
      vertex -8.4853 -8.4853 6.0000
      vertex -6.0000 -10.3923 14.0000
      vertex -8.4853 -8.4853 14.0000
    endloop
  endfacet
  facet normal 0.000000 0.000000 1.000000
    outer loop
      vertex 0.0000 0.0000 14.0000
      vertex -8.4853 -8.4853 14.0000
      vertex -6.0000 -10.3923 14.0000
    endloop
  endfacet
  facet normal 0.000000 0.000000 -1.000000
    outer loop
      vertex 0.0000 0.0000 6.0000
      vertex -6.0000 -10.3923 6.0000
      vertex -8.4853 -8.4853 6.0000
    endloop
  endfacet
  facet normal -0.382683 -0.923880 0.000000
    outer loop
      vertex -6.0000 -10.3923 6.0000
      vertex -3.1058 -11.5911 6.0000
      vertex -3.1058 -11.5911 14.0000
    endloop
  endfacet
  facet normal -0.382683 -0.923880 0.000000
    outer loop
      vertex -6.0000 -10.3923 6.0000
      vertex -3.1058 -11.5911 14.0000
      vertex -6.0000 -10.3923 14.0000
    endloop
  endfacet
  facet normal 0.000000 0.000000 1.000000
    outer loop
      vertex 0.0000 0.0000 14.0000
      vertex -6.0000 -10.3923 14.0000
      vertex -3.1058 -11.5911 14.0000
    endloop
  endfacet
  facet normal 0.000000 0.000000 -1.000000
    outer loop
      vertex 0.0000 0.0000 6.0000
      vertex -3.1058 -11.5911 6.0000
      vertex -6.0000 -10.3923 6.0000
    endloop
  endfacet
  facet normal -0.130526 -0.991445 0.000000
    outer loop
      vertex -3.1058 -11.5911 6.0000
      vertex -0.0000 -12.0000 6.0000
      vertex -0.0000 -12.0000 14.0000
    endloop
  endfacet
  facet normal -0.130526 -0.991445 0.000000
    outer loop
      vertex -3.1058 -11.5911 6.0000
      vertex -0.0000 -12.0000 14.0000
      vertex -3.1058 -11.5911 14.0000
    endloop
  endfacet
  facet normal 0.000000 0.000000 1.000000
    outer loop
      vertex 0.0000 0.0000 14.0000
      vertex -3.1058 -11.5911 14.0000
      vertex -0.0000 -12.0000 14.0000
    endloop
  endfacet
  facet normal 0.000000 0.000000 -1.000000
    outer loop
      vertex 0.0000 0.0000 6.0000
      vertex -0.0000 -12.0000 6.0000
      vertex -3.1058 -11.5911 6.0000
    endloop
  endfacet
  facet normal 0.130526 -0.991445 0.000000
    outer loop
      vertex -0.0000 -12.0000 6.0000
      vertex 3.1058 -11.5911 6.0000
      vertex 3.1058 -11.5911 14.0000
    endloop
  endfacet
  facet normal 0.130526 -0.991445 0.000000
    outer loop
      vertex -0.0000 -12.0000 6.0000
      vertex 3.1058 -11.5911 14.0000
      vertex -0.0000 -12.0000 14.0000
    endloop
  endfacet
  facet normal 0.000000 0.000000 1.000000
    outer loop
      vertex 0.0000 0.0000 14.0000
      vertex -0.0000 -12.0000 14.0000
      vertex 3.1058 -11.5911 14.0000
    endloop
  endfacet
  facet normal 0.000000 0.000000 -1.000000
    outer loop
      vertex 0.0000 0.0000 6.0000
      vertex 3.1058 -11.5911 6.0000
      vertex -0.0000 -12.0000 6.0000
    endloop
  endfacet
  facet normal 0.382683 -0.923880 0.000000
    outer loop
      vertex 3.1058 -11.5911 6.0000
      vertex 6.0000 -10.3923 6.0000
      vertex 6.0000 -10.3923 14.0000
    endloop
  endfacet
  facet normal 0.382683 -0.923880 0.000000
    outer loop
      vertex 3.1058 -11.5911 6.0000
      vertex 6.0000 -10.3923 14.0000
      vertex 3.1058 -11.5911 14.0000
    endloop
  endfacet
  facet normal 0.000000 0.000000 1.000000
    outer loop
      vertex 0.0000 0.0000 14.0000
      vertex 3.1058 -11.5911 14.0000
      vertex 6.0000 -10.3923 14.0000
    endloop
  endfacet
  facet normal 0.000000 0.000000 -1.000000
    outer loop
      vertex 0.0000 0.0000 6.0000
      vertex 6.0000 -10.3923 6.0000
      vertex 3.1058 -11.5911 6.0000
    endloop
  endfacet
  facet normal 0.608761 -0.793353 0.000000
    outer loop
      vertex 6.0000 -10.3923 6.0000
      vertex 8.4853 -8.4853 6.0000
      vertex 8.4853 -8.4853 14.0000
    endloop
  endfacet
  facet normal 0.608761 -0.793353 0.000000
    outer loop
      vertex 6.0000 -10.3923 6.0000
      vertex 8.4853 -8.4853 14.0000
      vertex 6.0000 -10.3923 14.0000
    endloop
  endfacet
  facet normal 0.000000 0.000000 1.000000
    outer loop
      vertex 0.0000 0.0000 14.0000
      vertex 6.0000 -10.3923 14.0000
      vertex 8.4853 -8.4853 14.0000
    endloop
  endfacet
  facet normal 0.000000 0.000000 -1.000000
    outer loop
      vertex 0.0000 0.0000 6.0000
      vertex 8.4853 -8.4853 6.0000
      vertex 6.0000 -10.3923 6.0000
    endloop
  endfacet
  facet normal 0.793353 -0.608761 0.000000
    outer loop
      vertex 8.4853 -8.4853 6.0000
      vertex 10.3923 -6.0000 6.0000
      vertex 10.3923 -6.0000 14.0000
    endloop
  endfacet
  facet normal 0.793353 -0.608761 0.000000
    outer loop
      vertex 8.4853 -8.4853 6.0000
      vertex 10.3923 -6.0000 14.0000
      vertex 8.4853 -8.4853 14.0000
    endloop
  endfacet
  facet normal 0.000000 0.000000 1.000000
    outer loop
      vertex 0.0000 0.0000 14.0000
      vertex 8.4853 -8.4853 14.0000
      vertex 10.3923 -6.0000 14.0000
    endloop
  endfacet
  facet normal 0.000000 0.000000 -1.000000
    outer loop
      vertex 0.0000 0.0000 6.0000
      vertex 10.3923 -6.0000 6.0000
      vertex 8.4853 -8.4853 6.0000
    endloop
  endfacet
  facet normal 0.923880 -0.382683 0.000000
    outer loop
      vertex 10.3923 -6.0000 6.0000
      vertex 11.5911 -3.1058 6.0000
      vertex 11.5911 -3.1058 14.0000
    endloop
  endfacet
  facet normal 0.923880 -0.382683 0.000000
    outer loop
      vertex 10.3923 -6.0000 6.0000
      vertex 11.5911 -3.1058 14.0000
      vertex 10.3923 -6.0000 14.0000
    endloop
  endfacet
  facet normal 0.000000 0.000000 1.000000
    outer loop
      vertex 0.0000 0.0000 14.0000
      vertex 10.3923 -6.0000 14.0000
      vertex 11.5911 -3.1058 14.0000
    endloop
  endfacet
  facet normal 0.000000 0.000000 -1.000000
    outer loop
      vertex 0.0000 0.0000 6.0000
      vertex 11.5911 -3.1058 6.0000
      vertex 10.3923 -6.0000 6.0000
    endloop
  endfacet
  facet normal 0.991445 -0.130526 0.000000
    outer loop
      vertex 11.5911 -3.1058 6.0000
      vertex 12.0000 -0.0000 6.0000
      vertex 12.0000 -0.0000 14.0000
    endloop
  endfacet
  facet normal 0.991445 -0.130526 0.000000
    outer loop
      vertex 11.5911 -3.1058 6.0000
      vertex 12.0000 -0.0000 14.0000
      vertex 11.5911 -3.1058 14.0000
    endloop
  endfacet
  facet normal 0.000000 0.000000 1.000000
    outer loop
      vertex 0.0000 0.0000 14.0000
      vertex 11.5911 -3.1058 14.0000
      vertex 12.0000 -0.0000 14.0000
    endloop
  endfacet
  facet normal 0.000000 0.000000 -1.000000
    outer loop
      vertex 0.0000 0.0000 6.0000
      vertex 12.0000 -0.0000 6.0000
      vertex 11.5911 -3.1058 6.0000
    endloop
  endfacet
  facet normal 0.000000 0.000000 -1.000000
    outer loop
      vertex 12.0000 -10.0000 0.0000
      vertex 30.0000 -10.0000 0.0000
      vertex 30.0000 10.0000 0.0000
    endloop
  endfacet
  facet normal 0.000000 0.000000 -1.000000
    outer loop
      vertex 12.0000 -10.0000 0.0000
      vertex 30.0000 10.0000 0.0000
      vertex 12.0000 10.0000 0.0000
    endloop
  endfacet
  facet normal 0.000000 0.000000 1.000000
    outer loop
      vertex 12.0000 -10.0000 9.0000
      vertex 30.0000 10.0000 9.0000
      vertex 30.0000 -10.0000 9.0000
    endloop
  endfacet
  facet normal 0.000000 0.000000 1.000000
    outer loop
      vertex 12.0000 -10.0000 9.0000
      vertex 12.0000 10.0000 9.0000
      vertex 30.0000 10.0000 9.0000
    endloop
  endfacet
  facet normal 0.000000 -1.000000 0.000000
    outer loop
      vertex 12.0000 -10.0000 0.0000
      vertex 12.0000 -10.0000 9.0000
      vertex 30.0000 -10.0000 9.0000
    endloop
  endfacet
  facet normal 0.000000 -1.000000 0.000000
    outer loop
      vertex 12.0000 -10.0000 0.0000
      vertex 30.0000 -10.0000 9.0000
      vertex 30.0000 -10.0000 0.0000
    endloop
  endfacet
  facet normal 0.000000 1.000000 0.000000
    outer loop
      vertex 30.0000 10.0000 0.0000
      vertex 30.0000 10.0000 9.0000
      vertex 12.0000 10.0000 9.0000
    endloop
  endfacet
  facet normal 0.000000 1.000000 0.000000
    outer loop
      vertex 30.0000 10.0000 0.0000
      vertex 12.0000 10.0000 9.0000
      vertex 12.0000 10.0000 0.0000
    endloop
  endfacet
  facet normal -1.000000 0.000000 0.000000
    outer loop
      vertex 12.0000 -10.0000 0.0000
      vertex 12.0000 10.0000 0.0000
      vertex 12.0000 10.0000 9.0000
    endloop
  endfacet
  facet normal -1.000000 0.000000 0.000000
    outer loop
      vertex 12.0000 -10.0000 0.0000
      vertex 12.0000 10.0000 9.0000
      vertex 12.0000 -10.0000 9.0000
    endloop
  endfacet
  facet normal 1.000000 0.000000 0.000000
    outer loop
      vertex 30.0000 -10.0000 0.0000
      vertex 30.0000 -10.0000 9.0000
      vertex 30.0000 10.0000 9.0000
    endloop
  endfacet
  facet normal 1.000000 0.000000 0.000000
    outer loop
      vertex 30.0000 -10.0000 0.0000
      vertex 30.0000 10.0000 9.0000
      vertex 30.0000 10.0000 0.0000
    endloop
  endfacet
  facet normal 0.965926 0.258819 0.000000
    outer loop
      vertex 11.0000 0.0000 9.0000
      vertex 10.5981 1.5000 9.0000
      vertex 10.5981 1.5000 13.0000
    endloop
  endfacet
  facet normal 0.965926 0.258819 0.000000
    outer loop
      vertex 11.0000 0.0000 9.0000
      vertex 10.5981 1.5000 13.0000
      vertex 11.0000 0.0000 13.0000
    endloop
  endfacet
  facet normal 0.000000 0.000000 1.000000
    outer loop
      vertex 8.0000 0.0000 13.0000
      vertex 11.0000 0.0000 13.0000
      vertex 10.5981 1.5000 13.0000
    endloop
  endfacet
  facet normal 0.000000 0.000000 -1.000000
    outer loop
      vertex 8.0000 0.0000 9.0000
      vertex 10.5981 1.5000 9.0000
      vertex 11.0000 0.0000 9.0000
    endloop
  endfacet
  facet normal 0.707107 0.707107 0.000000
    outer loop
      vertex 10.5981 1.5000 9.0000
      vertex 9.5000 2.5981 9.0000
      vertex 9.5000 2.5981 13.0000
    endloop
  endfacet
  facet normal 0.707107 0.707107 0.000000
    outer loop
      vertex 10.5981 1.5000 9.0000
      vertex 9.5000 2.5981 13.0000
      vertex 10.5981 1.5000 13.0000
    endloop
  endfacet
  facet normal 0.000000 0.000000 1.000000
    outer loop
      vertex 8.0000 0.0000 13.0000
      vertex 10.5981 1.5000 13.0000
      vertex 9.5000 2.5981 13.0000
    endloop
  endfacet
  facet normal 0.000000 0.000000 -1.000000
    outer loop
      vertex 8.0000 0.0000 9.0000
      vertex 9.5000 2.5981 9.0000
      vertex 10.5981 1.5000 9.0000
    endloop
  endfacet
  facet normal 0.258819 0.965926 0.000000
    outer loop
      vertex 9.5000 2.5981 9.0000
      vertex 8.0000 3.0000 9.0000
      vertex 8.0000 3.0000 13.0000
    endloop
  endfacet
  facet normal 0.258819 0.965926 0.000000
    outer loop
      vertex 9.5000 2.5981 9.0000
      vertex 8.0000 3.0000 13.0000
      vertex 9.5000 2.5981 13.0000
    endloop
  endfacet
  facet normal 0.000000 0.000000 1.000000
    outer loop
      vertex 8.0000 0.0000 13.0000
      vertex 9.5000 2.5981 13.0000
      vertex 8.0000 3.0000 13.0000
    endloop
  endfacet
  facet normal 0.000000 0.000000 -1.000000
    outer loop
      vertex 8.0000 0.0000 9.0000
      vertex 8.0000 3.0000 9.0000
      vertex 9.5000 2.5981 9.0000
    endloop
  endfacet
  facet normal -0.258819 0.965926 0.000000
    outer loop
      vertex 8.0000 3.0000 9.0000
      vertex 6.5000 2.5981 9.0000
      vertex 6.5000 2.5981 13.0000
    endloop
  endfacet
  facet normal -0.258819 0.965926 0.000000
    outer loop
      vertex 8.0000 3.0000 9.0000
      vertex 6.5000 2.5981 13.0000
      vertex 8.0000 3.0000 13.0000
    endloop
  endfacet
  facet normal 0.000000 0.000000 1.000000
    outer loop
      vertex 8.0000 0.0000 13.0000
      vertex 8.0000 3.0000 13.0000
      vertex 6.5000 2.5981 13.0000
    endloop
  endfacet
  facet normal 0.000000 0.000000 -1.000000
    outer loop
      vertex 8.0000 0.0000 9.0000
      vertex 6.5000 2.5981 9.0000
      vertex 8.0000 3.0000 9.0000
    endloop
  endfacet
  facet normal -0.707107 0.707107 0.000000
    outer loop
      vertex 6.5000 2.5981 9.0000
      vertex 5.4019 1.5000 9.0000
      vertex 5.4019 1.5000 13.0000
    endloop
  endfacet
  facet normal -0.707107 0.707107 0.000000
    outer loop
      vertex 6.5000 2.5981 9.0000
      vertex 5.4019 1.5000 13.0000
      vertex 6.5000 2.5981 13.0000
    endloop
  endfacet
  facet normal 0.000000 0.000000 1.000000
    outer loop
      vertex 8.0000 0.0000 13.0000
      vertex 6.5000 2.5981 13.0000
      vertex 5.4019 1.5000 13.0000
    endloop
  endfacet
  facet normal 0.000000 0.000000 -1.000000
    outer loop
      vertex 8.0000 0.0000 9.0000
      vertex 5.4019 1.5000 9.0000
      vertex 6.5000 2.5981 9.0000
    endloop
  endfacet
  facet normal -0.965926 0.258819 0.000000
    outer loop
      vertex 5.4019 1.5000 9.0000
      vertex 5.0000 0.0000 9.0000
      vertex 5.0000 0.0000 13.0000
    endloop
  endfacet
  facet normal -0.965926 0.258819 0.000000
    outer loop
      vertex 5.4019 1.5000 9.0000
      vertex 5.0000 0.0000 13.0000
      vertex 5.4019 1.5000 13.0000
    endloop
  endfacet
  facet normal 0.000000 0.000000 1.000000
    outer loop
      vertex 8.0000 0.0000 13.0000
      vertex 5.4019 1.5000 13.0000
      vertex 5.0000 0.0000 13.0000
    endloop
  endfacet
  facet normal 0.000000 0.000000 -1.000000
    outer loop
      vertex 8.0000 0.0000 9.0000
      vertex 5.0000 0.0000 9.0000
      vertex 5.4019 1.5000 9.0000
    endloop
  endfacet
  facet normal -0.965926 -0.258819 0.000000
    outer loop
      vertex 5.0000 0.0000 9.0000
      vertex 5.4019 -1.5000 9.0000
      vertex 5.4019 -1.5000 13.0000
    endloop
  endfacet
  facet normal -0.965926 -0.258819 0.000000
    outer loop
      vertex 5.0000 0.0000 9.0000
      vertex 5.4019 -1.5000 13.0000
      vertex 5.0000 0.0000 13.0000
    endloop
  endfacet
  facet normal 0.000000 0.000000 1.000000
    outer loop
      vertex 8.0000 0.0000 13.0000
      vertex 5.0000 0.0000 13.0000
      vertex 5.4019 -1.5000 13.0000
    endloop
  endfacet
  facet normal 0.000000 0.000000 -1.000000
    outer loop
      vertex 8.0000 0.0000 9.0000
      vertex 5.4019 -1.5000 9.0000
      vertex 5.0000 0.0000 9.0000
    endloop
  endfacet
  facet normal -0.707107 -0.707107 0.000000
    outer loop
      vertex 5.4019 -1.5000 9.0000
      vertex 6.5000 -2.5981 9.0000
      vertex 6.5000 -2.5981 13.0000
    endloop
  endfacet
  facet normal -0.707107 -0.707107 0.000000
    outer loop
      vertex 5.4019 -1.5000 9.0000
      vertex 6.5000 -2.5981 13.0000
      vertex 5.4019 -1.5000 13.0000
    endloop
  endfacet
  facet normal 0.000000 0.000000 1.000000
    outer loop
      vertex 8.0000 0.0000 13.0000
      vertex 5.4019 -1.5000 13.0000
      vertex 6.5000 -2.5981 13.0000
    endloop
  endfacet
  facet normal 0.000000 0.000000 -1.000000
    outer loop
      vertex 8.0000 0.0000 9.0000
      vertex 6.5000 -2.5981 9.0000
      vertex 5.4019 -1.5000 9.0000
    endloop
  endfacet
  facet normal -0.258819 -0.965926 0.000000
    outer loop
      vertex 6.5000 -2.5981 9.0000
      vertex 8.0000 -3.0000 9.0000
      vertex 8.0000 -3.0000 13.0000
    endloop
  endfacet
  facet normal -0.258819 -0.965926 0.000000
    outer loop
      vertex 6.5000 -2.5981 9.0000
      vertex 8.0000 -3.0000 13.0000
      vertex 6.5000 -2.5981 13.0000
    endloop
  endfacet
  facet normal 0.000000 0.000000 1.000000
    outer loop
      vertex 8.0000 0.0000 13.0000
      vertex 6.5000 -2.5981 13.0000
      vertex 8.0000 -3.0000 13.0000
    endloop
  endfacet
  facet normal 0.000000 0.000000 -1.000000
    outer loop
      vertex 8.0000 0.0000 9.0000
      vertex 8.0000 -3.0000 9.0000
      vertex 6.5000 -2.5981 9.0000
    endloop
  endfacet
  facet normal 0.258819 -0.965926 0.000000
    outer loop
      vertex 8.0000 -3.0000 9.0000
      vertex 9.5000 -2.5981 9.0000
      vertex 9.5000 -2.5981 13.0000
    endloop
  endfacet
  facet normal 0.258819 -0.965926 0.000000
    outer loop
      vertex 8.0000 -3.0000 9.0000
      vertex 9.5000 -2.5981 13.0000
      vertex 8.0000 -3.0000 13.0000
    endloop
  endfacet
  facet normal 0.000000 0.000000 1.000000
    outer loop
      vertex 8.0000 0.0000 13.0000
      vertex 8.0000 -3.0000 13.0000
      vertex 9.5000 -2.5981 13.0000
    endloop
  endfacet
  facet normal 0.000000 0.000000 -1.000000
    outer loop
      vertex 8.0000 0.0000 9.0000
      vertex 9.5000 -2.5981 9.0000
      vertex 8.0000 -3.0000 9.0000
    endloop
  endfacet
  facet normal 0.707107 -0.707107 0.000000
    outer loop
      vertex 9.5000 -2.5981 9.0000
      vertex 10.5981 -1.5000 9.0000
      vertex 10.5981 -1.5000 13.0000
    endloop
  endfacet
  facet normal 0.707107 -0.707107 0.000000
    outer loop
      vertex 9.5000 -2.5981 9.0000
      vertex 10.5981 -1.5000 13.0000
      vertex 9.5000 -2.5981 13.0000
    endloop
  endfacet
  facet normal 0.000000 0.000000 1.000000
    outer loop
      vertex 8.0000 0.0000 13.0000
      vertex 9.5000 -2.5981 13.0000
      vertex 10.5981 -1.5000 13.0000
    endloop
  endfacet
  facet normal 0.000000 0.000000 -1.000000
    outer loop
      vertex 8.0000 0.0000 9.0000
      vertex 10.5981 -1.5000 9.0000
      vertex 9.5000 -2.5981 9.0000
    endloop
  endfacet
  facet normal 0.965926 -0.258819 0.000000
    outer loop
      vertex 10.5981 -1.5000 9.0000
      vertex 11.0000 -0.0000 9.0000
      vertex 11.0000 -0.0000 13.0000
    endloop
  endfacet
  facet normal 0.965926 -0.258819 0.000000
    outer loop
      vertex 10.5981 -1.5000 9.0000
      vertex 11.0000 -0.0000 13.0000
      vertex 10.5981 -1.5000 13.0000
    endloop
  endfacet
  facet normal 0.000000 0.000000 1.000000
    outer loop
      vertex 8.0000 0.0000 13.0000
      vertex 10.5981 -1.5000 13.0000
      vertex 11.0000 -0.0000 13.0000
    endloop
  endfacet
  facet normal 0.000000 0.000000 -1.000000
    outer loop
      vertex 8.0000 0.0000 9.0000
      vertex 11.0000 -0.0000 9.0000
      vertex 10.5981 -1.5000 9.0000
    endloop
  endfacet
  facet normal 0.965926 0.258819 0.000000
    outer loop
      vertex 17.0000 0.0000 9.0000
      vertex 16.5981 1.5000 9.0000
      vertex 16.5981 1.5000 13.0000
    endloop
  endfacet
  facet normal 0.965926 0.258819 0.000000
    outer loop
      vertex 17.0000 0.0000 9.0000
      vertex 16.5981 1.5000 13.0000
      vertex 17.0000 0.0000 13.0000
    endloop
  endfacet
  facet normal 0.000000 0.000000 1.000000
    outer loop
      vertex 14.0000 0.0000 13.0000
      vertex 17.0000 0.0000 13.0000
      vertex 16.5981 1.5000 13.0000
    endloop
  endfacet
  facet normal 0.000000 0.000000 -1.000000
    outer loop
      vertex 14.0000 0.0000 9.0000
      vertex 16.5981 1.5000 9.0000
      vertex 17.0000 0.0000 9.0000
    endloop
  endfacet
  facet normal 0.707107 0.707107 0.000000
    outer loop
      vertex 16.5981 1.5000 9.0000
      vertex 15.5000 2.5981 9.0000
      vertex 15.5000 2.5981 13.0000
    endloop
  endfacet
  facet normal 0.707107 0.707107 0.000000
    outer loop
      vertex 16.5981 1.5000 9.0000
      vertex 15.5000 2.5981 13.0000
      vertex 16.5981 1.5000 13.0000
    endloop
  endfacet
  facet normal 0.000000 0.000000 1.000000
    outer loop
      vertex 14.0000 0.0000 13.0000
      vertex 16.5981 1.5000 13.0000
      vertex 15.5000 2.5981 13.0000
    endloop
  endfacet
  facet normal 0.000000 0.000000 -1.000000
    outer loop
      vertex 14.0000 0.0000 9.0000
      vertex 15.5000 2.5981 9.0000
      vertex 16.5981 1.5000 9.0000
    endloop
  endfacet
  facet normal 0.258819 0.965926 0.000000
    outer loop
      vertex 15.5000 2.5981 9.0000
      vertex 14.0000 3.0000 9.0000
      vertex 14.0000 3.0000 13.0000
    endloop
  endfacet
  facet normal 0.258819 0.965926 0.000000
    outer loop
      vertex 15.5000 2.5981 9.0000
      vertex 14.0000 3.0000 13.0000
      vertex 15.5000 2.5981 13.0000
    endloop
  endfacet
  facet normal 0.000000 0.000000 1.000000
    outer loop
      vertex 14.0000 0.0000 13.0000
      vertex 15.5000 2.5981 13.0000
      vertex 14.0000 3.0000 13.0000
    endloop
  endfacet
  facet normal 0.000000 0.000000 -1.000000
    outer loop
      vertex 14.0000 0.0000 9.0000
      vertex 14.0000 3.0000 9.0000
      vertex 15.5000 2.5981 9.0000
    endloop
  endfacet
  facet normal -0.258819 0.965926 0.000000
    outer loop
      vertex 14.0000 3.0000 9.0000
      vertex 12.5000 2.5981 9.0000
      vertex 12.5000 2.5981 13.0000
    endloop
  endfacet
  facet normal -0.258819 0.965926 0.000000
    outer loop
      vertex 14.0000 3.0000 9.0000
      vertex 12.5000 2.5981 13.0000
      vertex 14.0000 3.0000 13.0000
    endloop
  endfacet
  facet normal 0.000000 0.000000 1.000000
    outer loop
      vertex 14.0000 0.0000 13.0000
      vertex 14.0000 3.0000 13.0000
      vertex 12.5000 2.5981 13.0000
    endloop
  endfacet
  facet normal 0.000000 0.000000 -1.000000
    outer loop
      vertex 14.0000 0.0000 9.0000
      vertex 12.5000 2.5981 9.0000
      vertex 14.0000 3.0000 9.0000
    endloop
  endfacet
  facet normal -0.707107 0.707107 0.000000
    outer loop
      vertex 12.5000 2.5981 9.0000
      vertex 11.4019 1.5000 9.0000
      vertex 11.4019 1.5000 13.0000
    endloop
  endfacet
  facet normal -0.707107 0.707107 0.000000
    outer loop
      vertex 12.5000 2.5981 9.0000
      vertex 11.4019 1.5000 13.0000
      vertex 12.5000 2.5981 13.0000
    endloop
  endfacet
  facet normal 0.000000 0.000000 1.000000
    outer loop
      vertex 14.0000 0.0000 13.0000
      vertex 12.5000 2.5981 13.0000
      vertex 11.4019 1.5000 13.0000
    endloop
  endfacet
  facet normal 0.000000 0.000000 -1.000000
    outer loop
      vertex 14.0000 0.0000 9.0000
      vertex 11.4019 1.5000 9.0000
      vertex 12.5000 2.5981 9.0000
    endloop
  endfacet
  facet normal -0.965926 0.258819 0.000000
    outer loop
      vertex 11.4019 1.5000 9.0000
      vertex 11.0000 0.0000 9.0000
      vertex 11.0000 0.0000 13.0000
    endloop
  endfacet
  facet normal -0.965926 0.258819 0.000000
    outer loop
      vertex 11.4019 1.5000 9.0000
      vertex 11.0000 0.0000 13.0000
      vertex 11.4019 1.5000 13.0000
    endloop
  endfacet
  facet normal 0.000000 0.000000 1.000000
    outer loop
      vertex 14.0000 0.0000 13.0000
      vertex 11.4019 1.5000 13.0000
      vertex 11.0000 0.0000 13.0000
    endloop
  endfacet
  facet normal 0.000000 0.000000 -1.000000
    outer loop
      vertex 14.0000 0.0000 9.0000
      vertex 11.0000 0.0000 9.0000
      vertex 11.4019 1.5000 9.0000
    endloop
  endfacet
  facet normal -0.965926 -0.258819 0.000000
    outer loop
      vertex 11.0000 0.0000 9.0000
      vertex 11.4019 -1.5000 9.0000
      vertex 11.4019 -1.5000 13.0000
    endloop
  endfacet
  facet normal -0.965926 -0.258819 0.000000
    outer loop
      vertex 11.0000 0.0000 9.0000
      vertex 11.4019 -1.5000 13.0000
      vertex 11.0000 0.0000 13.0000
    endloop
  endfacet
  facet normal 0.000000 0.000000 1.000000
    outer loop
      vertex 14.0000 0.0000 13.0000
      vertex 11.0000 0.0000 13.0000
      vertex 11.4019 -1.5000 13.0000
    endloop
  endfacet
  facet normal 0.000000 0.000000 -1.000000
    outer loop
      vertex 14.0000 0.0000 9.0000
      vertex 11.4019 -1.5000 9.0000
      vertex 11.0000 0.0000 9.0000
    endloop
  endfacet
  facet normal -0.707107 -0.707107 0.000000
    outer loop
      vertex 11.4019 -1.5000 9.0000
      vertex 12.5000 -2.5981 9.0000
      vertex 12.5000 -2.5981 13.0000
    endloop
  endfacet
  facet normal -0.707107 -0.707107 0.000000
    outer loop
      vertex 11.4019 -1.5000 9.0000
      vertex 12.5000 -2.5981 13.0000
      vertex 11.4019 -1.5000 13.0000
    endloop
  endfacet
  facet normal 0.000000 0.000000 1.000000
    outer loop
      vertex 14.0000 0.0000 13.0000
      vertex 11.4019 -1.5000 13.0000
      vertex 12.5000 -2.5981 13.0000
    endloop
  endfacet
  facet normal 0.000000 0.000000 -1.000000
    outer loop
      vertex 14.0000 0.0000 9.0000
      vertex 12.5000 -2.5981 9.0000
      vertex 11.4019 -1.5000 9.0000
    endloop
  endfacet
  facet normal -0.258819 -0.965926 0.000000
    outer loop
      vertex 12.5000 -2.5981 9.0000
      vertex 14.0000 -3.0000 9.0000
      vertex 14.0000 -3.0000 13.0000
    endloop
  endfacet
  facet normal -0.258819 -0.965926 0.000000
    outer loop
      vertex 12.5000 -2.5981 9.0000
      vertex 14.0000 -3.0000 13.0000
      vertex 12.5000 -2.5981 13.0000
    endloop
  endfacet
  facet normal 0.000000 0.000000 1.000000
    outer loop
      vertex 14.0000 0.0000 13.0000
      vertex 12.5000 -2.5981 13.0000
      vertex 14.0000 -3.0000 13.0000
    endloop
  endfacet
  facet normal 0.000000 0.000000 -1.000000
    outer loop
      vertex 14.0000 0.0000 9.0000
      vertex 14.0000 -3.0000 9.0000
      vertex 12.5000 -2.5981 9.0000
    endloop
  endfacet
  facet normal 0.258819 -0.965926 0.000000
    outer loop
      vertex 14.0000 -3.0000 9.0000
      vertex 15.5000 -2.5981 9.0000
      vertex 15.5000 -2.5981 13.0000
    endloop
  endfacet
  facet normal 0.258819 -0.965926 0.000000
    outer loop
      vertex 14.0000 -3.0000 9.0000
      vertex 15.5000 -2.5981 13.0000
      vertex 14.0000 -3.0000 13.0000
    endloop
  endfacet
  facet normal 0.000000 0.000000 1.000000
    outer loop
      vertex 14.0000 0.0000 13.0000
      vertex 14.0000 -3.0000 13.0000
      vertex 15.5000 -2.5981 13.0000
    endloop
  endfacet
  facet normal 0.000000 0.000000 -1.000000
    outer loop
      vertex 14.0000 0.0000 9.0000
      vertex 15.5000 -2.5981 9.0000
      vertex 14.0000 -3.0000 9.0000
    endloop
  endfacet
  facet normal 0.707107 -0.707107 0.000000
    outer loop
      vertex 15.5000 -2.5981 9.0000
      vertex 16.5981 -1.5000 9.0000
      vertex 16.5981 -1.5000 13.0000
    endloop
  endfacet
  facet normal 0.707107 -0.707107 0.000000
    outer loop
      vertex 15.5000 -2.5981 9.0000
      vertex 16.5981 -1.5000 13.0000
      vertex 15.5000 -2.5981 13.0000
    endloop
  endfacet
  facet normal 0.000000 0.000000 1.000000
    outer loop
      vertex 14.0000 0.0000 13.0000
      vertex 15.5000 -2.5981 13.0000
      vertex 16.5981 -1.5000 13.0000
    endloop
  endfacet
  facet normal 0.000000 0.000000 -1.000000
    outer loop
      vertex 14.0000 0.0000 9.0000
      vertex 16.5981 -1.5000 9.0000
      vertex 15.5000 -2.5981 9.0000
    endloop
  endfacet
  facet normal 0.965926 -0.258819 0.000000
    outer loop
      vertex 16.5981 -1.5000 9.0000
      vertex 17.0000 -0.0000 9.0000
      vertex 17.0000 -0.0000 13.0000
    endloop
  endfacet
  facet normal 0.965926 -0.258819 0.000000
    outer loop
      vertex 16.5981 -1.5000 9.0000
      vertex 17.0000 -0.0000 13.0000
      vertex 16.5981 -1.5000 13.0000
    endloop
  endfacet
  facet normal 0.000000 0.000000 1.000000
    outer loop
      vertex 14.0000 0.0000 13.0000
      vertex 16.5981 -1.5000 13.0000
      vertex 17.0000 -0.0000 13.0000
    endloop
  endfacet
  facet normal 0.000000 0.000000 -1.000000
    outer loop
      vertex 14.0000 0.0000 9.0000
      vertex 17.0000 -0.0000 9.0000
      vertex 16.5981 -1.5000 9.0000
    endloop
  endfacet
  facet normal 0.000000 0.000000 -1.000000
    outer loop
      vertex -12.0000 -10.0000 0.0000
      vertex -30.0000 -10.0000 0.0000
      vertex -30.0000 10.0000 0.0000
    endloop
  endfacet
  facet normal 0.000000 0.000000 -1.000000
    outer loop
      vertex -12.0000 -10.0000 0.0000
      vertex -30.0000 10.0000 0.0000
      vertex -12.0000 10.0000 0.0000
    endloop
  endfacet
  facet normal 0.000000 0.000000 1.000000
    outer loop
      vertex -12.0000 -10.0000 9.0000
      vertex -30.0000 10.0000 9.0000
      vertex -30.0000 -10.0000 9.0000
    endloop
  endfacet
  facet normal 0.000000 0.000000 1.000000
    outer loop
      vertex -12.0000 -10.0000 9.0000
      vertex -12.0000 10.0000 9.0000
      vertex -30.0000 10.0000 9.0000
    endloop
  endfacet
  facet normal 0.000000 -1.000000 0.000000
    outer loop
      vertex -12.0000 -10.0000 0.0000
      vertex -12.0000 -10.0000 9.0000
      vertex -30.0000 -10.0000 9.0000
    endloop
  endfacet
  facet normal 0.000000 -1.000000 0.000000
    outer loop
      vertex -12.0000 -10.0000 0.0000
      vertex -30.0000 -10.0000 9.0000
      vertex -30.0000 -10.0000 0.0000
    endloop
  endfacet
  facet normal 0.000000 1.000000 0.000000
    outer loop
      vertex -30.0000 10.0000 0.0000
      vertex -30.0000 10.0000 9.0000
      vertex -12.0000 10.0000 9.0000
    endloop
  endfacet
  facet normal 0.000000 1.000000 0.000000
    outer loop
      vertex -30.0000 10.0000 0.0000
      vertex -12.0000 10.0000 9.0000
      vertex -12.0000 10.0000 0.0000
    endloop
  endfacet
  facet normal -1.000000 0.000000 0.000000
    outer loop
      vertex -12.0000 -10.0000 0.0000
      vertex -12.0000 10.0000 0.0000
      vertex -12.0000 10.0000 9.0000
    endloop
  endfacet
  facet normal -1.000000 0.000000 0.000000
    outer loop
      vertex -12.0000 -10.0000 0.0000
      vertex -12.0000 10.0000 9.0000
      vertex -12.0000 -10.0000 9.0000
    endloop
  endfacet
  facet normal 1.000000 0.000000 0.000000
    outer loop
      vertex -30.0000 -10.0000 0.0000
      vertex -30.0000 -10.0000 9.0000
      vertex -30.0000 10.0000 9.0000
    endloop
  endfacet
  facet normal 1.000000 0.000000 0.000000
    outer loop
      vertex -30.0000 -10.0000 0.0000
      vertex -30.0000 10.0000 9.0000
      vertex -30.0000 10.0000 0.0000
    endloop
  endfacet
  facet normal 0.965926 0.258819 0.000000
    outer loop
      vertex -5.0000 0.0000 9.0000
      vertex -5.4019 1.5000 9.0000
      vertex -5.4019 1.5000 13.0000
    endloop
  endfacet
  facet normal 0.965926 0.258819 0.000000
    outer loop
      vertex -5.0000 0.0000 9.0000
      vertex -5.4019 1.5000 13.0000
      vertex -5.0000 0.0000 13.0000
    endloop
  endfacet
  facet normal 0.000000 0.000000 1.000000
    outer loop
      vertex -8.0000 0.0000 13.0000
      vertex -5.0000 0.0000 13.0000
      vertex -5.4019 1.5000 13.0000
    endloop
  endfacet
  facet normal 0.000000 0.000000 -1.000000
    outer loop
      vertex -8.0000 0.0000 9.0000
      vertex -5.4019 1.5000 9.0000
      vertex -5.0000 0.0000 9.0000
    endloop
  endfacet
  facet normal 0.707107 0.707107 0.000000
    outer loop
      vertex -5.4019 1.5000 9.0000
      vertex -6.5000 2.5981 9.0000
      vertex -6.5000 2.5981 13.0000
    endloop
  endfacet
  facet normal 0.707107 0.707107 0.000000
    outer loop
      vertex -5.4019 1.5000 9.0000
      vertex -6.5000 2.5981 13.0000
      vertex -5.4019 1.5000 13.0000
    endloop
  endfacet
  facet normal 0.000000 0.000000 1.000000
    outer loop
      vertex -8.0000 0.0000 13.0000
      vertex -5.4019 1.5000 13.0000
      vertex -6.5000 2.5981 13.0000
    endloop
  endfacet
  facet normal 0.000000 0.000000 -1.000000
    outer loop
      vertex -8.0000 0.0000 9.0000
      vertex -6.5000 2.5981 9.0000
      vertex -5.4019 1.5000 9.0000
    endloop
  endfacet
  facet normal 0.258819 0.965926 0.000000
    outer loop
      vertex -6.5000 2.5981 9.0000
      vertex -8.0000 3.0000 9.0000
      vertex -8.0000 3.0000 13.0000
    endloop
  endfacet
  facet normal 0.258819 0.965926 0.000000
    outer loop
      vertex -6.5000 2.5981 9.0000
      vertex -8.0000 3.0000 13.0000
      vertex -6.5000 2.5981 13.0000
    endloop
  endfacet
  facet normal 0.000000 0.000000 1.000000
    outer loop
      vertex -8.0000 0.0000 13.0000
      vertex -6.5000 2.5981 13.0000
      vertex -8.0000 3.0000 13.0000
    endloop
  endfacet
  facet normal 0.000000 0.000000 -1.000000
    outer loop
      vertex -8.0000 0.0000 9.0000
      vertex -8.0000 3.0000 9.0000
      vertex -6.5000 2.5981 9.0000
    endloop
  endfacet
  facet normal -0.258819 0.965926 0.000000
    outer loop
      vertex -8.0000 3.0000 9.0000
      vertex -9.5000 2.5981 9.0000
      vertex -9.5000 2.5981 13.0000
    endloop
  endfacet
  facet normal -0.258819 0.965926 0.000000
    outer loop
      vertex -8.0000 3.0000 9.0000
      vertex -9.5000 2.5981 13.0000
      vertex -8.0000 3.0000 13.0000
    endloop
  endfacet
  facet normal 0.000000 0.000000 1.000000
    outer loop
      vertex -8.0000 0.0000 13.0000
      vertex -8.0000 3.0000 13.0000
      vertex -9.5000 2.5981 13.0000
    endloop
  endfacet
  facet normal 0.000000 0.000000 -1.000000
    outer loop
      vertex -8.0000 0.0000 9.0000
      vertex -9.5000 2.5981 9.0000
      vertex -8.0000 3.0000 9.0000
    endloop
  endfacet
  facet normal -0.707107 0.707107 0.000000
    outer loop
      vertex -9.5000 2.5981 9.0000
      vertex -10.5981 1.5000 9.0000
      vertex -10.5981 1.5000 13.0000
    endloop
  endfacet
  facet normal -0.707107 0.707107 0.000000
    outer loop
      vertex -9.5000 2.5981 9.0000
      vertex -10.5981 1.5000 13.0000
      vertex -9.5000 2.5981 13.0000
    endloop
  endfacet
  facet normal 0.000000 0.000000 1.000000
    outer loop
      vertex -8.0000 0.0000 13.0000
      vertex -9.5000 2.5981 13.0000
      vertex -10.5981 1.5000 13.0000
    endloop
  endfacet
  facet normal 0.000000 0.000000 -1.000000
    outer loop
      vertex -8.0000 0.0000 9.0000
      vertex -10.5981 1.5000 9.0000
      vertex -9.5000 2.5981 9.0000
    endloop
  endfacet
  facet normal -0.965926 0.258819 0.000000
    outer loop
      vertex -10.5981 1.5000 9.0000
      vertex -11.0000 0.0000 9.0000
      vertex -11.0000 0.0000 13.0000
    endloop
  endfacet
  facet normal -0.965926 0.258819 0.000000
    outer loop
      vertex -10.5981 1.5000 9.0000
      vertex -11.0000 0.0000 13.0000
      vertex -10.5981 1.5000 13.0000
    endloop
  endfacet
  facet normal 0.000000 0.000000 1.000000
    outer loop
      vertex -8.0000 0.0000 13.0000
      vertex -10.5981 1.5000 13.0000
      vertex -11.0000 0.0000 13.0000
    endloop
  endfacet
  facet normal 0.000000 0.000000 -1.000000
    outer loop
      vertex -8.0000 0.0000 9.0000
      vertex -11.0000 0.0000 9.0000
      vertex -10.5981 1.5000 9.0000
    endloop
  endfacet
  facet normal -0.965926 -0.258819 0.000000
    outer loop
      vertex -11.0000 0.0000 9.0000
      vertex -10.5981 -1.5000 9.0000
      vertex -10.5981 -1.5000 13.0000
    endloop
  endfacet
  facet normal -0.965926 -0.258819 0.000000
    outer loop
      vertex -11.0000 0.0000 9.0000
      vertex -10.5981 -1.5000 13.0000
      vertex -11.0000 0.0000 13.0000
    endloop
  endfacet
  facet normal 0.000000 0.000000 1.000000
    outer loop
      vertex -8.0000 0.0000 13.0000
      vertex -11.0000 0.0000 13.0000
      vertex -10.5981 -1.5000 13.0000
    endloop
  endfacet
  facet normal 0.000000 0.000000 -1.000000
    outer loop
      vertex -8.0000 0.0000 9.0000
      vertex -10.5981 -1.5000 9.0000
      vertex -11.0000 0.0000 9.0000
    endloop
  endfacet
  facet normal -0.707107 -0.707107 0.000000
    outer loop
      vertex -10.5981 -1.5000 9.0000
      vertex -9.5000 -2.5981 9.0000
      vertex -9.5000 -2.5981 13.0000
    endloop
  endfacet
  facet normal -0.707107 -0.707107 0.000000
    outer loop
      vertex -10.5981 -1.5000 9.0000
      vertex -9.5000 -2.5981 13.0000
      vertex -10.5981 -1.5000 13.0000
    endloop
  endfacet
  facet normal 0.000000 0.000000 1.000000
    outer loop
      vertex -8.0000 0.0000 13.0000
      vertex -10.5981 -1.5000 13.0000
      vertex -9.5000 -2.5981 13.0000
    endloop
  endfacet
  facet normal 0.000000 0.000000 -1.000000
    outer loop
      vertex -8.0000 0.0000 9.0000
      vertex -9.5000 -2.5981 9.0000
      vertex -10.5981 -1.5000 9.0000
    endloop
  endfacet
  facet normal -0.258819 -0.965926 0.000000
    outer loop
      vertex -9.5000 -2.5981 9.0000
      vertex -8.0000 -3.0000 9.0000
      vertex -8.0000 -3.0000 13.0000
    endloop
  endfacet
  facet normal -0.258819 -0.965926 0.000000
    outer loop
      vertex -9.5000 -2.5981 9.0000
      vertex -8.0000 -3.0000 13.0000
      vertex -9.5000 -2.5981 13.0000
    endloop
  endfacet
  facet normal 0.000000 0.000000 1.000000
    outer loop
      vertex -8.0000 0.0000 13.0000
      vertex -9.5000 -2.5981 13.0000
      vertex -8.0000 -3.0000 13.0000
    endloop
  endfacet
  facet normal 0.000000 0.000000 -1.000000
    outer loop
      vertex -8.0000 0.0000 9.0000
      vertex -8.0000 -3.0000 9.0000
      vertex -9.5000 -2.5981 9.0000
    endloop
  endfacet
  facet normal 0.258819 -0.965926 0.000000
    outer loop
      vertex -8.0000 -3.0000 9.0000
      vertex -6.5000 -2.5981 9.0000
      vertex -6.5000 -2.5981 13.0000
    endloop
  endfacet
  facet normal 0.258819 -0.965926 0.000000
    outer loop
      vertex -8.0000 -3.0000 9.0000
      vertex -6.5000 -2.5981 13.0000
      vertex -8.0000 -3.0000 13.0000
    endloop
  endfacet
  facet normal 0.000000 0.000000 1.000000
    outer loop
      vertex -8.0000 0.0000 13.0000
      vertex -8.0000 -3.0000 13.0000
      vertex -6.5000 -2.5981 13.0000
    endloop
  endfacet
  facet normal 0.000000 0.000000 -1.000000
    outer loop
      vertex -8.0000 0.0000 9.0000
      vertex -6.5000 -2.5981 9.0000
      vertex -8.0000 -3.0000 9.0000
    endloop
  endfacet
  facet normal 0.707107 -0.707107 0.000000
    outer loop
      vertex -6.5000 -2.5981 9.0000
      vertex -5.4019 -1.5000 9.0000
      vertex -5.4019 -1.5000 13.0000
    endloop
  endfacet
  facet normal 0.707107 -0.707107 0.000000
    outer loop
      vertex -6.5000 -2.5981 9.0000
      vertex -5.4019 -1.5000 13.0000
      vertex -6.5000 -2.5981 13.0000
    endloop
  endfacet
  facet normal 0.000000 0.000000 1.000000
    outer loop
      vertex -8.0000 0.0000 13.0000
      vertex -6.5000 -2.5981 13.0000
      vertex -5.4019 -1.5000 13.0000
    endloop
  endfacet
  facet normal 0.000000 0.000000 -1.000000
    outer loop
      vertex -8.0000 0.0000 9.0000
      vertex -5.4019 -1.5000 9.0000
      vertex -6.5000 -2.5981 9.0000
    endloop
  endfacet
  facet normal 0.965926 -0.258819 0.000000
    outer loop
      vertex -5.4019 -1.5000 9.0000
      vertex -5.0000 -0.0000 9.0000
      vertex -5.0000 -0.0000 13.0000
    endloop
  endfacet
  facet normal 0.965926 -0.258819 0.000000
    outer loop
      vertex -5.4019 -1.5000 9.0000
      vertex -5.0000 -0.0000 13.0000
      vertex -5.4019 -1.5000 13.0000
    endloop
  endfacet
  facet normal 0.000000 0.000000 1.000000
    outer loop
      vertex -8.0000 0.0000 13.0000
      vertex -5.4019 -1.5000 13.0000
      vertex -5.0000 -0.0000 13.0000
    endloop
  endfacet
  facet normal 0.000000 0.000000 -1.000000
    outer loop
      vertex -8.0000 0.0000 9.0000
      vertex -5.0000 -0.0000 9.0000
      vertex -5.4019 -1.5000 9.0000
    endloop
  endfacet
  facet normal 0.965926 0.258819 0.000000
    outer loop
      vertex -11.0000 0.0000 9.0000
      vertex -11.4019 1.5000 9.0000
      vertex -11.4019 1.5000 13.0000
    endloop
  endfacet
  facet normal 0.965926 0.258819 0.000000
    outer loop
      vertex -11.0000 0.0000 9.0000
      vertex -11.4019 1.5000 13.0000
      vertex -11.0000 0.0000 13.0000
    endloop
  endfacet
  facet normal 0.000000 0.000000 1.000000
    outer loop
      vertex -14.0000 0.0000 13.0000
      vertex -11.0000 0.0000 13.0000
      vertex -11.4019 1.5000 13.0000
    endloop
  endfacet
  facet normal 0.000000 0.000000 -1.000000
    outer loop
      vertex -14.0000 0.0000 9.0000
      vertex -11.4019 1.5000 9.0000
      vertex -11.0000 0.0000 9.0000
    endloop
  endfacet
  facet normal 0.707107 0.707107 0.000000
    outer loop
      vertex -11.4019 1.5000 9.0000
      vertex -12.5000 2.5981 9.0000
      vertex -12.5000 2.5981 13.0000
    endloop
  endfacet
  facet normal 0.707107 0.707107 0.000000
    outer loop
      vertex -11.4019 1.5000 9.0000
      vertex -12.5000 2.5981 13.0000
      vertex -11.4019 1.5000 13.0000
    endloop
  endfacet
  facet normal 0.000000 0.000000 1.000000
    outer loop
      vertex -14.0000 0.0000 13.0000
      vertex -11.4019 1.5000 13.0000
      vertex -12.5000 2.5981 13.0000
    endloop
  endfacet
  facet normal 0.000000 0.000000 -1.000000
    outer loop
      vertex -14.0000 0.0000 9.0000
      vertex -12.5000 2.5981 9.0000
      vertex -11.4019 1.5000 9.0000
    endloop
  endfacet
  facet normal 0.258819 0.965926 0.000000
    outer loop
      vertex -12.5000 2.5981 9.0000
      vertex -14.0000 3.0000 9.0000
      vertex -14.0000 3.0000 13.0000
    endloop
  endfacet
  facet normal 0.258819 0.965926 0.000000
    outer loop
      vertex -12.5000 2.5981 9.0000
      vertex -14.0000 3.0000 13.0000
      vertex -12.5000 2.5981 13.0000
    endloop
  endfacet
  facet normal 0.000000 0.000000 1.000000
    outer loop
      vertex -14.0000 0.0000 13.0000
      vertex -12.5000 2.5981 13.0000
      vertex -14.0000 3.0000 13.0000
    endloop
  endfacet
  facet normal 0.000000 0.000000 -1.000000
    outer loop
      vertex -14.0000 0.0000 9.0000
      vertex -14.0000 3.0000 9.0000
      vertex -12.5000 2.5981 9.0000
    endloop
  endfacet
  facet normal -0.258819 0.965926 0.000000
    outer loop
      vertex -14.0000 3.0000 9.0000
      vertex -15.5000 2.5981 9.0000
      vertex -15.5000 2.5981 13.0000
    endloop
  endfacet
  facet normal -0.258819 0.965926 0.000000
    outer loop
      vertex -14.0000 3.0000 9.0000
      vertex -15.5000 2.5981 13.0000
      vertex -14.0000 3.0000 13.0000
    endloop
  endfacet
  facet normal 0.000000 0.000000 1.000000
    outer loop
      vertex -14.0000 0.0000 13.0000
      vertex -14.0000 3.0000 13.0000
      vertex -15.5000 2.5981 13.0000
    endloop
  endfacet
  facet normal 0.000000 0.000000 -1.000000
    outer loop
      vertex -14.0000 0.0000 9.0000
      vertex -15.5000 2.5981 9.0000
      vertex -14.0000 3.0000 9.0000
    endloop
  endfacet
  facet normal -0.707107 0.707107 0.000000
    outer loop
      vertex -15.5000 2.5981 9.0000
      vertex -16.5981 1.5000 9.0000
      vertex -16.5981 1.5000 13.0000
    endloop
  endfacet
  facet normal -0.707107 0.707107 0.000000
    outer loop
      vertex -15.5000 2.5981 9.0000
      vertex -16.5981 1.5000 13.0000
      vertex -15.5000 2.5981 13.0000
    endloop
  endfacet
  facet normal 0.000000 0.000000 1.000000
    outer loop
      vertex -14.0000 0.0000 13.0000
      vertex -15.5000 2.5981 13.0000
      vertex -16.5981 1.5000 13.0000
    endloop
  endfacet
  facet normal 0.000000 0.000000 -1.000000
    outer loop
      vertex -14.0000 0.0000 9.0000
      vertex -16.5981 1.5000 9.0000
      vertex -15.5000 2.5981 9.0000
    endloop
  endfacet
  facet normal -0.965926 0.258819 0.000000
    outer loop
      vertex -16.5981 1.5000 9.0000
      vertex -17.0000 0.0000 9.0000
      vertex -17.0000 0.0000 13.0000
    endloop
  endfacet
  facet normal -0.965926 0.258819 0.000000
    outer loop
      vertex -16.5981 1.5000 9.0000
      vertex -17.0000 0.0000 13.0000
      vertex -16.5981 1.5000 13.0000
    endloop
  endfacet
  facet normal 0.000000 0.000000 1.000000
    outer loop
      vertex -14.0000 0.0000 13.0000
      vertex -16.5981 1.5000 13.0000
      vertex -17.0000 0.0000 13.0000
    endloop
  endfacet
  facet normal 0.000000 0.000000 -1.000000
    outer loop
      vertex -14.0000 0.0000 9.0000
      vertex -17.0000 0.0000 9.0000
      vertex -16.5981 1.5000 9.0000
    endloop
  endfacet
  facet normal -0.965926 -0.258819 0.000000
    outer loop
      vertex -17.0000 0.0000 9.0000
      vertex -16.5981 -1.5000 9.0000
      vertex -16.5981 -1.5000 13.0000
    endloop
  endfacet
  facet normal -0.965926 -0.258819 0.000000
    outer loop
      vertex -17.0000 0.0000 9.0000
      vertex -16.5981 -1.5000 13.0000
      vertex -17.0000 0.0000 13.0000
    endloop
  endfacet
  facet normal 0.000000 0.000000 1.000000
    outer loop
      vertex -14.0000 0.0000 13.0000
      vertex -17.0000 0.0000 13.0000
      vertex -16.5981 -1.5000 13.0000
    endloop
  endfacet
  facet normal 0.000000 0.000000 -1.000000
    outer loop
      vertex -14.0000 0.0000 9.0000
      vertex -16.5981 -1.5000 9.0000
      vertex -17.0000 0.0000 9.0000
    endloop
  endfacet
  facet normal -0.707107 -0.707107 0.000000
    outer loop
      vertex -16.5981 -1.5000 9.0000
      vertex -15.5000 -2.5981 9.0000
      vertex -15.5000 -2.5981 13.0000
    endloop
  endfacet
  facet normal -0.707107 -0.707107 0.000000
    outer loop
      vertex -16.5981 -1.5000 9.0000
      vertex -15.5000 -2.5981 13.0000
      vertex -16.5981 -1.5000 13.0000
    endloop
  endfacet
  facet normal 0.000000 0.000000 1.000000
    outer loop
      vertex -14.0000 0.0000 13.0000
      vertex -16.5981 -1.5000 13.0000
      vertex -15.5000 -2.5981 13.0000
    endloop
  endfacet
  facet normal 0.000000 0.000000 -1.000000
    outer loop
      vertex -14.0000 0.0000 9.0000
      vertex -15.5000 -2.5981 9.0000
      vertex -16.5981 -1.5000 9.0000
    endloop
  endfacet
  facet normal -0.258819 -0.965926 0.000000
    outer loop
      vertex -15.5000 -2.5981 9.0000
      vertex -14.0000 -3.0000 9.0000
      vertex -14.0000 -3.0000 13.0000
    endloop
  endfacet
  facet normal -0.258819 -0.965926 0.000000
    outer loop
      vertex -15.5000 -2.5981 9.0000
      vertex -14.0000 -3.0000 13.0000
      vertex -15.5000 -2.5981 13.0000
    endloop
  endfacet
  facet normal 0.000000 0.000000 1.000000
    outer loop
      vertex -14.0000 0.0000 13.0000
      vertex -15.5000 -2.5981 13.0000
      vertex -14.0000 -3.0000 13.0000
    endloop
  endfacet
  facet normal 0.000000 0.000000 -1.000000
    outer loop
      vertex -14.0000 0.0000 9.0000
      vertex -14.0000 -3.0000 9.0000
      vertex -15.5000 -2.5981 9.0000
    endloop
  endfacet
  facet normal 0.258819 -0.965926 0.000000
    outer loop
      vertex -14.0000 -3.0000 9.0000
      vertex -12.5000 -2.5981 9.0000
      vertex -12.5000 -2.5981 13.0000
    endloop
  endfacet
  facet normal 0.258819 -0.965926 0.000000
    outer loop
      vertex -14.0000 -3.0000 9.0000
      vertex -12.5000 -2.5981 13.0000
      vertex -14.0000 -3.0000 13.0000
    endloop
  endfacet
  facet normal 0.000000 0.000000 1.000000
    outer loop
      vertex -14.0000 0.0000 13.0000
      vertex -14.0000 -3.0000 13.0000
      vertex -12.5000 -2.5981 13.0000
    endloop
  endfacet
  facet normal 0.000000 0.000000 -1.000000
    outer loop
      vertex -14.0000 0.0000 9.0000
      vertex -12.5000 -2.5981 9.0000
      vertex -14.0000 -3.0000 9.0000
    endloop
  endfacet
  facet normal 0.707107 -0.707107 0.000000
    outer loop
      vertex -12.5000 -2.5981 9.0000
      vertex -11.4019 -1.5000 9.0000
      vertex -11.4019 -1.5000 13.0000
    endloop
  endfacet
  facet normal 0.707107 -0.707107 0.000000
    outer loop
      vertex -12.5000 -2.5981 9.0000
      vertex -11.4019 -1.5000 13.0000
      vertex -12.5000 -2.5981 13.0000
    endloop
  endfacet
  facet normal 0.000000 0.000000 1.000000
    outer loop
      vertex -14.0000 0.0000 13.0000
      vertex -12.5000 -2.5981 13.0000
      vertex -11.4019 -1.5000 13.0000
    endloop
  endfacet
  facet normal 0.000000 0.000000 -1.000000
    outer loop
      vertex -14.0000 0.0000 9.0000
      vertex -11.4019 -1.5000 9.0000
      vertex -12.5000 -2.5981 9.0000
    endloop
  endfacet
  facet normal 0.965926 -0.258819 0.000000
    outer loop
      vertex -11.4019 -1.5000 9.0000
      vertex -11.0000 -0.0000 9.0000
      vertex -11.0000 -0.0000 13.0000
    endloop
  endfacet
  facet normal 0.965926 -0.258819 0.000000
    outer loop
      vertex -11.4019 -1.5000 9.0000
      vertex -11.0000 -0.0000 13.0000
      vertex -11.4019 -1.5000 13.0000
    endloop
  endfacet
  facet normal 0.000000 0.000000 1.000000
    outer loop
      vertex -14.0000 0.0000 13.0000
      vertex -11.4019 -1.5000 13.0000
      vertex -11.0000 -0.0000 13.0000
    endloop
  endfacet
  facet normal 0.000000 0.000000 -1.000000
    outer loop
      vertex -14.0000 0.0000 9.0000
      vertex -11.0000 -0.0000 9.0000
      vertex -11.4019 -1.5000 9.0000
    endloop
  endfacet
endsolid adapter
