solid adapter
  facet normal 0.995185 0.098017 0.000000
    outer loop
      vertex 28.0000 0.0000 0.0000
      vertex 27.4620 5.4625 0.0000
      vertex 27.4620 5.4625 3.0000
    endloop
  endfacet
  facet normal 0.995185 0.098017 0.000000
    outer loop
      vertex 28.0000 0.0000 0.0000
      vertex 27.4620 5.4625 3.0000
      vertex 28.0000 0.0000 3.0000
    endloop
  endfacet
  facet normal 0.000000 0.000000 1.000000
    outer loop
      vertex 0.0000 0.0000 3.0000
      vertex 28.0000 0.0000 3.0000
      vertex 27.4620 5.4625 3.0000
    endloop
  endfacet
  facet normal 0.000000 0.000000 -1.000000
    outer loop
      vertex 0.0000 0.0000 0.0000
      vertex 27.4620 5.4625 0.0000
      vertex 28.0000 0.0000 0.0000
    endloop
  endfacet
  facet normal 0.956940 0.290285 0.000000
    outer loop
      vertex 27.4620 5.4625 0.0000
      vertex 25.8686 10.7151 0.0000
      vertex 25.8686 10.7151 3.0000
    endloop
  endfacet
  facet normal 0.956940 0.290285 0.000000
    outer loop
      vertex 27.4620 5.4625 0.0000
      vertex 25.8686 10.7151 3.0000
      vertex 27.4620 5.4625 3.0000
    endloop
  endfacet
  facet normal 0.000000 0.000000 1.000000
    outer loop
      vertex 0.0000 0.0000 3.0000
      vertex 27.4620 5.4625 3.0000
      vertex 25.8686 10.7151 3.0000
    endloop
  endfacet
  facet normal 0.000000 0.000000 -1.000000
    outer loop
      vertex 0.0000 0.0000 0.0000
      vertex 25.8686 10.7151 0.0000
      vertex 27.4620 5.4625 0.0000
    endloop
  endfacet
  facet normal 0.881921 0.471397 0.000000
    outer loop
      vertex 25.8686 10.7151 0.0000
      vertex 23.2811 15.5560 0.0000
      vertex 23.2811 15.5560 3.0000
    endloop
  endfacet
  facet normal 0.881921 0.471397 0.000000
    outer loop
      vertex 25.8686 10.7151 0.0000
      vertex 23.2811 15.5560 3.0000
      vertex 25.8686 10.7151 3.0000
    endloop
  endfacet
  facet normal 0.000000 0.000000 1.000000
    outer loop
      vertex 0.0000 0.0000 3.0000
      vertex 25.8686 10.7151 3.0000
      vertex 23.2811 15.5560 3.0000
    endloop
  endfacet
  facet normal 0.000000 0.000000 -1.000000
    outer loop
      vertex 0.0000 0.0000 0.0000
      vertex 23.2811 15.5560 0.0000
      vertex 25.8686 10.7151 0.0000
    endloop
  endfacet
  facet normal 0.773010 0.634393 0.000000
    outer loop
      vertex 23.2811 15.5560 0.0000
      vertex 19.7990 19.7990 0.0000
      vertex 19.7990 19.7990 3.0000
    endloop
  endfacet
  facet normal 0.773010 0.634393 0.000000
    outer loop
      vertex 23.2811 15.5560 0.0000
      vertex 19.7990 19.7990 3.0000
      vertex 23.2811 15.5560 3.0000
    endloop
  endfacet
  facet normal 0.000000 0.000000 1.000000
    outer loop
      vertex 0.0000 0.0000 3.0000
      vertex 23.2811 15.5560 3.0000
      vertex 19.7990 19.7990 3.0000
    endloop
  endfacet
  facet normal 0.000000 0.000000 -1.000000
    outer loop
      vertex 0.0000 0.0000 0.0000
      vertex 19.7990 19.7990 0.0000
      vertex 23.2811 15.5560 0.0000
    endloop
  endfacet
  facet normal 0.634393 0.773010 0.000000
    outer loop
      vertex 19.7990 19.7990 0.0000
      vertex 15.5560 23.2811 0.0000
      vertex 15.5560 23.2811 3.0000
    endloop
  endfacet
  facet normal 0.634393 0.773010 0.000000
    outer loop
      vertex 19.7990 19.7990 0.0000
      vertex 15.5560 23.2811 3.0000
      vertex 19.7990 19.7990 3.0000
    endloop
  endfacet
  facet normal 0.000000 0.000000 1.000000
    outer loop
      vertex 0.0000 0.0000 3.0000
      vertex 19.7990 19.7990 3.0000
      vertex 15.5560 23.2811 3.0000
    endloop
  endfacet
  facet normal 0.000000 0.000000 -1.000000
    outer loop
      vertex 0.0000 0.0000 0.0000
      vertex 15.5560 23.2811 0.0000
      vertex 19.7990 19.7990 0.0000
    endloop
  endfacet
  facet normal 0.471397 0.881921 0.000000
    outer loop
      vertex 15.5560 23.2811 0.0000
      vertex 10.7151 25.8686 0.0000
      vertex 10.7151 25.8686 3.0000
    endloop
  endfacet
  facet normal 0.471397 0.881921 0.000000
    outer loop
      vertex 15.5560 23.2811 0.0000
      vertex 10.7151 25.8686 3.0000
      vertex 15.5560 23.2811 3.0000
    endloop
  endfacet
  facet normal 0.000000 0.000000 1.000000
    outer loop
      vertex 0.0000 0.0000 3.0000
      vertex 15.5560 23.2811 3.0000
      vertex 10.7151 25.8686 3.0000
    endloop
  endfacet
  facet normal 0.000000 0.000000 -1.000000
    outer loop
      vertex 0.0000 0.0000 0.0000
      vertex 10.7151 25.8686 0.0000
      vertex 15.5560 23.2811 0.0000
    endloop
  endfacet
  facet normal 0.290285 0.956940 0.000000
    outer loop
      vertex 10.7151 25.8686 0.0000
      vertex 5.4625 27.4620 0.0000
      vertex 5.4625 27.4620 3.0000
    endloop
  endfacet
  facet normal 0.290285 0.956940 0.000000
    outer loop
      vertex 10.7151 25.8686 0.0000
      vertex 5.4625 27.4620 3.0000
      vertex 10.7151 25.8686 3.0000
    endloop
  endfacet
  facet normal 0.000000 0.000000 1.000000
    outer loop
      vertex 0.0000 0.0000 3.0000
      vertex 10.7151 25.8686 3.0000
      vertex 5.4625 27.4620 3.0000
    endloop
  endfacet
  facet normal 0.000000 0.000000 -1.000000
    outer loop
      vertex 0.0000 0.0000 0.0000
      vertex 5.4625 27.4620 0.0000
      vertex 10.7151 25.8686 0.0000
    endloop
  endfacet
  facet normal 0.098017 0.995185 0.000000
    outer loop
      vertex 5.4625 27.4620 0.0000
      vertex 0.0000 28.0000 0.0000
      vertex 0.0000 28.0000 3.0000
    endloop
  endfacet
  facet normal 0.098017 0.995185 0.000000
    outer loop
      vertex 5.4625 27.4620 0.0000
      vertex 0.0000 28.0000 3.0000
      vertex 5.4625 27.4620 3.0000
    endloop
  endfacet
  facet normal 0.000000 0.000000 1.000000
    outer loop
      vertex 0.0000 0.0000 3.0000
      vertex 5.4625 27.4620 3.0000
      vertex 0.0000 28.0000 3.0000
    endloop
  endfacet
  facet normal 0.000000 0.000000 -1.000000
    outer loop
      vertex 0.0000 0.0000 0.0000
      vertex 0.0000 28.0000 0.0000
      vertex 5.4625 27.4620 0.0000
    endloop
  endfacet
  facet normal -0.098017 0.995185 0.000000
    outer loop
      vertex 0.0000 28.0000 0.0000
      vertex -5.4625 27.4620 0.0000
      vertex -5.4625 27.4620 3.0000
    endloop
  endfacet
  facet normal -0.098017 0.995185 0.000000
    outer loop
      vertex 0.0000 28.0000 0.0000
      vertex -5.4625 27.4620 3.0000
      vertex 0.0000 28.0000 3.0000
    endloop
  endfacet
  facet normal 0.000000 0.000000 1.000000
    outer loop
      vertex 0.0000 0.0000 3.0000
      vertex 0.0000 28.0000 3.0000
      vertex -5.4625 27.4620 3.0000
    endloop
  endfacet
  facet normal 0.000000 0.000000 -1.000000
    outer loop
      vertex 0.0000 0.0000 0.0000
      vertex -5.4625 27.4620 0.0000
      vertex 0.0000 28.0000 0.0000
    endloop
  endfacet
  facet normal -0.290285 0.956940 0.000000
    outer loop
      vertex -5.4625 27.4620 0.0000
      vertex -10.7151 25.8686 0.0000
      vertex -10.7151 25.8686 3.0000
    endloop
  endfacet
  facet normal -0.290285 0.956940 0.000000
    outer loop
      vertex -5.4625 27.4620 0.0000
      vertex -10.7151 25.8686 3.0000
      vertex -5.4625 27.4620 3.0000
    endloop
  endfacet
  facet normal 0.000000 0.000000 1.000000
    outer loop
      vertex 0.0000 0.0000 3.0000
      vertex -5.4625 27.4620 3.0000
      vertex -10.7151 25.8686 3.0000
    endloop
  endfacet
  facet normal 0.000000 0.000000 -1.000000
    outer loop
      vertex 0.0000 0.0000 0.0000
      vertex -10.7151 25.8686 0.0000
      vertex -5.4625 27.4620 0.0000
    endloop
  endfacet
  facet normal -0.471397 0.881921 0.000000
    outer loop
      vertex -10.7151 25.8686 0.0000
      vertex -15.5560 23.2811 0.0000
      vertex -15.5560 23.2811 3.0000
    endloop
  endfacet
  facet normal -0.471397 0.881921 0.000000
    outer loop
      vertex -10.7151 25.8686 0.0000
      vertex -15.5560 23.2811 3.0000
      vertex -10.7151 25.8686 3.0000
    endloop
  endfacet
  facet normal 0.000000 0.000000 1.000000
    outer loop
      vertex 0.0000 0.0000 3.0000
      vertex -10.7151 25.8686 3.0000
      vertex -15.5560 23.2811 3.0000
    endloop
  endfacet
  facet normal 0.000000 0.000000 -1.000000
    outer loop
      vertex 0.0000 0.0000 0.0000
      vertex -15.5560 23.2811 0.0000
      vertex -10.7151 25.8686 0.0000
    endloop
  endfacet
  facet normal -0.634393 0.773010 0.000000
    outer loop
      vertex -15.5560 23.2811 0.0000
      vertex -19.7990 19.7990 0.0000
      vertex -19.7990 19.7990 3.0000
    endloop
  endfacet
  facet normal -0.634393 0.773010 0.000000
    outer loop
      vertex -15.5560 23.2811 0.0000
      vertex -19.7990 19.7990 3.0000
      vertex -15.5560 23.2811 3.0000
    endloop
  endfacet
  facet normal 0.000000 0.000000 1.000000
    outer loop
      vertex 0.0000 0.0000 3.0000
      vertex -15.5560 23.2811 3.0000
      vertex -19.7990 19.7990 3.0000
    endloop
  endfacet
  facet normal 0.000000 0.000000 -1.000000
    outer loop
      vertex 0.0000 0.0000 0.0000
      vertex -19.7990 19.7990 0.0000
      vertex -15.5560 23.2811 0.0000
    endloop
  endfacet
  facet normal -0.773010 0.634393 0.000000
    outer loop
      vertex -19.7990 19.7990 0.0000
      vertex -23.2811 15.5560 0.0000
      vertex -23.2811 15.5560 3.0000
    endloop
  endfacet
  facet normal -0.773010 0.634393 0.000000
    outer loop
      vertex -19.7990 19.7990 0.0000
      vertex -23.2811 15.5560 3.0000
      vertex -19.7990 19.7990 3.0000
    endloop
  endfacet
  facet normal 0.000000 0.000000 1.000000
    outer loop
      vertex 0.0000 0.0000 3.0000
      vertex -19.7990 19.7990 3.0000
      vertex -23.2811 15.5560 3.0000
    endloop
  endfacet
  facet normal 0.000000 0.000000 -1.000000
    outer loop
      vertex 0.0000 0.0000 0.0000
      vertex -23.2811 15.5560 0.0000
      vertex -19.7990 19.7990 0.0000
    endloop
  endfacet
  facet normal -0.881921 0.471397 0.000000
    outer loop
      vertex -23.2811 15.5560 0.0000
      vertex -25.8686 10.7151 0.0000
      vertex -25.8686 10.7151 3.0000
    endloop
  endfacet
  facet normal -0.881921 0.471397 0.000000
    outer loop
      vertex -23.2811 15.5560 0.0000
      vertex -25.8686 10.7151 3.0000
      vertex -23.2811 15.5560 3.0000
    endloop
  endfacet
  facet normal 0.000000 0.000000 1.000000
    outer loop
      vertex 0.0000 0.0000 3.0000
      vertex -23.2811 15.5560 3.0000
      vertex -25.8686 10.7151 3.0000
    endloop
  endfacet
  facet normal 0.000000 0.000000 -1.000000
    outer loop
      vertex 0.0000 0.0000 0.0000
      vertex -25.8686 10.7151 0.0000
      vertex -23.2811 15.5560 0.0000
    endloop
  endfacet
  facet normal -0.956940 0.290285 0.000000
    outer loop
      vertex -25.8686 10.7151 0.0000
      vertex -27.4620 5.4625 0.0000
      vertex -27.4620 5.4625 3.0000
    endloop
  endfacet
  facet normal -0.956940 0.290285 0.000000
    outer loop
      vertex -25.8686 10.7151 0.0000
      vertex -27.4620 5.4625 3.0000
      vertex -25.8686 10.7151 3.0000
    endloop
  endfacet
  facet normal 0.000000 0.000000 1.000000
    outer loop
      vertex 0.0000 0.0000 3.0000
      vertex -25.8686 10.7151 3.0000
      vertex -27.4620 5.4625 3.0000
    endloop
  endfacet
  facet normal 0.000000 0.000000 -1.000000
    outer loop
      vertex 0.0000 0.0000 0.0000
      vertex -27.4620 5.4625 0.0000
      vertex -25.8686 10.7151 0.0000
    endloop
  endfacet
  facet normal -0.995185 0.098017 0.000000
    outer loop
      vertex -27.4620 5.4625 0.0000
      vertex -28.0000 0.0000 0.0000
      vertex -28.0000 0.0000 3.0000
    endloop
  endfacet
  facet normal -0.995185 0.098017 0.000000
    outer loop
      vertex -27.4620 5.4625 0.0000
      vertex -28.0000 0.0000 3.0000
      vertex -27.4620 5.4625 3.0000
    endloop
  endfacet
  facet normal 0.000000 0.000000 1.000000
    outer loop
      vertex 0.0000 0.0000 3.0000
      vertex -27.4620 5.4625 3.0000
      vertex -28.0000 0.0000 3.0000
    endloop
  endfacet
  facet normal 0.000000 0.000000 -1.000000
    outer loop
      vertex 0.0000 0.0000 0.0000
      vertex -28.0000 0.0000 0.0000
      vertex -27.4620 5.4625 0.0000
    endloop
  endfacet
  facet normal -0.995185 -0.098017 0.000000
    outer loop
      vertex -28.0000 0.0000 0.0000
      vertex -27.4620 -5.4625 0.0000
      vertex -27.4620 -5.4625 3.0000
    endloop
  endfacet
  facet normal -0.995185 -0.098017 0.000000
    outer loop
      vertex -28.0000 0.0000 0.0000
      vertex -27.4620 -5.4625 3.0000
      vertex -28.0000 0.0000 3.0000
    endloop
  endfacet
  facet normal 0.000000 0.000000 1.000000
    outer loop
      vertex 0.0000 0.0000 3.0000
      vertex -28.0000 0.0000 3.0000
      vertex -27.4620 -5.4625 3.0000
    endloop
  endfacet
  facet normal 0.000000 0.000000 -1.000000
    outer loop
      vertex 0.0000 0.0000 0.0000
      vertex -27.4620 -5.4625 0.0000
      vertex -28.0000 0.0000 0.0000
    endloop
  endfacet
  facet normal -0.956940 -0.290285 0.000000
    outer loop
      vertex -27.4620 -5.4625 0.0000
      vertex -25.8686 -10.7151 0.0000
      vertex -25.8686 -10.7151 3.0000
    endloop
  endfacet
  facet normal -0.956940 -0.290285 0.000000
    outer loop
      vertex -27.4620 -5.4625 0.0000
      vertex -25.8686 -10.7151 3.0000
      vertex -27.4620 -5.4625 3.0000
    endloop
  endfacet
  facet normal 0.000000 0.000000 1.000000
    outer loop
      vertex 0.0000 0.0000 3.0000
      vertex -27.4620 -5.4625 3.0000
      vertex -25.8686 -10.7151 3.0000
    endloop
  endfacet
  facet normal 0.000000 0.000000 -1.000000
    outer loop
      vertex 0.0000 0.0000 0.0000
      vertex -25.8686 -10.7151 0.0000
      vertex -27.4620 -5.4625 0.0000
    endloop
  endfacet
  facet normal -0.881921 -0.471397 0.000000
    outer loop
      vertex -25.8686 -10.7151 0.0000
      vertex -23.2811 -15.5560 0.0000
      vertex -23.2811 -15.5560 3.0000
    endloop
  endfacet
  facet normal -0.881921 -0.471397 0.000000
    outer loop
      vertex -25.8686 -10.7151 0.0000
      vertex -23.2811 -15.5560 3.0000
      vertex -25.8686 -10.7151 3.0000
    endloop
  endfacet
  facet normal 0.000000 0.000000 1.000000
    outer loop
      vertex 0.0000 0.0000 3.0000
      vertex -25.8686 -10.7151 3.0000
      vertex -23.2811 -15.5560 3.0000
    endloop
  endfacet
  facet normal 0.000000 0.000000 -1.000000
    outer loop
      vertex 0.0000 0.0000 0.0000
      vertex -23.2811 -15.5560 0.0000
      vertex -25.8686 -10.7151 0.0000
    endloop
  endfacet
  facet normal -0.773010 -0.634393 0.000000
    outer loop
      vertex -23.2811 -15.5560 0.0000
      vertex -19.7990 -19.7990 0.0000
      vertex -19.7990 -19.7990 3.0000
    endloop
  endfacet
  facet normal -0.773010 -0.634393 0.000000
    outer loop
      vertex -23.2811 -15.5560 0.0000
      vertex -19.7990 -19.7990 3.0000
      vertex -23.2811 -15.5560 3.0000
    endloop
  endfacet
  facet normal 0.000000 0.000000 1.000000
    outer loop
      vertex 0.0000 0.0000 3.0000
      vertex -23.2811 -15.5560 3.0000
      vertex -19.7990 -19.7990 3.0000
    endloop
  endfacet
  facet normal 0.000000 0.000000 -1.000000
    outer loop
      vertex 0.0000 0.0000 0.0000
      vertex -19.7990 -19.7990 0.0000
      vertex -23.2811 -15.5560 0.0000
    endloop
  endfacet
  facet normal -0.634393 -0.773010 0.000000
    outer loop
      vertex -19.7990 -19.7990 0.0000
      vertex -15.5560 -23.2811 0.0000
      vertex -15.5560 -23.2811 3.0000
    endloop
  endfacet
  facet normal -0.634393 -0.773010 0.000000
    outer loop
      vertex -19.7990 -19.7990 0.0000
      vertex -15.5560 -23.2811 3.0000
      vertex -19.7990 -19.7990 3.0000
    endloop
  endfacet
  facet normal 0.000000 0.000000 1.000000
    outer loop
      vertex 0.0000 0.0000 3.0000
      vertex -19.7990 -19.7990 3.0000
      vertex -15.5560 -23.2811 3.0000
    endloop
  endfacet
  facet normal 0.000000 0.000000 -1.000000
    outer loop
      vertex 0.0000 0.0000 0.0000
      vertex -15.5560 -23.2811 0.0000
      vertex -19.7990 -19.7990 0.0000
    endloop
  endfacet
  facet normal -0.471397 -0.881921 0.000000
    outer loop
      vertex -15.5560 -23.2811 0.0000
      vertex -10.7151 -25.8686 0.0000
      vertex -10.7151 -25.8686 3.0000
    endloop
  endfacet
  facet normal -0.471397 -0.881921 0.000000
    outer loop
      vertex -15.5560 -23.2811 0.0000
      vertex -10.7151 -25.8686 3.0000
      vertex -15.5560 -23.2811 3.0000
    endloop
  endfacet
  facet normal 0.000000 0.000000 1.000000
    outer loop
      vertex 0.0000 0.0000 3.0000
      vertex -15.5560 -23.2811 3.0000
      vertex -10.7151 -25.8686 3.0000
    endloop
  endfacet
  facet normal 0.000000 0.000000 -1.000000
    outer loop
      vertex 0.0000 0.0000 0.0000
      vertex -10.7151 -25.8686 0.0000
      vertex -15.5560 -23.2811 0.0000
    endloop
  endfacet
  facet normal -0.290285 -0.956940 0.000000
    outer loop
      vertex -10.7151 -25.8686 0.0000
      vertex -5.4625 -27.4620 0.0000
      vertex -5.4625 -27.4620 3.0000
    endloop
  endfacet
  facet normal -0.290285 -0.956940 0.000000
    outer loop
      vertex -10.7151 -25.8686 0.0000
      vertex -5.4625 -27.4620 3.0000
      vertex -10.7151 -25.8686 3.0000
    endloop
  endfacet
  facet normal 0.000000 0.000000 1.000000
    outer loop
      vertex 0.0000 0.0000 3.0000
      vertex -10.7151 -25.8686 3.0000
      vertex -5.4625 -27.4620 3.0000
    endloop
  endfacet
  facet normal 0.000000 0.000000 -1.000000
    outer loop
      vertex 0.0000 0.0000 0.0000
      vertex -5.4625 -27.4620 0.0000
      vertex -10.7151 -25.8686 0.0000
    endloop
  endfacet
  facet normal -0.098017 -0.995185 0.000000
    outer loop
      vertex -5.4625 -27.4620 0.0000
      vertex -0.0000 -28.0000 0.0000
      vertex -0.0000 -28.0000 3.0000
    endloop
  endfacet
  facet normal -0.098017 -0.995185 0.000000
    outer loop
      vertex -5.4625 -27.4620 0.0000
      vertex -0.0000 -28.0000 3.0000
      vertex -5.4625 -27.4620 3.0000
    endloop
  endfacet
  facet normal 0.000000 0.000000 1.000000
    outer loop
      vertex 0.0000 0.0000 3.0000
      vertex -5.4625 -27.4620 3.0000
      vertex -0.0000 -28.0000 3.0000
    endloop
  endfacet
  facet normal 0.000000 0.000000 -1.000000
    outer loop
      vertex 0.0000 0.0000 0.0000
      vertex -0.0000 -28.0000 0.0000
      vertex -5.4625 -27.4620 0.0000
    endloop
  endfacet
  facet normal 0.098017 -0.995185 0.000000
    outer loop
      vertex -0.0000 -28.0000 0.0000
      vertex 5.4625 -27.4620 0.0000
      vertex 5.4625 -27.4620 3.0000
    endloop
  endfacet
  facet normal 0.098017 -0.995185 0.000000
    outer loop
      vertex -0.0000 -28.0000 0.0000
      vertex 5.4625 -27.4620 3.0000
      vertex -0.0000 -28.0000 3.0000
    endloop
  endfacet
  facet normal 0.000000 0.000000 1.000000
    outer loop
      vertex 0.0000 0.0000 3.0000
      vertex -0.0000 -28.0000 3.0000
      vertex 5.4625 -27.4620 3.0000
    endloop
  endfacet
  facet normal 0.000000 0.000000 -1.000000
    outer loop
      vertex 0.0000 0.0000 0.0000
      vertex 5.4625 -27.4620 0.0000
      vertex -0.0000 -28.0000 0.0000
    endloop
  endfacet
  facet normal 0.290285 -0.956940 0.000000
    outer loop
      vertex 5.4625 -27.4620 0.0000
      vertex 10.7151 -25.8686 0.0000
      vertex 10.7151 -25.8686 3.0000
    endloop
  endfacet
  facet normal 0.290285 -0.956940 0.000000
    outer loop
      vertex 5.4625 -27.4620 0.0000
      vertex 10.7151 -25.8686 3.0000
      vertex 5.4625 -27.4620 3.0000
    endloop
  endfacet
  facet normal 0.000000 0.000000 1.000000
    outer loop
      vertex 0.0000 0.0000 3.0000
      vertex 5.4625 -27.4620 3.0000
      vertex 10.7151 -25.8686 3.0000
    endloop
  endfacet
  facet normal 0.000000 0.000000 -1.000000
    outer loop
      vertex 0.0000 0.0000 0.0000
      vertex 10.7151 -25.8686 0.0000
      vertex 5.4625 -27.4620 0.0000
    endloop
  endfacet
  facet normal 0.471397 -0.881921 0.000000
    outer loop
      vertex 10.7151 -25.8686 0.0000
      vertex 15.5560 -23.2811 0.0000
      vertex 15.5560 -23.2811 3.0000
    endloop
  endfacet
  facet normal 0.471397 -0.881921 0.000000
    outer loop
      vertex 10.7151 -25.8686 0.0000
      vertex 15.5560 -23.2811 3.0000
      vertex 10.7151 -25.8686 3.0000
    endloop
  endfacet
  facet normal 0.000000 0.000000 1.000000
    outer loop
      vertex 0.0000 0.0000 3.0000
      vertex 10.7151 -25.8686 3.0000
      vertex 15.5560 -23.2811 3.0000
    endloop
  endfacet
  facet normal 0.000000 0.000000 -1.000000
    outer loop
      vertex 0.0000 0.0000 0.0000
      vertex 15.5560 -23.2811 0.0000
      vertex 10.7151 -25.8686 0.0000
    endloop
  endfacet
  facet normal 0.634393 -0.773010 0.000000
    outer loop
      vertex 15.5560 -23.2811 0.0000
      vertex 19.7990 -19.7990 0.0000
      vertex 19.7990 -19.7990 3.0000
    endloop
  endfacet
  facet normal 0.634393 -0.773010 0.000000
    outer loop
      vertex 15.5560 -23.2811 0.0000
      vertex 19.7990 -19.7990 3.0000
      vertex 15.5560 -23.2811 3.0000
    endloop
  endfacet
  facet normal 0.000000 0.000000 1.000000
    outer loop
      vertex 0.0000 0.0000 3.0000
      vertex 15.5560 -23.2811 3.0000
      vertex 19.7990 -19.7990 3.0000
    endloop
  endfacet
  facet normal 0.000000 0.000000 -1.000000
    outer loop
      vertex 0.0000 0.0000 0.0000
      vertex 19.7990 -19.7990 0.0000
      vertex 15.5560 -23.2811 0.0000
    endloop
  endfacet
  facet normal 0.773010 -0.634393 0.000000
    outer loop
      vertex 19.7990 -19.7990 0.0000
      vertex 23.2811 -15.5560 0.0000
      vertex 23.2811 -15.5560 3.0000
    endloop
  endfacet
  facet normal 0.773010 -0.634393 0.000000
    outer loop
      vertex 19.7990 -19.7990 0.0000
      vertex 23.2811 -15.5560 3.0000
      vertex 19.7990 -19.7990 3.0000
    endloop
  endfacet
  facet normal 0.000000 0.000000 1.000000
    outer loop
      vertex 0.0000 0.0000 3.0000
      vertex 19.7990 -19.7990 3.0000
      vertex 23.2811 -15.5560 3.0000
    endloop
  endfacet
  facet normal 0.000000 0.000000 -1.000000
    outer loop
      vertex 0.0000 0.0000 0.0000
      vertex 23.2811 -15.5560 0.0000
      vertex 19.7990 -19.7990 0.0000
    endloop
  endfacet
  facet normal 0.881921 -0.471397 0.000000
    outer loop
      vertex 23.2811 -15.5560 0.0000
      vertex 25.8686 -10.7151 0.0000
      vertex 25.8686 -10.7151 3.0000
    endloop
  endfacet
  facet normal 0.881921 -0.471397 0.000000
    outer loop
      vertex 23.2811 -15.5560 0.0000
      vertex 25.8686 -10.7151 3.0000
      vertex 23.2811 -15.5560 3.0000
    endloop
  endfacet
  facet normal 0.000000 0.000000 1.000000
    outer loop
      vertex 0.0000 0.0000 3.0000
      vertex 23.2811 -15.5560 3.0000
      vertex 25.8686 -10.7151 3.0000
    endloop
  endfacet
  facet normal 0.000000 0.000000 -1.000000
    outer loop
      vertex 0.0000 0.0000 0.0000
      vertex 25.8686 -10.7151 0.0000
      vertex 23.2811 -15.5560 0.0000
    endloop
  endfacet
  facet normal 0.956940 -0.290285 0.000000
    outer loop
      vertex 25.8686 -10.7151 0.0000
      vertex 27.4620 -5.4625 0.0000
      vertex 27.4620 -5.4625 3.0000
    endloop
  endfacet
  facet normal 0.956940 -0.290285 0.000000
    outer loop
      vertex 25.8686 -10.7151 0.0000
      vertex 27.4620 -5.4625 3.0000
      vertex 25.8686 -10.7151 3.0000
    endloop
  endfacet
  facet normal 0.000000 0.000000 1.000000
    outer loop
      vertex 0.0000 0.0000 3.0000
      vertex 25.8686 -10.7151 3.0000
      vertex 27.4620 -5.4625 3.0000
    endloop
  endfacet
  facet normal 0.000000 0.000000 -1.000000
    outer loop
      vertex 0.0000 0.0000 0.0000
      vertex 27.4620 -5.4625 0.0000
      vertex 25.8686 -10.7151 0.0000
    endloop
  endfacet
  facet normal 0.995185 -0.098017 0.000000
    outer loop
      vertex 27.4620 -5.4625 0.0000
      vertex 28.0000 -0.0000 0.0000
      vertex 28.0000 -0.0000 3.0000
    endloop
  endfacet
  facet normal 0.995185 -0.098017 0.000000
    outer loop
      vertex 27.4620 -5.4625 0.0000
      vertex 28.0000 -0.0000 3.0000
      vertex 27.4620 -5.4625 3.0000
    endloop
  endfacet
  facet normal 0.000000 0.000000 1.000000
    outer loop
      vertex 0.0000 0.0000 3.0000
      vertex 27.4620 -5.4625 3.0000
      vertex 28.0000 -0.0000 3.0000
    endloop
  endfacet
  facet normal 0.000000 0.000000 -1.000000
    outer loop
      vertex 0.0000 0.0000 0.0000
      vertex 28.0000 -0.0000 0.0000
      vertex 27.4620 -5.4625 0.0000
    endloop
  endfacet
  facet normal 0.991445 0.130526 0.000000
    outer loop
      vertex 25.0000 0.0000 3.0000
      vertex 24.1481 6.4705 3.0000
      vertex 24.1481 6.4705 6.0000
    endloop
  endfacet
  facet normal 0.991445 0.130526 0.000000
    outer loop
      vertex 25.0000 0.0000 3.0000
      vertex 24.1481 6.4705 6.0000
      vertex 25.0000 0.0000 6.0000
    endloop
  endfacet
  facet normal 0.000000 0.000000 1.000000
    outer loop
      vertex 0.0000 0.0000 6.0000
      vertex 25.0000 0.0000 6.0000
      vertex 24.1481 6.4705 6.0000
    endloop
  endfacet
  facet normal 0.000000 0.000000 -1.000000
    outer loop
      vertex 0.0000 0.0000 3.0000
      vertex 24.1481 6.4705 3.0000
      vertex 25.0000 0.0000 3.0000
    endloop
  endfacet
  facet normal 0.923880 0.382683 0.000000
    outer loop
      vertex 24.1481 6.4705 3.0000
      vertex 21.6506 12.5000 3.0000
      vertex 21.6506 12.5000 6.0000
    endloop
  endfacet
  facet normal 0.923880 0.382683 0.000000
    outer loop
      vertex 24.1481 6.4705 3.0000
      vertex 21.6506 12.5000 6.0000
      vertex 24.1481 6.4705 6.0000
    endloop
  endfacet
  facet normal 0.000000 0.000000 1.000000
    outer loop
      vertex 0.0000 0.0000 6.0000
      vertex 24.1481 6.4705 6.0000
      vertex 21.6506 12.5000 6.0000
    endloop
  endfacet
  facet normal 0.000000 0.000000 -1.000000
    outer loop
      vertex 0.0000 0.0000 3.0000
      vertex 21.6506 12.5000 3.0000
      vertex 24.1481 6.4705 3.0000
    endloop
  endfacet
  facet normal 0.793353 0.608761 0.000000
    outer loop
      vertex 21.6506 12.5000 3.0000
      vertex 17.6777 17.6777 3.0000
      vertex 17.6777 17.6777 6.0000
    endloop
  endfacet
  facet normal 0.793353 0.608761 0.000000
    outer loop
      vertex 21.6506 12.5000 3.0000
      vertex 17.6777 17.6777 6.0000
      vertex 21.6506 12.5000 6.0000
    endloop
  endfacet
  facet normal 0.000000 0.000000 1.000000
    outer loop
      vertex 0.0000 0.0000 6.0000
      vertex 21.6506 12.5000 6.0000
      vertex 17.6777 17.6777 6.0000
    endloop
  endfacet
  facet normal 0.000000 0.000000 -1.000000
    outer loop
      vertex 0.0000 0.0000 3.0000
      vertex 17.6777 17.6777 3.0000
      vertex 21.6506 12.5000 3.0000
    endloop
  endfacet
  facet normal 0.608761 0.793353 0.000000
    outer loop
      vertex 17.6777 17.6777 3.0000
      vertex 12.5000 21.6506 3.0000
      vertex 12.5000 21.6506 6.0000
    endloop
  endfacet
  facet normal 0.608761 0.793353 0.000000
    outer loop
      vertex 17.6777 17.6777 3.0000
      vertex 12.5000 21.6506 6.0000
      vertex 17.6777 17.6777 6.0000
    endloop
  endfacet
  facet normal 0.000000 0.000000 1.000000
    outer loop
      vertex 0.0000 0.0000 6.0000
      vertex 17.6777 17.6777 6.0000
      vertex 12.5000 21.6506 6.0000
    endloop
  endfacet
  facet normal 0.000000 0.000000 -1.000000
    outer loop
      vertex 0.0000 0.0000 3.0000
      vertex 12.5000 21.6506 3.0000
      vertex 17.6777 17.6777 3.0000
    endloop
  endfacet
  facet normal 0.382683 0.923880 0.000000
    outer loop
      vertex 12.5000 21.6506 3.0000
      vertex 6.4705 24.1481 3.0000
      vertex 6.4705 24.1481 6.0000
    endloop
  endfacet
  facet normal 0.382683 0.923880 0.000000
    outer loop
      vertex 12.5000 21.6506 3.0000
      vertex 6.4705 24.1481 6.0000
      vertex 12.5000 21.6506 6.0000
    endloop
  endfacet
  facet normal 0.000000 0.000000 1.000000
    outer loop
      vertex 0.0000 0.0000 6.0000
      vertex 12.5000 21.6506 6.0000
      vertex 6.4705 24.1481 6.0000
    endloop
  endfacet
  facet normal 0.000000 0.000000 -1.000000
    outer loop
      vertex 0.0000 0.0000 3.0000
      vertex 6.4705 24.1481 3.0000
      vertex 12.5000 21.6506 3.0000
    endloop
  endfacet
  facet normal 0.130526 0.991445 0.000000
    outer loop
      vertex 6.4705 24.1481 3.0000
      vertex 0.0000 25.0000 3.0000
      vertex 0.0000 25.0000 6.0000
    endloop
  endfacet
  facet normal 0.130526 0.991445 0.000000
    outer loop
      vertex 6.4705 24.1481 3.0000
      vertex 0.0000 25.0000 6.0000
      vertex 6.4705 24.1481 6.0000
    endloop
  endfacet
  facet normal 0.000000 0.000000 1.000000
    outer loop
      vertex 0.0000 0.0000 6.0000
      vertex 6.4705 24.1481 6.0000
      vertex 0.0000 25.0000 6.0000
    endloop
  endfacet
  facet normal 0.000000 0.000000 -1.000000
    outer loop
      vertex 0.0000 0.0000 3.0000
      vertex 0.0000 25.0000 3.0000
      vertex 6.4705 24.1481 3.0000
    endloop
  endfacet
  facet normal -0.130526 0.991445 0.000000
    outer loop
      vertex 0.0000 25.0000 3.0000
      vertex -6.4705 24.1481 3.0000
      vertex -6.4705 24.1481 6.0000
    endloop
  endfacet
  facet normal -0.130526 0.991445 0.000000
    outer loop
      vertex 0.0000 25.0000 3.0000
      vertex -6.4705 24.1481 6.0000
      vertex 0.0000 25.0000 6.0000
    endloop
  endfacet
  facet normal 0.000000 0.000000 1.000000
    outer loop
      vertex 0.0000 0.0000 6.0000
      vertex 0.0000 25.0000 6.0000
      vertex -6.4705 24.1481 6.0000
    endloop
  endfacet
  facet normal 0.000000 0.000000 -1.000000
    outer loop
      vertex 0.0000 0.0000 3.0000
      vertex -6.4705 24.1481 3.0000
      vertex 0.0000 25.0000 3.0000
    endloop
  endfacet
  facet normal -0.382683 0.923880 0.000000
    outer loop
      vertex -6.4705 24.1481 3.0000
      vertex -12.5000 21.6506 3.0000
      vertex -12.5000 21.6506 6.0000
    endloop
  endfacet
  facet normal -0.382683 0.923880 0.000000
    outer loop
      vertex -6.4705 24.1481 3.0000
      vertex -12.5000 21.6506 6.0000
      vertex -6.4705 24.1481 6.0000
    endloop
  endfacet
  facet normal 0.000000 0.000000 1.000000
    outer loop
      vertex 0.0000 0.0000 6.0000
      vertex -6.4705 24.1481 6.0000
      vertex -12.5000 21.6506 6.0000
    endloop
  endfacet
  facet normal 0.000000 0.000000 -1.000000
    outer loop
      vertex 0.0000 0.0000 3.0000
      vertex -12.5000 21.6506 3.0000
      vertex -6.4705 24.1481 3.0000
    endloop
  endfacet
  facet normal -0.608761 0.793353 0.000000
    outer loop
      vertex -12.5000 21.6506 3.0000
      vertex -17.6777 17.6777 3.0000
      vertex -17.6777 17.6777 6.0000
    endloop
  endfacet
  facet normal -0.608761 0.793353 0.000000
    outer loop
      vertex -12.5000 21.6506 3.0000
      vertex -17.6777 17.6777 6.0000
      vertex -12.5000 21.6506 6.0000
    endloop
  endfacet
  facet normal 0.000000 0.000000 1.000000
    outer loop
      vertex 0.0000 0.0000 6.0000
      vertex -12.5000 21.6506 6.0000
      vertex -17.6777 17.6777 6.0000
    endloop
  endfacet
  facet normal 0.000000 0.000000 -1.000000
    outer loop
      vertex 0.0000 0.0000 3.0000
      vertex -17.6777 17.6777 3.0000
      vertex -12.5000 21.6506 3.0000
    endloop
  endfacet
  facet normal -0.793353 0.608761 0.000000
    outer loop
      vertex -17.6777 17.6777 3.0000
      vertex -21.6506 12.5000 3.0000
      vertex -21.6506 12.5000 6.0000
    endloop
  endfacet
  facet normal -0.793353 0.608761 0.000000
    outer loop
      vertex -17.6777 17.6777 3.0000
      vertex -21.6506 12.5000 6.0000
      vertex -17.6777 17.6777 6.0000
    endloop
  endfacet
  facet normal 0.000000 0.000000 1.000000
    outer loop
      vertex 0.0000 0.0000 6.0000
      vertex -17.6777 17.6777 6.0000
      vertex -21.6506 12.5000 6.0000
    endloop
  endfacet
  facet normal 0.000000 0.000000 -1.000000
    outer loop
      vertex 0.0000 0.0000 3.0000
      vertex -21.6506 12.5000 3.0000
      vertex -17.6777 17.6777 3.0000
    endloop
  endfacet
  facet normal -0.923880 0.382683 0.000000
    outer loop
      vertex -21.6506 12.5000 3.0000
      vertex -24.1481 6.4705 3.0000
      vertex -24.1481 6.4705 6.0000
    endloop
  endfacet
  facet normal -0.923880 0.382683 0.000000
    outer loop
      vertex -21.6506 12.5000 3.0000
      vertex -24.1481 6.4705 6.0000
      vertex -21.6506 12.5000 6.0000
    endloop
  endfacet
  facet normal 0.000000 0.000000 1.000000
    outer loop
      vertex 0.0000 0.0000 6.0000
      vertex -21.6506 12.5000 6.0000
      vertex -24.1481 6.4705 6.0000
    endloop
  endfacet
  facet normal 0.000000 0.000000 -1.000000
    outer loop
      vertex 0.0000 0.0000 3.0000
      vertex -24.1481 6.4705 3.0000
      vertex -21.6506 12.5000 3.0000
    endloop
  endfacet
  facet normal -0.991445 0.130526 0.000000
    outer loop
      vertex -24.1481 6.4705 3.0000
      vertex -25.0000 0.0000 3.0000
      vertex -25.0000 0.0000 6.0000
    endloop
  endfacet
  facet normal -0.991445 0.130526 0.000000
    outer loop
      vertex -24.1481 6.4705 3.0000
      vertex -25.0000 0.0000 6.0000
      vertex -24.1481 6.4705 6.0000
    endloop
  endfacet
  facet normal 0.000000 0.000000 1.000000
    outer loop
      vertex 0.0000 0.0000 6.0000
      vertex -24.1481 6.4705 6.0000
      vertex -25.0000 0.0000 6.0000
    endloop
  endfacet
  facet normal 0.000000 0.000000 -1.000000
    outer loop
      vertex 0.0000 0.0000 3.0000
      vertex -25.0000 0.0000 3.0000
      vertex -24.1481 6.4705 3.0000
    endloop
  endfacet
  facet normal -0.991445 -0.130526 0.000000
    outer loop
      vertex -25.0000 0.0000 3.0000
      vertex -24.1481 -6.4705 3.0000
      vertex -24.1481 -6.4705 6.0000
    endloop
  endfacet
  facet normal -0.991445 -0.130526 0.000000
    outer loop
      vertex -25.0000 0.0000 3.0000
      vertex -24.1481 -6.4705 6.0000
      vertex -25.0000 0.0000 6.0000
    endloop
  endfacet
  facet normal 0.000000 0.000000 1.000000
    outer loop
      vertex 0.0000 0.0000 6.0000
      vertex -25.0000 0.0000 6.0000
      vertex -24.1481 -6.4705 6.0000
    endloop
  endfacet
  facet normal 0.000000 0.000000 -1.000000
    outer loop
      vertex 0.0000 0.0000 3.0000
      vertex -24.1481 -6.4705 3.0000
      vertex -25.0000 0.0000 3.0000
    endloop
  endfacet
  facet normal -0.923880 -0.382683 0.000000
    outer loop
      vertex -24.1481 -6.4705 3.0000
      vertex -21.6506 -12.5000 3.0000
      vertex -21.6506 -12.5000 6.0000
    endloop
  endfacet
  facet normal -0.923880 -0.382683 0.000000
    outer loop
      vertex -24.1481 -6.4705 3.0000
      vertex -21.6506 -12.5000 6.0000
      vertex -24.1481 -6.4705 6.0000
    endloop
  endfacet
  facet normal 0.000000 0.000000 1.000000
    outer loop
      vertex 0.0000 0.0000 6.0000
      vertex -24.1481 -6.4705 6.0000
      vertex -21.6506 -12.5000 6.0000
    endloop
  endfacet
  facet normal 0.000000 0.000000 -1.000000
    outer loop
      vertex 0.0000 0.0000 3.0000
      vertex -21.6506 -12.5000 3.0000
      vertex -24.1481 -6.4705 3.0000
    endloop
  endfacet
  facet normal -0.793353 -0.608761 0.000000
    outer loop
      vertex -21.6506 -12.5000 3.0000
      vertex -17.6777 -17.6777 3.0000
      vertex -17.6777 -17.6777 6.0000
    endloop
  endfacet
  facet normal -0.793353 -0.608761 0.000000
    outer loop
      vertex -21.6506 -12.5000 3.0000
      vertex -17.6777 -17.6777 6.0000
      vertex -21.6506 -12.5000 6.0000
    endloop
  endfacet
  facet normal 0.000000 0.000000 1.000000
    outer loop
      vertex 0.0000 0.0000 6.0000
      vertex -21.6506 -12.5000 6.0000
      vertex -17.6777 -17.6777 6.0000
    endloop
  endfacet
  facet normal 0.000000 0.000000 -1.000000
    outer loop
      vertex 0.0000 0.0000 3.0000
      vertex -17.6777 -17.6777 3.0000
      vertex -21.6506 -12.5000 3.0000
    endloop
  endfacet
  facet normal -0.608761 -0.793353 0.000000
    outer loop
      vertex -17.6777 -17.6777 3.0000
      vertex -12.5000 -21.6506 3.0000
      vertex -12.5000 -21.6506 6.0000
    endloop
  endfacet
  facet normal -0.608761 -0.793353 0.000000
    outer loop
      vertex -17.6777 -17.6777 3.0000
      vertex -12.5000 -21.6506 6.0000
      vertex -17.6777 -17.6777 6.0000
    endloop
  endfacet
  facet normal 0.000000 0.000000 1.000000
    outer loop
      vertex 0.0000 0.0000 6.0000
      vertex -17.6777 -17.6777 6.0000
      vertex -12.5000 -21.6506 6.0000
    endloop
  endfacet
  facet normal 0.000000 0.000000 -1.000000
    outer loop
      vertex 0.0000 0.0000 3.0000
      vertex -12.5000 -21.6506 3.0000
      vertex -17.6777 -17.6777 3.0000
    endloop
  endfacet
  facet normal -0.382683 -0.923880 0.000000
    outer loop
      vertex -12.5000 -21.6506 3.0000
      vertex -6.4705 -24.1481 3.0000
      vertex -6.4705 -24.1481 6.0000
    endloop
  endfacet
  facet normal -0.382683 -0.923880 0.000000
    outer loop
      vertex -12.5000 -21.6506 3.0000
      vertex -6.4705 -24.1481 6.0000
      vertex -12.5000 -21.6506 6.0000
    endloop
  endfacet
  facet normal 0.000000 0.000000 1.000000
    outer loop
      vertex 0.0000 0.0000 6.0000
      vertex -12.5000 -21.6506 6.0000
      vertex -6.4705 -24.1481 6.0000
    endloop
  endfacet
  facet normal 0.000000 0.000000 -1.000000
    outer loop
      vertex 0.0000 0.0000 3.0000
      vertex -6.4705 -24.1481 3.0000
      vertex -12.5000 -21.6506 3.0000
    endloop
  endfacet
  facet normal -0.130526 -0.991445 0.000000
    outer loop
      vertex -6.4705 -24.1481 3.0000
      vertex -0.0000 -25.0000 3.0000
      vertex -0.0000 -25.0000 6.0000
    endloop
  endfacet
  facet normal -0.130526 -0.991445 0.000000
    outer loop
      vertex -6.4705 -24.1481 3.0000
      vertex -0.0000 -25.0000 6.0000
      vertex -6.4705 -24.1481 6.0000
    endloop
  endfacet
  facet normal 0.000000 0.000000 1.000000
    outer loop
      vertex 0.0000 0.0000 6.0000
      vertex -6.4705 -24.1481 6.0000
      vertex -0.0000 -25.0000 6.0000
    endloop
  endfacet
  facet normal 0.000000 0.000000 -1.000000
    outer loop
      vertex 0.0000 0.0000 3.0000
      vertex -0.0000 -25.0000 3.0000
      vertex -6.4705 -24.1481 3.0000
    endloop
  endfacet
  facet normal 0.130526 -0.991445 0.000000
    outer loop
      vertex -0.0000 -25.0000 3.0000
      vertex 6.4705 -24.1481 3.0000
      vertex 6.4705 -24.1481 6.0000
    endloop
  endfacet
  facet normal 0.130526 -0.991445 0.000000
    outer loop
      vertex -0.0000 -25.0000 3.0000
      vertex 6.4705 -24.1481 6.0000
      vertex -0.0000 -25.0000 6.0000
    endloop
  endfacet
  facet normal 0.000000 0.000000 1.000000
    outer loop
      vertex 0.0000 0.0000 6.0000
      vertex -0.0000 -25.0000 6.0000
      vertex 6.4705 -24.1481 6.0000
    endloop
  endfacet
  facet normal 0.000000 0.000000 -1.000000
    outer loop
      vertex 0.0000 0.0000 3.0000
      vertex 6.4705 -24.1481 3.0000
      vertex -0.0000 -25.0000 3.0000
    endloop
  endfacet
  facet normal 0.382683 -0.923880 0.000000
    outer loop
      vertex 6.4705 -24.1481 3.0000
      vertex 12.5000 -21.6506 3.0000
      vertex 12.5000 -21.6506 6.0000
    endloop
  endfacet
  facet normal 0.382683 -0.923880 0.000000
    outer loop
      vertex 6.4705 -24.1481 3.0000
      vertex 12.5000 -21.6506 6.0000
      vertex 6.4705 -24.1481 6.0000
    endloop
  endfacet
  facet normal 0.000000 0.000000 1.000000
    outer loop
      vertex 0.0000 0.0000 6.0000
      vertex 6.4705 -24.1481 6.0000
      vertex 12.5000 -21.6506 6.0000
    endloop
  endfacet
  facet normal 0.000000 0.000000 -1.000000
    outer loop
      vertex 0.0000 0.0000 3.0000
      vertex 12.5000 -21.6506 3.0000
      vertex 6.4705 -24.1481 3.0000
    endloop
  endfacet
  facet normal 0.608761 -0.793353 0.000000
    outer loop
      vertex 12.5000 -21.6506 3.0000
      vertex 17.6777 -17.6777 3.0000
      vertex 17.6777 -17.6777 6.0000
    endloop
  endfacet
  facet normal 0.608761 -0.793353 0.000000
    outer loop
      vertex 12.5000 -21.6506 3.0000
      vertex 17.6777 -17.6777 6.0000
      vertex 12.5000 -21.6506 6.0000
    endloop
  endfacet
  facet normal 0.000000 0.000000 1.000000
    outer loop
      vertex 0.0000 0.0000 6.0000
      vertex 12.5000 -21.6506 6.0000
      vertex 17.6777 -17.6777 6.0000
    endloop
  endfacet
  facet normal 0.000000 0.000000 -1.000000
    outer loop
      vertex 0.0000 0.0000 3.0000
      vertex 17.6777 -17.6777 3.0000
      vertex 12.5000 -21.6506 3.0000
    endloop
  endfacet
  facet normal 0.793353 -0.608761 0.000000
    outer loop
      vertex 17.6777 -17.6777 3.0000
      vertex 21.6506 -12.5000 3.0000
      vertex 21.6506 -12.5000 6.0000
    endloop
  endfacet
  facet normal 0.793353 -0.608761 0.000000
    outer loop
      vertex 17.6777 -17.6777 3.0000
      vertex 21.6506 -12.5000 6.0000
      vertex 17.6777 -17.6777 6.0000
    endloop
  endfacet
  facet normal 0.000000 0.000000 1.000000
    outer loop
      vertex 0.0000 0.0000 6.0000
      vertex 17.6777 -17.6777 6.0000
      vertex 21.6506 -12.5000 6.0000
    endloop
  endfacet
  facet normal 0.000000 0.000000 -1.000000
    outer loop
      vertex 0.0000 0.0000 3.0000
      vertex 21.6506 -12.5000 3.0000
      vertex 17.6777 -17.6777 3.0000
    endloop
  endfacet
  facet normal 0.923880 -0.382683 0.000000
    outer loop
      vertex 21.6506 -12.5000 3.0000
      vertex 24.1481 -6.4705 3.0000
      vertex 24.1481 -6.4705 6.0000
    endloop
  endfacet
  facet normal 0.923880 -0.382683 0.000000
    outer loop
      vertex 21.6506 -12.5000 3.0000
      vertex 24.1481 -6.4705 6.0000
      vertex 21.6506 -12.5000 6.0000
    endloop
  endfacet
  facet normal 0.000000 0.000000 1.000000
    outer loop
      vertex 0.0000 0.0000 6.0000
      vertex 21.6506 -12.5000 6.0000
      vertex 24.1481 -6.4705 6.0000
    endloop
  endfacet
  facet normal 0.000000 0.000000 -1.000000
    outer loop
      vertex 0.0000 0.0000 3.0000
      vertex 24.1481 -6.4705 3.0000
      vertex 21.6506 -12.5000 3.0000
    endloop
  endfacet
  facet normal 0.991445 -0.130526 0.000000
    outer loop
      vertex 24.1481 -6.4705 3.0000
      vertex 25.0000 -0.0000 3.0000
      vertex 25.0000 -0.0000 6.0000
    endloop
  endfacet
  facet normal 0.991445 -0.130526 0.000000
    outer loop
      vertex 24.1481 -6.4705 3.0000
      vertex 25.0000 -0.0000 6.0000
      vertex 24.1481 -6.4705 6.0000
    endloop
  endfacet
  facet normal 0.000000 0.000000 1.000000
    outer loop
      vertex 0.0000 0.0000 6.0000
      vertex 24.1481 -6.4705 6.0000
      vertex 25.0000 -0.0000 6.0000
    endloop
  endfacet
  facet normal 0.000000 0.000000 -1.000000
    outer loop
      vertex 0.0000 0.0000 3.0000
      vertex 25.0000 -0.0000 3.0000
      vertex 24.1481 -6.4705 3.0000
    endloop
  endfacet
  facet normal 0.000000 0.000000 1.000000
    outer loop
      vertex 20.0000 0.0000 3.0000
      vertex 25.0000 0.0000 3.0000
      vertex 24.1481 6.4705 3.0000
    endloop
  endfacet
  facet normal 0.000000 0.000000 1.000000
    outer loop
      vertex 20.0000 0.0000 3.0000
      vertex 24.1481 6.4705 3.0000
      vertex 19.3185 5.1764 3.0000
    endloop
  endfacet
  facet normal 0.000000 0.000000 1.000000
    outer loop
      vertex 19.3185 5.1764 3.0000
      vertex 24.1481 6.4705 3.0000
      vertex 21.6506 12.5000 3.0000
    endloop
  endfacet
  facet normal 0.000000 0.000000 1.000000
    outer loop
      vertex 19.3185 5.1764 3.0000
      vertex 21.6506 12.5000 3.0000
      vertex 17.3205 10.0000 3.0000
    endloop
  endfacet
  facet normal 0.000000 0.000000 1.000000
    outer loop
      vertex 17.3205 10.0000 3.0000
      vertex 21.6506 12.5000 3.0000
      vertex 17.6777 17.6777 3.0000
    endloop
  endfacet
  facet normal 0.000000 0.000000 1.000000
    outer loop
      vertex 17.3205 10.0000 3.0000
      vertex 17.6777 17.6777 3.0000
      vertex 14.1421 14.1421 3.0000
    endloop
  endfacet
  facet normal 0.000000 0.000000 1.000000
    outer loop
      vertex 14.1421 14.1421 3.0000
      vertex 17.6777 17.6777 3.0000
      vertex 12.5000 21.6506 3.0000
    endloop
  endfacet
  facet normal 0.000000 0.000000 1.000000
    outer loop
      vertex 14.1421 14.1421 3.0000
      vertex 12.5000 21.6506 3.0000
      vertex 10.0000 17.3205 3.0000
    endloop
  endfacet
  facet normal 0.000000 0.000000 1.000000
    outer loop
      vertex 10.0000 17.3205 3.0000
      vertex 12.5000 21.6506 3.0000
      vertex 6.4705 24.1481 3.0000
    endloop
  endfacet
  facet normal 0.000000 0.000000 1.000000
    outer loop
      vertex 10.0000 17.3205 3.0000
      vertex 6.4705 24.1481 3.0000
      vertex 5.1764 19.3185 3.0000
    endloop
  endfacet
  facet normal 0.000000 0.000000 1.000000
    outer loop
      vertex 5.1764 19.3185 3.0000
      vertex 6.4705 24.1481 3.0000
      vertex 0.0000 25.0000 3.0000
    endloop
  endfacet
  facet normal 0.000000 0.000000 1.000000
    outer loop
      vertex 5.1764 19.3185 3.0000
      vertex 0.0000 25.0000 3.0000
      vertex 0.0000 20.0000 3.0000
    endloop
  endfacet
  facet normal 0.000000 0.000000 1.000000
    outer loop
      vertex 0.0000 20.0000 3.0000
      vertex 0.0000 25.0000 3.0000
      vertex -6.4705 24.1481 3.0000
    endloop
  endfacet
  facet normal 0.000000 0.000000 1.000000
    outer loop
      vertex 0.0000 20.0000 3.0000
      vertex -6.4705 24.1481 3.0000
      vertex -5.1764 19.3185 3.0000
    endloop
  endfacet
  facet normal 0.000000 0.000000 1.000000
    outer loop
      vertex -5.1764 19.3185 3.0000
      vertex -6.4705 24.1481 3.0000
      vertex -12.5000 21.6506 3.0000
    endloop
  endfacet
  facet normal 0.000000 0.000000 1.000000
    outer loop
      vertex -5.1764 19.3185 3.0000
      vertex -12.5000 21.6506 3.0000
      vertex -10.0000 17.3205 3.0000
    endloop
  endfacet
  facet normal 0.000000 0.000000 1.000000
    outer loop
      vertex -10.0000 17.3205 3.0000
      vertex -12.5000 21.6506 3.0000
      vertex -17.6777 17.6777 3.0000
    endloop
  endfacet
  facet normal 0.000000 0.000000 1.000000
    outer loop
      vertex -10.0000 17.3205 3.0000
      vertex -17.6777 17.6777 3.0000
      vertex -14.1421 14.1421 3.0000
    endloop
  endfacet
  facet normal 0.000000 0.000000 1.000000
    outer loop
      vertex -14.1421 14.1421 3.0000
      vertex -17.6777 17.6777 3.0000
      vertex -21.6506 12.5000 3.0000
    endloop
  endfacet
  facet normal 0.000000 0.000000 1.000000
    outer loop
      vertex -14.1421 14.1421 3.0000
      vertex -21.6506 12.5000 3.0000
      vertex -17.3205 10.0000 3.0000
    endloop
  endfacet
  facet normal 0.000000 0.000000 1.000000
    outer loop
      vertex -17.3205 10.0000 3.0000
      vertex -21.6506 12.5000 3.0000
      vertex -24.1481 6.4705 3.0000
    endloop
  endfacet
  facet normal 0.000000 0.000000 1.000000
    outer loop
      vertex -17.3205 10.0000 3.0000
      vertex -24.1481 6.4705 3.0000
      vertex -19.3185 5.1764 3.0000
    endloop
  endfacet
  facet normal 0.000000 0.000000 1.000000
    outer loop
      vertex -19.3185 5.1764 3.0000
      vertex -24.1481 6.4705 3.0000
      vertex -25.0000 0.0000 3.0000
    endloop
  endfacet
  facet normal 0.000000 0.000000 1.000000
    outer loop
      vertex -19.3185 5.1764 3.0000
      vertex -25.0000 0.0000 3.0000
      vertex -20.0000 0.0000 3.0000
    endloop
  endfacet
  facet normal 0.000000 0.000000 1.000000
    outer loop
      vertex -20.0000 0.0000 3.0000
      vertex -25.0000 0.0000 3.0000
      vertex -24.1481 -6.4705 3.0000
    endloop
  endfacet
  facet normal 0.000000 0.000000 1.000000
    outer loop
      vertex -20.0000 0.0000 3.0000
      vertex -24.1481 -6.4705 3.0000
      vertex -19.3185 -5.1764 3.0000
    endloop
  endfacet
  facet normal 0.000000 0.000000 1.000000
    outer loop
      vertex -19.3185 -5.1764 3.0000
      vertex -24.1481 -6.4705 3.0000
      vertex -21.6506 -12.5000 3.0000
    endloop
  endfacet
  facet normal 0.000000 0.000000 1.000000
    outer loop
      vertex -19.3185 -5.1764 3.0000
      vertex -21.6506 -12.5000 3.0000
      vertex -17.3205 -10.0000 3.0000
    endloop
  endfacet
  facet normal 0.000000 0.000000 1.000000
    outer loop
      vertex -17.3205 -10.0000 3.0000
      vertex -21.6506 -12.5000 3.0000
      vertex -17.6777 -17.6777 3.0000
    endloop
  endfacet
  facet normal 0.000000 0.000000 1.000000
    outer loop
      vertex -17.3205 -10.0000 3.0000
      vertex -17.6777 -17.6777 3.0000
      vertex -14.1421 -14.1421 3.0000
    endloop
  endfacet
  facet normal 0.000000 0.000000 1.000000
    outer loop
      vertex -14.1421 -14.1421 3.0000
      vertex -17.6777 -17.6777 3.0000
      vertex -12.5000 -21.6506 3.0000
    endloop
  endfacet
  facet normal 0.000000 0.000000 1.000000
    outer loop
      vertex -14.1421 -14.1421 3.0000
      vertex -12.5000 -21.6506 3.0000
      vertex -10.0000 -17.3205 3.0000
    endloop
  endfacet
  facet normal 0.000000 0.000000 1.000000
    outer loop
      vertex -10.0000 -17.3205 3.0000
      vertex -12.5000 -21.6506 3.0000
      vertex -6.4705 -24.1481 3.0000
    endloop
  endfacet
  facet normal 0.000000 0.000000 1.000000
    outer loop
      vertex -10.0000 -17.3205 3.0000
      vertex -6.4705 -24.1481 3.0000
      vertex -5.1764 -19.3185 3.0000
    endloop
  endfacet
  facet normal 0.000000 0.000000 1.000000
    outer loop
      vertex -5.1764 -19.3185 3.0000
      vertex -6.4705 -24.1481 3.0000
      vertex -0.0000 -25.0000 3.0000
    endloop
  endfacet
  facet normal 0.000000 0.000000 1.000000
    outer loop
      vertex -5.1764 -19.3185 3.0000
      vertex -0.0000 -25.0000 3.0000
      vertex -0.0000 -20.0000 3.0000
    endloop
  endfacet
  facet normal 0.000000 0.000000 1.000000
    outer loop
      vertex -0.0000 -20.0000 3.0000
      vertex -0.0000 -25.0000 3.0000
      vertex 6.4705 -24.1481 3.0000
    endloop
  endfacet
  facet normal 0.000000 0.000000 1.000000
    outer loop
      vertex -0.0000 -20.0000 3.0000
      vertex 6.4705 -24.1481 3.0000
      vertex 5.1764 -19.3185 3.0000
    endloop
  endfacet
  facet normal 0.000000 0.000000 1.000000
    outer loop
      vertex 5.1764 -19.3185 3.0000
      vertex 6.4705 -24.1481 3.0000
      vertex 12.5000 -21.6506 3.0000
    endloop
  endfacet
  facet normal 0.000000 0.000000 1.000000
    outer loop
      vertex 5.1764 -19.3185 3.0000
      vertex 12.5000 -21.6506 3.0000
      vertex 10.0000 -17.3205 3.0000
    endloop
  endfacet
  facet normal 0.000000 0.000000 1.000000
    outer loop
      vertex 10.0000 -17.3205 3.0000
      vertex 12.5000 -21.6506 3.0000
      vertex 17.6777 -17.6777 3.0000
    endloop
  endfacet
  facet normal 0.000000 0.000000 1.000000
    outer loop
      vertex 10.0000 -17.3205 3.0000
      vertex 17.6777 -17.6777 3.0000
      vertex 14.1421 -14.1421 3.0000
    endloop
  endfacet
  facet normal 0.000000 0.000000 1.000000
    outer loop
      vertex 14.1421 -14.1421 3.0000
      vertex 17.6777 -17.6777 3.0000
      vertex 21.6506 -12.5000 3.0000
    endloop
  endfacet
  facet normal 0.000000 0.000000 1.000000
    outer loop
      vertex 14.1421 -14.1421 3.0000
      vertex 21.6506 -12.5000 3.0000
      vertex 17.3205 -10.0000 3.0000
    endloop
  endfacet
  facet normal 0.000000 0.000000 1.000000
    outer loop
      vertex 17.3205 -10.0000 3.0000
      vertex 21.6506 -12.5000 3.0000
      vertex 24.1481 -6.4705 3.0000
    endloop
  endfacet
  facet normal 0.000000 0.000000 1.000000
    outer loop
      vertex 17.3205 -10.0000 3.0000
      vertex 24.1481 -6.4705 3.0000
      vertex 19.3185 -5.1764 3.0000
    endloop
  endfacet
  facet normal 0.000000 0.000000 1.000000
    outer loop
      vertex 19.3185 -5.1764 3.0000
      vertex 24.1481 -6.4705 3.0000
      vertex 25.0000 -0.0000 3.0000
    endloop
  endfacet
  facet normal 0.000000 0.000000 1.000000
    outer loop
      vertex 19.3185 -5.1764 3.0000
      vertex 25.0000 -0.0000 3.0000
      vertex 20.0000 -0.0000 3.0000
    endloop
  endfacet
  facet normal 0.000000 0.000000 1.000000
    outer loop
      vertex 20.0000 0.0000 6.0000
      vertex 25.0000 0.0000 6.0000
      vertex 24.1481 6.4705 6.0000
    endloop
  endfacet
  facet normal 0.000000 0.000000 1.000000
    outer loop
      vertex 20.0000 0.0000 6.0000
      vertex 24.1481 6.4705 6.0000
      vertex 19.3185 5.1764 6.0000
    endloop
  endfacet
  facet normal 0.000000 0.000000 1.000000
    outer loop
      vertex 19.3185 5.1764 6.0000
      vertex 24.1481 6.4705 6.0000
      vertex 21.6506 12.5000 6.0000
    endloop
  endfacet
  facet normal 0.000000 0.000000 1.000000
    outer loop
      vertex 19.3185 5.1764 6.0000
      vertex 21.6506 12.5000 6.0000
      vertex 17.3205 10.0000 6.0000
    endloop
  endfacet
  facet normal 0.000000 0.000000 1.000000
    outer loop
      vertex 17.3205 10.0000 6.0000
      vertex 21.6506 12.5000 6.0000
      vertex 17.6777 17.6777 6.0000
    endloop
  endfacet
  facet normal 0.000000 0.000000 1.000000
    outer loop
      vertex 17.3205 10.0000 6.0000
      vertex 17.6777 17.6777 6.0000
      vertex 14.1421 14.1421 6.0000
    endloop
  endfacet
  facet normal 0.000000 0.000000 1.000000
    outer loop
      vertex 14.1421 14.1421 6.0000
      vertex 17.6777 17.6777 6.0000
      vertex 12.5000 21.6506 6.0000
    endloop
  endfacet
  facet normal 0.000000 0.000000 1.000000
    outer loop
      vertex 14.1421 14.1421 6.0000
      vertex 12.5000 21.6506 6.0000
      vertex 10.0000 17.3205 6.0000
    endloop
  endfacet
  facet normal 0.000000 0.000000 1.000000
    outer loop
      vertex 10.0000 17.3205 6.0000
      vertex 12.5000 21.6506 6.0000
      vertex 6.4705 24.1481 6.0000
    endloop
  endfacet
  facet normal 0.000000 0.000000 1.000000
    outer loop
      vertex 10.0000 17.3205 6.0000
      vertex 6.4705 24.1481 6.0000
      vertex 5.1764 19.3185 6.0000
    endloop
  endfacet
  facet normal 0.000000 0.000000 1.000000
    outer loop
      vertex 5.1764 19.3185 6.0000
      vertex 6.4705 24.1481 6.0000
      vertex 0.0000 25.0000 6.0000
    endloop
  endfacet
  facet normal 0.000000 0.000000 1.000000
    outer loop
      vertex 5.1764 19.3185 6.0000
      vertex 0.0000 25.0000 6.0000
      vertex 0.0000 20.0000 6.0000
    endloop
  endfacet
  facet normal 0.000000 0.000000 1.000000
    outer loop
      vertex 0.0000 20.0000 6.0000
      vertex 0.0000 25.0000 6.0000
      vertex -6.4705 24.1481 6.0000
    endloop
  endfacet
  facet normal 0.000000 0.000000 1.000000
    outer loop
      vertex 0.0000 20.0000 6.0000
      vertex -6.4705 24.1481 6.0000
      vertex -5.1764 19.3185 6.0000
    endloop
  endfacet
  facet normal 0.000000 0.000000 1.000000
    outer loop
      vertex -5.1764 19.3185 6.0000
      vertex -6.4705 24.1481 6.0000
      vertex -12.5000 21.6506 6.0000
    endloop
  endfacet
  facet normal 0.000000 0.000000 1.000000
    outer loop
      vertex -5.1764 19.3185 6.0000
      vertex -12.5000 21.6506 6.0000
      vertex -10.0000 17.3205 6.0000
    endloop
  endfacet
  facet normal 0.000000 0.000000 1.000000
    outer loop
      vertex -10.0000 17.3205 6.0000
      vertex -12.5000 21.6506 6.0000
      vertex -17.6777 17.6777 6.0000
    endloop
  endfacet
  facet normal 0.000000 0.000000 1.000000
    outer loop
      vertex -10.0000 17.3205 6.0000
      vertex -17.6777 17.6777 6.0000
      vertex -14.1421 14.1421 6.0000
    endloop
  endfacet
  facet normal 0.000000 0.000000 1.000000
    outer loop
      vertex -14.1421 14.1421 6.0000
      vertex -17.6777 17.6777 6.0000
      vertex -21.6506 12.5000 6.0000
    endloop
  endfacet
  facet normal 0.000000 0.000000 1.000000
    outer loop
      vertex -14.1421 14.1421 6.0000
      vertex -21.6506 12.5000 6.0000
      vertex -17.3205 10.0000 6.0000
    endloop
  endfacet
  facet normal 0.000000 0.000000 1.000000
    outer loop
      vertex -17.3205 10.0000 6.0000
      vertex -21.6506 12.5000 6.0000
      vertex -24.1481 6.4705 6.0000
    endloop
  endfacet
  facet normal 0.000000 0.000000 1.000000
    outer loop
      vertex -17.3205 10.0000 6.0000
      vertex -24.1481 6.4705 6.0000
      vertex -19.3185 5.1764 6.0000
    endloop
  endfacet
  facet normal 0.000000 0.000000 1.000000
    outer loop
      vertex -19.3185 5.1764 6.0000
      vertex -24.1481 6.4705 6.0000
      vertex -25.0000 0.0000 6.0000
    endloop
  endfacet
  facet normal 0.000000 0.000000 1.000000
    outer loop
      vertex -19.3185 5.1764 6.0000
      vertex -25.0000 0.0000 6.0000
      vertex -20.0000 0.0000 6.0000
    endloop
  endfacet
  facet normal 0.000000 0.000000 1.000000
    outer loop
      vertex -20.0000 0.0000 6.0000
      vertex -25.0000 0.0000 6.0000
      vertex -24.1481 -6.4705 6.0000
    endloop
  endfacet
  facet normal 0.000000 0.000000 1.000000
    outer loop
      vertex -20.0000 0.0000 6.0000
      vertex -24.1481 -6.4705 6.0000
      vertex -19.3185 -5.1764 6.0000
    endloop
  endfacet
  facet normal 0.000000 0.000000 1.000000
    outer loop
      vertex -19.3185 -5.1764 6.0000
      vertex -24.1481 -6.4705 6.0000
      vertex -21.6506 -12.5000 6.0000
    endloop
  endfacet
  facet normal 0.000000 0.000000 1.000000
    outer loop
      vertex -19.3185 -5.1764 6.0000
      vertex -21.6506 -12.5000 6.0000
      vertex -17.3205 -10.0000 6.0000
    endloop
  endfacet
  facet normal 0.000000 0.000000 1.000000
    outer loop
      vertex -17.3205 -10.0000 6.0000
      vertex -21.6506 -12.5000 6.0000
      vertex -17.6777 -17.6777 6.0000
    endloop
  endfacet
  facet normal 0.000000 0.000000 1.000000
    outer loop
      vertex -17.3205 -10.0000 6.0000
      vertex -17.6777 -17.6777 6.0000
      vertex -14.1421 -14.1421 6.0000
    endloop
  endfacet
  facet normal 0.000000 0.000000 1.000000
    outer loop
      vertex -14.1421 -14.1421 6.0000
      vertex -17.6777 -17.6777 6.0000
      vertex -12.5000 -21.6506 6.0000
    endloop
  endfacet
  facet normal 0.000000 0.000000 1.000000
    outer loop
      vertex -14.1421 -14.1421 6.0000
      vertex -12.5000 -21.6506 6.0000
      vertex -10.0000 -17.3205 6.0000
    endloop
  endfacet
  facet normal 0.000000 0.000000 1.000000
    outer loop
      vertex -10.0000 -17.3205 6.0000
      vertex -12.5000 -21.6506 6.0000
      vertex -6.4705 -24.1481 6.0000
    endloop
  endfacet
  facet normal 0.000000 0.000000 1.000000
    outer loop
      vertex -10.0000 -17.3205 6.0000
      vertex -6.4705 -24.1481 6.0000
      vertex -5.1764 -19.3185 6.0000
    endloop
  endfacet
  facet normal 0.000000 0.000000 1.000000
    outer loop
      vertex -5.1764 -19.3185 6.0000
      vertex -6.4705 -24.1481 6.0000
      vertex -0.0000 -25.0000 6.0000
    endloop
  endfacet
  facet normal 0.000000 0.000000 1.000000
    outer loop
      vertex -5.1764 -19.3185 6.0000
      vertex -0.0000 -25.0000 6.0000
      vertex -0.0000 -20.0000 6.0000
    endloop
  endfacet
  facet normal 0.000000 0.000000 1.000000
    outer loop
      vertex -0.0000 -20.0000 6.0000
      vertex -0.0000 -25.0000 6.0000
      vertex 6.4705 -24.1481 6.0000
    endloop
  endfacet
  facet normal 0.000000 0.000000 1.000000
    outer loop
      vertex -0.0000 -20.0000 6.0000
      vertex 6.4705 -24.1481 6.0000
      vertex 5.1764 -19.3185 6.0000
    endloop
  endfacet
  facet normal 0.000000 0.000000 1.000000
    outer loop
      vertex 5.1764 -19.3185 6.0000
      vertex 6.4705 -24.1481 6.0000
      vertex 12.5000 -21.6506 6.0000
    endloop
  endfacet
  facet normal 0.000000 0.000000 1.000000
    outer loop
      vertex 5.1764 -19.3185 6.0000
      vertex 12.5000 -21.6506 6.0000
      vertex 10.0000 -17.3205 6.0000
    endloop
  endfacet
  facet normal 0.000000 0.000000 1.000000
    outer loop
      vertex 10.0000 -17.3205 6.0000
      vertex 12.5000 -21.6506 6.0000
      vertex 17.6777 -17.6777 6.0000
    endloop
  endfacet
  facet normal 0.000000 0.000000 1.000000
    outer loop
      vertex 10.0000 -17.3205 6.0000
      vertex 17.6777 -17.6777 6.0000
      vertex 14.1421 -14.1421 6.0000
    endloop
  endfacet
  facet normal 0.000000 0.000000 1.000000
    outer loop
      vertex 14.1421 -14.1421 6.0000
      vertex 17.6777 -17.6777 6.0000
      vertex 21.6506 -12.5000 6.0000
    endloop
  endfacet
  facet normal 0.000000 0.000000 1.000000
    outer loop
      vertex 14.1421 -14.1421 6.0000
      vertex 21.6506 -12.5000 6.0000
      vertex 17.3205 -10.0000 6.0000
    endloop
  endfacet
  facet normal 0.000000 0.000000 1.000000
    outer loop
      vertex 17.3205 -10.0000 6.0000
      vertex 21.6506 -12.5000 6.0000
      vertex 24.1481 -6.4705 6.0000
    endloop
  endfacet
  facet normal 0.000000 0.000000 1.000000
    outer loop
      vertex 17.3205 -10.0000 6.0000
      vertex 24.1481 -6.4705 6.0000
      vertex 19.3185 -5.1764 6.0000
    endloop
  endfacet
  facet normal 0.000000 0.000000 1.000000
    outer loop
      vertex 19.3185 -5.1764 6.0000
      vertex 24.1481 -6.4705 6.0000
      vertex 25.0000 -0.0000 6.0000
    endloop
  endfacet
  facet normal 0.000000 0.000000 1.000000
    outer loop
      vertex 19.3185 -5.1764 6.0000
      vertex 25.0000 -0.0000 6.0000
      vertex 20.0000 -0.0000 6.0000
    endloop
  endfacet
  facet normal 0.987688 0.156434 0.000000
    outer loop
      vertex 8.0000 0.0000 0.0000
      vertex 7.6085 2.4721 0.0000
      vertex 7.6085 2.4721 -1.0000
    endloop
  endfacet
  facet normal 0.987688 0.156434 0.000000
    outer loop
      vertex 8.0000 0.0000 0.0000
      vertex 7.6085 2.4721 -1.0000
      vertex 8.0000 0.0000 -1.0000
    endloop
  endfacet
  facet normal 0.000000 0.000000 1.000000
    outer loop
      vertex 0.0000 0.0000 -1.0000
      vertex 8.0000 0.0000 -1.0000
      vertex 7.6085 2.4721 -1.0000
    endloop
  endfacet
  facet normal 0.000000 0.000000 -1.000000
    outer loop
      vertex 0.0000 0.0000 0.0000
      vertex 7.6085 2.4721 0.0000
      vertex 8.0000 0.0000 0.0000
    endloop
  endfacet
  facet normal 0.891007 0.453990 0.000000
    outer loop
      vertex 7.6085 2.4721 0.0000
      vertex 6.4721 4.7023 0.0000
      vertex 6.4721 4.7023 -1.0000
    endloop
  endfacet
  facet normal 0.891007 0.453990 0.000000
    outer loop
      vertex 7.6085 2.4721 0.0000
      vertex 6.4721 4.7023 -1.0000
      vertex 7.6085 2.4721 -1.0000
    endloop
  endfacet
  facet normal 0.000000 0.000000 1.000000
    outer loop
      vertex 0.0000 0.0000 -1.0000
      vertex 7.6085 2.4721 -1.0000
      vertex 6.4721 4.7023 -1.0000
    endloop
  endfacet
  facet normal 0.000000 0.000000 -1.000000
    outer loop
      vertex 0.0000 0.0000 0.0000
      vertex 6.4721 4.7023 0.0000
      vertex 7.6085 2.4721 0.0000
    endloop
  endfacet
  facet normal 0.707107 0.707107 0.000000
    outer loop
      vertex 6.4721 4.7023 0.0000
      vertex 4.7023 6.4721 0.0000
      vertex 4.7023 6.4721 -1.0000
    endloop
  endfacet
  facet normal 0.707107 0.707107 0.000000
    outer loop
      vertex 6.4721 4.7023 0.0000
      vertex 4.7023 6.4721 -1.0000
      vertex 6.4721 4.7023 -1.0000
    endloop
  endfacet
  facet normal 0.000000 0.000000 1.000000
    outer loop
      vertex 0.0000 0.0000 -1.0000
      vertex 6.4721 4.7023 -1.0000
      vertex 4.7023 6.4721 -1.0000
    endloop
  endfacet
  facet normal 0.000000 0.000000 -1.000000
    outer loop
      vertex 0.0000 0.0000 0.0000
      vertex 4.7023 6.4721 0.0000
      vertex 6.4721 4.7023 0.0000
    endloop
  endfacet
  facet normal 0.453990 0.891007 0.000000
    outer loop
      vertex 4.7023 6.4721 0.0000
      vertex 2.4721 7.6085 0.0000
      vertex 2.4721 7.6085 -1.0000
    endloop
  endfacet
  facet normal 0.453990 0.891007 0.000000
    outer loop
      vertex 4.7023 6.4721 0.0000
      vertex 2.4721 7.6085 -1.0000
      vertex 4.7023 6.4721 -1.0000
    endloop
  endfacet
  facet normal 0.000000 0.000000 1.000000
    outer loop
      vertex 0.0000 0.0000 -1.0000
      vertex 4.7023 6.4721 -1.0000
      vertex 2.4721 7.6085 -1.0000
    endloop
  endfacet
  facet normal 0.000000 0.000000 -1.000000
    outer loop
      vertex 0.0000 0.0000 0.0000
      vertex 2.4721 7.6085 0.0000
      vertex 4.7023 6.4721 0.0000
    endloop
  endfacet
  facet normal 0.156434 0.987688 0.000000
    outer loop
      vertex 2.4721 7.6085 0.0000
      vertex 0.0000 8.0000 0.0000
      vertex 0.0000 8.0000 -1.0000
    endloop
  endfacet
  facet normal 0.156434 0.987688 0.000000
    outer loop
      vertex 2.4721 7.6085 0.0000
      vertex 0.0000 8.0000 -1.0000
      vertex 2.4721 7.6085 -1.0000
    endloop
  endfacet
  facet normal 0.000000 0.000000 1.000000
    outer loop
      vertex 0.0000 0.0000 -1.0000
      vertex 2.4721 7.6085 -1.0000
      vertex 0.0000 8.0000 -1.0000
    endloop
  endfacet
  facet normal 0.000000 0.000000 -1.000000
    outer loop
      vertex 0.0000 0.0000 0.0000
      vertex 0.0000 8.0000 0.0000
      vertex 2.4721 7.6085 0.0000
    endloop
  endfacet
  facet normal -0.156434 0.987688 0.000000
    outer loop
      vertex 0.0000 8.0000 0.0000
      vertex -2.4721 7.6085 0.0000
      vertex -2.4721 7.6085 -1.0000
    endloop
  endfacet
  facet normal -0.156434 0.987688 0.000000
    outer loop
      vertex 0.0000 8.0000 0.0000
      vertex -2.4721 7.6085 -1.0000
      vertex 0.0000 8.0000 -1.0000
    endloop
  endfacet
  facet normal 0.000000 0.000000 1.000000
    outer loop
      vertex 0.0000 0.0000 -1.0000
      vertex 0.0000 8.0000 -1.0000
      vertex -2.4721 7.6085 -1.0000
    endloop
  endfacet
  facet normal 0.000000 0.000000 -1.000000
    outer loop
      vertex 0.0000 0.0000 0.0000
      vertex -2.4721 7.6085 0.0000
      vertex 0.0000 8.0000 0.0000
    endloop
  endfacet
  facet normal -0.453990 0.891007 0.000000
    outer loop
      vertex -2.4721 7.6085 0.0000
      vertex -4.7023 6.4721 0.0000
      vertex -4.7023 6.4721 -1.0000
    endloop
  endfacet
  facet normal -0.453990 0.891007 0.000000
    outer loop
      vertex -2.4721 7.6085 0.0000
      vertex -4.7023 6.4721 -1.0000
      vertex -2.4721 7.6085 -1.0000
    endloop
  endfacet
  facet normal 0.000000 0.000000 1.000000
    outer loop
      vertex 0.0000 0.0000 -1.0000
      vertex -2.4721 7.6085 -1.0000
      vertex -4.7023 6.4721 -1.0000
    endloop
  endfacet
  facet normal 0.000000 0.000000 -1.000000
    outer loop
      vertex 0.0000 0.0000 0.0000
      vertex -4.7023 6.4721 0.0000
      vertex -2.4721 7.6085 0.0000
    endloop
  endfacet
  facet normal -0.707107 0.707107 0.000000
    outer loop
      vertex -4.7023 6.4721 0.0000
      vertex -6.4721 4.7023 0.0000
      vertex -6.4721 4.7023 -1.0000
    endloop
  endfacet
  facet normal -0.707107 0.707107 0.000000
    outer loop
      vertex -4.7023 6.4721 0.0000
      vertex -6.4721 4.7023 -1.0000
      vertex -4.7023 6.4721 -1.0000
    endloop
  endfacet
  facet normal 0.000000 0.000000 1.000000
    outer loop
      vertex 0.0000 0.0000 -1.0000
      vertex -4.7023 6.4721 -1.0000
      vertex -6.4721 4.7023 -1.0000
    endloop
  endfacet
  facet normal 0.000000 0.000000 -1.000000
    outer loop
      vertex 0.0000 0.0000 0.0000
      vertex -6.4721 4.7023 0.0000
      vertex -4.7023 6.4721 0.0000
    endloop
  endfacet
  facet normal -0.891007 0.453990 0.000000
    outer loop
      vertex -6.4721 4.7023 0.0000
      vertex -7.6085 2.4721 0.0000
      vertex -7.6085 2.4721 -1.0000
    endloop
  endfacet
  facet normal -0.891007 0.453990 0.000000
    outer loop
      vertex -6.4721 4.7023 0.0000
      vertex -7.6085 2.4721 -1.0000
      vertex -6.4721 4.7023 -1.0000
    endloop
  endfacet
  facet normal 0.000000 0.000000 1.000000
    outer loop
      vertex 0.0000 0.0000 -1.0000
      vertex -6.4721 4.7023 -1.0000
      vertex -7.6085 2.4721 -1.0000
    endloop
  endfacet
  facet normal 0.000000 0.000000 -1.000000
    outer loop
      vertex 0.0000 0.0000 0.0000
      vertex -7.6085 2.4721 0.0000
      vertex -6.4721 4.7023 0.0000
    endloop
  endfacet
  facet normal -0.987688 0.156434 0.000000
    outer loop
      vertex -7.6085 2.4721 0.0000
      vertex -8.0000 0.0000 0.0000
      vertex -8.0000 0.0000 -1.0000
    endloop
  endfacet
  facet normal -0.987688 0.156434 0.000000
    outer loop
      vertex -7.6085 2.4721 0.0000
      vertex -8.0000 0.0000 -1.0000
      vertex -7.6085 2.4721 -1.0000
    endloop
  endfacet
  facet normal 0.000000 0.000000 1.000000
    outer loop
      vertex 0.0000 0.0000 -1.0000
      vertex -7.6085 2.4721 -1.0000
      vertex -8.0000 0.0000 -1.0000
    endloop
  endfacet
  facet normal 0.000000 0.000000 -1.000000
    outer loop
      vertex 0.0000 0.0000 0.0000
      vertex -8.0000 0.0000 0.0000
      vertex -7.6085 2.4721 0.0000
    endloop
  endfacet
  facet normal -0.987688 -0.156434 0.000000
    outer loop
      vertex -8.0000 0.0000 0.0000
      vertex -7.6085 -2.4721 0.0000
      vertex -7.6085 -2.4721 -1.0000
    endloop
  endfacet
  facet normal -0.987688 -0.156434 0.000000
    outer loop
      vertex -8.0000 0.0000 0.0000
      vertex -7.6085 -2.4721 -1.0000
      vertex -8.0000 0.0000 -1.0000
    endloop
  endfacet
  facet normal 0.000000 0.000000 1.000000
    outer loop
      vertex 0.0000 0.0000 -1.0000
      vertex -8.0000 0.0000 -1.0000
      vertex -7.6085 -2.4721 -1.0000
    endloop
  endfacet
  facet normal 0.000000 0.000000 -1.000000
    outer loop
      vertex 0.0000 0.0000 0.0000
      vertex -7.6085 -2.4721 0.0000
      vertex -8.0000 0.0000 0.0000
    endloop
  endfacet
  facet normal -0.891007 -0.453990 0.000000
    outer loop
      vertex -7.6085 -2.4721 0.0000
      vertex -6.4721 -4.7023 0.0000
      vertex -6.4721 -4.7023 -1.0000
    endloop
  endfacet
  facet normal -0.891007 -0.453990 0.000000
    outer loop
      vertex -7.6085 -2.4721 0.0000
      vertex -6.4721 -4.7023 -1.0000
      vertex -7.6085 -2.4721 -1.0000
    endloop
  endfacet
  facet normal 0.000000 0.000000 1.000000
    outer loop
      vertex 0.0000 0.0000 -1.0000
      vertex -7.6085 -2.4721 -1.0000
      vertex -6.4721 -4.7023 -1.0000
    endloop
  endfacet
  facet normal 0.000000 0.000000 -1.000000
    outer loop
      vertex 0.0000 0.0000 0.0000
      vertex -6.4721 -4.7023 0.0000
      vertex -7.6085 -2.4721 0.0000
    endloop
  endfacet
  facet normal -0.707107 -0.707107 0.000000
    outer loop
      vertex -6.4721 -4.7023 0.0000
      vertex -4.7023 -6.4721 0.0000
      vertex -4.7023 -6.4721 -1.0000
    endloop
  endfacet
  facet normal -0.707107 -0.707107 0.000000
    outer loop
      vertex -6.4721 -4.7023 0.0000
      vertex -4.7023 -6.4721 -1.0000
      vertex -6.4721 -4.7023 -1.0000
    endloop
  endfacet
  facet normal 0.000000 0.000000 1.000000
    outer loop
      vertex 0.0000 0.0000 -1.0000
      vertex -6.4721 -4.7023 -1.0000
      vertex -4.7023 -6.4721 -1.0000
    endloop
  endfacet
  facet normal 0.000000 0.000000 -1.000000
    outer loop
      vertex 0.0000 0.0000 0.0000
      vertex -4.7023 -6.4721 0.0000
      vertex -6.4721 -4.7023 0.0000
    endloop
  endfacet
  facet normal -0.453990 -0.891007 0.000000
    outer loop
      vertex -4.7023 -6.4721 0.0000
      vertex -2.4721 -7.6085 0.0000
      vertex -2.4721 -7.6085 -1.0000
    endloop
  endfacet
  facet normal -0.453990 -0.891007 0.000000
    outer loop
      vertex -4.7023 -6.4721 0.0000
      vertex -2.4721 -7.6085 -1.0000
      vertex -4.7023 -6.4721 -1.0000
    endloop
  endfacet
  facet normal 0.000000 0.000000 1.000000
    outer loop
      vertex 0.0000 0.0000 -1.0000
      vertex -4.7023 -6.4721 -1.0000
      vertex -2.4721 -7.6085 -1.0000
    endloop
  endfacet
  facet normal 0.000000 0.000000 -1.000000
    outer loop
      vertex 0.0000 0.0000 0.0000
      vertex -2.4721 -7.6085 0.0000
      vertex -4.7023 -6.4721 0.0000
    endloop
  endfacet
  facet normal -0.156434 -0.987688 0.000000
    outer loop
      vertex -2.4721 -7.6085 0.0000
      vertex -0.0000 -8.0000 0.0000
      vertex -0.0000 -8.0000 -1.0000
    endloop
  endfacet
  facet normal -0.156434 -0.987688 0.000000
    outer loop
      vertex -2.4721 -7.6085 0.0000
      vertex -0.0000 -8.0000 -1.0000
      vertex -2.4721 -7.6085 -1.0000
    endloop
  endfacet
  facet normal 0.000000 0.000000 1.000000
    outer loop
      vertex 0.0000 0.0000 -1.0000
      vertex -2.4721 -7.6085 -1.0000
      vertex -0.0000 -8.0000 -1.0000
    endloop
  endfacet
  facet normal 0.000000 0.000000 -1.000000
    outer loop
      vertex 0.0000 0.0000 0.0000
      vertex -0.0000 -8.0000 0.0000
      vertex -2.4721 -7.6085 0.0000
    endloop
  endfacet
  facet normal 0.156434 -0.987688 0.000000
    outer loop
      vertex -0.0000 -8.0000 0.0000
      vertex 2.4721 -7.6085 0.0000
      vertex 2.4721 -7.6085 -1.0000
    endloop
  endfacet
  facet normal 0.156434 -0.987688 0.000000
    outer loop
      vertex -0.0000 -8.0000 0.0000
      vertex 2.4721 -7.6085 -1.0000
      vertex -0.0000 -8.0000 -1.0000
    endloop
  endfacet
  facet normal 0.000000 0.000000 1.000000
    outer loop
      vertex 0.0000 0.0000 -1.0000
      vertex -0.0000 -8.0000 -1.0000
      vertex 2.4721 -7.6085 -1.0000
    endloop
  endfacet
  facet normal 0.000000 0.000000 -1.000000
    outer loop
      vertex 0.0000 0.0000 0.0000
      vertex 2.4721 -7.6085 0.0000
      vertex -0.0000 -8.0000 0.0000
    endloop
  endfacet
  facet normal 0.453990 -0.891007 0.000000
    outer loop
      vertex 2.4721 -7.6085 0.0000
      vertex 4.7023 -6.4721 0.0000
      vertex 4.7023 -6.4721 -1.0000
    endloop
  endfacet
  facet normal 0.453990 -0.891007 0.000000
    outer loop
      vertex 2.4721 -7.6085 0.0000
      vertex 4.7023 -6.4721 -1.0000
      vertex 2.4721 -7.6085 -1.0000
    endloop
  endfacet
  facet normal 0.000000 0.000000 1.000000
    outer loop
      vertex 0.0000 0.0000 -1.0000
      vertex 2.4721 -7.6085 -1.0000
      vertex 4.7023 -6.4721 -1.0000
    endloop
  endfacet
  facet normal 0.000000 0.000000 -1.000000
    outer loop
      vertex 0.0000 0.0000 0.0000
      vertex 4.7023 -6.4721 0.0000
      vertex 2.4721 -7.6085 0.0000
    endloop
  endfacet
  facet normal 0.707107 -0.707107 0.000000
    outer loop
      vertex 4.7023 -6.4721 0.0000
      vertex 6.4721 -4.7023 0.0000
      vertex 6.4721 -4.7023 -1.0000
    endloop
  endfacet
  facet normal 0.707107 -0.707107 0.000000
    outer loop
      vertex 4.7023 -6.4721 0.0000
      vertex 6.4721 -4.7023 -1.0000
      vertex 4.7023 -6.4721 -1.0000
    endloop
  endfacet
  facet normal 0.000000 0.000000 1.000000
    outer loop
      vertex 0.0000 0.0000 -1.0000
      vertex 4.7023 -6.4721 -1.0000
      vertex 6.4721 -4.7023 -1.0000
    endloop
  endfacet
  facet normal 0.000000 0.000000 -1.000000
    outer loop
      vertex 0.0000 0.0000 0.0000
      vertex 6.4721 -4.7023 0.0000
      vertex 4.7023 -6.4721 0.0000
    endloop
  endfacet
  facet normal 0.891007 -0.453990 0.000000
    outer loop
      vertex 6.4721 -4.7023 0.0000
      vertex 7.6085 -2.4721 0.0000
      vertex 7.6085 -2.4721 -1.0000
    endloop
  endfacet
  facet normal 0.891007 -0.453990 0.000000
    outer loop
      vertex 6.4721 -4.7023 0.0000
      vertex 7.6085 -2.4721 -1.0000
      vertex 6.4721 -4.7023 -1.0000
    endloop
  endfacet
  facet normal 0.000000 0.000000 1.000000
    outer loop
      vertex 0.0000 0.0000 -1.0000
      vertex 6.4721 -4.7023 -1.0000
      vertex 7.6085 -2.4721 -1.0000
    endloop
  endfacet
  facet normal 0.000000 0.000000 -1.000000
    outer loop
      vertex 0.0000 0.0000 0.0000
      vertex 7.6085 -2.4721 0.0000
      vertex 6.4721 -4.7023 0.0000
    endloop
  endfacet
  facet normal 0.987688 -0.156434 0.000000
    outer loop
      vertex 7.6085 -2.4721 0.0000
      vertex 8.0000 -0.0000 0.0000
      vertex 8.0000 -0.0000 -1.0000
    endloop
  endfacet
  facet normal 0.987688 -0.156434 0.000000
    outer loop
      vertex 7.6085 -2.4721 0.0000
      vertex 8.0000 -0.0000 -1.0000
      vertex 7.6085 -2.4721 -1.0000
    endloop
  endfacet
  facet normal 0.000000 0.000000 1.000000
    outer loop
      vertex 0.0000 0.0000 -1.0000
      vertex 7.6085 -2.4721 -1.0000
      vertex 8.0000 -0.0000 -1.0000
    endloop
  endfacet
  facet normal 0.000000 0.000000 -1.000000
    outer loop
      vertex 0.0000 0.0000 0.0000
      vertex 8.0000 -0.0000 0.0000
      vertex 7.6085 -2.4721 0.0000
    endloop
  endfacet
  facet normal 0.000000 0.000000 1.000000
    outer loop
      vertex 22.0000 0.0000 6.0000
      vertex 24.0000 0.0000 6.0000
      vertex 23.5388 4.6822 6.0000
    endloop
  endfacet
  facet normal 0.000000 0.000000 1.000000
    outer loop
      vertex 22.0000 0.0000 6.0000
      vertex 23.5388 4.6822 6.0000
      vertex 21.5773 4.2920 6.0000
    endloop
  endfacet
  facet normal 0.000000 0.000000 1.000000
    outer loop
      vertex 21.5773 4.2920 6.0000
      vertex 23.5388 4.6822 6.0000
      vertex 22.1731 9.1844 6.0000
    endloop
  endfacet
  facet normal 0.000000 0.000000 1.000000
    outer loop
      vertex 21.5773 4.2920 6.0000
      vertex 22.1731 9.1844 6.0000
      vertex 20.3253 8.4190 6.0000
    endloop
  endfacet
  facet normal 0.000000 0.000000 1.000000
    outer loop
      vertex 20.3253 8.4190 6.0000
      vertex 22.1731 9.1844 6.0000
      vertex 19.9553 13.3337 6.0000
    endloop
  endfacet
  facet normal 0.000000 0.000000 1.000000
    outer loop
      vertex 20.3253 8.4190 6.0000
      vertex 19.9553 13.3337 6.0000
      vertex 18.2923 12.2225 6.0000
    endloop
  endfacet
  facet normal 0.000000 0.000000 1.000000
    outer loop
      vertex 18.2923 12.2225 6.0000
      vertex 19.9553 13.3337 6.0000
      vertex 16.9706 16.9706 6.0000
    endloop
  endfacet
  facet normal 0.000000 0.000000 1.000000
    outer loop
      vertex 18.2923 12.2225 6.0000
      vertex 16.9706 16.9706 6.0000
      vertex 15.5563 15.5563 6.0000
    endloop
  endfacet
  facet normal 0.000000 0.000000 1.000000
    outer loop
      vertex 15.5563 15.5563 6.0000
      vertex 16.9706 16.9706 6.0000
      vertex 13.3337 19.9553 6.0000
    endloop
  endfacet
  facet normal 0.000000 0.000000 1.000000
    outer loop
      vertex 15.5563 15.5563 6.0000
      vertex 13.3337 19.9553 6.0000
      vertex 12.2225 18.2923 6.0000
    endloop
  endfacet
  facet normal 0.000000 0.000000 1.000000
    outer loop
      vertex 12.2225 18.2923 6.0000
      vertex 13.3337 19.9553 6.0000
      vertex 9.1844 22.1731 6.0000
    endloop
  endfacet
  facet normal 0.000000 0.000000 1.000000
    outer loop
      vertex 12.2225 18.2923 6.0000
      vertex 9.1844 22.1731 6.0000
      vertex 8.4190 20.3253 6.0000
    endloop
  endfacet
  facet normal 0.000000 0.000000 1.000000
    outer loop
      vertex 8.4190 20.3253 6.0000
      vertex 9.1844 22.1731 6.0000
      vertex 4.6822 23.5388 6.0000
    endloop
  endfacet
  facet normal 0.000000 0.000000 1.000000
    outer loop
      vertex 8.4190 20.3253 6.0000
      vertex 4.6822 23.5388 6.0000
      vertex 4.2920 21.5773 6.0000
    endloop
  endfacet
  facet normal 0.000000 0.000000 1.000000
    outer loop
      vertex 4.2920 21.5773 6.0000
      vertex 4.6822 23.5388 6.0000
      vertex 0.0000 24.0000 6.0000
    endloop
  endfacet
  facet normal 0.000000 0.000000 1.000000
    outer loop
      vertex 4.2920 21.5773 6.0000
      vertex 0.0000 24.0000 6.0000
      vertex 0.0000 22.0000 6.0000
    endloop
  endfacet
  facet normal 0.000000 0.000000 1.000000
    outer loop
      vertex 0.0000 22.0000 6.0000
      vertex 0.0000 24.0000 6.0000
      vertex -4.6822 23.5388 6.0000
    endloop
  endfacet
  facet normal 0.000000 0.000000 1.000000
    outer loop
      vertex 0.0000 22.0000 6.0000
      vertex -4.6822 23.5388 6.0000
      vertex -4.2920 21.5773 6.0000
    endloop
  endfacet
  facet normal 0.000000 0.000000 1.000000
    outer loop
      vertex -4.2920 21.5773 6.0000
      vertex -4.6822 23.5388 6.0000
      vertex -9.1844 22.1731 6.0000
    endloop
  endfacet
  facet normal 0.000000 0.000000 1.000000
    outer loop
      vertex -4.2920 21.5773 6.0000
      vertex -9.1844 22.1731 6.0000
      vertex -8.4190 20.3253 6.0000
    endloop
  endfacet
  facet normal 0.000000 0.000000 1.000000
    outer loop
      vertex -8.4190 20.3253 6.0000
      vertex -9.1844 22.1731 6.0000
      vertex -13.3337 19.9553 6.0000
    endloop
  endfacet
  facet normal 0.000000 0.000000 1.000000
    outer loop
      vertex -8.4190 20.3253 6.0000
      vertex -13.3337 19.9553 6.0000
      vertex -12.2225 18.2923 6.0000
    endloop
  endfacet
  facet normal 0.000000 0.000000 1.000000
    outer loop
      vertex -12.2225 18.2923 6.0000
      vertex -13.3337 19.9553 6.0000
      vertex -16.9706 16.9706 6.0000
    endloop
  endfacet
  facet normal 0.000000 0.000000 1.000000
    outer loop
      vertex -12.2225 18.2923 6.0000
      vertex -16.9706 16.9706 6.0000
      vertex -15.5563 15.5563 6.0000
    endloop
  endfacet
  facet normal 0.000000 0.000000 1.000000
    outer loop
      vertex -15.5563 15.5563 6.0000
      vertex -16.9706 16.9706 6.0000
      vertex -19.9553 13.3337 6.0000
    endloop
  endfacet
  facet normal 0.000000 0.000000 1.000000
    outer loop
      vertex -15.5563 15.5563 6.0000
      vertex -19.9553 13.3337 6.0000
      vertex -18.2923 12.2225 6.0000
    endloop
  endfacet
  facet normal 0.000000 0.000000 1.000000
    outer loop
      vertex -18.2923 12.2225 6.0000
      vertex -19.9553 13.3337 6.0000
      vertex -22.1731 9.1844 6.0000
    endloop
  endfacet
  facet normal 0.000000 0.000000 1.000000
    outer loop
      vertex -18.2923 12.2225 6.0000
      vertex -22.1731 9.1844 6.0000
      vertex -20.3253 8.4190 6.0000
    endloop
  endfacet
  facet normal 0.000000 0.000000 1.000000
    outer loop
      vertex -20.3253 8.4190 6.0000
      vertex -22.1731 9.1844 6.0000
      vertex -23.5388 4.6822 6.0000
    endloop
  endfacet
  facet normal 0.000000 0.000000 1.000000
    outer loop
      vertex -20.3253 8.4190 6.0000
      vertex -23.5388 4.6822 6.0000
      vertex -21.5773 4.2920 6.0000
    endloop
  endfacet
  facet normal 0.000000 0.000000 1.000000
    outer loop
      vertex -21.5773 4.2920 6.0000
      vertex -23.5388 4.6822 6.0000
      vertex -24.0000 0.0000 6.0000
    endloop
  endfacet
  facet normal 0.000000 0.000000 1.000000
    outer loop
      vertex -21.5773 4.2920 6.0000
      vertex -24.0000 0.0000 6.0000
      vertex -22.0000 0.0000 6.0000
    endloop
  endfacet
  facet normal 0.000000 0.000000 1.000000
    outer loop
      vertex -22.0000 0.0000 6.0000
      vertex -24.0000 0.0000 6.0000
      vertex -23.5388 -4.6822 6.0000
    endloop
  endfacet
  facet normal 0.000000 0.000000 1.000000
    outer loop
      vertex -22.0000 0.0000 6.0000
      vertex -23.5388 -4.6822 6.0000
      vertex -21.5773 -4.2920 6.0000
    endloop
  endfacet
  facet normal 0.000000 0.000000 1.000000
    outer loop
      vertex -21.5773 -4.2920 6.0000
      vertex -23.5388 -4.6822 6.0000
      vertex -22.1731 -9.1844 6.0000
    endloop
  endfacet
  facet normal 0.000000 0.000000 1.000000
    outer loop
      vertex -21.5773 -4.2920 6.0000
      vertex -22.1731 -9.1844 6.0000
      vertex -20.3253 -8.4190 6.0000
    endloop
  endfacet
  facet normal 0.000000 0.000000 1.000000
    outer loop
      vertex -20.3253 -8.4190 6.0000
      vertex -22.1731 -9.1844 6.0000
      vertex -19.9553 -13.3337 6.0000
    endloop
  endfacet
  facet normal 0.000000 0.000000 1.000000
    outer loop
      vertex -20.3253 -8.4190 6.0000
      vertex -19.9553 -13.3337 6.0000
      vertex -18.2923 -12.2225 6.0000
    endloop
  endfacet
  facet normal 0.000000 0.000000 1.000000
    outer loop
      vertex -18.2923 -12.2225 6.0000
      vertex -19.9553 -13.3337 6.0000
      vertex -16.9706 -16.9706 6.0000
    endloop
  endfacet
  facet normal 0.000000 0.000000 1.000000
    outer loop
      vertex -18.2923 -12.2225 6.0000
      vertex -16.9706 -16.9706 6.0000
      vertex -15.5563 -15.5563 6.0000
    endloop
  endfacet
  facet normal 0.000000 0.000000 1.000000
    outer loop
      vertex -15.5563 -15.5563 6.0000
      vertex -16.9706 -16.9706 6.0000
      vertex -13.3337 -19.9553 6.0000
    endloop
  endfacet
  facet normal 0.000000 0.000000 1.000000
    outer loop
      vertex -15.5563 -15.5563 6.0000
      vertex -13.3337 -19.9553 6.0000
      vertex -12.2225 -18.2923 6.0000
    endloop
  endfacet
  facet normal 0.000000 0.000000 1.000000
    outer loop
      vertex -12.2225 -18.2923 6.0000
      vertex -13.3337 -19.9553 6.0000
      vertex -9.1844 -22.1731 6.0000
    endloop
  endfacet
  facet normal 0.000000 0.000000 1.000000
    outer loop
      vertex -12.2225 -18.2923 6.0000
      vertex -9.1844 -22.1731 6.0000
      vertex -8.4190 -20.3253 6.0000
    endloop
  endfacet
  facet normal 0.000000 0.000000 1.000000
    outer loop
      vertex -8.4190 -20.3253 6.0000
      vertex -9.1844 -22.1731 6.0000
      vertex -4.6822 -23.5388 6.0000
    endloop
  endfacet
  facet normal 0.000000 0.000000 1.000000
    outer loop
      vertex -8.4190 -20.3253 6.0000
      vertex -4.6822 -23.5388 6.0000
      vertex -4.2920 -21.5773 6.0000
    endloop
  endfacet
  facet normal 0.000000 0.000000 1.000000
    outer loop
      vertex -4.2920 -21.5773 6.0000
      vertex -4.6822 -23.5388 6.0000
      vertex -0.0000 -24.0000 6.0000
    endloop
  endfacet
  facet normal 0.000000 0.000000 1.000000
    outer loop
      vertex -4.2920 -21.5773 6.0000
      vertex -0.0000 -24.0000 6.0000
      vertex -0.0000 -22.0000 6.0000
    endloop
  endfacet
  facet normal 0.000000 0.000000 1.000000
    outer loop
      vertex -0.0000 -22.0000 6.0000
      vertex -0.0000 -24.0000 6.0000
      vertex 4.6822 -23.5388 6.0000
    endloop
  endfacet
  facet normal 0.000000 0.000000 1.000000
    outer loop
      vertex -0.0000 -22.0000 6.0000
      vertex 4.6822 -23.5388 6.0000
      vertex 4.2920 -21.5773 6.0000
    endloop
  endfacet
  facet normal 0.000000 0.000000 1.000000
    outer loop
      vertex 4.2920 -21.5773 6.0000
      vertex 4.6822 -23.5388 6.0000
      vertex 9.1844 -22.1731 6.0000
    endloop
  endfacet
  facet normal 0.000000 0.000000 1.000000
    outer loop
      vertex 4.2920 -21.5773 6.0000
      vertex 9.1844 -22.1731 6.0000
      vertex 8.4190 -20.3253 6.0000
    endloop
  endfacet
  facet normal 0.000000 0.000000 1.000000
    outer loop
      vertex 8.4190 -20.3253 6.0000
      vertex 9.1844 -22.1731 6.0000
      vertex 13.3337 -19.9553 6.0000
    endloop
  endfacet
  facet normal 0.000000 0.000000 1.000000
    outer loop
      vertex 8.4190 -20.3253 6.0000
      vertex 13.3337 -19.9553 6.0000
      vertex 12.2225 -18.2923 6.0000
    endloop
  endfacet
  facet normal 0.000000 0.000000 1.000000
    outer loop
      vertex 12.2225 -18.2923 6.0000
      vertex 13.3337 -19.9553 6.0000
      vertex 16.9706 -16.9706 6.0000
    endloop
  endfacet
  facet normal 0.000000 0.000000 1.000000
    outer loop
      vertex 12.2225 -18.2923 6.0000
      vertex 16.9706 -16.9706 6.0000
      vertex 15.5563 -15.5563 6.0000
    endloop
  endfacet
  facet normal 0.000000 0.000000 1.000000
    outer loop
      vertex 15.5563 -15.5563 6.0000
      vertex 16.9706 -16.9706 6.0000
      vertex 19.9553 -13.3337 6.0000
    endloop
  endfacet
  facet normal 0.000000 0.000000 1.000000
    outer loop
      vertex 15.5563 -15.5563 6.0000
      vertex 19.9553 -13.3337 6.0000
      vertex 18.2923 -12.2225 6.0000
    endloop
  endfacet
  facet normal 0.000000 0.000000 1.000000
    outer loop
      vertex 18.2923 -12.2225 6.0000
      vertex 19.9553 -13.3337 6.0000
      vertex 22.1731 -9.1844 6.0000
    endloop
  endfacet
  facet normal 0.000000 0.000000 1.000000
    outer loop
      vertex 18.2923 -12.2225 6.0000
      vertex 22.1731 -9.1844 6.0000
      vertex 20.3253 -8.4190 6.0000
    endloop
  endfacet
  facet normal 0.000000 0.000000 1.000000
    outer loop
      vertex 20.3253 -8.4190 6.0000
      vertex 22.1731 -9.1844 6.0000
      vertex 23.5388 -4.6822 6.0000
    endloop
  endfacet
  facet normal 0.000000 0.000000 1.000000
    outer loop
      vertex 20.3253 -8.4190 6.0000
      vertex 23.5388 -4.6822 6.0000
      vertex 21.5773 -4.2920 6.0000
    endloop
  endfacet
  facet normal 0.000000 0.000000 1.000000
    outer loop
      vertex 21.5773 -4.2920 6.0000
      vertex 23.5388 -4.6822 6.0000
      vertex 24.0000 -0.0000 6.0000
    endloop
  endfacet
  facet normal 0.000000 0.000000 1.000000
    outer loop
      vertex 21.5773 -4.2920 6.0000
      vertex 24.0000 -0.0000 6.0000
      vertex 22.0000 -0.0000 6.0000
    endloop
  endfacet
endsolid adapter
