solid adapter
  facet normal 0.995185 0.098017 0.000000
    outer loop
      vertex 20.0000 0.0000 0.0000
      vertex 19.6157 3.9018 0.0000
      vertex 19.6157 3.9018 5.0000
    endloop
  endfacet
  facet normal 0.995185 0.098017 0.000000
    outer loop
      vertex 20.0000 0.0000 0.0000
      vertex 19.6157 3.9018 5.0000
      vertex 20.0000 0.0000 5.0000
    endloop
  endfacet
  facet normal 0.000000 0.000000 1.000000
    outer loop
      vertex 0.0000 0.0000 5.0000
      vertex 20.0000 0.0000 5.0000
      vertex 19.6157 3.9018 5.0000
    endloop
  endfacet
  facet normal 0.000000 0.000000 -1.000000
    outer loop
      vertex 0.0000 0.0000 0.0000
      vertex 19.6157 3.9018 0.0000
      vertex 20.0000 0.0000 0.0000
    endloop
  endfacet
  facet normal 0.956940 0.290285 0.000000
    outer loop
      vertex 19.6157 3.9018 0.0000
      vertex 18.4776 7.6537 0.0000
      vertex 18.4776 7.6537 5.0000
    endloop
  endfacet
  facet normal 0.956940 0.290285 0.000000
    outer loop
      vertex 19.6157 3.9018 0.0000
      vertex 18.4776 7.6537 5.0000
      vertex 19.6157 3.9018 5.0000
    endloop
  endfacet
  facet normal 0.000000 0.000000 1.000000
    outer loop
      vertex 0.0000 0.0000 5.0000
      vertex 19.6157 3.9018 5.0000
      vertex 18.4776 7.6537 5.0000
    endloop
  endfacet
  facet normal 0.000000 0.000000 -1.000000
    outer loop
      vertex 0.0000 0.0000 0.0000
      vertex 18.4776 7.6537 0.0000
      vertex 19.6157 3.9018 0.0000
    endloop
  endfacet
  facet normal 0.881921 0.471397 0.000000
    outer loop
      vertex 18.4776 7.6537 0.0000
      vertex 16.6294 11.1114 0.0000
      vertex 16.6294 11.1114 5.0000
    endloop
  endfacet
  facet normal 0.881921 0.471397 0.000000
    outer loop
      vertex 18.4776 7.6537 0.0000
      vertex 16.6294 11.1114 5.0000
      vertex 18.4776 7.6537 5.0000
    endloop
  endfacet
  facet normal 0.000000 0.000000 1.000000
    outer loop
      vertex 0.0000 0.0000 5.0000
      vertex 18.4776 7.6537 5.0000
      vertex 16.6294 11.1114 5.0000
    endloop
  endfacet
  facet normal 0.000000 0.000000 -1.000000
    outer loop
      vertex 0.0000 0.0000 0.0000
      vertex 16.6294 11.1114 0.0000
      vertex 18.4776 7.6537 0.0000
    endloop
  endfacet
  facet normal 0.773010 0.634393 0.000000
    outer loop
      vertex 16.6294 11.1114 0.0000
      vertex 14.1421 14.1421 0.0000
      vertex 14.1421 14.1421 5.0000
    endloop
  endfacet
  facet normal 0.773010 0.634393 0.000000
    outer loop
      vertex 16.6294 11.1114 0.0000
      vertex 14.1421 14.1421 5.0000
      vertex 16.6294 11.1114 5.0000
    endloop
  endfacet
  facet normal 0.000000 0.000000 1.000000
    outer loop
      vertex 0.0000 0.0000 5.0000
      vertex 16.6294 11.1114 5.0000
      vertex 14.1421 14.1421 5.0000
    endloop
  endfacet
  facet normal 0.000000 0.000000 -1.000000
    outer loop
      vertex 0.0000 0.0000 0.0000
      vertex 14.1421 14.1421 0.0000
      vertex 16.6294 11.1114 0.0000
    endloop
  endfacet
  facet normal 0.634393 0.773010 0.000000
    outer loop
      vertex 14.1421 14.1421 0.0000
      vertex 11.1114 16.6294 0.0000
      vertex 11.1114 16.6294 5.0000
    endloop
  endfacet
  facet normal 0.634393 0.773010 0.000000
    outer loop
      vertex 14.1421 14.1421 0.0000
      vertex 11.1114 16.6294 5.0000
      vertex 14.1421 14.1421 5.0000
    endloop
  endfacet
  facet normal 0.000000 0.000000 1.000000
    outer loop
      vertex 0.0000 0.0000 5.0000
      vertex 14.1421 14.1421 5.0000
      vertex 11.1114 16.6294 5.0000
    endloop
  endfacet
  facet normal 0.000000 0.000000 -1.000000
    outer loop
      vertex 0.0000 0.0000 0.0000
      vertex 11.1114 16.6294 0.0000
      vertex 14.1421 14.1421 0.0000
    endloop
  endfacet
  facet normal 0.471397 0.881921 0.000000
    outer loop
      vertex 11.1114 16.6294 0.0000
      vertex 7.6537 18.4776 0.0000
      vertex 7.6537 18.4776 5.0000
    endloop
  endfacet
  facet normal 0.471397 0.881921 0.000000
    outer loop
      vertex 11.1114 16.6294 0.0000
      vertex 7.6537 18.4776 5.0000
      vertex 11.1114 16.6294 5.0000
    endloop
  endfacet
  facet normal 0.000000 0.000000 1.000000
    outer loop
      vertex 0.0000 0.0000 5.0000
      vertex 11.1114 16.6294 5.0000
      vertex 7.6537 18.4776 5.0000
    endloop
  endfacet
  facet normal 0.000000 0.000000 -1.000000
    outer loop
      vertex 0.0000 0.0000 0.0000
      vertex 7.6537 18.4776 0.0000
      vertex 11.1114 16.6294 0.0000
    endloop
  endfacet
  facet normal 0.290285 0.956940 0.000000
    outer loop
      vertex 7.6537 18.4776 0.0000
      vertex 3.9018 19.6157 0.0000
      vertex 3.9018 19.6157 5.0000
    endloop
  endfacet
  facet normal 0.290285 0.956940 0.000000
    outer loop
      vertex 7.6537 18.4776 0.0000
      vertex 3.9018 19.6157 5.0000
      vertex 7.6537 18.4776 5.0000
    endloop
  endfacet
  facet normal 0.000000 0.000000 1.000000
    outer loop
      vertex 0.0000 0.0000 5.0000
      vertex 7.6537 18.4776 5.0000
      vertex 3.9018 19.6157 5.0000
    endloop
  endfacet
  facet normal 0.000000 0.000000 -1.000000
    outer loop
      vertex 0.0000 0.0000 0.0000
      vertex 3.9018 19.6157 0.0000
      vertex 7.6537 18.4776 0.0000
    endloop
  endfacet
  facet normal 0.098017 0.995185 0.000000
    outer loop
      vertex 3.9018 19.6157 0.0000
      vertex 0.0000 20.0000 0.0000
      vertex 0.0000 20.0000 5.0000
    endloop
  endfacet
  facet normal 0.098017 0.995185 0.000000
    outer loop
      vertex 3.9018 19.6157 0.0000
      vertex 0.0000 20.0000 5.0000
      vertex 3.9018 19.6157 5.0000
    endloop
  endfacet
  facet normal 0.000000 0.000000 1.000000
    outer loop
      vertex 0.0000 0.0000 5.0000
      vertex 3.9018 19.6157 5.0000
      vertex 0.0000 20.0000 5.0000
    endloop
  endfacet
  facet normal 0.000000 0.000000 -1.000000
    outer loop
      vertex 0.0000 0.0000 0.0000
      vertex 0.0000 20.0000 0.0000
      vertex 3.9018 19.6157 0.0000
    endloop
  endfacet
  facet normal -0.098017 0.995185 0.000000
    outer loop
      vertex 0.0000 20.0000 0.0000
      vertex -3.9018 19.6157 0.0000
      vertex -3.9018 19.6157 5.0000
    endloop
  endfacet
  facet normal -0.098017 0.995185 0.000000
    outer loop
      vertex 0.0000 20.0000 0.0000
      vertex -3.9018 19.6157 5.0000
      vertex 0.0000 20.0000 5.0000
    endloop
  endfacet
  facet normal 0.000000 0.000000 1.000000
    outer loop
      vertex 0.0000 0.0000 5.0000
      vertex 0.0000 20.0000 5.0000
      vertex -3.9018 19.6157 5.0000
    endloop
  endfacet
  facet normal 0.000000 0.000000 -1.000000
    outer loop
      vertex 0.0000 0.0000 0.0000
      vertex -3.9018 19.6157 0.0000
      vertex 0.0000 20.0000 0.0000
    endloop
  endfacet
  facet normal -0.290285 0.956940 0.000000
    outer loop
      vertex -3.9018 19.6157 0.0000
      vertex -7.6537 18.4776 0.0000
      vertex -7.6537 18.4776 5.0000
    endloop
  endfacet
  facet normal -0.290285 0.956940 0.000000
    outer loop
      vertex -3.9018 19.6157 0.0000
      vertex -7.6537 18.4776 5.0000
      vertex -3.9018 19.6157 5.0000
    endloop
  endfacet
  facet normal 0.000000 0.000000 1.000000
    outer loop
      vertex 0.0000 0.0000 5.0000
      vertex -3.9018 19.6157 5.0000
      vertex -7.6537 18.4776 5.0000
    endloop
  endfacet
  facet normal 0.000000 0.000000 -1.000000
    outer loop
      vertex 0.0000 0.0000 0.0000
      vertex -7.6537 18.4776 0.0000
      vertex -3.9018 19.6157 0.0000
    endloop
  endfacet
  facet normal -0.471397 0.881921 0.000000
    outer loop
      vertex -7.6537 18.4776 0.0000
      vertex -11.1114 16.6294 0.0000
      vertex -11.1114 16.6294 5.0000
    endloop
  endfacet
  facet normal -0.471397 0.881921 0.000000
    outer loop
      vertex -7.6537 18.4776 0.0000
      vertex -11.1114 16.6294 5.0000
      vertex -7.6537 18.4776 5.0000
    endloop
  endfacet
  facet normal 0.000000 0.000000 1.000000
    outer loop
      vertex 0.0000 0.0000 5.0000
      vertex -7.6537 18.4776 5.0000
      vertex -11.1114 16.6294 5.0000
    endloop
  endfacet
  facet normal 0.000000 0.000000 -1.000000
    outer loop
      vertex 0.0000 0.0000 0.0000
      vertex -11.1114 16.6294 0.0000
      vertex -7.6537 18.4776 0.0000
    endloop
  endfacet
  facet normal -0.634393 0.773010 0.000000
    outer loop
      vertex -11.1114 16.6294 0.0000
      vertex -14.1421 14.1421 0.0000
      vertex -14.1421 14.1421 5.0000
    endloop
  endfacet
  facet normal -0.634393 0.773010 0.000000
    outer loop
      vertex -11.1114 16.6294 0.0000
      vertex -14.1421 14.1421 5.0000
      vertex -11.1114 16.6294 5.0000
    endloop
  endfacet
  facet normal 0.000000 0.000000 1.000000
    outer loop
      vertex 0.0000 0.0000 5.0000
      vertex -11.1114 16.6294 5.0000
      vertex -14.1421 14.1421 5.0000
    endloop
  endfacet
  facet normal 0.000000 0.000000 -1.000000
    outer loop
      vertex 0.0000 0.0000 0.0000
      vertex -14.1421 14.1421 0.0000
      vertex -11.1114 16.6294 0.0000
    endloop
  endfacet
  facet normal -0.773010 0.634393 0.000000
    outer loop
      vertex -14.1421 14.1421 0.0000
      vertex -16.6294 11.1114 0.0000
      vertex -16.6294 11.1114 5.0000
    endloop
  endfacet
  facet normal -0.773010 0.634393 0.000000
    outer loop
      vertex -14.1421 14.1421 0.0000
      vertex -16.6294 11.1114 5.0000
      vertex -14.1421 14.1421 5.0000
    endloop
  endfacet
  facet normal 0.000000 0.000000 1.000000
    outer loop
      vertex 0.0000 0.0000 5.0000
      vertex -14.1421 14.1421 5.0000
      vertex -16.6294 11.1114 5.0000
    endloop
  endfacet
  facet normal 0.000000 0.000000 -1.000000
    outer loop
      vertex 0.0000 0.0000 0.0000
      vertex -16.6294 11.1114 0.0000
      vertex -14.1421 14.1421 0.0000
    endloop
  endfacet
  facet normal -0.881921 0.471397 0.000000
    outer loop
      vertex -16.6294 11.1114 0.0000
      vertex -18.4776 7.6537 0.0000
      vertex -18.4776 7.6537 5.0000
    endloop
  endfacet
  facet normal -0.881921 0.471397 0.000000
    outer loop
      vertex -16.6294 11.1114 0.0000
      vertex -18.4776 7.6537 5.0000
      vertex -16.6294 11.1114 5.0000
    endloop
  endfacet
  facet normal 0.000000 0.000000 1.000000
    outer loop
      vertex 0.0000 0.0000 5.0000
      vertex -16.6294 11.1114 5.0000
      vertex -18.4776 7.6537 5.0000
    endloop
  endfacet
  facet normal 0.000000 0.000000 -1.000000
    outer loop
      vertex 0.0000 0.0000 0.0000
      vertex -18.4776 7.6537 0.0000
      vertex -16.6294 11.1114 0.0000
    endloop
  endfacet
  facet normal -0.956940 0.290285 0.000000
    outer loop
      vertex -18.4776 7.6537 0.0000
      vertex -19.6157 3.9018 0.0000
      vertex -19.6157 3.9018 5.0000
    endloop
  endfacet
  facet normal -0.956940 0.290285 0.000000
    outer loop
      vertex -18.4776 7.6537 0.0000
      vertex -19.6157 3.9018 5.0000
      vertex -18.4776 7.6537 5.0000
    endloop
  endfacet
  facet normal 0.000000 0.000000 1.000000
    outer loop
      vertex 0.0000 0.0000 5.0000
      vertex -18.4776 7.6537 5.0000
      vertex -19.6157 3.9018 5.0000
    endloop
  endfacet
  facet normal 0.000000 0.000000 -1.000000
    outer loop
      vertex 0.0000 0.0000 0.0000
      vertex -19.6157 3.9018 0.0000
      vertex -18.4776 7.6537 0.0000
    endloop
  endfacet
  facet normal -0.995185 0.098017 0.000000
    outer loop
      vertex -19.6157 3.9018 0.0000
      vertex -20.0000 0.0000 0.0000
      vertex -20.0000 0.0000 5.0000
    endloop
  endfacet
  facet normal -0.995185 0.098017 0.000000
    outer loop
      vertex -19.6157 3.9018 0.0000
      vertex -20.0000 0.0000 5.0000
      vertex -19.6157 3.9018 5.0000
    endloop
  endfacet
  facet normal 0.000000 0.000000 1.000000
    outer loop
      vertex 0.0000 0.0000 5.0000
      vertex -19.6157 3.9018 5.0000
      vertex -20.0000 0.0000 5.0000
    endloop
  endfacet
  facet normal 0.000000 0.000000 -1.000000
    outer loop
      vertex 0.0000 0.0000 0.0000
      vertex -20.0000 0.0000 0.0000
      vertex -19.6157 3.9018 0.0000
    endloop
  endfacet
  facet normal -0.995185 -0.098017 0.000000
    outer loop
      vertex -20.0000 0.0000 0.0000
      vertex -19.6157 -3.9018 0.0000
      vertex -19.6157 -3.9018 5.0000
    endloop
  endfacet
  facet normal -0.995185 -0.098017 0.000000
    outer loop
      vertex -20.0000 0.0000 0.0000
      vertex -19.6157 -3.9018 5.0000
      vertex -20.0000 0.0000 5.0000
    endloop
  endfacet
  facet normal 0.000000 0.000000 1.000000
    outer loop
      vertex 0.0000 0.0000 5.0000
      vertex -20.0000 0.0000 5.0000
      vertex -19.6157 -3.9018 5.0000
    endloop
  endfacet
  facet normal 0.000000 0.000000 -1.000000
    outer loop
      vertex 0.0000 0.0000 0.0000
      vertex -19.6157 -3.9018 0.0000
      vertex -20.0000 0.0000 0.0000
    endloop
  endfacet
  facet normal -0.956940 -0.290285 0.000000
    outer loop
      vertex -19.6157 -3.9018 0.0000
      vertex -18.4776 -7.6537 0.0000
      vertex -18.4776 -7.6537 5.0000
    endloop
  endfacet
  facet normal -0.956940 -0.290285 0.000000
    outer loop
      vertex -19.6157 -3.9018 0.0000
      vertex -18.4776 -7.6537 5.0000
      vertex -19.6157 -3.9018 5.0000
    endloop
  endfacet
  facet normal 0.000000 0.000000 1.000000
    outer loop
      vertex 0.0000 0.0000 5.0000
      vertex -19.6157 -3.9018 5.0000
      vertex -18.4776 -7.6537 5.0000
    endloop
  endfacet
  facet normal 0.000000 0.000000 -1.000000
    outer loop
      vertex 0.0000 0.0000 0.0000
      vertex -18.4776 -7.6537 0.0000
      vertex -19.6157 -3.9018 0.0000
    endloop
  endfacet
  facet normal -0.881921 -0.471397 0.000000
    outer loop
      vertex -18.4776 -7.6537 0.0000
      vertex -16.6294 -11.1114 0.0000
      vertex -16.6294 -11.1114 5.0000
    endloop
  endfacet
  facet normal -0.881921 -0.471397 0.000000
    outer loop
      vertex -18.4776 -7.6537 0.0000
      vertex -16.6294 -11.1114 5.0000
      vertex -18.4776 -7.6537 5.0000
    endloop
  endfacet
  facet normal 0.000000 0.000000 1.000000
    outer loop
      vertex 0.0000 0.0000 5.0000
      vertex -18.4776 -7.6537 5.0000
      vertex -16.6294 -11.1114 5.0000
    endloop
  endfacet
  facet normal 0.000000 0.000000 -1.000000
    outer loop
      vertex 0.0000 0.0000 0.0000
      vertex -16.6294 -11.1114 0.0000
      vertex -18.4776 -7.6537 0.0000
    endloop
  endfacet
  facet normal -0.773010 -0.634393 0.000000
    outer loop
      vertex -16.6294 -11.1114 0.0000
      vertex -14.1421 -14.1421 0.0000
      vertex -14.1421 -14.1421 5.0000
    endloop
  endfacet
  facet normal -0.773010 -0.634393 0.000000
    outer loop
      vertex -16.6294 -11.1114 0.0000
      vertex -14.1421 -14.1421 5.0000
      vertex -16.6294 -11.1114 5.0000
    endloop
  endfacet
  facet normal 0.000000 0.000000 1.000000
    outer loop
      vertex 0.0000 0.0000 5.0000
      vertex -16.6294 -11.1114 5.0000
      vertex -14.1421 -14.1421 5.0000
    endloop
  endfacet
  facet normal 0.000000 0.000000 -1.000000
    outer loop
      vertex 0.0000 0.0000 0.0000
      vertex -14.1421 -14.1421 0.0000
      vertex -16.6294 -11.1114 0.0000
    endloop
  endfacet
  facet normal -0.634393 -0.773010 0.000000
    outer loop
      vertex -14.1421 -14.1421 0.0000
      vertex -11.1114 -16.6294 0.0000
      vertex -11.1114 -16.6294 5.0000
    endloop
  endfacet
  facet normal -0.634393 -0.773010 0.000000
    outer loop
      vertex -14.1421 -14.1421 0.0000
      vertex -11.1114 -16.6294 5.0000
      vertex -14.1421 -14.1421 5.0000
    endloop
  endfacet
  facet normal 0.000000 0.000000 1.000000
    outer loop
      vertex 0.0000 0.0000 5.0000
      vertex -14.1421 -14.1421 5.0000
      vertex -11.1114 -16.6294 5.0000
    endloop
  endfacet
  facet normal 0.000000 0.000000 -1.000000
    outer loop
      vertex 0.0000 0.0000 0.0000
      vertex -11.1114 -16.6294 0.0000
      vertex -14.1421 -14.1421 0.0000
    endloop
  endfacet
  facet normal -0.471397 -0.881921 0.000000
    outer loop
      vertex -11.1114 -16.6294 0.0000
      vertex -7.6537 -18.4776 0.0000
      vertex -7.6537 -18.4776 5.0000
    endloop
  endfacet
  facet normal -0.471397 -0.881921 0.000000
    outer loop
      vertex -11.1114 -16.6294 0.0000
      vertex -7.6537 -18.4776 5.0000
      vertex -11.1114 -16.6294 5.0000
    endloop
  endfacet
  facet normal 0.000000 0.000000 1.000000
    outer loop
      vertex 0.0000 0.0000 5.0000
      vertex -11.1114 -16.6294 5.0000
      vertex -7.6537 -18.4776 5.0000
    endloop
  endfacet
  facet normal 0.000000 0.000000 -1.000000
    outer loop
      vertex 0.0000 0.0000 0.0000
      vertex -7.6537 -18.4776 0.0000
      vertex -11.1114 -16.6294 0.0000
    endloop
  endfacet
  facet normal -0.290285 -0.956940 0.000000
    outer loop
      vertex -7.6537 -18.4776 0.0000
      vertex -3.9018 -19.6157 0.0000
      vertex -3.9018 -19.6157 5.0000
    endloop
  endfacet
  facet normal -0.290285 -0.956940 0.000000
    outer loop
      vertex -7.6537 -18.4776 0.0000
      vertex -3.9018 -19.6157 5.0000
      vertex -7.6537 -18.4776 5.0000
    endloop
  endfacet
  facet normal 0.000000 0.000000 1.000000
    outer loop
      vertex 0.0000 0.0000 5.0000
      vertex -7.6537 -18.4776 5.0000
      vertex -3.9018 -19.6157 5.0000
    endloop
  endfacet
  facet normal 0.000000 0.000000 -1.000000
    outer loop
      vertex 0.0000 0.0000 0.0000
      vertex -3.9018 -19.6157 0.0000
      vertex -7.6537 -18.4776 0.0000
    endloop
  endfacet
  facet normal -0.098017 -0.995185 0.000000
    outer loop
      vertex -3.9018 -19.6157 0.0000
      vertex -0.0000 -20.0000 0.0000
      vertex -0.0000 -20.0000 5.0000
    endloop
  endfacet
  facet normal -0.098017 -0.995185 0.000000
    outer loop
      vertex -3.9018 -19.6157 0.0000
      vertex -0.0000 -20.0000 5.0000
      vertex -3.9018 -19.6157 5.0000
    endloop
  endfacet
  facet normal 0.000000 0.000000 1.000000
    outer loop
      vertex 0.0000 0.0000 5.0000
      vertex -3.9018 -19.6157 5.0000
      vertex -0.0000 -20.0000 5.0000
    endloop
  endfacet
  facet normal 0.000000 0.000000 -1.000000
    outer loop
      vertex 0.0000 0.0000 0.0000
      vertex -0.0000 -20.0000 0.0000
      vertex -3.9018 -19.6157 0.0000
    endloop
  endfacet
  facet normal 0.098017 -0.995185 0.000000
    outer loop
      vertex -0.0000 -20.0000 0.0000
      vertex 3.9018 -19.6157 0.0000
      vertex 3.9018 -19.6157 5.0000
    endloop
  endfacet
  facet normal 0.098017 -0.995185 0.000000
    outer loop
      vertex -0.0000 -20.0000 0.0000
      vertex 3.9018 -19.6157 5.0000
      vertex -0.0000 -20.0000 5.0000
    endloop
  endfacet
  facet normal 0.000000 0.000000 1.000000
    outer loop
      vertex 0.0000 0.0000 5.0000
      vertex -0.0000 -20.0000 5.0000
      vertex 3.9018 -19.6157 5.0000
    endloop
  endfacet
  facet normal 0.000000 0.000000 -1.000000
    outer loop
      vertex 0.0000 0.0000 0.0000
      vertex 3.9018 -19.6157 0.0000
      vertex -0.0000 -20.0000 0.0000
    endloop
  endfacet
  facet normal 0.290285 -0.956940 0.000000
    outer loop
      vertex 3.9018 -19.6157 0.0000
      vertex 7.6537 -18.4776 0.0000
      vertex 7.6537 -18.4776 5.0000
    endloop
  endfacet
  facet normal 0.290285 -0.956940 0.000000
    outer loop
      vertex 3.9018 -19.6157 0.0000
      vertex 7.6537 -18.4776 5.0000
      vertex 3.9018 -19.6157 5.0000
    endloop
  endfacet
  facet normal 0.000000 0.000000 1.000000
    outer loop
      vertex 0.0000 0.0000 5.0000
      vertex 3.9018 -19.6157 5.0000
      vertex 7.6537 -18.4776 5.0000
    endloop
  endfacet
  facet normal 0.000000 0.000000 -1.000000
    outer loop
      vertex 0.0000 0.0000 0.0000
      vertex 7.6537 -18.4776 0.0000
      vertex 3.9018 -19.6157 0.0000
    endloop
  endfacet
  facet normal 0.471397 -0.881921 0.000000
    outer loop
      vertex 7.6537 -18.4776 0.0000
      vertex 11.1114 -16.6294 0.0000
      vertex 11.1114 -16.6294 5.0000
    endloop
  endfacet
  facet normal 0.471397 -0.881921 0.000000
    outer loop
      vertex 7.6537 -18.4776 0.0000
      vertex 11.1114 -16.6294 5.0000
      vertex 7.6537 -18.4776 5.0000
    endloop
  endfacet
  facet normal 0.000000 0.000000 1.000000
    outer loop
      vertex 0.0000 0.0000 5.0000
      vertex 7.6537 -18.4776 5.0000
      vertex 11.1114 -16.6294 5.0000
    endloop
  endfacet
  facet normal 0.000000 0.000000 -1.000000
    outer loop
      vertex 0.0000 0.0000 0.0000
      vertex 11.1114 -16.6294 0.0000
      vertex 7.6537 -18.4776 0.0000
    endloop
  endfacet
  facet normal 0.634393 -0.773010 0.000000
    outer loop
      vertex 11.1114 -16.6294 0.0000
      vertex 14.1421 -14.1421 0.0000
      vertex 14.1421 -14.1421 5.0000
    endloop
  endfacet
  facet normal 0.634393 -0.773010 0.000000
    outer loop
      vertex 11.1114 -16.6294 0.0000
      vertex 14.1421 -14.1421 5.0000
      vertex 11.1114 -16.6294 5.0000
    endloop
  endfacet
  facet normal 0.000000 0.000000 1.000000
    outer loop
      vertex 0.0000 0.0000 5.0000
      vertex 11.1114 -16.6294 5.0000
      vertex 14.1421 -14.1421 5.0000
    endloop
  endfacet
  facet normal 0.000000 0.000000 -1.000000
    outer loop
      vertex 0.0000 0.0000 0.0000
      vertex 14.1421 -14.1421 0.0000
      vertex 11.1114 -16.6294 0.0000
    endloop
  endfacet
  facet normal 0.773010 -0.634393 0.000000
    outer loop
      vertex 14.1421 -14.1421 0.0000
      vertex 16.6294 -11.1114 0.0000
      vertex 16.6294 -11.1114 5.0000
    endloop
  endfacet
  facet normal 0.773010 -0.634393 0.000000
    outer loop
      vertex 14.1421 -14.1421 0.0000
      vertex 16.6294 -11.1114 5.0000
      vertex 14.1421 -14.1421 5.0000
    endloop
  endfacet
  facet normal 0.000000 0.000000 1.000000
    outer loop
      vertex 0.0000 0.0000 5.0000
      vertex 14.1421 -14.1421 5.0000
      vertex 16.6294 -11.1114 5.0000
    endloop
  endfacet
  facet normal 0.000000 0.000000 -1.000000
    outer loop
      vertex 0.0000 0.0000 0.0000
      vertex 16.6294 -11.1114 0.0000
      vertex 14.1421 -14.1421 0.0000
    endloop
  endfacet
  facet normal 0.881921 -0.471397 0.000000
    outer loop
      vertex 16.6294 -11.1114 0.0000
      vertex 18.4776 -7.6537 0.0000
      vertex 18.4776 -7.6537 5.0000
    endloop
  endfacet
  facet normal 0.881921 -0.471397 0.000000
    outer loop
      vertex 16.6294 -11.1114 0.0000
      vertex 18.4776 -7.6537 5.0000
      vertex 16.6294 -11.1114 5.0000
    endloop
  endfacet
  facet normal 0.000000 0.000000 1.000000
    outer loop
      vertex 0.0000 0.0000 5.0000
      vertex 16.6294 -11.1114 5.0000
      vertex 18.4776 -7.6537 5.0000
    endloop
  endfacet
  facet normal 0.000000 0.000000 -1.000000
    outer loop
      vertex 0.0000 0.0000 0.0000
      vertex 18.4776 -7.6537 0.0000
      vertex 16.6294 -11.1114 0.0000
    endloop
  endfacet
  facet normal 0.956940 -0.290285 0.000000
    outer loop
      vertex 18.4776 -7.6537 0.0000
      vertex 19.6157 -3.9018 0.0000
      vertex 19.6157 -3.9018 5.0000
    endloop
  endfacet
  facet normal 0.956940 -0.290285 0.000000
    outer loop
      vertex 18.4776 -7.6537 0.0000
      vertex 19.6157 -3.9018 5.0000
      vertex 18.4776 -7.6537 5.0000
    endloop
  endfacet
  facet normal 0.000000 0.000000 1.000000
    outer loop
      vertex 0.0000 0.0000 5.0000
      vertex 18.4776 -7.6537 5.0000
      vertex 19.6157 -3.9018 5.0000
    endloop
  endfacet
  facet normal 0.000000 0.000000 -1.000000
    outer loop
      vertex 0.0000 0.0000 0.0000
      vertex 19.6157 -3.9018 0.0000
      vertex 18.4776 -7.6537 0.0000
    endloop
  endfacet
  facet normal 0.995185 -0.098017 0.000000
    outer loop
      vertex 19.6157 -3.9018 0.0000
      vertex 20.0000 -0.0000 0.0000
      vertex 20.0000 -0.0000 5.0000
    endloop
  endfacet
  facet normal 0.995185 -0.098017 0.000000
    outer loop
      vertex 19.6157 -3.9018 0.0000
      vertex 20.0000 -0.0000 5.0000
      vertex 19.6157 -3.9018 5.0000
    endloop
  endfacet
  facet normal 0.000000 0.000000 1.000000
    outer loop
      vertex 0.0000 0.0000 5.0000
      vertex 19.6157 -3.9018 5.0000
      vertex 20.0000 -0.0000 5.0000
    endloop
  endfacet
  facet normal 0.000000 0.000000 -1.000000
    outer loop
      vertex 0.0000 0.0000 0.0000
      vertex 20.0000 -0.0000 0.0000
      vertex 19.6157 -3.9018 0.0000
    endloop
  endfacet
  facet normal 0.987688 0.156434 0.000000
    outer loop
      vertex 8.0000 0.0000 5.0000
      vertex 7.6085 2.4721 5.0000
      vertex 7.6085 2.4721 11.0000
    endloop
  endfacet
  facet normal 0.987688 0.156434 0.000000
    outer loop
      vertex 8.0000 0.0000 5.0000
      vertex 7.6085 2.4721 11.0000
      vertex 8.0000 0.0000 11.0000
    endloop
  endfacet
  facet normal 0.000000 0.000000 1.000000
    outer loop
      vertex 0.0000 0.0000 11.0000
      vertex 8.0000 0.0000 11.0000
      vertex 7.6085 2.4721 11.0000
    endloop
  endfacet
  facet normal 0.000000 0.000000 -1.000000
    outer loop
      vertex 0.0000 0.0000 5.0000
      vertex 7.6085 2.4721 5.0000
      vertex 8.0000 0.0000 5.0000
    endloop
  endfacet
  facet normal 0.891007 0.453990 0.000000
    outer loop
      vertex 7.6085 2.4721 5.0000
      vertex 6.4721 4.7023 5.0000
      vertex 6.4721 4.7023 11.0000
    endloop
  endfacet
  facet normal 0.891007 0.453990 0.000000
    outer loop
      vertex 7.6085 2.4721 5.0000
      vertex 6.4721 4.7023 11.0000
      vertex 7.6085 2.4721 11.0000
    endloop
  endfacet
  facet normal 0.000000 0.000000 1.000000
    outer loop
      vertex 0.0000 0.0000 11.0000
      vertex 7.6085 2.4721 11.0000
      vertex 6.4721 4.7023 11.0000
    endloop
  endfacet
  facet normal 0.000000 0.000000 -1.000000
    outer loop
      vertex 0.0000 0.0000 5.0000
      vertex 6.4721 4.7023 5.0000
      vertex 7.6085 2.4721 5.0000
    endloop
  endfacet
  facet normal 0.707107 0.707107 0.000000
    outer loop
      vertex 6.4721 4.7023 5.0000
      vertex 4.7023 6.4721 5.0000
      vertex 4.7023 6.4721 11.0000
    endloop
  endfacet
  facet normal 0.707107 0.707107 0.000000
    outer loop
      vertex 6.4721 4.7023 5.0000
      vertex 4.7023 6.4721 11.0000
      vertex 6.4721 4.7023 11.0000
    endloop
  endfacet
  facet normal 0.000000 0.000000 1.000000
    outer loop
      vertex 0.0000 0.0000 11.0000
      vertex 6.4721 4.7023 11.0000
      vertex 4.7023 6.4721 11.0000
    endloop
  endfacet
  facet normal 0.000000 0.000000 -1.000000
    outer loop
      vertex 0.0000 0.0000 5.0000
      vertex 4.7023 6.4721 5.0000
      vertex 6.4721 4.7023 5.0000
    endloop
  endfacet
  facet normal 0.453990 0.891007 0.000000
    outer loop
      vertex 4.7023 6.4721 5.0000
      vertex 2.4721 7.6085 5.0000
      vertex 2.4721 7.6085 11.0000
    endloop
  endfacet
  facet normal 0.453990 0.891007 0.000000
    outer loop
      vertex 4.7023 6.4721 5.0000
      vertex 2.4721 7.6085 11.0000
      vertex 4.7023 6.4721 11.0000
    endloop
  endfacet
  facet normal 0.000000 0.000000 1.000000
    outer loop
      vertex 0.0000 0.0000 11.0000
      vertex 4.7023 6.4721 11.0000
      vertex 2.4721 7.6085 11.0000
    endloop
  endfacet
  facet normal 0.000000 0.000000 -1.000000
    outer loop
      vertex 0.0000 0.0000 5.0000
      vertex 2.4721 7.6085 5.0000
      vertex 4.7023 6.4721 5.0000
    endloop
  endfacet
  facet normal 0.156434 0.987688 0.000000
    outer loop
      vertex 2.4721 7.6085 5.0000
      vertex 0.0000 8.0000 5.0000
      vertex 0.0000 8.0000 11.0000
    endloop
  endfacet
  facet normal 0.156434 0.987688 0.000000
    outer loop
      vertex 2.4721 7.6085 5.0000
      vertex 0.0000 8.0000 11.0000
      vertex 2.4721 7.6085 11.0000
    endloop
  endfacet
  facet normal 0.000000 0.000000 1.000000
    outer loop
      vertex 0.0000 0.0000 11.0000
      vertex 2.4721 7.6085 11.0000
      vertex 0.0000 8.0000 11.0000
    endloop
  endfacet
  facet normal 0.000000 0.000000 -1.000000
    outer loop
      vertex 0.0000 0.0000 5.0000
      vertex 0.0000 8.0000 5.0000
      vertex 2.4721 7.6085 5.0000
    endloop
  endfacet
  facet normal -0.156434 0.987688 0.000000
    outer loop
      vertex 0.0000 8.0000 5.0000
      vertex -2.4721 7.6085 5.0000
      vertex -2.4721 7.6085 11.0000
    endloop
  endfacet
  facet normal -0.156434 0.987688 0.000000
    outer loop
      vertex 0.0000 8.0000 5.0000
      vertex -2.4721 7.6085 11.0000
      vertex 0.0000 8.0000 11.0000
    endloop
  endfacet
  facet normal 0.000000 0.000000 1.000000
    outer loop
      vertex 0.0000 0.0000 11.0000
      vertex 0.0000 8.0000 11.0000
      vertex -2.4721 7.6085 11.0000
    endloop
  endfacet
  facet normal 0.000000 0.000000 -1.000000
    outer loop
      vertex 0.0000 0.0000 5.0000
      vertex -2.4721 7.6085 5.0000
      vertex 0.0000 8.0000 5.0000
    endloop
  endfacet
  facet normal -0.453990 0.891007 0.000000
    outer loop
      vertex -2.4721 7.6085 5.0000
      vertex -4.7023 6.4721 5.0000
      vertex -4.7023 6.4721 11.0000
    endloop
  endfacet
  facet normal -0.453990 0.891007 0.000000
    outer loop
      vertex -2.4721 7.6085 5.0000
      vertex -4.7023 6.4721 11.0000
      vertex -2.4721 7.6085 11.0000
    endloop
  endfacet
  facet normal 0.000000 0.000000 1.000000
    outer loop
      vertex 0.0000 0.0000 11.0000
      vertex -2.4721 7.6085 11.0000
      vertex -4.7023 6.4721 11.0000
    endloop
  endfacet
  facet normal 0.000000 0.000000 -1.000000
    outer loop
      vertex 0.0000 0.0000 5.0000
      vertex -4.7023 6.4721 5.0000
      vertex -2.4721 7.6085 5.0000
    endloop
  endfacet
  facet normal -0.707107 0.707107 0.000000
    outer loop
      vertex -4.7023 6.4721 5.0000
      vertex -6.4721 4.7023 5.0000
      vertex -6.4721 4.7023 11.0000
    endloop
  endfacet
  facet normal -0.707107 0.707107 0.000000
    outer loop
      vertex -4.7023 6.4721 5.0000
      vertex -6.4721 4.7023 11.0000
      vertex -4.7023 6.4721 11.0000
    endloop
  endfacet
  facet normal 0.000000 0.000000 1.000000
    outer loop
      vertex 0.0000 0.0000 11.0000
      vertex -4.7023 6.4721 11.0000
      vertex -6.4721 4.7023 11.0000
    endloop
  endfacet
  facet normal 0.000000 0.000000 -1.000000
    outer loop
      vertex 0.0000 0.0000 5.0000
      vertex -6.4721 4.7023 5.0000
      vertex -4.7023 6.4721 5.0000
    endloop
  endfacet
  facet normal -0.891007 0.453990 0.000000
    outer loop
      vertex -6.4721 4.7023 5.0000
      vertex -7.6085 2.4721 5.0000
      vertex -7.6085 2.4721 11.0000
    endloop
  endfacet
  facet normal -0.891007 0.453990 0.000000
    outer loop
      vertex -6.4721 4.7023 5.0000
      vertex -7.6085 2.4721 11.0000
      vertex -6.4721 4.7023 11.0000
    endloop
  endfacet
  facet normal 0.000000 0.000000 1.000000
    outer loop
      vertex 0.0000 0.0000 11.0000
      vertex -6.4721 4.7023 11.0000
      vertex -7.6085 2.4721 11.0000
    endloop
  endfacet
  facet normal 0.000000 0.000000 -1.000000
    outer loop
      vertex 0.0000 0.0000 5.0000
      vertex -7.6085 2.4721 5.0000
      vertex -6.4721 4.7023 5.0000
    endloop
  endfacet
  facet normal -0.987688 0.156434 0.000000
    outer loop
      vertex -7.6085 2.4721 5.0000
      vertex -8.0000 0.0000 5.0000
      vertex -8.0000 0.0000 11.0000
    endloop
  endfacet
  facet normal -0.987688 0.156434 0.000000
    outer loop
      vertex -7.6085 2.4721 5.0000
      vertex -8.0000 0.0000 11.0000
      vertex -7.6085 2.4721 11.0000
    endloop
  endfacet
  facet normal 0.000000 0.000000 1.000000
    outer loop
      vertex 0.0000 0.0000 11.0000
      vertex -7.6085 2.4721 11.0000
      vertex -8.0000 0.0000 11.0000
    endloop
  endfacet
  facet normal 0.000000 0.000000 -1.000000
    outer loop
      vertex 0.0000 0.0000 5.0000
      vertex -8.0000 0.0000 5.0000
      vertex -7.6085 2.4721 5.0000
    endloop
  endfacet
  facet normal -0.987688 -0.156434 0.000000
    outer loop
      vertex -8.0000 0.0000 5.0000
      vertex -7.6085 -2.4721 5.0000
      vertex -7.6085 -2.4721 11.0000
    endloop
  endfacet
  facet normal -0.987688 -0.156434 0.000000
    outer loop
      vertex -8.0000 0.0000 5.0000
      vertex -7.6085 -2.4721 11.0000
      vertex -8.0000 0.0000 11.0000
    endloop
  endfacet
  facet normal 0.000000 0.000000 1.000000
    outer loop
      vertex 0.0000 0.0000 11.0000
      vertex -8.0000 0.0000 11.0000
      vertex -7.6085 -2.4721 11.0000
    endloop
  endfacet
  facet normal 0.000000 0.000000 -1.000000
    outer loop
      vertex 0.0000 0.0000 5.0000
      vertex -7.6085 -2.4721 5.0000
      vertex -8.0000 0.0000 5.0000
    endloop
  endfacet
  facet normal -0.891007 -0.453990 0.000000
    outer loop
      vertex -7.6085 -2.4721 5.0000
      vertex -6.4721 -4.7023 5.0000
      vertex -6.4721 -4.7023 11.0000
    endloop
  endfacet
  facet normal -0.891007 -0.453990 0.000000
    outer loop
      vertex -7.6085 -2.4721 5.0000
      vertex -6.4721 -4.7023 11.0000
      vertex -7.6085 -2.4721 11.0000
    endloop
  endfacet
  facet normal 0.000000 0.000000 1.000000
    outer loop
      vertex 0.0000 0.0000 11.0000
      vertex -7.6085 -2.4721 11.0000
      vertex -6.4721 -4.7023 11.0000
    endloop
  endfacet
  facet normal 0.000000 0.000000 -1.000000
    outer loop
      vertex 0.0000 0.0000 5.0000
      vertex -6.4721 -4.7023 5.0000
      vertex -7.6085 -2.4721 5.0000
    endloop
  endfacet
  facet normal -0.707107 -0.707107 0.000000
    outer loop
      vertex -6.4721 -4.7023 5.0000
      vertex -4.7023 -6.4721 5.0000
      vertex -4.7023 -6.4721 11.0000
    endloop
  endfacet
  facet normal -0.707107 -0.707107 0.000000
    outer loop
      vertex -6.4721 -4.7023 5.0000
      vertex -4.7023 -6.4721 11.0000
      vertex -6.4721 -4.7023 11.0000
    endloop
  endfacet
  facet normal 0.000000 0.000000 1.000000
    outer loop
      vertex 0.0000 0.0000 11.0000
      vertex -6.4721 -4.7023 11.0000
      vertex -4.7023 -6.4721 11.0000
    endloop
  endfacet
  facet normal 0.000000 0.000000 -1.000000
    outer loop
      vertex 0.0000 0.0000 5.0000
      vertex -4.7023 -6.4721 5.0000
      vertex -6.4721 -4.7023 5.0000
    endloop
  endfacet
  facet normal -0.453990 -0.891007 0.000000
    outer loop
      vertex -4.7023 -6.4721 5.0000
      vertex -2.4721 -7.6085 5.0000
      vertex -2.4721 -7.6085 11.0000
    endloop
  endfacet
  facet normal -0.453990 -0.891007 0.000000
    outer loop
      vertex -4.7023 -6.4721 5.0000
      vertex -2.4721 -7.6085 11.0000
      vertex -4.7023 -6.4721 11.0000
    endloop
  endfacet
  facet normal 0.000000 0.000000 1.000000
    outer loop
      vertex 0.0000 0.0000 11.0000
      vertex -4.7023 -6.4721 11.0000
      vertex -2.4721 -7.6085 11.0000
    endloop
  endfacet
  facet normal 0.000000 0.000000 -1.000000
    outer loop
      vertex 0.0000 0.0000 5.0000
      vertex -2.4721 -7.6085 5.0000
      vertex -4.7023 -6.4721 5.0000
    endloop
  endfacet
  facet normal -0.156434 -0.987688 0.000000
    outer loop
      vertex -2.4721 -7.6085 5.0000
      vertex -0.0000 -8.0000 5.0000
      vertex -0.0000 -8.0000 11.0000
    endloop
  endfacet
  facet normal -0.156434 -0.987688 0.000000
    outer loop
      vertex -2.4721 -7.6085 5.0000
      vertex -0.0000 -8.0000 11.0000
      vertex -2.4721 -7.6085 11.0000
    endloop
  endfacet
  facet normal 0.000000 0.000000 1.000000
    outer loop
      vertex 0.0000 0.0000 11.0000
      vertex -2.4721 -7.6085 11.0000
      vertex -0.0000 -8.0000 11.0000
    endloop
  endfacet
  facet normal 0.000000 0.000000 -1.000000
    outer loop
      vertex 0.0000 0.0000 5.0000
      vertex -0.0000 -8.0000 5.0000
      vertex -2.4721 -7.6085 5.0000
    endloop
  endfacet
  facet normal 0.156434 -0.987688 0.000000
    outer loop
      vertex -0.0000 -8.0000 5.0000
      vertex 2.4721 -7.6085 5.0000
      vertex 2.4721 -7.6085 11.0000
    endloop
  endfacet
  facet normal 0.156434 -0.987688 0.000000
    outer loop
      vertex -0.0000 -8.0000 5.0000
      vertex 2.4721 -7.6085 11.0000
      vertex -0.0000 -8.0000 11.0000
    endloop
  endfacet
  facet normal 0.000000 0.000000 1.000000
    outer loop
      vertex 0.0000 0.0000 11.0000
      vertex -0.0000 -8.0000 11.0000
      vertex 2.4721 -7.6085 11.0000
    endloop
  endfacet
  facet normal 0.000000 0.000000 -1.000000
    outer loop
      vertex 0.0000 0.0000 5.0000
      vertex 2.4721 -7.6085 5.0000
      vertex -0.0000 -8.0000 5.0000
    endloop
  endfacet
  facet normal 0.453990 -0.891007 0.000000
    outer loop
      vertex 2.4721 -7.6085 5.0000
      vertex 4.7023 -6.4721 5.0000
      vertex 4.7023 -6.4721 11.0000
    endloop
  endfacet
  facet normal 0.453990 -0.891007 0.000000
    outer loop
      vertex 2.4721 -7.6085 5.0000
      vertex 4.7023 -6.4721 11.0000
      vertex 2.4721 -7.6085 11.0000
    endloop
  endfacet
  facet normal 0.000000 0.000000 1.000000
    outer loop
      vertex 0.0000 0.0000 11.0000
      vertex 2.4721 -7.6085 11.0000
      vertex 4.7023 -6.4721 11.0000
    endloop
  endfacet
  facet normal 0.000000 0.000000 -1.000000
    outer loop
      vertex 0.0000 0.0000 5.0000
      vertex 4.7023 -6.4721 5.0000
      vertex 2.4721 -7.6085 5.0000
    endloop
  endfacet
  facet normal 0.707107 -0.707107 0.000000
    outer loop
      vertex 4.7023 -6.4721 5.0000
      vertex 6.4721 -4.7023 5.0000
      vertex 6.4721 -4.7023 11.0000
    endloop
  endfacet
  facet normal 0.707107 -0.707107 0.000000
    outer loop
      vertex 4.7023 -6.4721 5.0000
      vertex 6.4721 -4.7023 11.0000
      vertex 4.7023 -6.4721 11.0000
    endloop
  endfacet
  facet normal 0.000000 0.000000 1.000000
    outer loop
      vertex 0.0000 0.0000 11.0000
      vertex 4.7023 -6.4721 11.0000
      vertex 6.4721 -4.7023 11.0000
    endloop
  endfacet
  facet normal 0.000000 0.000000 -1.000000
    outer loop
      vertex 0.0000 0.0000 5.0000
      vertex 6.4721 -4.7023 5.0000
      vertex 4.7023 -6.4721 5.0000
    endloop
  endfacet
  facet normal 0.891007 -0.453990 0.000000
    outer loop
      vertex 6.4721 -4.7023 5.0000
      vertex 7.6085 -2.4721 5.0000
      vertex 7.6085 -2.4721 11.0000
    endloop
  endfacet
  facet normal 0.891007 -0.453990 0.000000
    outer loop
      vertex 6.4721 -4.7023 5.0000
      vertex 7.6085 -2.4721 11.0000
      vertex 6.4721 -4.7023 11.0000
    endloop
  endfacet
  facet normal 0.000000 0.000000 1.000000
    outer loop
      vertex 0.0000 0.0000 11.0000
      vertex 6.4721 -4.7023 11.0000
      vertex 7.6085 -2.4721 11.0000
    endloop
  endfacet
  facet normal 0.000000 0.000000 -1.000000
    outer loop
      vertex 0.0000 0.0000 5.0000
      vertex 7.6085 -2.4721 5.0000
      vertex 6.4721 -4.7023 5.0000
    endloop
  endfacet
  facet normal 0.987688 -0.156434 0.000000
    outer loop
      vertex 7.6085 -2.4721 5.0000
      vertex 8.0000 -0.0000 5.0000
      vertex 8.0000 -0.0000 11.0000
    endloop
  endfacet
  facet normal 0.987688 -0.156434 0.000000
    outer loop
      vertex 7.6085 -2.4721 5.0000
      vertex 8.0000 -0.0000 11.0000
      vertex 7.6085 -2.4721 11.0000
    endloop
  endfacet
  facet normal 0.000000 0.000000 1.000000
    outer loop
      vertex 0.0000 0.0000 11.0000
      vertex 7.6085 -2.4721 11.0000
      vertex 8.0000 -0.0000 11.0000
    endloop
  endfacet
  facet normal 0.000000 0.000000 -1.000000
    outer loop
      vertex 0.0000 0.0000 5.0000
      vertex 8.0000 -0.0000 5.0000
      vertex 7.6085 -2.4721 5.0000
    endloop
  endfacet
  facet normal 0.965926 0.258819 0.000000
    outer loop
      vertex 19.0000 0.0000 4.0000
      vertex 18.4641 2.0000 4.0000
      vertex 18.4641 2.0000 9.0000
    endloop
  endfacet
  facet normal 0.965926 0.258819 0.000000
    outer loop
      vertex 19.0000 0.0000 4.0000
      vertex 18.4641 2.0000 9.0000
      vertex 19.0000 0.0000 9.0000
    endloop
  endfacet
  facet normal 0.000000 0.000000 1.000000
    outer loop
      vertex 15.0000 0.0000 9.0000
      vertex 19.0000 0.0000 9.0000
      vertex 18.4641 2.0000 9.0000
    endloop
  endfacet
  facet normal 0.000000 0.000000 -1.000000
    outer loop
      vertex 15.0000 0.0000 4.0000
      vertex 18.4641 2.0000 4.0000
      vertex 19.0000 0.0000 4.0000
    endloop
  endfacet
  facet normal 0.707107 0.707107 0.000000
    outer loop
      vertex 18.4641 2.0000 4.0000
      vertex 17.0000 3.4641 4.0000
      vertex 17.0000 3.4641 9.0000
    endloop
  endfacet
  facet normal 0.707107 0.707107 0.000000
    outer loop
      vertex 18.4641 2.0000 4.0000
      vertex 17.0000 3.4641 9.0000
      vertex 18.4641 2.0000 9.0000
    endloop
  endfacet
  facet normal 0.000000 0.000000 1.000000
    outer loop
      vertex 15.0000 0.0000 9.0000
      vertex 18.4641 2.0000 9.0000
      vertex 17.0000 3.4641 9.0000
    endloop
  endfacet
  facet normal 0.000000 0.000000 -1.000000
    outer loop
      vertex 15.0000 0.0000 4.0000
      vertex 17.0000 3.4641 4.0000
      vertex 18.4641 2.0000 4.0000
    endloop
  endfacet
  facet normal 0.258819 0.965926 0.000000
    outer loop
      vertex 17.0000 3.4641 4.0000
      vertex 15.0000 4.0000 4.0000
      vertex 15.0000 4.0000 9.0000
    endloop
  endfacet
  facet normal 0.258819 0.965926 0.000000
    outer loop
      vertex 17.0000 3.4641 4.0000
      vertex 15.0000 4.0000 9.0000
      vertex 17.0000 3.4641 9.0000
    endloop
  endfacet
  facet normal 0.000000 0.000000 1.000000
    outer loop
      vertex 15.0000 0.0000 9.0000
      vertex 17.0000 3.4641 9.0000
      vertex 15.0000 4.0000 9.0000
    endloop
  endfacet
  facet normal 0.000000 0.000000 -1.000000
    outer loop
      vertex 15.0000 0.0000 4.0000
      vertex 15.0000 4.0000 4.0000
      vertex 17.0000 3.4641 4.0000
    endloop
  endfacet
  facet normal -0.258819 0.965926 0.000000
    outer loop
      vertex 15.0000 4.0000 4.0000
      vertex 13.0000 3.4641 4.0000
      vertex 13.0000 3.4641 9.0000
    endloop
  endfacet
  facet normal -0.258819 0.965926 0.000000
    outer loop
      vertex 15.0000 4.0000 4.0000
      vertex 13.0000 3.4641 9.0000
      vertex 15.0000 4.0000 9.0000
    endloop
  endfacet
  facet normal 0.000000 0.000000 1.000000
    outer loop
      vertex 15.0000 0.0000 9.0000
      vertex 15.0000 4.0000 9.0000
      vertex 13.0000 3.4641 9.0000
    endloop
  endfacet
  facet normal 0.000000 0.000000 -1.000000
    outer loop
      vertex 15.0000 0.0000 4.0000
      vertex 13.0000 3.4641 4.0000
      vertex 15.0000 4.0000 4.0000
    endloop
  endfacet
  facet normal -0.707107 0.707107 0.000000
    outer loop
      vertex 13.0000 3.4641 4.0000
      vertex 11.5359 2.0000 4.0000
      vertex 11.5359 2.0000 9.0000
    endloop
  endfacet
  facet normal -0.707107 0.707107 0.000000
    outer loop
      vertex 13.0000 3.4641 4.0000
      vertex 11.5359 2.0000 9.0000
      vertex 13.0000 3.4641 9.0000
    endloop
  endfacet
  facet normal 0.000000 0.000000 1.000000
    outer loop
      vertex 15.0000 0.0000 9.0000
      vertex 13.0000 3.4641 9.0000
      vertex 11.5359 2.0000 9.0000
    endloop
  endfacet
  facet normal 0.000000 0.000000 -1.000000
    outer loop
      vertex 15.0000 0.0000 4.0000
      vertex 11.5359 2.0000 4.0000
      vertex 13.0000 3.4641 4.0000
    endloop
  endfacet
  facet normal -0.965926 0.258819 0.000000
    outer loop
      vertex 11.5359 2.0000 4.0000
      vertex 11.0000 0.0000 4.0000
      vertex 11.0000 0.0000 9.0000
    endloop
  endfacet
  facet normal -0.965926 0.258819 0.000000
    outer loop
      vertex 11.5359 2.0000 4.0000
      vertex 11.0000 0.0000 9.0000
      vertex 11.5359 2.0000 9.0000
    endloop
  endfacet
  facet normal 0.000000 0.000000 1.000000
    outer loop
      vertex 15.0000 0.0000 9.0000
      vertex 11.5359 2.0000 9.0000
      vertex 11.0000 0.0000 9.0000
    endloop
  endfacet
  facet normal 0.000000 0.000000 -1.000000
    outer loop
      vertex 15.0000 0.0000 4.0000
      vertex 11.0000 0.0000 4.0000
      vertex 11.5359 2.0000 4.0000
    endloop
  endfacet
  facet normal -0.965926 -0.258819 0.000000
    outer loop
      vertex 11.0000 0.0000 4.0000
      vertex 11.5359 -2.0000 4.0000
      vertex 11.5359 -2.0000 9.0000
    endloop
  endfacet
  facet normal -0.965926 -0.258819 0.000000
    outer loop
      vertex 11.0000 0.0000 4.0000
      vertex 11.5359 -2.0000 9.0000
      vertex 11.0000 0.0000 9.0000
    endloop
  endfacet
  facet normal 0.000000 0.000000 1.000000
    outer loop
      vertex 15.0000 0.0000 9.0000
      vertex 11.0000 0.0000 9.0000
      vertex 11.5359 -2.0000 9.0000
    endloop
  endfacet
  facet normal 0.000000 0.000000 -1.000000
    outer loop
      vertex 15.0000 0.0000 4.0000
      vertex 11.5359 -2.0000 4.0000
      vertex 11.0000 0.0000 4.0000
    endloop
  endfacet
  facet normal -0.707107 -0.707107 0.000000
    outer loop
      vertex 11.5359 -2.0000 4.0000
      vertex 13.0000 -3.4641 4.0000
      vertex 13.0000 -3.4641 9.0000
    endloop
  endfacet
  facet normal -0.707107 -0.707107 0.000000
    outer loop
      vertex 11.5359 -2.0000 4.0000
      vertex 13.0000 -3.4641 9.0000
      vertex 11.5359 -2.0000 9.0000
    endloop
  endfacet
  facet normal 0.000000 0.000000 1.000000
    outer loop
      vertex 15.0000 0.0000 9.0000
      vertex 11.5359 -2.0000 9.0000
      vertex 13.0000 -3.4641 9.0000
    endloop
  endfacet
  facet normal 0.000000 0.000000 -1.000000
    outer loop
      vertex 15.0000 0.0000 4.0000
      vertex 13.0000 -3.4641 4.0000
      vertex 11.5359 -2.0000 4.0000
    endloop
  endfacet
  facet normal -0.258819 -0.965926 0.000000
    outer loop
      vertex 13.0000 -3.4641 4.0000
      vertex 15.0000 -4.0000 4.0000
      vertex 15.0000 -4.0000 9.0000
    endloop
  endfacet
  facet normal -0.258819 -0.965926 0.000000
    outer loop
      vertex 13.0000 -3.4641 4.0000
      vertex 15.0000 -4.0000 9.0000
      vertex 13.0000 -3.4641 9.0000
    endloop
  endfacet
  facet normal 0.000000 0.000000 1.000000
    outer loop
      vertex 15.0000 0.0000 9.0000
      vertex 13.0000 -3.4641 9.0000
      vertex 15.0000 -4.0000 9.0000
    endloop
  endfacet
  facet normal 0.000000 0.000000 -1.000000
    outer loop
      vertex 15.0000 0.0000 4.0000
      vertex 15.0000 -4.0000 4.0000
      vertex 13.0000 -3.4641 4.0000
    endloop
  endfacet
  facet normal 0.258819 -0.965926 0.000000
    outer loop
      vertex 15.0000 -4.0000 4.0000
      vertex 17.0000 -3.4641 4.0000
      vertex 17.0000 -3.4641 9.0000
    endloop
  endfacet
  facet normal 0.258819 -0.965926 0.000000
    outer loop
      vertex 15.0000 -4.0000 4.0000
      vertex 17.0000 -3.4641 9.0000
      vertex 15.0000 -4.0000 9.0000
    endloop
  endfacet
  facet normal 0.000000 0.000000 1.000000
    outer loop
      vertex 15.0000 0.0000 9.0000
      vertex 15.0000 -4.0000 9.0000
      vertex 17.0000 -3.4641 9.0000
    endloop
  endfacet
  facet normal 0.000000 0.000000 -1.000000
    outer loop
      vertex 15.0000 0.0000 4.0000
      vertex 17.0000 -3.4641 4.0000
      vertex 15.0000 -4.0000 4.0000
    endloop
  endfacet
  facet normal 0.707107 -0.707107 0.000000
    outer loop
      vertex 17.0000 -3.4641 4.0000
      vertex 18.4641 -2.0000 4.0000
      vertex 18.4641 -2.0000 9.0000
    endloop
  endfacet
  facet normal 0.707107 -0.707107 0.000000
    outer loop
      vertex 17.0000 -3.4641 4.0000
      vertex 18.4641 -2.0000 9.0000
      vertex 17.0000 -3.4641 9.0000
    endloop
  endfacet
  facet normal 0.000000 0.000000 1.000000
    outer loop
      vertex 15.0000 0.0000 9.0000
      vertex 17.0000 -3.4641 9.0000
      vertex 18.4641 -2.0000 9.0000
    endloop
  endfacet
  facet normal 0.000000 0.000000 -1.000000
    outer loop
      vertex 15.0000 0.0000 4.0000
      vertex 18.4641 -2.0000 4.0000
      vertex 17.0000 -3.4641 4.0000
    endloop
  endfacet
  facet normal 0.965926 -0.258819 0.000000
    outer loop
      vertex 18.4641 -2.0000 4.0000
      vertex 19.0000 -0.0000 4.0000
      vertex 19.0000 -0.0000 9.0000
    endloop
  endfacet
  facet normal 0.965926 -0.258819 0.000000
    outer loop
      vertex 18.4641 -2.0000 4.0000
      vertex 19.0000 -0.0000 9.0000
      vertex 18.4641 -2.0000 9.0000
    endloop
  endfacet
  facet normal 0.000000 0.000000 1.000000
    outer loop
      vertex 15.0000 0.0000 9.0000
      vertex 18.4641 -2.0000 9.0000
      vertex 19.0000 -0.0000 9.0000
    endloop
  endfacet
  facet normal 0.000000 0.000000 -1.000000
    outer loop
      vertex 15.0000 0.0000 4.0000
      vertex 19.0000 -0.0000 4.0000
      vertex 18.4641 -2.0000 4.0000
    endloop
  endfacet
  facet normal 0.965926 0.258819 0.000000
    outer loop
      vertex 4.0000 15.0000 4.0000
      vertex 3.4641 17.0000 4.0000
      vertex 3.4641 17.0000 9.0000
    endloop
  endfacet
  facet normal 0.965926 0.258819 0.000000
    outer loop
      vertex 4.0000 15.0000 4.0000
      vertex 3.4641 17.0000 9.0000
      vertex 4.0000 15.0000 9.0000
    endloop
  endfacet
  facet normal 0.000000 0.000000 1.000000
    outer loop
      vertex 0.0000 15.0000 9.0000
      vertex 4.0000 15.0000 9.0000
      vertex 3.4641 17.0000 9.0000
    endloop
  endfacet
  facet normal 0.000000 0.000000 -1.000000
    outer loop
      vertex 0.0000 15.0000 4.0000
      vertex 3.4641 17.0000 4.0000
      vertex 4.0000 15.0000 4.0000
    endloop
  endfacet
  facet normal 0.707107 0.707107 0.000000
    outer loop
      vertex 3.4641 17.0000 4.0000
      vertex 2.0000 18.4641 4.0000
      vertex 2.0000 18.4641 9.0000
    endloop
  endfacet
  facet normal 0.707107 0.707107 0.000000
    outer loop
      vertex 3.4641 17.0000 4.0000
      vertex 2.0000 18.4641 9.0000
      vertex 3.4641 17.0000 9.0000
    endloop
  endfacet
  facet normal 0.000000 0.000000 1.000000
    outer loop
      vertex 0.0000 15.0000 9.0000
      vertex 3.4641 17.0000 9.0000
      vertex 2.0000 18.4641 9.0000
    endloop
  endfacet
  facet normal 0.000000 0.000000 -1.000000
    outer loop
      vertex 0.0000 15.0000 4.0000
      vertex 2.0000 18.4641 4.0000
      vertex 3.4641 17.0000 4.0000
    endloop
  endfacet
  facet normal 0.258819 0.965926 0.000000
    outer loop
      vertex 2.0000 18.4641 4.0000
      vertex 0.0000 19.0000 4.0000
      vertex 0.0000 19.0000 9.0000
    endloop
  endfacet
  facet normal 0.258819 0.965926 0.000000
    outer loop
      vertex 2.0000 18.4641 4.0000
      vertex 0.0000 19.0000 9.0000
      vertex 2.0000 18.4641 9.0000
    endloop
  endfacet
  facet normal 0.000000 0.000000 1.000000
    outer loop
      vertex 0.0000 15.0000 9.0000
      vertex 2.0000 18.4641 9.0000
      vertex 0.0000 19.0000 9.0000
    endloop
  endfacet
  facet normal 0.000000 0.000000 -1.000000
    outer loop
      vertex 0.0000 15.0000 4.0000
      vertex 0.0000 19.0000 4.0000
      vertex 2.0000 18.4641 4.0000
    endloop
  endfacet
  facet normal -0.258819 0.965926 0.000000
    outer loop
      vertex 0.0000 19.0000 4.0000
      vertex -2.0000 18.4641 4.0000
      vertex -2.0000 18.4641 9.0000
    endloop
  endfacet
  facet normal -0.258819 0.965926 0.000000
    outer loop
      vertex 0.0000 19.0000 4.0000
      vertex -2.0000 18.4641 9.0000
      vertex 0.0000 19.0000 9.0000
    endloop
  endfacet
  facet normal 0.000000 0.000000 1.000000
    outer loop
      vertex 0.0000 15.0000 9.0000
      vertex 0.0000 19.0000 9.0000
      vertex -2.0000 18.4641 9.0000
    endloop
  endfacet
  facet normal 0.000000 0.000000 -1.000000
    outer loop
      vertex 0.0000 15.0000 4.0000
      vertex -2.0000 18.4641 4.0000
      vertex 0.0000 19.0000 4.0000
    endloop
  endfacet
  facet normal -0.707107 0.707107 0.000000
    outer loop
      vertex -2.0000 18.4641 4.0000
      vertex -3.4641 17.0000 4.0000
      vertex -3.4641 17.0000 9.0000
    endloop
  endfacet
  facet normal -0.707107 0.707107 0.000000
    outer loop
      vertex -2.0000 18.4641 4.0000
      vertex -3.4641 17.0000 9.0000
      vertex -2.0000 18.4641 9.0000
    endloop
  endfacet
  facet normal 0.000000 0.000000 1.000000
    outer loop
      vertex 0.0000 15.0000 9.0000
      vertex -2.0000 18.4641 9.0000
      vertex -3.4641 17.0000 9.0000
    endloop
  endfacet
  facet normal 0.000000 0.000000 -1.000000
    outer loop
      vertex 0.0000 15.0000 4.0000
      vertex -3.4641 17.0000 4.0000
      vertex -2.0000 18.4641 4.0000
    endloop
  endfacet
  facet normal -0.965926 0.258819 0.000000
    outer loop
      vertex -3.4641 17.0000 4.0000
      vertex -4.0000 15.0000 4.0000
      vertex -4.0000 15.0000 9.0000
    endloop
  endfacet
  facet normal -0.965926 0.258819 0.000000
    outer loop
      vertex -3.4641 17.0000 4.0000
      vertex -4.0000 15.0000 9.0000
      vertex -3.4641 17.0000 9.0000
    endloop
  endfacet
  facet normal 0.000000 0.000000 1.000000
    outer loop
      vertex 0.0000 15.0000 9.0000
      vertex -3.4641 17.0000 9.0000
      vertex -4.0000 15.0000 9.0000
    endloop
  endfacet
  facet normal 0.000000 0.000000 -1.000000
    outer loop
      vertex 0.0000 15.0000 4.0000
      vertex -4.0000 15.0000 4.0000
      vertex -3.4641 17.0000 4.0000
    endloop
  endfacet
  facet normal -0.965926 -0.258819 0.000000
    outer loop
      vertex -4.0000 15.0000 4.0000
      vertex -3.4641 13.0000 4.0000
      vertex -3.4641 13.0000 9.0000
    endloop
  endfacet
  facet normal -0.965926 -0.258819 0.000000
    outer loop
      vertex -4.0000 15.0000 4.0000
      vertex -3.4641 13.0000 9.0000
      vertex -4.0000 15.0000 9.0000
    endloop
  endfacet
  facet normal 0.000000 0.000000 1.000000
    outer loop
      vertex 0.0000 15.0000 9.0000
      vertex -4.0000 15.0000 9.0000
      vertex -3.4641 13.0000 9.0000
    endloop
  endfacet
  facet normal 0.000000 0.000000 -1.000000
    outer loop
      vertex 0.0000 15.0000 4.0000
      vertex -3.4641 13.0000 4.0000
      vertex -4.0000 15.0000 4.0000
    endloop
  endfacet
  facet normal -0.707107 -0.707107 0.000000
    outer loop
      vertex -3.4641 13.0000 4.0000
      vertex -2.0000 11.5359 4.0000
      vertex -2.0000 11.5359 9.0000
    endloop
  endfacet
  facet normal -0.707107 -0.707107 0.000000
    outer loop
      vertex -3.4641 13.0000 4.0000
      vertex -2.0000 11.5359 9.0000
      vertex -3.4641 13.0000 9.0000
    endloop
  endfacet
  facet normal 0.000000 0.000000 1.000000
    outer loop
      vertex 0.0000 15.0000 9.0000
      vertex -3.4641 13.0000 9.0000
      vertex -2.0000 11.5359 9.0000
    endloop
  endfacet
  facet normal 0.000000 0.000000 -1.000000
    outer loop
      vertex 0.0000 15.0000 4.0000
      vertex -2.0000 11.5359 4.0000
      vertex -3.4641 13.0000 4.0000
    endloop
  endfacet
  facet normal -0.258819 -0.965926 0.000000
    outer loop
      vertex -2.0000 11.5359 4.0000
      vertex 0.0000 11.0000 4.0000
      vertex 0.0000 11.0000 9.0000
    endloop
  endfacet
  facet normal -0.258819 -0.965926 0.000000
    outer loop
      vertex -2.0000 11.5359 4.0000
      vertex 0.0000 11.0000 9.0000
      vertex -2.0000 11.5359 9.0000
    endloop
  endfacet
  facet normal 0.000000 0.000000 1.000000
    outer loop
      vertex 0.0000 15.0000 9.0000
      vertex -2.0000 11.5359 9.0000
      vertex 0.0000 11.0000 9.0000
    endloop
  endfacet
  facet normal 0.000000 0.000000 -1.000000
    outer loop
      vertex 0.0000 15.0000 4.0000
      vertex 0.0000 11.0000 4.0000
      vertex -2.0000 11.5359 4.0000
    endloop
  endfacet
  facet normal 0.258819 -0.965926 0.000000
    outer loop
      vertex 0.0000 11.0000 4.0000
      vertex 2.0000 11.5359 4.0000
      vertex 2.0000 11.5359 9.0000
    endloop
  endfacet
  facet normal 0.258819 -0.965926 0.000000
    outer loop
      vertex 0.0000 11.0000 4.0000
      vertex 2.0000 11.5359 9.0000
      vertex 0.0000 11.0000 9.0000
    endloop
  endfacet
  facet normal 0.000000 0.000000 1.000000
    outer loop
      vertex 0.0000 15.0000 9.0000
      vertex 0.0000 11.0000 9.0000
      vertex 2.0000 11.5359 9.0000
    endloop
  endfacet
  facet normal 0.000000 0.000000 -1.000000
    outer loop
      vertex 0.0000 15.0000 4.0000
      vertex 2.0000 11.5359 4.0000
      vertex 0.0000 11.0000 4.0000
    endloop
  endfacet
  facet normal 0.707107 -0.707107 0.000000
    outer loop
      vertex 2.0000 11.5359 4.0000
      vertex 3.4641 13.0000 4.0000
      vertex 3.4641 13.0000 9.0000
    endloop
  endfacet
  facet normal 0.707107 -0.707107 0.000000
    outer loop
      vertex 2.0000 11.5359 4.0000
      vertex 3.4641 13.0000 9.0000
      vertex 2.0000 11.5359 9.0000
    endloop
  endfacet
  facet normal 0.000000 0.000000 1.000000
    outer loop
      vertex 0.0000 15.0000 9.0000
      vertex 2.0000 11.5359 9.0000
      vertex 3.4641 13.0000 9.0000
    endloop
  endfacet
  facet normal 0.000000 0.000000 -1.000000
    outer loop
      vertex 0.0000 15.0000 4.0000
      vertex 3.4641 13.0000 4.0000
      vertex 2.0000 11.5359 4.0000
    endloop
  endfacet
  facet normal 0.965926 -0.258819 0.000000
    outer loop
      vertex 3.4641 13.0000 4.0000
      vertex 4.0000 15.0000 4.0000
      vertex 4.0000 15.0000 9.0000
    endloop
  endfacet
  facet normal 0.965926 -0.258819 0.000000
    outer loop
      vertex 3.4641 13.0000 4.0000
      vertex 4.0000 15.0000 9.0000
      vertex 3.4641 13.0000 9.0000
    endloop
  endfacet
  facet normal 0.000000 0.000000 1.000000
    outer loop
      vertex 0.0000 15.0000 9.0000
      vertex 3.4641 13.0000 9.0000
      vertex 4.0000 15.0000 9.0000
    endloop
  endfacet
  facet normal 0.000000 0.000000 -1.000000
    outer loop
      vertex 0.0000 15.0000 4.0000
      vertex 4.0000 15.0000 4.0000
      vertex 3.4641 13.0000 4.0000
    endloop
  endfacet
  facet normal 0.965926 0.258819 0.000000
    outer loop
      vertex -11.0000 0.0000 4.0000
      vertex -11.5359 2.0000 4.0000
      vertex -11.5359 2.0000 9.0000
    endloop
  endfacet
  facet normal 0.965926 0.258819 0.000000
    outer loop
      vertex -11.0000 0.0000 4.0000
      vertex -11.5359 2.0000 9.0000
      vertex -11.0000 0.0000 9.0000
    endloop
  endfacet
  facet normal 0.000000 0.000000 1.000000
    outer loop
      vertex -15.0000 0.0000 9.0000
      vertex -11.0000 0.0000 9.0000
      vertex -11.5359 2.0000 9.0000
    endloop
  endfacet
  facet normal 0.000000 0.000000 -1.000000
    outer loop
      vertex -15.0000 0.0000 4.0000
      vertex -11.5359 2.0000 4.0000
      vertex -11.0000 0.0000 4.0000
    endloop
  endfacet
  facet normal 0.707107 0.707107 0.000000
    outer loop
      vertex -11.5359 2.0000 4.0000
      vertex -13.0000 3.4641 4.0000
      vertex -13.0000 3.4641 9.0000
    endloop
  endfacet
  facet normal 0.707107 0.707107 0.000000
    outer loop
      vertex -11.5359 2.0000 4.0000
      vertex -13.0000 3.4641 9.0000
      vertex -11.5359 2.0000 9.0000
    endloop
  endfacet
  facet normal 0.000000 0.000000 1.000000
    outer loop
      vertex -15.0000 0.0000 9.0000
      vertex -11.5359 2.0000 9.0000
      vertex -13.0000 3.4641 9.0000
    endloop
  endfacet
  facet normal 0.000000 0.000000 -1.000000
    outer loop
      vertex -15.0000 0.0000 4.0000
      vertex -13.0000 3.4641 4.0000
      vertex -11.5359 2.0000 4.0000
    endloop
  endfacet
  facet normal 0.258819 0.965926 0.000000
    outer loop
      vertex -13.0000 3.4641 4.0000
      vertex -15.0000 4.0000 4.0000
      vertex -15.0000 4.0000 9.0000
    endloop
  endfacet
  facet normal 0.258819 0.965926 0.000000
    outer loop
      vertex -13.0000 3.4641 4.0000
      vertex -15.0000 4.0000 9.0000
      vertex -13.0000 3.4641 9.0000
    endloop
  endfacet
  facet normal 0.000000 0.000000 1.000000
    outer loop
      vertex -15.0000 0.0000 9.0000
      vertex -13.0000 3.4641 9.0000
      vertex -15.0000 4.0000 9.0000
    endloop
  endfacet
  facet normal 0.000000 0.000000 -1.000000
    outer loop
      vertex -15.0000 0.0000 4.0000
      vertex -15.0000 4.0000 4.0000
      vertex -13.0000 3.4641 4.0000
    endloop
  endfacet
  facet normal -0.258819 0.965926 0.000000
    outer loop
      vertex -15.0000 4.0000 4.0000
      vertex -17.0000 3.4641 4.0000
      vertex -17.0000 3.4641 9.0000
    endloop
  endfacet
  facet normal -0.258819 0.965926 0.000000
    outer loop
      vertex -15.0000 4.0000 4.0000
      vertex -17.0000 3.4641 9.0000
      vertex -15.0000 4.0000 9.0000
    endloop
  endfacet
  facet normal 0.000000 0.000000 1.000000
    outer loop
      vertex -15.0000 0.0000 9.0000
      vertex -15.0000 4.0000 9.0000
      vertex -17.0000 3.4641 9.0000
    endloop
  endfacet
  facet normal 0.000000 0.000000 -1.000000
    outer loop
      vertex -15.0000 0.0000 4.0000
      vertex -17.0000 3.4641 4.0000
      vertex -15.0000 4.0000 4.0000
    endloop
  endfacet
  facet normal -0.707107 0.707107 0.000000
    outer loop
      vertex -17.0000 3.4641 4.0000
      vertex -18.4641 2.0000 4.0000
      vertex -18.4641 2.0000 9.0000
    endloop
  endfacet
  facet normal -0.707107 0.707107 0.000000
    outer loop
      vertex -17.0000 3.4641 4.0000
      vertex -18.4641 2.0000 9.0000
      vertex -17.0000 3.4641 9.0000
    endloop
  endfacet
  facet normal 0.000000 0.000000 1.000000
    outer loop
      vertex -15.0000 0.0000 9.0000
      vertex -17.0000 3.4641 9.0000
      vertex -18.4641 2.0000 9.0000
    endloop
  endfacet
  facet normal 0.000000 0.000000 -1.000000
    outer loop
      vertex -15.0000 0.0000 4.0000
      vertex -18.4641 2.0000 4.0000
      vertex -17.0000 3.4641 4.0000
    endloop
  endfacet
  facet normal -0.965926 0.258819 0.000000
    outer loop
      vertex -18.4641 2.0000 4.0000
      vertex -19.0000 0.0000 4.0000
      vertex -19.0000 0.0000 9.0000
    endloop
  endfacet
  facet normal -0.965926 0.258819 0.000000
    outer loop
      vertex -18.4641 2.0000 4.0000
      vertex -19.0000 0.0000 9.0000
      vertex -18.4641 2.0000 9.0000
    endloop
  endfacet
  facet normal 0.000000 0.000000 1.000000
    outer loop
      vertex -15.0000 0.0000 9.0000
      vertex -18.4641 2.0000 9.0000
      vertex -19.0000 0.0000 9.0000
    endloop
  endfacet
  facet normal 0.000000 0.000000 -1.000000
    outer loop
      vertex -15.0000 0.0000 4.0000
      vertex -19.0000 0.0000 4.0000
      vertex -18.4641 2.0000 4.0000
    endloop
  endfacet
  facet normal -0.965926 -0.258819 0.000000
    outer loop
      vertex -19.0000 0.0000 4.0000
      vertex -18.4641 -2.0000 4.0000
      vertex -18.4641 -2.0000 9.0000
    endloop
  endfacet
  facet normal -0.965926 -0.258819 0.000000
    outer loop
      vertex -19.0000 0.0000 4.0000
      vertex -18.4641 -2.0000 9.0000
      vertex -19.0000 0.0000 9.0000
    endloop
  endfacet
  facet normal 0.000000 0.000000 1.000000
    outer loop
      vertex -15.0000 0.0000 9.0000
      vertex -19.0000 0.0000 9.0000
      vertex -18.4641 -2.0000 9.0000
    endloop
  endfacet
  facet normal 0.000000 0.000000 -1.000000
    outer loop
      vertex -15.0000 0.0000 4.0000
      vertex -18.4641 -2.0000 4.0000
      vertex -19.0000 0.0000 4.0000
    endloop
  endfacet
  facet normal -0.707107 -0.707107 0.000000
    outer loop
      vertex -18.4641 -2.0000 4.0000
      vertex -17.0000 -3.4641 4.0000
      vertex -17.0000 -3.4641 9.0000
    endloop
  endfacet
  facet normal -0.707107 -0.707107 0.000000
    outer loop
      vertex -18.4641 -2.0000 4.0000
      vertex -17.0000 -3.4641 9.0000
      vertex -18.4641 -2.0000 9.0000
    endloop
  endfacet
  facet normal 0.000000 0.000000 1.000000
    outer loop
      vertex -15.0000 0.0000 9.0000
      vertex -18.4641 -2.0000 9.0000
      vertex -17.0000 -3.4641 9.0000
    endloop
  endfacet
  facet normal 0.000000 0.000000 -1.000000
    outer loop
      vertex -15.0000 0.0000 4.0000
      vertex -17.0000 -3.4641 4.0000
      vertex -18.4641 -2.0000 4.0000
    endloop
  endfacet
  facet normal -0.258819 -0.965926 0.000000
    outer loop
      vertex -17.0000 -3.4641 4.0000
      vertex -15.0000 -4.0000 4.0000
      vertex -15.0000 -4.0000 9.0000
    endloop
  endfacet
  facet normal -0.258819 -0.965926 0.000000
    outer loop
      vertex -17.0000 -3.4641 4.0000
      vertex -15.0000 -4.0000 9.0000
      vertex -17.0000 -3.4641 9.0000
    endloop
  endfacet
  facet normal 0.000000 0.000000 1.000000
    outer loop
      vertex -15.0000 0.0000 9.0000
      vertex -17.0000 -3.4641 9.0000
      vertex -15.0000 -4.0000 9.0000
    endloop
  endfacet
  facet normal 0.000000 0.000000 -1.000000
    outer loop
      vertex -15.0000 0.0000 4.0000
      vertex -15.0000 -4.0000 4.0000
      vertex -17.0000 -3.4641 4.0000
    endloop
  endfacet
  facet normal 0.258819 -0.965926 0.000000
    outer loop
      vertex -15.0000 -4.0000 4.0000
      vertex -13.0000 -3.4641 4.0000
      vertex -13.0000 -3.4641 9.0000
    endloop
  endfacet
  facet normal 0.258819 -0.965926 0.000000
    outer loop
      vertex -15.0000 -4.0000 4.0000
      vertex -13.0000 -3.4641 9.0000
      vertex -15.0000 -4.0000 9.0000
    endloop
  endfacet
  facet normal 0.000000 0.000000 1.000000
    outer loop
      vertex -15.0000 0.0000 9.0000
      vertex -15.0000 -4.0000 9.0000
      vertex -13.0000 -3.4641 9.0000
    endloop
  endfacet
  facet normal 0.000000 0.000000 -1.000000
    outer loop
      vertex -15.0000 0.0000 4.0000
      vertex -13.0000 -3.4641 4.0000
      vertex -15.0000 -4.0000 4.0000
    endloop
  endfacet
  facet normal 0.707107 -0.707107 0.000000
    outer loop
      vertex -13.0000 -3.4641 4.0000
      vertex -11.5359 -2.0000 4.0000
      vertex -11.5359 -2.0000 9.0000
    endloop
  endfacet
  facet normal 0.707107 -0.707107 0.000000
    outer loop
      vertex -13.0000 -3.4641 4.0000
      vertex -11.5359 -2.0000 9.0000
      vertex -13.0000 -3.4641 9.0000
    endloop
  endfacet
  facet normal 0.000000 0.000000 1.000000
    outer loop
      vertex -15.0000 0.0000 9.0000
      vertex -13.0000 -3.4641 9.0000
      vertex -11.5359 -2.0000 9.0000
    endloop
  endfacet
  facet normal 0.000000 0.000000 -1.000000
    outer loop
      vertex -15.0000 0.0000 4.0000
      vertex -11.5359 -2.0000 4.0000
      vertex -13.0000 -3.4641 4.0000
    endloop
  endfacet
  facet normal 0.965926 -0.258819 0.000000
    outer loop
      vertex -11.5359 -2.0000 4.0000
      vertex -11.0000 0.0000 4.0000
      vertex -11.0000 0.0000 9.0000
    endloop
  endfacet
  facet normal 0.965926 -0.258819 0.000000
    outer loop
      vertex -11.5359 -2.0000 4.0000
      vertex -11.0000 0.0000 9.0000
      vertex -11.5359 -2.0000 9.0000
    endloop
  endfacet
  facet normal 0.000000 0.000000 1.000000
    outer loop
      vertex -15.0000 0.0000 9.0000
      vertex -11.5359 -2.0000 9.0000
      vertex -11.0000 0.0000 9.0000
    endloop
  endfacet
  facet normal 0.000000 0.000000 -1.000000
    outer loop
      vertex -15.0000 0.0000 4.0000
      vertex -11.0000 0.0000 4.0000
      vertex -11.5359 -2.0000 4.0000
    endloop
  endfacet
  facet normal 0.965926 0.258819 0.000000
    outer loop
      vertex 4.0000 -15.0000 4.0000
      vertex 3.4641 -13.0000 4.0000
      vertex 3.4641 -13.0000 9.0000
    endloop
  endfacet
  facet normal 0.965926 0.258819 0.000000
    outer loop
      vertex 4.0000 -15.0000 4.0000
      vertex 3.4641 -13.0000 9.0000
      vertex 4.0000 -15.0000 9.0000
    endloop
  endfacet
  facet normal 0.000000 0.000000 1.000000
    outer loop
      vertex -0.0000 -15.0000 9.0000
      vertex 4.0000 -15.0000 9.0000
      vertex 3.4641 -13.0000 9.0000
    endloop
  endfacet
  facet normal 0.000000 0.000000 -1.000000
    outer loop
      vertex -0.0000 -15.0000 4.0000
      vertex 3.4641 -13.0000 4.0000
      vertex 4.0000 -15.0000 4.0000
    endloop
  endfacet
  facet normal 0.707107 0.707107 0.000000
    outer loop
      vertex 3.4641 -13.0000 4.0000
      vertex 2.0000 -11.5359 4.0000
      vertex 2.0000 -11.5359 9.0000
    endloop
  endfacet
  facet normal 0.707107 0.707107 0.000000
    outer loop
      vertex 3.4641 -13.0000 4.0000
      vertex 2.0000 -11.5359 9.0000
      vertex 3.4641 -13.0000 9.0000
    endloop
  endfacet
  facet normal 0.000000 0.000000 1.000000
    outer loop
      vertex -0.0000 -15.0000 9.0000
      vertex 3.4641 -13.0000 9.0000
      vertex 2.0000 -11.5359 9.0000
    endloop
  endfacet
  facet normal 0.000000 0.000000 -1.000000
    outer loop
      vertex -0.0000 -15.0000 4.0000
      vertex 2.0000 -11.5359 4.0000
      vertex 3.4641 -13.0000 4.0000
    endloop
  endfacet
  facet normal 0.258819 0.965926 0.000000
    outer loop
      vertex 2.0000 -11.5359 4.0000
      vertex -0.0000 -11.0000 4.0000
      vertex -0.0000 -11.0000 9.0000
    endloop
  endfacet
  facet normal 0.258819 0.965926 0.000000
    outer loop
      vertex 2.0000 -11.5359 4.0000
      vertex -0.0000 -11.0000 9.0000
      vertex 2.0000 -11.5359 9.0000
    endloop
  endfacet
  facet normal 0.000000 0.000000 1.000000
    outer loop
      vertex -0.0000 -15.0000 9.0000
      vertex 2.0000 -11.5359 9.0000
      vertex -0.0000 -11.0000 9.0000
    endloop
  endfacet
  facet normal 0.000000 0.000000 -1.000000
    outer loop
      vertex -0.0000 -15.0000 4.0000
      vertex -0.0000 -11.0000 4.0000
      vertex 2.0000 -11.5359 4.0000
    endloop
  endfacet
  facet normal -0.258819 0.965926 0.000000
    outer loop
      vertex -0.0000 -11.0000 4.0000
      vertex -2.0000 -11.5359 4.0000
      vertex -2.0000 -11.5359 9.0000
    endloop
  endfacet
  facet normal -0.258819 0.965926 0.000000
    outer loop
      vertex -0.0000 -11.0000 4.0000
      vertex -2.0000 -11.5359 9.0000
      vertex -0.0000 -11.0000 9.0000
    endloop
  endfacet
  facet normal 0.000000 0.000000 1.000000
    outer loop
      vertex -0.0000 -15.0000 9.0000
      vertex -0.0000 -11.0000 9.0000
      vertex -2.0000 -11.5359 9.0000
    endloop
  endfacet
  facet normal 0.000000 0.000000 -1.000000
    outer loop
      vertex -0.0000 -15.0000 4.0000
      vertex -2.0000 -11.5359 4.0000
      vertex -0.0000 -11.0000 4.0000
    endloop
  endfacet
  facet normal -0.707107 0.707107 0.000000
    outer loop
      vertex -2.0000 -11.5359 4.0000
      vertex -3.4641 -13.0000 4.0000
      vertex -3.4641 -13.0000 9.0000
    endloop
  endfacet
  facet normal -0.707107 0.707107 0.000000
    outer loop
      vertex -2.0000 -11.5359 4.0000
      vertex -3.4641 -13.0000 9.0000
      vertex -2.0000 -11.5359 9.0000
    endloop
  endfacet
  facet normal 0.000000 0.000000 1.000000
    outer loop
      vertex -0.0000 -15.0000 9.0000
      vertex -2.0000 -11.5359 9.0000
      vertex -3.4641 -13.0000 9.0000
    endloop
  endfacet
  facet normal 0.000000 0.000000 -1.000000
    outer loop
      vertex -0.0000 -15.0000 4.0000
      vertex -3.4641 -13.0000 4.0000
      vertex -2.0000 -11.5359 4.0000
    endloop
  endfacet
  facet normal -0.965926 0.258819 0.000000
    outer loop
      vertex -3.4641 -13.0000 4.0000
      vertex -4.0000 -15.0000 4.0000
      vertex -4.0000 -15.0000 9.0000
    endloop
  endfacet
  facet normal -0.965926 0.258819 0.000000
    outer loop
      vertex -3.4641 -13.0000 4.0000
      vertex -4.0000 -15.0000 9.0000
      vertex -3.4641 -13.0000 9.0000
    endloop
  endfacet
  facet normal 0.000000 0.000000 1.000000
    outer loop
      vertex -0.0000 -15.0000 9.0000
      vertex -3.4641 -13.0000 9.0000
      vertex -4.0000 -15.0000 9.0000
    endloop
  endfacet
  facet normal 0.000000 0.000000 -1.000000
    outer loop
      vertex -0.0000 -15.0000 4.0000
      vertex -4.0000 -15.0000 4.0000
      vertex -3.4641 -13.0000 4.0000
    endloop
  endfacet
  facet normal -0.965926 -0.258819 0.000000
    outer loop
      vertex -4.0000 -15.0000 4.0000
      vertex -3.4641 -17.0000 4.0000
      vertex -3.4641 -17.0000 9.0000
    endloop
  endfacet
  facet normal -0.965926 -0.258819 0.000000
    outer loop
      vertex -4.0000 -15.0000 4.0000
      vertex -3.4641 -17.0000 9.0000
      vertex -4.0000 -15.0000 9.0000
    endloop
  endfacet
  facet normal 0.000000 0.000000 1.000000
    outer loop
      vertex -0.0000 -15.0000 9.0000
      vertex -4.0000 -15.0000 9.0000
      vertex -3.4641 -17.0000 9.0000
    endloop
  endfacet
  facet normal 0.000000 0.000000 -1.000000
    outer loop
      vertex -0.0000 -15.0000 4.0000
      vertex -3.4641 -17.0000 4.0000
      vertex -4.0000 -15.0000 4.0000
    endloop
  endfacet
  facet normal -0.707107 -0.707107 0.000000
    outer loop
      vertex -3.4641 -17.0000 4.0000
      vertex -2.0000 -18.4641 4.0000
      vertex -2.0000 -18.4641 9.0000
    endloop
  endfacet
  facet normal -0.707107 -0.707107 0.000000
    outer loop
      vertex -3.4641 -17.0000 4.0000
      vertex -2.0000 -18.4641 9.0000
      vertex -3.4641 -17.0000 9.0000
    endloop
  endfacet
  facet normal 0.000000 0.000000 1.000000
    outer loop
      vertex -0.0000 -15.0000 9.0000
      vertex -3.4641 -17.0000 9.0000
      vertex -2.0000 -18.4641 9.0000
    endloop
  endfacet
  facet normal 0.000000 0.000000 -1.000000
    outer loop
      vertex -0.0000 -15.0000 4.0000
      vertex -2.0000 -18.4641 4.0000
      vertex -3.4641 -17.0000 4.0000
    endloop
  endfacet
  facet normal -0.258819 -0.965926 0.000000
    outer loop
      vertex -2.0000 -18.4641 4.0000
      vertex -0.0000 -19.0000 4.0000
      vertex -0.0000 -19.0000 9.0000
    endloop
  endfacet
  facet normal -0.258819 -0.965926 0.000000
    outer loop
      vertex -2.0000 -18.4641 4.0000
      vertex -0.0000 -19.0000 9.0000
      vertex -2.0000 -18.4641 9.0000
    endloop
  endfacet
  facet normal 0.000000 0.000000 1.000000
    outer loop
      vertex -0.0000 -15.0000 9.0000
      vertex -2.0000 -18.4641 9.0000
      vertex -0.0000 -19.0000 9.0000
    endloop
  endfacet
  facet normal 0.000000 0.000000 -1.000000
    outer loop
      vertex -0.0000 -15.0000 4.0000
      vertex -0.0000 -19.0000 4.0000
      vertex -2.0000 -18.4641 4.0000
    endloop
  endfacet
  facet normal 0.258819 -0.965926 0.000000
    outer loop
      vertex -0.0000 -19.0000 4.0000
      vertex 2.0000 -18.4641 4.0000
      vertex 2.0000 -18.4641 9.0000
    endloop
  endfacet
  facet normal 0.258819 -0.965926 0.000000
    outer loop
      vertex -0.0000 -19.0000 4.0000
      vertex 2.0000 -18.4641 9.0000
      vertex -0.0000 -19.0000 9.0000
    endloop
  endfacet
  facet normal 0.000000 0.000000 1.000000
    outer loop
      vertex -0.0000 -15.0000 9.0000
      vertex -0.0000 -19.0000 9.0000
      vertex 2.0000 -18.4641 9.0000
    endloop
  endfacet
  facet normal 0.000000 0.000000 -1.000000
    outer loop
      vertex -0.0000 -15.0000 4.0000
      vertex 2.0000 -18.4641 4.0000
      vertex -0.0000 -19.0000 4.0000
    endloop
  endfacet
  facet normal 0.707107 -0.707107 0.000000
    outer loop
      vertex 2.0000 -18.4641 4.0000
      vertex 3.4641 -17.0000 4.0000
      vertex 3.4641 -17.0000 9.0000
    endloop
  endfacet
  facet normal 0.707107 -0.707107 0.000000
    outer loop
      vertex 2.0000 -18.4641 4.0000
      vertex 3.4641 -17.0000 9.0000
      vertex 2.0000 -18.4641 9.0000
    endloop
  endfacet
  facet normal 0.000000 0.000000 1.000000
    outer loop
      vertex -0.0000 -15.0000 9.0000
      vertex 2.0000 -18.4641 9.0000
      vertex 3.4641 -17.0000 9.0000
    endloop
  endfacet
  facet normal 0.000000 0.000000 -1.000000
    outer loop
      vertex -0.0000 -15.0000 4.0000
      vertex 3.4641 -17.0000 4.0000
      vertex 2.0000 -18.4641 4.0000
    endloop
  endfacet
  facet normal 0.965926 -0.258819 0.000000
    outer loop
      vertex 3.4641 -17.0000 4.0000
      vertex 4.0000 -15.0000 4.0000
      vertex 4.0000 -15.0000 9.0000
    endloop
  endfacet
  facet normal 0.965926 -0.258819 0.000000
    outer loop
      vertex 3.4641 -17.0000 4.0000
      vertex 4.0000 -15.0000 9.0000
      vertex 3.4641 -17.0000 9.0000
    endloop
  endfacet
  facet normal 0.000000 0.000000 1.000000
    outer loop
      vertex -0.0000 -15.0000 9.0000
      vertex 3.4641 -17.0000 9.0000
      vertex 4.0000 -15.0000 9.0000
    endloop
  endfacet
  facet normal 0.000000 0.000000 -1.000000
    outer loop
      vertex -0.0000 -15.0000 4.0000
      vertex 4.0000 -15.0000 4.0000
      vertex 3.4641 -17.0000 4.0000
    endloop
  endfacet
  facet normal 0.995185 0.098017 0.000000
    outer loop
      vertex 24.0000 0.0000 0.0000
      vertex 23.5388 4.6822 0.0000
      vertex 23.5388 4.6822 0.0000
    endloop
  endfacet
  facet normal 0.995185 0.098017 0.000000
    outer loop
      vertex 24.0000 0.0000 0.0000
      vertex 23.5388 4.6822 0.0000
      vertex 24.0000 0.0000 0.0000
    endloop
  endfacet
  facet normal 0.000000 0.000000 1.000000
    outer loop
      vertex 0.0000 0.0000 0.0000
      vertex 24.0000 0.0000 0.0000
      vertex 23.5388 4.6822 0.0000
    endloop
  endfacet
  facet normal 0.000000 0.000000 -1.000000
    outer loop
      vertex 0.0000 0.0000 0.0000
      vertex 23.5388 4.6822 0.0000
      vertex 24.0000 0.0000 0.0000
    endloop
  endfacet
  facet normal 0.956940 0.290285 0.000000
    outer loop
      vertex 23.5388 4.6822 0.0000
      vertex 22.1731 9.1844 0.0000
      vertex 22.1731 9.1844 0.0000
    endloop
  endfacet
  facet normal 0.956940 0.290285 0.000000
    outer loop
      vertex 23.5388 4.6822 0.0000
      vertex 22.1731 9.1844 0.0000
      vertex 23.5388 4.6822 0.0000
    endloop
  endfacet
  facet normal 0.000000 0.000000 1.000000
    outer loop
      vertex 0.0000 0.0000 0.0000
      vertex 23.5388 4.6822 0.0000
      vertex 22.1731 9.1844 0.0000
    endloop
  endfacet
  facet normal 0.000000 0.000000 -1.000000
    outer loop
      vertex 0.0000 0.0000 0.0000
      vertex 22.1731 9.1844 0.0000
      vertex 23.5388 4.6822 0.0000
    endloop
  endfacet
  facet normal 0.881921 0.471397 0.000000
    outer loop
      vertex 22.1731 9.1844 0.0000
      vertex 19.9553 13.3337 0.0000
      vertex 19.9553 13.3337 0.0000
    endloop
  endfacet
  facet normal 0.881921 0.471397 0.000000
    outer loop
      vertex 22.1731 9.1844 0.0000
      vertex 19.9553 13.3337 0.0000
      vertex 22.1731 9.1844 0.0000
    endloop
  endfacet
  facet normal 0.000000 0.000000 1.000000
    outer loop
      vertex 0.0000 0.0000 0.0000
      vertex 22.1731 9.1844 0.0000
      vertex 19.9553 13.3337 0.0000
    endloop
  endfacet
  facet normal 0.000000 0.000000 -1.000000
    outer loop
      vertex 0.0000 0.0000 0.0000
      vertex 19.9553 13.3337 0.0000
      vertex 22.1731 9.1844 0.0000
    endloop
  endfacet
  facet normal 0.773010 0.634393 0.000000
    outer loop
      vertex 19.9553 13.3337 0.0000
      vertex 16.9706 16.9706 0.0000
      vertex 16.9706 16.9706 0.0000
    endloop
  endfacet
  facet normal 0.773010 0.634393 0.000000
    outer loop
      vertex 19.9553 13.3337 0.0000
      vertex 16.9706 16.9706 0.0000
      vertex 19.9553 13.3337 0.0000
    endloop
  endfacet
  facet normal 0.000000 0.000000 1.000000
    outer loop
      vertex 0.0000 0.0000 0.0000
      vertex 19.9553 13.3337 0.0000
      vertex 16.9706 16.9706 0.0000
    endloop
  endfacet
  facet normal 0.000000 0.000000 -1.000000
    outer loop
      vertex 0.0000 0.0000 0.0000
      vertex 16.9706 16.9706 0.0000
      vertex 19.9553 13.3337 0.0000
    endloop
  endfacet
  facet normal 0.634393 0.773010 0.000000
    outer loop
      vertex 16.9706 16.9706 0.0000
      vertex 13.3337 19.9553 0.0000
      vertex 13.3337 19.9553 0.0000
    endloop
  endfacet
  facet normal 0.634393 0.773010 0.000000
    outer loop
      vertex 16.9706 16.9706 0.0000
      vertex 13.3337 19.9553 0.0000
      vertex 16.9706 16.9706 0.0000
    endloop
  endfacet
  facet normal 0.000000 0.000000 1.000000
    outer loop
      vertex 0.0000 0.0000 0.0000
      vertex 16.9706 16.9706 0.0000
      vertex 13.3337 19.9553 0.0000
    endloop
  endfacet
  facet normal 0.000000 0.000000 -1.000000
    outer loop
      vertex 0.0000 0.0000 0.0000
      vertex 13.3337 19.9553 0.0000
      vertex 16.9706 16.9706 0.0000
    endloop
  endfacet
  facet normal 0.471397 0.881921 0.000000
    outer loop
      vertex 13.3337 19.9553 0.0000
      vertex 9.1844 22.1731 0.0000
      vertex 9.1844 22.1731 0.0000
    endloop
  endfacet
  facet normal 0.471397 0.881921 0.000000
    outer loop
      vertex 13.3337 19.9553 0.0000
      vertex 9.1844 22.1731 0.0000
      vertex 13.3337 19.9553 0.0000
    endloop
  endfacet
  facet normal 0.000000 0.000000 1.000000
    outer loop
      vertex 0.0000 0.0000 0.0000
      vertex 13.3337 19.9553 0.0000
      vertex 9.1844 22.1731 0.0000
    endloop
  endfacet
  facet normal 0.000000 0.000000 -1.000000
    outer loop
      vertex 0.0000 0.0000 0.0000
      vertex 9.1844 22.1731 0.0000
      vertex 13.3337 19.9553 0.0000
    endloop
  endfacet
  facet normal 0.290285 0.956940 0.000000
    outer loop
      vertex 9.1844 22.1731 0.0000
      vertex 4.6822 23.5388 0.0000
      vertex 4.6822 23.5388 0.0000
    endloop
  endfacet
  facet normal 0.290285 0.956940 0.000000
    outer loop
      vertex 9.1844 22.1731 0.0000
      vertex 4.6822 23.5388 0.0000
      vertex 9.1844 22.1731 0.0000
    endloop
  endfacet
  facet normal 0.000000 0.000000 1.000000
    outer loop
      vertex 0.0000 0.0000 0.0000
      vertex 9.1844 22.1731 0.0000
      vertex 4.6822 23.5388 0.0000
    endloop
  endfacet
  facet normal 0.000000 0.000000 -1.000000
    outer loop
      vertex 0.0000 0.0000 0.0000
      vertex 4.6822 23.5388 0.0000
      vertex 9.1844 22.1731 0.0000
    endloop
  endfacet
  facet normal 0.098017 0.995185 0.000000
    outer loop
      vertex 4.6822 23.5388 0.0000
      vertex 0.0000 24.0000 0.0000
      vertex 0.0000 24.0000 0.0000
    endloop
  endfacet
  facet normal 0.098017 0.995185 0.000000
    outer loop
      vertex 4.6822 23.5388 0.0000
      vertex 0.0000 24.0000 0.0000
      vertex 4.6822 23.5388 0.0000
    endloop
  endfacet
  facet normal 0.000000 0.000000 1.000000
    outer loop
      vertex 0.0000 0.0000 0.0000
      vertex 4.6822 23.5388 0.0000
      vertex 0.0000 24.0000 0.0000
    endloop
  endfacet
  facet normal 0.000000 0.000000 -1.000000
    outer loop
      vertex 0.0000 0.0000 0.0000
      vertex 0.0000 24.0000 0.0000
      vertex 4.6822 23.5388 0.0000
    endloop
  endfacet
  facet normal -0.098017 0.995185 0.000000
    outer loop
      vertex 0.0000 24.0000 0.0000
      vertex -4.6822 23.5388 0.0000
      vertex -4.6822 23.5388 0.0000
    endloop
  endfacet
  facet normal -0.098017 0.995185 0.000000
    outer loop
      vertex 0.0000 24.0000 0.0000
      vertex -4.6822 23.5388 0.0000
      vertex 0.0000 24.0000 0.0000
    endloop
  endfacet
  facet normal 0.000000 0.000000 1.000000
    outer loop
      vertex 0.0000 0.0000 0.0000
      vertex 0.0000 24.0000 0.0000
      vertex -4.6822 23.5388 0.0000
    endloop
  endfacet
  facet normal 0.000000 0.000000 -1.000000
    outer loop
      vertex 0.0000 0.0000 0.0000
      vertex -4.6822 23.5388 0.0000
      vertex 0.0000 24.0000 0.0000
    endloop
  endfacet
  facet normal -0.290285 0.956940 0.000000
    outer loop
      vertex -4.6822 23.5388 0.0000
      vertex -9.1844 22.1731 0.0000
      vertex -9.1844 22.1731 0.0000
    endloop
  endfacet
  facet normal -0.290285 0.956940 0.000000
    outer loop
      vertex -4.6822 23.5388 0.0000
      vertex -9.1844 22.1731 0.0000
      vertex -4.6822 23.5388 0.0000
    endloop
  endfacet
  facet normal 0.000000 0.000000 1.000000
    outer loop
      vertex 0.0000 0.0000 0.0000
      vertex -4.6822 23.5388 0.0000
      vertex -9.1844 22.1731 0.0000
    endloop
  endfacet
  facet normal 0.000000 0.000000 -1.000000
    outer loop
      vertex 0.0000 0.0000 0.0000
      vertex -9.1844 22.1731 0.0000
      vertex -4.6822 23.5388 0.0000
    endloop
  endfacet
  facet normal -0.471397 0.881921 0.000000
    outer loop
      vertex -9.1844 22.1731 0.0000
      vertex -13.3337 19.9553 0.0000
      vertex -13.3337 19.9553 0.0000
    endloop
  endfacet
  facet normal -0.471397 0.881921 0.000000
    outer loop
      vertex -9.1844 22.1731 0.0000
      vertex -13.3337 19.9553 0.0000
      vertex -9.1844 22.1731 0.0000
    endloop
  endfacet
  facet normal 0.000000 0.000000 1.000000
    outer loop
      vertex 0.0000 0.0000 0.0000
      vertex -9.1844 22.1731 0.0000
      vertex -13.3337 19.9553 0.0000
    endloop
  endfacet
  facet normal 0.000000 0.000000 -1.000000
    outer loop
      vertex 0.0000 0.0000 0.0000
      vertex -13.3337 19.9553 0.0000
      vertex -9.1844 22.1731 0.0000
    endloop
  endfacet
  facet normal -0.634393 0.773010 0.000000
    outer loop
      vertex -13.3337 19.9553 0.0000
      vertex -16.9706 16.9706 0.0000
      vertex -16.9706 16.9706 0.0000
    endloop
  endfacet
  facet normal -0.634393 0.773010 0.000000
    outer loop
      vertex -13.3337 19.9553 0.0000
      vertex -16.9706 16.9706 0.0000
      vertex -13.3337 19.9553 0.0000
    endloop
  endfacet
  facet normal 0.000000 0.000000 1.000000
    outer loop
      vertex 0.0000 0.0000 0.0000
      vertex -13.3337 19.9553 0.0000
      vertex -16.9706 16.9706 0.0000
    endloop
  endfacet
  facet normal 0.000000 0.000000 -1.000000
    outer loop
      vertex 0.0000 0.0000 0.0000
      vertex -16.9706 16.9706 0.0000
      vertex -13.3337 19.9553 0.0000
    endloop
  endfacet
  facet normal -0.773010 0.634393 0.000000
    outer loop
      vertex -16.9706 16.9706 0.0000
      vertex -19.9553 13.3337 0.0000
      vertex -19.9553 13.3337 0.0000
    endloop
  endfacet
  facet normal -0.773010 0.634393 0.000000
    outer loop
      vertex -16.9706 16.9706 0.0000
      vertex -19.9553 13.3337 0.0000
      vertex -16.9706 16.9706 0.0000
    endloop
  endfacet
  facet normal 0.000000 0.000000 1.000000
    outer loop
      vertex 0.0000 0.0000 0.0000
      vertex -16.9706 16.9706 0.0000
      vertex -19.9553 13.3337 0.0000
    endloop
  endfacet
  facet normal 0.000000 0.000000 -1.000000
    outer loop
      vertex 0.0000 0.0000 0.0000
      vertex -19.9553 13.3337 0.0000
      vertex -16.9706 16.9706 0.0000
    endloop
  endfacet
  facet normal -0.881921 0.471397 0.000000
    outer loop
      vertex -19.9553 13.3337 0.0000
      vertex -22.1731 9.1844 0.0000
      vertex -22.1731 9.1844 0.0000
    endloop
  endfacet
  facet normal -0.881921 0.471397 0.000000
    outer loop
      vertex -19.9553 13.3337 0.0000
      vertex -22.1731 9.1844 0.0000
      vertex -19.9553 13.3337 0.0000
    endloop
  endfacet
  facet normal 0.000000 0.000000 1.000000
    outer loop
      vertex 0.0000 0.0000 0.0000
      vertex -19.9553 13.3337 0.0000
      vertex -22.1731 9.1844 0.0000
    endloop
  endfacet
  facet normal 0.000000 0.000000 -1.000000
    outer loop
      vertex 0.0000 0.0000 0.0000
      vertex -22.1731 9.1844 0.0000
      vertex -19.9553 13.3337 0.0000
    endloop
  endfacet
  facet normal -0.956940 0.290285 0.000000
    outer loop
      vertex -22.1731 9.1844 0.0000
      vertex -23.5388 4.6822 0.0000
      vertex -23.5388 4.6822 0.0000
    endloop
  endfacet
  facet normal -0.956940 0.290285 0.000000
    outer loop
      vertex -22.1731 9.1844 0.0000
      vertex -23.5388 4.6822 0.0000
      vertex -22.1731 9.1844 0.0000
    endloop
  endfacet
  facet normal 0.000000 0.000000 1.000000
    outer loop
      vertex 0.0000 0.0000 0.0000
      vertex -22.1731 9.1844 0.0000
      vertex -23.5388 4.6822 0.0000
    endloop
  endfacet
  facet normal 0.000000 0.000000 -1.000000
    outer loop
      vertex 0.0000 0.0000 0.0000
      vertex -23.5388 4.6822 0.0000
      vertex -22.1731 9.1844 0.0000
    endloop
  endfacet
  facet normal -0.995185 0.098017 0.000000
    outer loop
      vertex -23.5388 4.6822 0.0000
      vertex -24.0000 0.0000 0.0000
      vertex -24.0000 0.0000 0.0000
    endloop
  endfacet
  facet normal -0.995185 0.098017 0.000000
    outer loop
      vertex -23.5388 4.6822 0.0000
      vertex -24.0000 0.0000 0.0000
      vertex -23.5388 4.6822 0.0000
    endloop
  endfacet
  facet normal 0.000000 0.000000 1.000000
    outer loop
      vertex 0.0000 0.0000 0.0000
      vertex -23.5388 4.6822 0.0000
      vertex -24.0000 0.0000 0.0000
    endloop
  endfacet
  facet normal 0.000000 0.000000 -1.000000
    outer loop
      vertex 0.0000 0.0000 0.0000
      vertex -24.0000 0.0000 0.0000
      vertex -23.5388 4.6822 0.0000
    endloop
  endfacet
  facet normal -0.995185 -0.098017 0.000000
    outer loop
      vertex -24.0000 0.0000 0.0000
      vertex -23.5388 -4.6822 0.0000
      vertex -23.5388 -4.6822 0.0000
    endloop
  endfacet
  facet normal -0.995185 -0.098017 0.000000
    outer loop
      vertex -24.0000 0.0000 0.0000
      vertex -23.5388 -4.6822 0.0000
      vertex -24.0000 0.0000 0.0000
    endloop
  endfacet
  facet normal 0.000000 0.000000 1.000000
    outer loop
      vertex 0.0000 0.0000 0.0000
      vertex -24.0000 0.0000 0.0000
      vertex -23.5388 -4.6822 0.0000
    endloop
  endfacet
  facet normal 0.000000 0.000000 -1.000000
    outer loop
      vertex 0.0000 0.0000 0.0000
      vertex -23.5388 -4.6822 0.0000
      vertex -24.0000 0.0000 0.0000
    endloop
  endfacet
  facet normal -0.956940 -0.290285 0.000000
    outer loop
      vertex -23.5388 -4.6822 0.0000
      vertex -22.1731 -9.1844 0.0000
      vertex -22.1731 -9.1844 0.0000
    endloop
  endfacet
  facet normal -0.956940 -0.290285 0.000000
    outer loop
      vertex -23.5388 -4.6822 0.0000
      vertex -22.1731 -9.1844 0.0000
      vertex -23.5388 -4.6822 0.0000
    endloop
  endfacet
  facet normal 0.000000 0.000000 1.000000
    outer loop
      vertex 0.0000 0.0000 0.0000
      vertex -23.5388 -4.6822 0.0000
      vertex -22.1731 -9.1844 0.0000
    endloop
  endfacet
  facet normal 0.000000 0.000000 -1.000000
    outer loop
      vertex 0.0000 0.0000 0.0000
      vertex -22.1731 -9.1844 0.0000
      vertex -23.5388 -4.6822 0.0000
    endloop
  endfacet
  facet normal -0.881921 -0.471397 0.000000
    outer loop
      vertex -22.1731 -9.1844 0.0000
      vertex -19.9553 -13.3337 0.0000
      vertex -19.9553 -13.3337 0.0000
    endloop
  endfacet
  facet normal -0.881921 -0.471397 0.000000
    outer loop
      vertex -22.1731 -9.1844 0.0000
      vertex -19.9553 -13.3337 0.0000
      vertex -22.1731 -9.1844 0.0000
    endloop
  endfacet
  facet normal 0.000000 0.000000 1.000000
    outer loop
      vertex 0.0000 0.0000 0.0000
      vertex -22.1731 -9.1844 0.0000
      vertex -19.9553 -13.3337 0.0000
    endloop
  endfacet
  facet normal 0.000000 0.000000 -1.000000
    outer loop
      vertex 0.0000 0.0000 0.0000
      vertex -19.9553 -13.3337 0.0000
      vertex -22.1731 -9.1844 0.0000
    endloop
  endfacet
  facet normal -0.773010 -0.634393 0.000000
    outer loop
      vertex -19.9553 -13.3337 0.0000
      vertex -16.9706 -16.9706 0.0000
      vertex -16.9706 -16.9706 0.0000
    endloop
  endfacet
  facet normal -0.773010 -0.634393 0.000000
    outer loop
      vertex -19.9553 -13.3337 0.0000
      vertex -16.9706 -16.9706 0.0000
      vertex -19.9553 -13.3337 0.0000
    endloop
  endfacet
  facet normal 0.000000 0.000000 1.000000
    outer loop
      vertex 0.0000 0.0000 0.0000
      vertex -19.9553 -13.3337 0.0000
      vertex -16.9706 -16.9706 0.0000
    endloop
  endfacet
  facet normal 0.000000 0.000000 -1.000000
    outer loop
      vertex 0.0000 0.0000 0.0000
      vertex -16.9706 -16.9706 0.0000
      vertex -19.9553 -13.3337 0.0000
    endloop
  endfacet
  facet normal -0.634393 -0.773010 0.000000
    outer loop
      vertex -16.9706 -16.9706 0.0000
      vertex -13.3337 -19.9553 0.0000
      vertex -13.3337 -19.9553 0.0000
    endloop
  endfacet
  facet normal -0.634393 -0.773010 0.000000
    outer loop
      vertex -16.9706 -16.9706 0.0000
      vertex -13.3337 -19.9553 0.0000
      vertex -16.9706 -16.9706 0.0000
    endloop
  endfacet
  facet normal 0.000000 0.000000 1.000000
    outer loop
      vertex 0.0000 0.0000 0.0000
      vertex -16.9706 -16.9706 0.0000
      vertex -13.3337 -19.9553 0.0000
    endloop
  endfacet
  facet normal 0.000000 0.000000 -1.000000
    outer loop
      vertex 0.0000 0.0000 0.0000
      vertex -13.3337 -19.9553 0.0000
      vertex -16.9706 -16.9706 0.0000
    endloop
  endfacet
  facet normal -0.471397 -0.881921 0.000000
    outer loop
      vertex -13.3337 -19.9553 0.0000
      vertex -9.1844 -22.1731 0.0000
      vertex -9.1844 -22.1731 0.0000
    endloop
  endfacet
  facet normal -0.471397 -0.881921 0.000000
    outer loop
      vertex -13.3337 -19.9553 0.0000
      vertex -9.1844 -22.1731 0.0000
      vertex -13.3337 -19.9553 0.0000
    endloop
  endfacet
  facet normal 0.000000 0.000000 1.000000
    outer loop
      vertex 0.0000 0.0000 0.0000
      vertex -13.3337 -19.9553 0.0000
      vertex -9.1844 -22.1731 0.0000
    endloop
  endfacet
  facet normal 0.000000 0.000000 -1.000000
    outer loop
      vertex 0.0000 0.0000 0.0000
      vertex -9.1844 -22.1731 0.0000
      vertex -13.3337 -19.9553 0.0000
    endloop
  endfacet
  facet normal -0.290285 -0.956940 0.000000
    outer loop
      vertex -9.1844 -22.1731 0.0000
      vertex -4.6822 -23.5388 0.0000
      vertex -4.6822 -23.5388 0.0000
    endloop
  endfacet
  facet normal -0.290285 -0.956940 0.000000
    outer loop
      vertex -9.1844 -22.1731 0.0000
      vertex -4.6822 -23.5388 0.0000
      vertex -9.1844 -22.1731 0.0000
    endloop
  endfacet
  facet normal 0.000000 0.000000 1.000000
    outer loop
      vertex 0.0000 0.0000 0.0000
      vertex -9.1844 -22.1731 0.0000
      vertex -4.6822 -23.5388 0.0000
    endloop
  endfacet
  facet normal 0.000000 0.000000 -1.000000
    outer loop
      vertex 0.0000 0.0000 0.0000
      vertex -4.6822 -23.5388 0.0000
      vertex -9.1844 -22.1731 0.0000
    endloop
  endfacet
  facet normal -0.098017 -0.995185 0.000000
    outer loop
      vertex -4.6822 -23.5388 0.0000
      vertex -0.0000 -24.0000 0.0000
      vertex -0.0000 -24.0000 0.0000
    endloop
  endfacet
  facet normal -0.098017 -0.995185 0.000000
    outer loop
      vertex -4.6822 -23.5388 0.0000
      vertex -0.0000 -24.0000 0.0000
      vertex -4.6822 -23.5388 0.0000
    endloop
  endfacet
  facet normal 0.000000 0.000000 1.000000
    outer loop
      vertex 0.0000 0.0000 0.0000
      vertex -4.6822 -23.5388 0.0000
      vertex -0.0000 -24.0000 0.0000
    endloop
  endfacet
  facet normal 0.000000 0.000000 -1.000000
    outer loop
      vertex 0.0000 0.0000 0.0000
      vertex -0.0000 -24.0000 0.0000
      vertex -4.6822 -23.5388 0.0000
    endloop
  endfacet
  facet normal 0.098017 -0.995185 0.000000
    outer loop
      vertex -0.0000 -24.0000 0.0000
      vertex 4.6822 -23.5388 0.0000
      vertex 4.6822 -23.5388 0.0000
    endloop
  endfacet
  facet normal 0.098017 -0.995185 0.000000
    outer loop
      vertex -0.0000 -24.0000 0.0000
      vertex 4.6822 -23.5388 0.0000
      vertex -0.0000 -24.0000 0.0000
    endloop
  endfacet
  facet normal 0.000000 0.000000 1.000000
    outer loop
      vertex 0.0000 0.0000 0.0000
      vertex -0.0000 -24.0000 0.0000
      vertex 4.6822 -23.5388 0.0000
    endloop
  endfacet
  facet normal 0.000000 0.000000 -1.000000
    outer loop
      vertex 0.0000 0.0000 0.0000
      vertex 4.6822 -23.5388 0.0000
      vertex -0.0000 -24.0000 0.0000
    endloop
  endfacet
  facet normal 0.290285 -0.956940 0.000000
    outer loop
      vertex 4.6822 -23.5388 0.0000
      vertex 9.1844 -22.1731 0.0000
      vertex 9.1844 -22.1731 0.0000
    endloop
  endfacet
  facet normal 0.290285 -0.956940 0.000000
    outer loop
      vertex 4.6822 -23.5388 0.0000
      vertex 9.1844 -22.1731 0.0000
      vertex 4.6822 -23.5388 0.0000
    endloop
  endfacet
  facet normal 0.000000 0.000000 1.000000
    outer loop
      vertex 0.0000 0.0000 0.0000
      vertex 4.6822 -23.5388 0.0000
      vertex 9.1844 -22.1731 0.0000
    endloop
  endfacet
  facet normal 0.000000 0.000000 -1.000000
    outer loop
      vertex 0.0000 0.0000 0.0000
      vertex 9.1844 -22.1731 0.0000
      vertex 4.6822 -23.5388 0.0000
    endloop
  endfacet
  facet normal 0.471397 -0.881921 0.000000
    outer loop
      vertex 9.1844 -22.1731 0.0000
      vertex 13.3337 -19.9553 0.0000
      vertex 13.3337 -19.9553 0.0000
    endloop
  endfacet
  facet normal 0.471397 -0.881921 0.000000
    outer loop
      vertex 9.1844 -22.1731 0.0000
      vertex 13.3337 -19.9553 0.0000
      vertex 9.1844 -22.1731 0.0000
    endloop
  endfacet
  facet normal 0.000000 0.000000 1.000000
    outer loop
      vertex 0.0000 0.0000 0.0000
      vertex 9.1844 -22.1731 0.0000
      vertex 13.3337 -19.9553 0.0000
    endloop
  endfacet
  facet normal 0.000000 0.000000 -1.000000
    outer loop
      vertex 0.0000 0.0000 0.0000
      vertex 13.3337 -19.9553 0.0000
      vertex 9.1844 -22.1731 0.0000
    endloop
  endfacet
  facet normal 0.634393 -0.773010 0.000000
    outer loop
      vertex 13.3337 -19.9553 0.0000
      vertex 16.9706 -16.9706 0.0000
      vertex 16.9706 -16.9706 0.0000
    endloop
  endfacet
  facet normal 0.634393 -0.773010 0.000000
    outer loop
      vertex 13.3337 -19.9553 0.0000
      vertex 16.9706 -16.9706 0.0000
      vertex 13.3337 -19.9553 0.0000
    endloop
  endfacet
  facet normal 0.000000 0.000000 1.000000
    outer loop
      vertex 0.0000 0.0000 0.0000
      vertex 13.3337 -19.9553 0.0000
      vertex 16.9706 -16.9706 0.0000
    endloop
  endfacet
  facet normal 0.000000 0.000000 -1.000000
    outer loop
      vertex 0.0000 0.0000 0.0000
      vertex 16.9706 -16.9706 0.0000
      vertex 13.3337 -19.9553 0.0000
    endloop
  endfacet
  facet normal 0.773010 -0.634393 0.000000
    outer loop
      vertex 16.9706 -16.9706 0.0000
      vertex 19.9553 -13.3337 0.0000
      vertex 19.9553 -13.3337 0.0000
    endloop
  endfacet
  facet normal 0.773010 -0.634393 0.000000
    outer loop
      vertex 16.9706 -16.9706 0.0000
      vertex 19.9553 -13.3337 0.0000
      vertex 16.9706 -16.9706 0.0000
    endloop
  endfacet
  facet normal 0.000000 0.000000 1.000000
    outer loop
      vertex 0.0000 0.0000 0.0000
      vertex 16.9706 -16.9706 0.0000
      vertex 19.9553 -13.3337 0.0000
    endloop
  endfacet
  facet normal 0.000000 0.000000 -1.000000
    outer loop
      vertex 0.0000 0.0000 0.0000
      vertex 19.9553 -13.3337 0.0000
      vertex 16.9706 -16.9706 0.0000
    endloop
  endfacet
  facet normal 0.881921 -0.471397 0.000000
    outer loop
      vertex 19.9553 -13.3337 0.0000
      vertex 22.1731 -9.1844 0.0000
      vertex 22.1731 -9.1844 0.0000
    endloop
  endfacet
  facet normal 0.881921 -0.471397 0.000000
    outer loop
      vertex 19.9553 -13.3337 0.0000
      vertex 22.1731 -9.1844 0.0000
      vertex 19.9553 -13.3337 0.0000
    endloop
  endfacet
  facet normal 0.000000 0.000000 1.000000
    outer loop
      vertex 0.0000 0.0000 0.0000
      vertex 19.9553 -13.3337 0.0000
      vertex 22.1731 -9.1844 0.0000
    endloop
  endfacet
  facet normal 0.000000 0.000000 -1.000000
    outer loop
      vertex 0.0000 0.0000 0.0000
      vertex 22.1731 -9.1844 0.0000
      vertex 19.9553 -13.3337 0.0000
    endloop
  endfacet
  facet normal 0.956940 -0.290285 0.000000
    outer loop
      vertex 22.1731 -9.1844 0.0000
      vertex 23.5388 -4.6822 0.0000
      vertex 23.5388 -4.6822 0.0000
    endloop
  endfacet
  facet normal 0.956940 -0.290285 0.000000
    outer loop
      vertex 22.1731 -9.1844 0.0000
      vertex 23.5388 -4.6822 0.0000
      vertex 22.1731 -9.1844 0.0000
    endloop
  endfacet
  facet normal 0.000000 0.000000 1.000000
    outer loop
      vertex 0.0000 0.0000 0.0000
      vertex 22.1731 -9.1844 0.0000
      vertex 23.5388 -4.6822 0.0000
    endloop
  endfacet
  facet normal 0.000000 0.000000 -1.000000
    outer loop
      vertex 0.0000 0.0000 0.0000
      vertex 23.5388 -4.6822 0.0000
      vertex 22.1731 -9.1844 0.0000
    endloop
  endfacet
  facet normal 0.995185 -0.098017 0.000000
    outer loop
      vertex 23.5388 -4.6822 0.0000
      vertex 24.0000 -0.0000 0.0000
      vertex 24.0000 -0.0000 0.0000
    endloop
  endfacet
  facet normal 0.995185 -0.098017 0.000000
    outer loop
      vertex 23.5388 -4.6822 0.0000
      vertex 24.0000 -0.0000 0.0000
      vertex 23.5388 -4.6822 0.0000
    endloop
  endfacet
  facet normal 0.000000 0.000000 1.000000
    outer loop
      vertex 0.0000 0.0000 0.0000
      vertex 23.5388 -4.6822 0.0000
      vertex 24.0000 -0.0000 0.0000
    endloop
  endfacet
  facet normal 0.000000 0.000000 -1.000000
    outer loop
      vertex 0.0000 0.0000 0.0000
      vertex 24.0000 -0.0000 0.0000
      vertex 23.5388 -4.6822 0.0000
    endloop
  endfacet
endsolid adapter
